<svg width="72" height="69" viewBox="0 0 72 69" fill="none" xmlns="http://www.w3.org/2000/svg">
<path fill-rule="evenodd" clip-rule="evenodd" d="M35.8676 1.22168C36.0993 1.22168 36.4264 1.27621 36.5764 1.35802C36.7263 1.43982 36.9308 1.63069 37.0125 1.80792C37.1489 2.02606 37.2034 3.51212 37.3261 12.5512L49.6619 17.8683C56.4501 20.7859 62.1205 23.2945 62.2704 23.4444C62.543 23.7171 62.543 23.9489 62.6793 54.2837L66.3596 55.9197C68.9359 57.0513 70.149 57.6648 70.408 57.9375C70.6261 58.1692 70.7896 58.4964 70.7896 58.6873C70.7896 58.8782 70.7079 59.1918 70.6124 59.3826C70.5307 59.5871 70.2853 59.8325 70.0672 59.928C69.8628 60.037 69.5629 60.1188 69.3857 60.1188C69.2221 60.1188 67.3547 59.3554 65.2283 58.4146C63.1155 57.4739 61.3026 56.7104 61.2072 56.7104C61.1254 56.7104 60.0077 57.1603 58.7264 57.7057C57.4451 58.2647 51.8974 60.6505 46.3905 63.0228C39.5888 65.954 36.222 67.331 35.8948 67.331C35.5677 67.331 32.2009 65.954 25.3991 63.0228C19.8923 60.6505 14.3309 58.2647 13.0632 57.7057C11.782 57.1603 10.6642 56.7104 10.5688 56.7104C10.487 56.7104 8.67413 57.4739 6.54773 58.4146C4.43496 59.3554 2.56754 60.1188 2.39034 60.1188C2.22677 60.1188 1.92689 60.037 1.7088 59.928C1.50434 59.8325 1.25899 59.5871 1.16357 59.3826C1.08178 59.1918 1 58.8782 1 58.6873C1 58.4964 1.16357 58.1692 1.36803 57.9375C1.64065 57.6648 2.85379 57.0513 9.11032 54.2837L9.17847 39.0004C9.24663 23.9489 9.24663 23.7171 9.51924 23.4444C9.66918 23.2945 15.3396 20.7859 34.4636 12.5512L34.5317 7.32953C34.5863 3.18492 34.6408 2.0397 34.7907 1.80792C34.8998 1.64432 35.077 1.43982 35.1997 1.37165C35.3223 1.28985 35.6222 1.22168 35.8539 1.22168L35.8676 1.22168ZM23.8452 20.1042C18.6791 22.3265 14.3445 24.1943 14.2355 24.2488C14.0992 24.3306 14.917 24.7396 16.7572 25.5168C18.2566 26.1575 23.0682 28.2298 27.4574 30.1249C31.8465 32.02 35.5541 33.6015 35.704 33.6287C35.8676 33.6697 36.9171 33.3015 38.2257 32.7426C39.4661 32.2245 44.2778 30.1522 48.9259 28.148C53.574 26.1575 57.4724 24.467 57.5814 24.4124C57.7177 24.3443 56.5455 23.7717 54.0374 22.6946C51.9792 21.8221 47.4401 19.8724 43.9506 18.3728C40.4611 16.8731 37.5305 15.6188 37.4351 15.5915C37.3124 15.5506 37.2715 15.9596 37.2715 17.3093C37.2715 18.6182 37.217 19.1908 37.0671 19.4907C36.958 19.7225 36.7399 19.9679 36.59 20.036C36.4401 20.1179 36.1265 20.1724 35.9085 20.1724C35.6767 20.1724 35.3769 20.1179 35.2269 20.036C35.077 19.9679 34.8589 19.7225 34.7498 19.4907C34.5999 19.1908 34.5454 18.6182 34.5454 17.3093C34.5454 16.3413 34.5045 15.537 34.4363 15.5506C34.3818 15.5506 34.0956 15.6733 33.7957 15.8096C33.4958 15.9323 29.0113 17.8683 23.8452 20.1042ZM11.9183 53.0294C12.5998 52.7431 13.8402 52.1841 15.1215 51.6251C16.4301 51.0389 17.6296 50.5753 17.8749 50.5753C18.2021 50.5753 18.4474 50.698 18.7337 50.9843C19.0335 51.2843 19.1426 51.516 19.1426 51.9114C19.1562 52.2659 19.0608 52.5113 18.8291 52.7567C18.6519 52.9476 17.9294 53.3566 17.2206 53.6701C16.5118 53.9837 15.5032 54.4336 14.9852 54.6654C14.2764 54.979 14.0856 55.1289 14.2355 55.2107C14.3445 55.2653 18.8836 57.2421 24.3223 59.5735C29.761 61.9185 34.2864 63.8544 34.3682 63.8817C34.5045 63.9226 34.5317 61.1005 34.5045 50.0163L34.4772 36.1101C26.9803 32.8789 21.9778 30.7248 18.5292 29.2524C15.0806 27.7663 12.1909 26.512 12.1091 26.4847C12 26.4302 11.9592 30.1522 11.9455 39.723L11.9183 53.0294ZM48.108 31.4746L37.3397 36.1101C37.2715 61.1005 37.2988 63.9226 37.4351 63.8817C37.5305 63.8544 42.0559 61.9185 47.4946 59.5735C52.9197 57.2421 57.4587 55.2653 57.5814 55.2107C57.7313 55.1289 57.5269 54.979 56.8317 54.6654C56.3001 54.4336 55.2914 53.9837 54.5963 53.6701C53.8875 53.3566 53.165 52.9476 52.9878 52.7567C52.7561 52.5113 52.6607 52.2659 52.6607 51.8978C52.6607 51.5297 52.7697 51.2843 53.0696 50.9843C53.3559 50.6844 53.5876 50.5753 53.9147 50.5753C54.1873 50.5753 55.346 51.0116 56.6954 51.6251C57.9631 52.1841 59.2035 52.7431 59.4488 52.8385L59.8986 53.0294C59.8986 32.429 59.8441 26.4438 59.7896 26.4575C59.7351 26.4575 59.5033 26.5529 59.2853 26.6483C59.0535 26.7574 54.0238 28.9252 48.108 31.4746V31.4746ZM35.8948 23.0354C36.3037 23.0354 36.5355 23.1309 36.7945 23.3763C36.9717 23.5672 37.1625 23.8807 37.217 24.0852C37.2579 24.3034 37.2034 24.6442 37.108 24.8623C37.0125 25.0805 36.8081 25.3395 36.6581 25.4486C36.5082 25.544 36.1674 25.6258 35.9085 25.6258C35.6358 25.6258 35.3087 25.544 35.1588 25.4486C35.0088 25.3395 34.7907 25.0805 34.6953 24.8623C34.5999 24.6442 34.5454 24.3034 34.5999 24.0852C34.6408 23.8807 34.8316 23.5672 35.0088 23.3763C35.2542 23.1172 35.4859 23.0354 35.8948 23.0354ZM22.8093 48.3939C23.2182 48.3939 23.4499 48.4894 23.7089 48.7348C23.8861 48.9257 24.0769 49.2392 24.1314 49.4437C24.1723 49.6619 24.1178 50.0027 24.0224 50.2208C23.927 50.439 23.7225 50.698 23.5726 50.8071C23.4226 50.9025 23.0819 50.9843 22.8229 50.9843C22.5503 50.9843 22.2231 50.9025 22.0732 50.8071C21.9233 50.698 21.7052 50.439 21.6098 50.2208C21.5143 50.0027 21.4598 49.6619 21.5143 49.4437C21.5552 49.2392 21.7461 48.9257 21.9233 48.7348C22.1686 48.4757 22.4003 48.3939 22.8093 48.3939V48.3939ZM48.9804 48.3939C49.3893 48.3939 49.621 48.4894 49.88 48.7348C50.0572 48.9257 50.248 49.2392 50.3026 49.4437C50.3435 49.6619 50.2889 50.0027 50.1935 50.2208C50.0981 50.439 49.8936 50.698 49.7437 50.8071C49.5938 50.9025 49.253 50.9843 48.994 50.9843C48.7214 50.9843 48.3943 50.9025 48.2443 50.8071C48.0944 50.698 47.8763 50.439 47.7809 50.2208C47.6855 50.0027 47.6309 49.6619 47.6855 49.4437C47.7263 49.2392 47.9172 48.9257 48.0944 48.7348C48.3397 48.4757 48.5715 48.3939 48.9804 48.3939V48.3939Z" fill="#FAB100" stroke="#FAB100" stroke-width="2"/>
</svg>
