<svg width="58" height="66" viewBox="0 0 58 66" fill="none" xmlns="http://www.w3.org/2000/svg">
<path fill-rule="evenodd" clip-rule="evenodd" d="M28.7058 0.000143951C28.7441 -0.0126903 30.586 0.834371 32.7988 1.86111C35.0115 2.88785 38.0941 4.32529 39.6417 5.04401C41.1894 5.76273 45.7557 7.88038 57.101 13.1424V49.2709L53.1614 51.5425C50.9998 52.7875 48.365 54.3147 47.3161 54.9179C46.2673 55.534 41.6371 58.2035 28.7058 65.6987L19.586 60.4238C14.5849 57.5105 8.18958 53.8142 0.310547 49.2709V29.2494H4.14774L4.16053 38.2976L9.83957 41.5575L10.5558 41.1468C10.9524 40.9158 14.764 38.7211 26.7744 31.7521L26.7872 18.3788C26.7872 7.72637 26.7488 5.0055 26.6209 5.04401C26.5441 5.06968 25.5209 5.48037 24.3569 5.94241C23.193 6.41727 22.2465 6.78947 22.2337 6.7638C22.2337 6.73813 21.9139 5.95524 21.5302 5.01834C21.1465 4.08144 20.8907 3.27288 20.9546 3.22154C21.0058 3.17021 22.7709 2.42582 24.8558 1.56592C26.9406 0.706028 28.6674 0.000143951 28.7058 0.000143951V0.000143951ZM30.6371 31.7521L35.165 34.3575L35.2929 19.1617L48.1475 25.72C48.1475 37.7072 48.1987 41.1724 48.2626 41.1596C48.3138 41.1339 49.465 40.4922 50.808 39.7093L53.2638 38.2976L53.1998 15.5938C35.9453 7.58519 30.8674 5.22369 30.7778 5.18518C30.6371 5.14668 30.6116 7.58519 30.6243 18.443L30.6371 31.7521ZM39.0662 36.6291C42.8778 38.8109 44.0545 39.4655 44.1441 39.4783C44.2847 39.504 44.3103 38.4516 44.2847 33.7927L44.2464 28.0815L39.0406 25.412L39.0662 36.6291ZM20.0593 40.0944C16.6826 42.0452 13.8814 43.688 13.8302 43.7393C13.7791 43.7778 17.0919 45.7671 21.2104 48.1543L28.693 52.4794C40.3069 45.7671 43.6708 43.7778 43.6708 43.7265C43.658 43.6751 43.5557 43.5981 43.4406 43.5596C43.3127 43.5211 39.9743 41.6088 36.022 39.3243C32.0569 37.027 28.7569 35.166 28.6674 35.166C28.5778 35.166 27.9895 35.474 27.3499 35.8462C26.7232 36.2184 23.436 38.1307 20.0593 40.0944V40.0944ZM4.13495 47.0249C8.15121 49.3479 13.2163 52.2741 17.9872 55.0334C22.7453 57.8056 26.672 60.0516 26.7104 60.0516C26.7488 60.0516 26.7744 59.1019 26.7744 57.934V55.8163C25.9302 55.3671 22.6686 53.4805 18.9721 51.3372C15.2756 49.1939 10.5558 46.4602 8.48376 45.2537C6.41168 44.0602 4.59541 42.9949 4.45471 42.8922C4.18611 42.6997 4.18611 42.7126 4.16053 44.8687L4.13495 47.0249ZM40.051 50.3618L30.6116 55.8163C30.6116 59.5639 30.6499 60.0388 30.7778 60.0003C30.8674 59.9746 32.722 58.9222 34.8964 57.6516C37.0836 56.381 42.0975 53.4805 46.0626 51.1832L53.251 47.0249C53.251 43.688 53.2382 42.7254 53.2254 42.7382C53.1998 42.7382 52.3556 43.2388 51.3324 43.8291C50.3091 44.4323 45.2313 47.3714 40.051 50.3618V50.3618ZM16.9895 5.12101C17.0663 5.12101 17.4372 5.89107 17.8209 6.8408C18.2046 7.80337 18.4988 8.5991 18.4605 8.6376C18.4221 8.66327 17.1174 9.21514 12.7047 11.0248L12.0396 9.33065C11.6686 8.39375 11.3617 7.58519 11.3617 7.52102C11.3617 7.45685 12.6023 6.89214 14.1116 6.26326C15.6209 5.64722 16.9256 5.13385 16.9895 5.12101V5.12101ZM7.11516 9.22798C7.17912 9.22798 7.52446 10.0109 7.8826 10.9606C8.25353 11.9103 8.52213 12.7189 8.48376 12.7446C8.44539 12.7831 7.15354 13.3349 5.60587 13.9638C4.0582 14.6055 2.75356 15.0804 2.71519 15.0291C2.67681 14.9777 2.34426 14.182 1.98612 13.2708C1.62798 12.3467 1.34659 11.5895 1.35938 11.5766C1.37217 11.5638 2.65123 11.0248 4.1989 10.3959C5.74657 9.75418 7.064 9.22798 7.11516 9.22798ZM0.425663 18.597H4.26285V24.8858H0.425663V18.597Z" fill="#FAB100"/>
</svg>
