<svg width="67" height="67" viewBox="0 0 67 67" fill="none" xmlns="http://www.w3.org/2000/svg">
<path fill-rule="evenodd" clip-rule="evenodd" d="M16.9535 1.42812C17.723 1.45465 18.174 1.54752 18.5853 1.74652C18.8904 1.90572 19.3813 2.26392 19.6864 2.52926C19.9783 2.80786 20.3896 3.36506 20.5753 3.76306C20.8672 4.36007 20.9335 4.71827 20.9998 6.94708H40.7009L40.7938 5.72654C40.8602 4.73154 40.9663 4.33353 41.2847 3.65693C41.5633 3.09973 41.9082 2.67519 42.3195 2.33026C42.6777 2.05165 43.288 1.71999 43.686 1.58732C44.2299 1.40158 44.6544 1.34852 45.3443 1.40158C45.9811 1.44138 46.4852 1.57405 46.9363 1.81285C47.2945 1.99859 47.8119 2.38332 48.0773 2.66192C48.3426 2.94053 48.7008 3.4314 48.8733 3.76306C49.1121 4.2274 49.1917 4.63867 49.2845 6.88075L52.0307 6.96035C54.0473 7.02668 54.9494 7.10628 55.4934 7.27875C55.8914 7.39815 56.568 7.69002 57.0058 7.91555C57.4303 8.15435 58.1202 8.67176 58.5315 9.08303C58.9427 9.4943 59.4601 10.1842 59.6989 10.6087C59.9245 11.0465 60.2163 11.7231 60.349 12.1211C60.5745 12.7977 60.6011 13.6866 60.6807 38.8536L61.8349 40.0476C62.4717 40.6977 63.2677 41.6529 63.6126 42.1703C63.9443 42.6877 64.4219 43.5102 64.6872 44.0276C64.9393 44.545 65.3373 45.5533 65.5628 46.283C65.7884 47.0126 66.0272 47.9944 66.1068 48.472C66.1731 48.9496 66.2394 50.0242 66.2394 50.86C66.2394 51.6958 66.1466 52.8898 66.0404 53.5133C65.921 54.1369 65.669 55.1186 65.4832 55.7024C65.2975 56.2861 64.873 57.3076 64.528 57.9577C64.1963 58.6078 63.5861 59.6028 63.1748 60.1467C62.7635 60.6906 61.9675 61.5928 61.3838 62.1367C60.8133 62.6807 59.9245 63.4103 59.4071 63.742C58.8897 64.0869 58.0671 64.5645 57.5497 64.8166C57.0323 65.0819 56.1434 65.4401 55.5597 65.6259C54.976 65.8116 53.9942 66.0637 53.3707 66.1831C52.7471 66.2892 51.5531 66.3821 50.7173 66.3821C49.8815 66.3821 48.6875 66.3025 48.064 66.1831C47.4405 66.0769 46.4322 65.8249 45.8086 65.6126C45.1851 65.4003 44.2962 65.0289 43.8186 64.7901C43.341 64.5513 42.545 64.0869 42.0276 63.7553C41.5102 63.4103 40.555 62.6143 38.7109 60.8233L7.00343 60.7437L6.14109 60.4518C5.66349 60.2926 4.92055 59.9344 4.48275 59.6426C4.04495 59.364 3.39488 58.8068 3.03667 58.4088C2.69174 58.0108 2.2274 57.3474 2.01513 56.9229C1.80287 56.5116 1.53753 55.8218 1.4314 55.3972C1.24566 54.7339 1.21913 52.2132 1.2324 33.8786C1.2324 15.9419 1.25893 13.01 1.4314 12.3466C1.53753 11.9354 1.80287 11.2455 2.01513 10.821C2.2274 10.4097 2.69174 9.74636 3.03667 9.34836C3.39488 8.95036 4.04495 8.39316 4.48275 8.11455C4.92055 7.82269 5.66349 7.47775 6.14109 7.31855C6.87076 7.09302 7.42797 7.03995 12.5091 6.94708V5.97861C12.5091 5.46121 12.5887 4.71827 12.6949 4.36007C12.801 3.9886 13.0929 3.4314 13.3317 3.09973C13.5837 2.76806 14.0746 2.30372 14.4328 2.06492C14.8043 1.82612 15.2686 1.57405 15.4941 1.50772C15.7197 1.44138 16.3697 1.40158 16.9535 1.42812V1.42812ZM15.4543 5.08974C15.3482 5.40814 15.2951 6.42968 15.2951 8.43296C15.2951 10.7016 15.3349 11.4312 15.4941 11.7894C15.6003 12.0548 15.8656 12.3466 16.0911 12.4528C16.3167 12.5589 16.6085 12.6518 16.7545 12.6518C16.9004 12.6518 17.1923 12.5589 17.4178 12.4528C17.6434 12.3466 17.9087 12.0548 18.0148 11.7894C18.174 11.418 18.2138 10.7016 18.2138 8.40642C18.2138 6.11128 18.174 5.39487 18.0148 5.0234C17.9087 4.75807 17.6434 4.4662 17.4178 4.36007C17.1923 4.25393 16.8872 4.16107 16.7147 4.16107C16.5555 4.16107 16.2503 4.2672 16.0248 4.39987C15.7993 4.53253 15.5472 4.85094 15.4543 5.08974ZM43.8186 4.91727C43.739 5.103 43.686 6.50928 43.686 8.40642C43.686 10.6883 43.739 11.6833 43.8452 11.9221C43.938 12.1078 44.2034 12.3599 44.4156 12.466C44.681 12.612 44.9728 12.665 45.278 12.612C45.53 12.5589 45.8882 12.3732 46.074 12.1742L46.4056 11.8292L46.472 5.08974C45.8484 4.39987 45.5831 4.25393 45.2116 4.21413C44.8402 4.17433 44.5748 4.2274 44.3228 4.3866C44.1238 4.51927 43.8982 4.75807 43.8186 4.91727V4.91727ZM5.94209 10.5556C5.58389 10.7944 5.09302 11.2588 4.84095 11.5904C4.60215 11.9221 4.31028 12.4793 4.20415 12.8508C4.07148 13.3151 4.01841 14.2305 4.01841 15.9287V18.3565H57.7487C57.6824 12.9038 57.6691 12.8375 57.3242 12.1874C57.1384 11.816 56.7404 11.3118 56.4618 11.0465C56.1832 10.7812 55.6924 10.423 55.3607 10.2505C54.8035 9.94537 54.6045 9.9321 52.044 9.8923L49.3243 9.8525C49.1917 12.2007 49.1121 12.5854 48.8335 13.1161C48.6345 13.4743 48.2497 13.9917 47.9711 14.2571C47.6925 14.5224 47.2017 14.8806 46.87 15.0531C46.4852 15.2388 45.9413 15.3715 45.3443 15.4113C44.6544 15.4643 44.2299 15.4113 43.686 15.2255C43.288 15.0929 42.6777 14.7612 42.3195 14.4826C41.9082 14.1377 41.5633 13.7131 41.2847 13.1426C40.9663 12.4793 40.8602 12.0813 40.7938 11.0863L40.7009 9.86576H20.9998C20.9335 12.0946 20.8672 12.4528 20.5753 13.0498C20.3896 13.4478 19.9783 14.005 19.6864 14.2703C19.3813 14.5489 18.8904 14.9071 18.572 15.0663C18.1077 15.3184 17.8026 15.3715 16.7545 15.3715C15.7064 15.3715 15.4013 15.3184 14.9237 15.0663C14.6185 14.9071 14.1277 14.5489 13.8225 14.2703C13.5307 14.005 13.1194 13.4478 12.9337 13.0498C12.6418 12.4528 12.5755 12.0946 12.5489 11.0863L12.5091 9.86576C8.55564 9.87903 7.2157 9.94537 7.00343 9.99843C6.77789 10.0648 6.31356 10.3168 5.94209 10.5556V10.5556ZM4.08475 54.7737C4.62868 55.9014 5.03995 56.4586 5.33182 56.7372C5.63695 57.0025 6.12782 57.3607 6.43296 57.5332L7.00343 57.825C30.0876 57.8781 36.7873 57.8648 36.7873 57.825C36.7873 57.7852 36.6944 57.5597 36.5617 57.3342C36.4423 57.0954 36.177 56.3922 35.9647 55.7687C35.7525 55.1452 35.5004 54.1369 35.3943 53.5133C35.2749 52.8898 35.1953 51.6958 35.1953 50.86C35.1953 50.0242 35.2749 48.8302 35.3943 48.2066C35.5004 47.5831 35.7525 46.5748 35.9647 45.9513C36.177 45.3278 36.6281 44.2797 36.9597 43.6296C37.3047 42.9796 37.8751 42.0509 38.2333 41.5733C38.5915 41.0957 39.3743 40.2333 39.9845 39.6496C40.5948 39.0526 41.4572 38.3362 41.895 38.0311C42.3328 37.7392 43.142 37.2749 43.686 36.9963C44.2299 36.7176 45.1851 36.3196 45.8086 36.1074C46.4322 35.8951 47.4405 35.643 48.064 35.5369C48.6875 35.4175 49.8815 35.3379 50.7173 35.3379C51.5531 35.3379 52.7471 35.4175 53.3707 35.5369C53.9942 35.643 55.0025 35.8951 55.626 36.1074C56.2496 36.3196 56.9527 36.585 57.1782 36.7044C57.417 36.837 57.6426 36.9299 57.6824 36.9299C57.7222 36.9299 57.7487 33.3744 57.7487 29.0362V21.1425H4.01841L4.08475 54.7737ZM46.87 38.7209C46.4587 38.8536 45.8086 39.1057 45.4106 39.2914C44.9994 39.4639 44.2034 39.9282 43.6196 40.3129C43.0359 40.6977 42.1072 41.4804 41.55 42.0509C41.0061 42.6346 40.2764 43.55 39.9447 44.094C39.5998 44.6379 39.1355 45.54 38.9232 46.084C38.6977 46.6279 38.4191 47.4902 38.2864 48.0076C38.1139 48.6842 38.0609 49.467 38.0609 50.86C38.0609 52.253 38.1139 53.0357 38.2864 53.7123C38.4191 54.2297 38.6977 55.0921 38.9232 55.636C39.1355 56.18 39.5998 57.0821 39.9447 57.626C40.2764 58.17 41.0061 59.0854 41.55 59.6691C42.1072 60.2396 43.0359 61.0223 43.6196 61.4071C44.2034 61.8051 45.1188 62.3092 45.676 62.5347C46.2199 62.7735 47.1088 63.0787 47.666 63.2246C48.2099 63.3573 49.3111 63.5165 50.1203 63.5563C51.1551 63.6093 51.9246 63.5695 52.8002 63.4103C53.4768 63.2909 54.5249 63.0256 55.1219 62.8001C55.7322 62.5878 56.7006 62.1102 57.2844 61.752C57.8681 61.3938 58.8366 60.6376 59.4469 60.0671C60.0704 59.4834 60.8797 58.5414 61.2644 57.9577C61.6491 57.374 62.1665 56.4453 62.3921 55.9014C62.6309 55.3574 62.936 54.4553 63.0952 53.9113C63.3075 53.1021 63.3605 52.5183 63.3605 50.86C63.3605 49.2017 63.3075 48.6179 63.0952 47.8086C62.936 47.2647 62.6309 46.3626 62.3921 45.8186C62.1665 45.2747 61.6491 44.346 61.2644 43.7623C60.8797 43.1786 60.0969 42.2499 59.5132 41.7059C58.9427 41.1487 57.961 40.3925 57.3507 40.0078C56.7272 39.6231 55.7322 39.1322 55.1219 38.9199C54.5249 38.6944 53.5034 38.4291 52.8666 38.3229C52.2297 38.2168 51.1949 38.1239 50.5847 38.1372C49.9611 38.1372 49.0325 38.2168 48.5283 38.3097C48.0109 38.4025 47.268 38.5883 46.87 38.7209V38.7209ZM14.1675 23.9683C15.5074 23.9948 15.985 24.0612 16.3565 24.2469C16.6085 24.3796 16.98 24.6449 17.1923 24.8439C17.4046 25.0296 17.6964 25.4277 17.8424 25.7195C18.0679 26.1441 18.1342 26.5686 18.1873 27.7759C18.2138 28.6382 18.174 29.5934 18.0944 29.9649C18.0148 30.3363 17.776 30.867 17.577 31.1589C17.3515 31.4906 16.927 31.8222 16.4759 32.061C15.7993 32.406 15.6666 32.4192 13.9287 32.4192C12.5887 32.4192 11.9785 32.3662 11.607 32.207C11.3417 32.1008 10.9171 31.8222 10.665 31.5834C10.413 31.3446 10.1078 30.9201 9.97518 30.6282C9.76291 30.1904 9.72311 29.7659 9.72311 28.2402C9.70984 26.4757 9.73638 26.3431 10.0813 25.6665C10.2803 25.2685 10.6252 24.8041 10.8508 24.6316C11.0631 24.4724 11.5141 24.2336 11.8458 24.1275C12.2836 23.9816 12.8939 23.9418 14.1675 23.9683V23.9683ZM12.5357 28.3861L12.5755 29.5669H15.2288L15.2686 26.8472C12.9735 26.8472 12.6153 26.887 12.5622 27.0197C12.5357 27.1258 12.5224 27.7361 12.5357 28.3861V28.3861ZM25.5105 23.9816C26.8637 24.0081 27.2617 24.0612 27.6995 24.2867C27.9914 24.4326 28.4557 24.8174 28.7211 25.1358C28.9997 25.4542 29.2783 25.9583 29.3579 26.2502C29.4508 26.5553 29.4906 27.4973 29.464 28.5055C29.4242 29.9251 29.3579 30.3231 29.1324 30.7609C28.9864 31.0527 28.6547 31.464 28.4159 31.6763C28.1639 31.8886 27.7659 32.1406 27.5271 32.2468C27.2352 32.3662 26.4923 32.4192 25.2452 32.4192C23.9849 32.4192 23.2419 32.3662 22.9501 32.2468C22.7112 32.1406 22.3132 31.8886 22.0612 31.6763C21.8224 31.464 21.4774 30.9997 21.305 30.6282C21.0396 30.0445 20.9998 29.7659 20.9998 28.3065C20.9998 27.3646 21.0662 26.4227 21.159 26.1308C21.2519 25.8522 21.5305 25.3746 21.7958 25.0827C22.0479 24.7908 22.4326 24.4592 22.6582 24.353C22.8705 24.2469 23.2287 24.101 23.4542 24.0479C23.6665 23.9816 24.5951 23.955 25.5105 23.9816V23.9816ZM23.8124 28.3861L23.8522 29.5669H26.6382V26.9135C24.2237 26.8472 23.9053 26.8737 23.8522 27.0197C23.8124 27.1125 23.7991 27.7361 23.8124 28.3861V28.3861ZM36.5219 23.9418C37.4373 23.9285 38.1405 23.9948 38.5783 24.1275C38.9365 24.2336 39.4141 24.4724 39.6396 24.6316C39.8519 24.8041 40.1968 25.2685 40.3958 25.6665C40.754 26.3431 40.7673 26.4757 40.7673 28.2402C40.754 29.7659 40.7142 30.1904 40.5152 30.6282C40.3693 30.9201 40.0641 31.3446 39.8121 31.5834C39.5733 31.8222 39.1487 32.1008 38.8701 32.207C38.5119 32.3662 37.8884 32.4192 36.5485 32.4192C34.8238 32.4192 34.6911 32.406 34.0012 32.061C33.5502 31.8222 33.1389 31.4906 32.9001 31.1589C32.7011 30.867 32.4623 30.3363 32.3827 29.9649C32.3031 29.5934 32.2633 28.6382 32.3031 27.7759C32.3429 26.6615 32.4225 26.1308 32.595 25.7859C32.7276 25.5338 32.993 25.1491 33.1787 24.95C33.3777 24.7378 33.7094 24.4724 33.9349 24.353C34.1472 24.2469 34.5054 24.101 34.7309 24.0479C34.9432 23.9948 35.7525 23.955 36.5219 23.9418V23.9418ZM35.2616 29.5669H37.9149V26.9135L35.1953 26.8339L35.2616 29.5669ZM48.1303 23.9683C49.4703 24.0081 49.9479 24.0612 50.3193 24.2469C50.5714 24.3796 50.9429 24.6449 51.1551 24.8439C51.3674 25.0296 51.6593 25.4277 51.8052 25.7195C52.0307 26.1441 52.0971 26.5686 52.1501 27.7759C52.1767 28.6382 52.1369 29.5934 52.0573 29.9649C51.9777 30.3363 51.7389 30.867 51.5399 31.1589C51.3143 31.4906 50.8898 31.8355 50.4387 32.061C49.7621 32.406 49.6295 32.4325 47.8915 32.4192C46.5516 32.4192 45.9413 32.3662 45.5698 32.2202C45.3045 32.1008 44.88 31.8222 44.6279 31.5834C44.3758 31.3579 44.0707 30.9201 43.938 30.6282C43.7258 30.1904 43.686 29.7659 43.686 28.2402C43.6727 26.4757 43.6992 26.3563 44.0442 25.6665C44.2432 25.2685 44.5881 24.8041 44.8136 24.6449C45.0259 24.4724 45.477 24.2469 45.8086 24.1408C46.2464 23.9816 46.8567 23.9418 48.1303 23.9683V23.9683ZM46.4985 28.3861L46.5383 29.5669H49.1917L49.2315 26.8472C46.9363 26.8472 46.5781 26.9003 46.5251 27.0329C46.4985 27.1258 46.4852 27.7361 46.4985 28.3861V28.3861ZM13.9021 35.3512C15.5605 35.3512 15.8258 35.3777 16.4228 35.643C16.781 35.8155 17.2454 36.1604 17.4444 36.4125C17.6434 36.6646 17.8954 37.1687 18.0148 37.5269C18.1342 37.9382 18.2138 38.7077 18.2138 39.5169C18.2138 40.3129 18.1342 41.1355 18.0148 41.5467C17.8689 42.0376 17.6434 42.4091 17.2188 42.8336C16.7943 43.2582 16.4095 43.497 15.9187 43.6296C15.5074 43.749 14.6849 43.8419 13.9021 43.8419C13.0796 43.8419 12.3101 43.7623 11.9121 43.6296C11.5407 43.5235 11.0631 43.2979 10.8508 43.1255C10.6252 42.953 10.2803 42.5019 10.0813 42.1039C9.73638 41.4141 9.70984 41.2814 9.72311 39.5567C9.72311 38.2168 9.77618 37.5933 9.92211 37.2351C10.0415 36.9564 10.3201 36.5319 10.5589 36.2931C10.7844 36.041 11.2223 35.7226 11.5141 35.59C11.9519 35.391 12.3765 35.3512 13.9021 35.3512V35.3512ZM12.5357 39.6629L12.5755 40.8436L15.2951 40.9099L15.2288 38.1903C12.9337 38.1239 12.6285 38.1637 12.5755 38.2964C12.5357 38.4025 12.5224 39.0128 12.5357 39.6629ZM25.2054 35.3512C26.5055 35.3379 27.2352 35.4042 27.5271 35.5236C27.7659 35.6165 28.1639 35.8686 28.4159 36.0808C28.6547 36.2931 28.9864 36.7044 29.1324 36.9963C29.3579 37.4341 29.4242 37.8321 29.464 39.2516C29.4906 40.2599 29.4508 41.2018 29.3579 41.5069C29.2783 41.7988 28.9997 42.3029 28.7211 42.6213C28.4557 42.9397 27.9914 43.3378 27.6995 43.4837C27.2219 43.7358 26.9433 43.7623 25.2452 43.7623C23.5338 43.7623 23.2552 43.7358 22.7909 43.4837C22.499 43.3378 22.0346 42.9397 21.756 42.6213C21.4907 42.3029 21.1988 41.7988 21.1192 41.5069C21.0396 41.2018 20.9998 40.2599 21.0264 39.2516C21.0662 37.8321 21.1192 37.4341 21.3448 36.9963C21.504 36.7044 21.8224 36.2931 22.0744 36.0808C22.3132 35.8686 22.698 35.6165 22.9235 35.5236C23.1889 35.4042 23.9451 35.3512 25.2054 35.3512V35.3512ZM23.8124 39.6629L23.8522 40.8436H26.6382V38.1903C24.2237 38.1239 23.9053 38.1637 23.8522 38.2964C23.8124 38.4025 23.7991 39.0128 23.8124 39.6629ZM56.6476 45.4339C56.7404 45.4206 57.0058 45.5135 57.2446 45.6196C57.4834 45.7258 57.762 45.9778 57.8814 46.1636C57.9875 46.3626 58.0671 46.734 58.0538 46.9994C58.0273 47.4372 57.6824 47.8219 49.258 56.233H48.0507L45.676 53.845C43.3941 51.5631 43.288 51.4437 43.288 50.9263C43.2747 50.5947 43.3808 50.263 43.54 50.0375C43.6992 49.8385 44.0044 49.6262 44.2432 49.5599C44.482 49.4935 44.8534 49.4935 45.079 49.5599C45.3178 49.6262 46.0872 50.2763 48.661 52.85L52.1767 49.3343C54.1004 47.4106 55.8648 45.739 56.0904 45.6329C56.3026 45.5135 56.5547 45.4339 56.6476 45.4339ZM13.9021 46.6279C14.8043 46.6279 15.7064 46.6942 16.0115 46.7871C16.2901 46.88 16.7677 47.1586 17.0596 47.4106C17.3515 47.676 17.7097 48.1138 17.8689 48.4056C18.1077 48.8833 18.1475 49.1619 18.1475 50.86C18.1475 52.5714 18.1077 52.85 17.8689 53.3143C17.7097 53.6062 17.325 54.0705 17.0066 54.3491C16.6749 54.6145 16.184 54.9064 15.8921 54.986C15.5737 55.0656 14.6318 55.1053 13.6368 55.0788C12.204 55.039 11.8193 54.986 11.3815 54.7604C11.0896 54.6012 10.6518 54.2563 10.413 53.9644C10.1742 53.6858 9.90885 53.248 9.84251 52.9827C9.76291 52.7173 9.70984 51.6958 9.73638 50.5814C9.78944 48.6577 9.78944 48.6179 10.1874 48.074C10.3997 47.7556 10.7314 47.3974 10.9171 47.2647C11.0896 47.1188 11.4876 46.9198 11.7795 46.8269C12.1244 46.6942 12.8541 46.6279 13.9021 46.6279V46.6279ZM12.5357 51.0059L12.5755 52.253H15.2288V49.467C12.9337 49.4007 12.6285 49.4405 12.5755 49.5731C12.5357 49.6793 12.5224 50.3161 12.5357 51.0059ZM25.4575 46.6544C27.2617 46.681 27.3413 46.6942 27.9649 47.079C28.3629 47.331 28.7609 47.729 29.4242 48.7904V52.9429L29.013 53.5929C28.7609 54.0042 28.3629 54.4022 27.9649 54.641C27.3148 55.039 27.3148 55.039 25.2452 55.039C23.1623 55.039 23.1623 55.039 22.5122 54.641C22.1142 54.4022 21.7162 54.0042 21.0662 52.9429V50.8733C21.0662 48.8567 21.0662 48.7904 21.4244 48.1801C21.6234 47.8352 21.9816 47.4106 22.2204 47.2514C22.4592 47.0922 22.8572 46.88 23.1225 46.7871C23.4277 46.6677 24.1839 46.6279 25.4575 46.6544V46.6544ZM23.7593 50.86C23.7726 51.5631 23.8389 52.054 23.9451 52.1601C24.0512 52.2663 24.5023 52.3326 25.2452 52.3193C25.9749 52.3193 26.4392 52.2663 26.5453 52.1601C26.6382 52.054 26.7045 51.5764 26.7045 50.86C26.7045 50.1303 26.6515 49.6793 26.5321 49.5731C26.4259 49.4537 25.9749 49.4007 25.2319 49.4007C24.5421 49.4007 24.0247 49.467 23.9185 49.5599C23.7726 49.6793 23.7328 50.0242 23.7593 50.86Z" fill="#78B404" stroke="#78B404"/>
</svg>
