<svg width="67" height="67" viewBox="0 0 67 67" fill="none" xmlns="http://www.w3.org/2000/svg">
<path fill-rule="evenodd" clip-rule="evenodd" d="M16.724 1.04604C17.4935 1.07257 17.9445 1.16544 18.3558 1.36444C18.6609 1.52364 19.1518 1.88184 19.4569 2.14718C19.7488 2.42578 20.1601 2.98298 20.3458 3.38098C20.6377 3.97799 20.704 4.33619 20.7703 6.565H40.4715L40.5643 5.34446C40.6307 4.34946 40.7368 3.95145 41.0552 3.27485C41.3338 2.71765 41.6787 2.29311 42.09 1.94818C42.4482 1.66957 43.0585 1.33791 43.4565 1.20524C44.0004 1.0195 44.4249 0.966437 45.1148 1.0195C45.7516 1.0593 46.2558 1.19197 46.7068 1.43077C47.065 1.61651 47.5824 2.00124 47.8478 2.27984C48.1131 2.55845 48.4713 3.04932 48.6438 3.38098C48.8826 3.84532 48.9622 4.25659 49.055 6.49867L51.8013 6.57827C53.8178 6.6446 54.7199 6.7242 55.2639 6.89667C55.6619 7.01607 56.3385 7.30794 56.7763 7.53347C57.2008 7.77227 57.8907 8.28968 58.302 8.70095C58.7132 9.11222 59.2306 9.80209 59.4694 10.2266C59.695 10.6644 59.9868 11.341 60.1195 11.739C60.345 12.4156 60.3716 13.3045 60.4512 38.4715L61.6054 39.6655C62.2422 40.3156 63.0382 41.2708 63.3831 41.7882C63.7148 42.3056 64.1924 43.1281 64.4577 43.6455C64.7098 44.1629 65.1078 45.1712 65.3333 45.9009C65.5589 46.6306 65.7977 47.6123 65.8773 48.0899C65.9436 48.5675 66.0099 49.6421 66.0099 50.4779C66.0099 51.3137 65.9171 52.5077 65.8109 53.1313C65.6915 53.7548 65.4395 54.7365 65.2537 55.3203C65.068 55.904 64.6435 56.9255 64.2985 57.5756C63.9669 58.2257 63.3566 59.2207 62.9453 59.7646C62.534 60.3086 61.738 61.2107 61.1543 61.7546C60.5838 62.2986 59.695 63.0283 59.1776 63.3599C58.6602 63.7049 57.8376 64.1825 57.3202 64.4345C56.8028 64.6999 55.9139 65.0581 55.3302 65.2438C54.7465 65.4295 53.7647 65.6816 53.1412 65.801C52.5177 65.9071 51.3237 66 50.4878 66C49.652 66 48.458 65.9204 47.8345 65.801C47.211 65.6949 46.2027 65.4428 45.5792 65.2305C44.9556 65.0183 44.0667 64.6468 43.5891 64.408C43.1115 64.1692 42.3155 63.7049 41.7981 63.3732C41.2807 63.0282 40.3255 62.2322 38.4814 60.4412L6.77394 60.3616L5.9116 60.0698C5.434 59.9106 4.69106 59.5524 4.25326 59.2605C3.81545 58.9819 3.16538 58.4247 2.80718 58.0267C2.46225 57.6287 1.99791 56.9653 1.78564 56.5408C1.57337 56.1295 1.30804 55.4397 1.20191 55.0151C1.01617 54.3518 0.989638 51.8311 1.0029 33.4965C1.0029 15.5599 1.02944 12.6279 1.20191 11.9646C1.30804 11.5533 1.57337 10.8634 1.78564 10.4389C1.99791 10.0276 2.46225 9.36428 2.80718 8.96628C3.16538 8.56828 3.81545 8.01108 4.25326 7.73247C4.69106 7.44061 5.434 7.09567 5.9116 6.93647C6.64127 6.71094 7.19847 6.65787 12.2796 6.565V5.59653C12.2796 5.07913 12.3592 4.33619 12.4654 3.97799C12.5715 3.60652 12.8634 3.04932 13.1022 2.71765C13.3542 2.38598 13.8451 1.92164 14.2033 1.68284C14.5748 1.44404 15.0391 1.19197 15.2647 1.12564C15.4902 1.0593 16.1403 1.0195 16.724 1.04604ZM15.2249 4.70766C15.1187 5.02606 15.0656 6.0476 15.0656 8.05088C15.0656 10.3195 15.1055 11.0492 15.2647 11.4074C15.3708 11.6727 15.6361 11.9646 15.8617 12.0707C16.0872 12.1768 16.3791 12.2697 16.525 12.2697C16.6709 12.2697 16.9628 12.1768 17.1883 12.0707C17.4139 11.9646 17.6792 11.6727 17.7853 11.4074C17.9445 11.0359 17.9843 10.3195 17.9843 8.02434C17.9843 5.7292 17.9445 5.01279 17.7853 4.64132C17.6792 4.37599 17.4139 4.08412 17.1883 3.97799C16.9628 3.87185 16.6577 3.77899 16.4852 3.77899C16.326 3.77899 16.0209 3.88512 15.7953 4.01779C15.5698 4.15045 15.3177 4.46886 15.2249 4.70766ZM43.5891 4.53519C43.5095 4.72092 43.4565 6.1272 43.4565 8.02434C43.4565 10.3062 43.5095 11.3012 43.6157 11.54C43.7085 11.7258 43.9739 11.9778 44.1861 12.084C44.4515 12.2299 44.7433 12.283 45.0485 12.2299C45.3005 12.1768 45.6588 11.9911 45.8445 11.7921L46.1762 11.4472L46.2425 4.70766C45.619 4.01779 45.3536 3.87185 44.9821 3.83205C44.6107 3.79225 44.3453 3.84532 44.0933 4.00452C43.8943 4.13719 43.6687 4.37599 43.5891 4.53519ZM5.7126 10.1736C5.3544 10.4124 4.86353 10.8767 4.61146 11.2084C4.37266 11.54 4.08079 12.0972 3.97465 12.4687C3.84199 12.933 3.78892 13.8484 3.78892 15.5466V17.9744H57.5192C57.4529 12.5218 57.4396 12.4554 57.0947 11.8054C56.909 11.4339 56.5109 10.9298 56.2323 10.6644C55.9537 10.3991 55.4629 10.0409 55.1312 9.86842C54.574 9.56328 54.375 9.55002 51.8145 9.51022L49.0948 9.47042C48.9622 11.8186 48.8826 12.2034 48.604 12.734C48.405 13.0922 48.0202 13.6096 47.7416 13.875C47.463 14.1403 46.9722 14.4985 46.6405 14.671C46.2558 14.8567 45.7118 14.9894 45.1148 15.0292C44.4249 15.0822 44.0004 15.0292 43.4565 14.8434C43.0585 14.7108 42.4482 14.3791 42.09 14.1005C41.6787 13.7556 41.3338 13.331 41.0552 12.7606C40.7368 12.0972 40.6307 11.6992 40.5643 10.7042L40.4715 9.48368H20.7703C20.704 11.7125 20.6377 12.0707 20.3458 12.6677C20.1601 13.0657 19.7488 13.6229 19.4569 13.8882C19.1518 14.1668 18.6609 14.525 18.3425 14.6842C17.8782 14.9363 17.5731 14.9894 16.525 14.9894C15.4769 14.9894 15.1718 14.9363 14.6942 14.6842C14.389 14.525 13.8982 14.1668 13.593 13.8882C13.3012 13.6229 12.8899 13.0657 12.7042 12.6677C12.4123 12.0707 12.346 11.7125 12.3194 10.7042L12.2796 9.48368C8.32615 9.49695 6.98621 9.56328 6.77394 9.61635C6.5484 9.68269 6.08407 9.93475 5.7126 10.1736ZM3.85525 54.3916C4.39919 55.5193 4.81046 56.0765 5.10233 56.3551C5.40746 56.6204 5.89833 56.9786 6.20347 57.1511L6.77394 57.443C29.8581 57.496 36.5578 57.4828 36.5578 57.443C36.5578 57.4032 36.4649 57.1776 36.3322 56.9521C36.2128 56.7133 35.9475 56.0101 35.7352 55.3866C35.523 54.7631 35.2709 53.7548 35.1648 53.1313C35.0454 52.5077 34.9658 51.3137 34.9658 50.4779C34.9658 49.6421 35.0454 48.4481 35.1648 47.8246C35.2709 47.201 35.523 46.1928 35.7352 45.5692C35.9475 44.9457 36.3986 43.8976 36.7302 43.2475C37.0752 42.5975 37.6456 41.6688 38.0038 41.1912C38.362 40.7136 39.1448 39.8513 39.7551 39.2675C40.3653 38.6705 41.2277 37.9541 41.6655 37.649C42.1033 37.3571 42.9125 36.8928 43.4565 36.6142C44.0004 36.3356 44.9556 35.9376 45.5792 35.7253C46.2027 35.513 47.211 35.261 47.8345 35.1548C48.458 35.0354 49.652 34.9558 50.4878 34.9558C51.3237 34.9558 52.5177 35.0354 53.1412 35.1548C53.7647 35.261 54.773 35.513 55.3965 35.7253C56.0201 35.9376 56.7232 36.2029 56.9487 36.3223C57.1876 36.455 57.4131 36.5478 57.4529 36.5478C57.4927 36.5478 57.5192 32.9923 57.5192 28.6541V20.7604H3.78892L3.85525 54.3916ZM46.6405 38.3388C46.2292 38.4715 45.5792 38.7236 45.1811 38.9093C44.7699 39.0818 43.9739 39.5461 43.3901 39.9309C42.8064 40.3156 41.8777 41.0983 41.3205 41.6688C40.7766 42.2525 40.0469 43.1679 39.7153 43.7119C39.3703 44.2558 38.906 45.158 38.6937 45.7019C38.4682 46.2458 38.1896 47.1082 38.0569 47.6256C37.8844 48.3022 37.8314 49.0849 37.8314 50.4779C37.8314 51.8709 37.8844 52.6537 38.0569 53.3303C38.1896 53.8477 38.4682 54.71 38.6937 55.2539C38.906 55.7979 39.3703 56.7 39.7153 57.244C40.0469 57.7879 40.7766 58.7033 41.3205 59.287C41.8777 59.8575 42.8064 60.6402 43.3901 61.025C43.9739 61.423 44.8893 61.9271 45.4465 62.1526C45.9904 62.3914 46.8793 62.6966 47.4365 62.8425C47.9804 62.9752 49.0816 63.1344 49.8908 63.1742C50.9256 63.2272 51.6951 63.1875 52.5707 63.0283C53.2473 62.9089 54.2954 62.6435 54.8924 62.418C55.5027 62.2057 56.4711 61.7281 57.0549 61.3699C57.6386 61.0117 58.6071 60.2555 59.2174 59.685C59.8409 59.1013 60.6502 58.1594 61.0349 57.5756C61.4196 56.9919 61.937 56.0632 62.1626 55.5193C62.4014 54.9753 62.7065 54.0732 62.8657 53.5293C63.078 52.72 63.1311 52.1363 63.1311 50.4779C63.1311 48.8196 63.078 48.2358 62.8657 47.4266C62.7065 46.8826 62.4014 45.9805 62.1626 45.4366C61.937 44.8926 61.4196 43.9639 61.0349 43.3802C60.6502 42.7965 59.8674 41.8678 59.2837 41.3239C58.7132 40.7667 57.7315 40.0105 57.1212 39.6257C56.4977 39.241 55.5027 38.7501 54.8924 38.5378C54.2954 38.3123 53.2739 38.047 52.6371 37.9408C52.0003 37.8347 50.9655 37.7418 50.3552 37.7551C49.7316 37.7551 48.803 37.8347 48.2988 37.9276C47.7814 38.0204 47.0385 38.2062 46.6405 38.3388ZM13.938 23.5862C15.2779 23.6128 15.7555 23.6791 16.127 23.8648C16.3791 23.9975 16.7505 24.2628 16.9628 24.4618C17.1751 24.6476 17.4669 25.0456 17.6129 25.3374C17.8384 25.762 17.9047 26.1865 17.9578 27.3938C17.9843 28.2561 17.9445 29.2113 17.8649 29.5828C17.7853 29.9543 17.5465 30.4849 17.3475 30.7768C17.122 31.1085 16.6975 31.4401 16.2464 31.6789C15.5698 32.0239 15.4371 32.0371 13.6992 32.0371C12.3592 32.0371 11.749 31.9841 11.3775 31.8249C11.1122 31.7187 10.6876 31.4401 10.4356 31.2013C10.1835 30.9625 9.87836 30.538 9.74569 30.2461C9.53342 29.8083 9.49362 29.3838 9.49362 27.8581C9.48035 26.0936 9.50689 25.961 9.85182 25.2844C10.0508 24.8864 10.3958 24.422 10.6213 24.2496C10.8336 24.0904 11.2846 23.8516 11.6163 23.7454C12.0541 23.5995 12.6644 23.5597 13.938 23.5862ZM12.3062 28.0041L12.346 29.1848H14.9993L15.0391 26.4651C12.744 26.4651 12.3858 26.5049 12.3327 26.6376C12.3062 26.7437 12.2929 27.354 12.3062 28.0041ZM25.281 23.5995C26.6342 23.626 27.0322 23.6791 27.4701 23.9046C27.7619 24.0506 28.2263 24.4353 28.4916 24.7537C28.7702 25.0721 29.0488 25.5762 29.1284 25.8681C29.2213 26.1732 29.2611 27.1152 29.2345 28.1235C29.1947 29.543 29.1284 29.941 28.9029 30.3788C28.7569 30.6707 28.4253 31.0819 28.1865 31.2942C27.9344 31.5065 27.5364 31.7585 27.2976 31.8647C27.0057 31.9841 26.2628 32.0371 25.0157 32.0371C23.7554 32.0371 23.0124 31.9841 22.7206 31.8647C22.4818 31.7585 22.0838 31.5065 21.8317 31.2942C21.5929 31.0819 21.248 30.6176 21.0755 30.2461C20.8102 29.6624 20.7703 29.3838 20.7703 27.9245C20.7703 26.9825 20.8367 26.0406 20.9295 25.7487C21.0224 25.4701 21.301 24.9925 21.5664 24.7006C21.8184 24.4088 22.2032 24.0771 22.4287 23.971C22.641 23.8648 22.9992 23.7189 23.2247 23.6658C23.437 23.5995 24.3656 23.573 25.281 23.5995ZM23.5829 28.0041L23.6227 29.1848H26.4087V26.5314C23.9942 26.4651 23.6758 26.4916 23.6227 26.6376C23.5829 26.7304 23.5696 27.354 23.5829 28.0041ZM36.2924 23.5597C37.2078 23.5464 37.911 23.6128 38.3488 23.7454C38.707 23.8516 39.1846 24.0904 39.4101 24.2496C39.6224 24.422 39.9673 24.8864 40.1663 25.2844C40.5245 25.961 40.5378 26.0936 40.5378 27.8581C40.5245 29.3838 40.4847 29.8083 40.2857 30.2461C40.1398 30.538 39.8347 30.9625 39.5826 31.2013C39.3438 31.4401 38.9193 31.7187 38.6406 31.8249C38.2824 31.9841 37.6589 32.0371 36.319 32.0371C34.5943 32.0371 34.4616 32.0239 33.7718 31.6789C33.3207 31.4401 32.9094 31.1085 32.6706 30.7768C32.4716 30.4849 32.2328 29.9543 32.1532 29.5828C32.0736 29.2113 32.0338 28.2561 32.0736 27.3938C32.1134 26.2794 32.193 25.7487 32.3655 25.4038C32.4981 25.1517 32.7635 24.767 32.9492 24.568C33.1482 24.3557 33.4799 24.0904 33.7054 23.971C33.9177 23.8648 34.2759 23.7189 34.5014 23.6658C34.7137 23.6128 35.523 23.573 36.2924 23.5597ZM35.0321 29.1848H37.6854V26.5314L34.9658 26.4518L35.0321 29.1848ZM47.9008 23.5862C49.2408 23.626 49.7184 23.6791 50.0898 23.8648C50.3419 23.9975 50.7134 24.2628 50.9257 24.4618C51.1379 24.6476 51.4298 25.0456 51.5757 25.3374C51.8013 25.762 51.8676 26.1865 51.9207 27.3938C51.9472 28.2561 51.9074 29.2113 51.8278 29.5828C51.7482 29.9543 51.5094 30.4849 51.3104 30.7768C51.0849 31.1085 50.6603 31.4534 50.2092 31.6789C49.5326 32.0239 49.4 32.0504 47.662 32.0371C46.3221 32.0371 45.7118 31.9841 45.3404 31.8381C45.075 31.7187 44.6505 31.4401 44.3984 31.2013C44.1463 30.9758 43.8412 30.538 43.7085 30.2461C43.4963 29.8083 43.4565 29.3838 43.4565 27.8581C43.4432 26.0936 43.4697 25.9742 43.8147 25.2844C44.0137 24.8864 44.3586 24.422 44.5841 24.2628C44.7964 24.0904 45.2475 23.8648 45.5792 23.7587C46.017 23.5995 46.6272 23.5597 47.9008 23.5862ZM46.269 28.0041L46.3088 29.1848H48.9622L49.002 26.4651C46.7068 26.4651 46.3486 26.5182 46.2956 26.6508C46.269 26.7437 46.2558 27.354 46.269 28.0041ZM13.6726 34.9691C15.331 34.9691 15.5963 34.9956 16.1933 35.261C16.5515 35.4334 17.0159 35.7784 17.2149 36.0304C17.4139 36.2825 17.6659 36.7866 17.7853 37.1448C17.9047 37.5561 17.9843 38.3256 17.9843 39.1348C17.9843 39.9309 17.9047 40.7534 17.7853 41.1647C17.6394 41.6555 17.4139 42.027 16.9893 42.4515C16.5648 42.8761 16.1801 43.1149 15.6892 43.2475C15.2779 43.3669 14.4554 43.4598 13.6726 43.4598C12.8501 43.4598 12.0806 43.3802 11.6826 43.2475C11.3112 43.1414 10.8336 42.9159 10.6213 42.7434C10.3958 42.5709 10.0508 42.1199 9.85182 41.7219C9.50689 41.032 9.48035 40.8993 9.49362 39.1746C9.49362 37.8347 9.54669 37.2112 9.69262 36.853C9.81202 36.5744 10.0906 36.1498 10.3294 35.911C10.555 35.659 10.9928 35.3406 11.2846 35.2079C11.7224 35.0089 12.147 34.9691 13.6726 34.9691ZM12.3062 39.2808L12.346 40.4615L15.0656 40.5279L14.9993 37.8082C12.7042 37.7418 12.399 37.7816 12.346 37.9143C12.3062 38.0204 12.2929 38.6307 12.3062 39.2808ZM24.9759 34.9691C26.276 34.9558 27.0057 35.0222 27.2976 35.1416C27.5364 35.2344 27.9344 35.4865 28.1865 35.6988C28.4253 35.911 28.7569 36.3223 28.9029 36.6142C29.1284 37.052 29.1947 37.45 29.2345 38.8695C29.2611 39.8778 29.2213 40.8197 29.1284 41.1249C29.0488 41.4167 28.7702 41.9209 28.4916 42.2393C28.2263 42.5577 27.7619 42.9557 27.4701 43.1016C26.9925 43.3537 26.7138 43.3802 25.0157 43.3802C23.3043 43.3802 23.0257 43.3537 22.5614 43.1016C22.2695 42.9557 21.8052 42.5577 21.5266 42.2393C21.2612 41.9209 20.9693 41.4167 20.8897 41.1249C20.8101 40.8197 20.7703 39.8778 20.7969 38.8695C20.8367 37.45 20.8897 37.052 21.1153 36.6142C21.2745 36.3223 21.5929 35.911 21.845 35.6988C22.0838 35.4865 22.4685 35.2344 22.694 35.1416C22.9594 35.0222 23.7156 34.9691 24.9759 34.9691ZM23.5829 39.2808L23.6227 40.4615H26.4087V37.8082C23.9942 37.7418 23.6758 37.7816 23.6227 37.9143C23.5829 38.0204 23.5696 38.6307 23.5829 39.2808ZM56.4181 45.0518C56.5109 45.0386 56.7763 45.1314 57.0151 45.2376C57.2539 45.3437 57.5325 45.5958 57.6519 45.7815C57.758 45.9805 57.8376 46.352 57.8244 46.6173C57.7978 47.0551 57.4529 47.4398 49.0285 55.8509H47.8212L45.4465 53.4629C43.1646 51.1811 43.0585 51.0616 43.0585 50.5442C43.0452 50.2126 43.1513 49.8809 43.3105 49.6554C43.4697 49.4564 43.7749 49.2441 44.0137 49.1778C44.2525 49.1114 44.6239 49.1114 44.8495 49.1778C45.0883 49.2441 45.8578 49.8942 48.4315 52.4679L51.9472 48.9522C53.8709 47.0286 55.6353 45.357 55.8609 45.2508C56.0731 45.1314 56.3252 45.0518 56.4181 45.0518ZM13.6726 46.2458C14.5748 46.2458 15.4769 46.3122 15.7821 46.405C16.0607 46.4979 16.5383 46.7765 16.8301 47.0286C17.122 47.2939 17.4802 47.7317 17.6394 48.0236C17.8782 48.5012 17.918 48.7798 17.918 50.4779C17.918 52.1893 17.8782 52.4679 17.6394 52.9323C17.4802 53.2241 17.0955 53.6885 16.7771 53.9671C16.4454 54.2324 15.9545 54.5243 15.6627 54.6039C15.3443 54.6835 14.4023 54.7233 13.4073 54.6967C11.9745 54.6569 11.5898 54.6039 11.152 54.3783C10.8601 54.2191 10.4223 53.8742 10.1835 53.5823C9.94469 53.3037 9.67935 52.8659 9.61302 52.6006C9.53342 52.3353 9.48035 51.3137 9.50689 50.1993C9.55995 48.2756 9.55995 48.2358 9.95796 47.6919C10.1702 47.3735 10.5019 47.0153 10.6876 46.8826C10.8601 46.7367 11.2581 46.5377 11.55 46.4448C11.8949 46.3122 12.6246 46.2458 13.6726 46.2458ZM12.3062 50.6238L12.346 51.8709H14.9993V49.0849C12.7042 49.0186 12.399 49.0584 12.346 49.191C12.3062 49.2972 12.2929 49.934 12.3062 50.6238ZM25.228 46.2724C27.0323 46.2989 27.1119 46.3122 27.7354 46.6969C28.1334 46.949 28.5314 47.347 29.1947 48.4083V52.5608L28.7835 53.2109C28.5314 53.6221 28.1334 54.0201 27.7354 54.2589C27.0853 54.6569 27.0853 54.6569 25.0157 54.6569C22.9328 54.6569 22.9328 54.6569 22.2828 54.2589C21.8848 54.0201 21.4868 53.6221 20.8367 52.5608V50.4912C20.8367 48.4746 20.8367 48.4083 21.1949 47.798C21.3939 47.4531 21.7521 47.0286 21.9909 46.8694C22.2297 46.7102 22.6277 46.4979 22.893 46.405C23.1982 46.2856 23.9544 46.2458 25.228 46.2724ZM23.5298 50.4779C23.5431 51.1811 23.6094 51.6719 23.7156 51.7781C23.8217 51.8842 24.2728 51.9505 25.0157 51.9373C25.7454 51.9373 26.2097 51.8842 26.3158 51.7781C26.4087 51.6719 26.475 51.1943 26.475 50.4779C26.475 49.7482 26.422 49.2972 26.3026 49.191C26.1964 49.0716 25.7454 49.0186 25.0024 49.0186C24.3126 49.0186 23.7952 49.0849 23.689 49.1778C23.5431 49.2972 23.5033 49.6421 23.5298 50.4779Z" fill="white" stroke="white"/>
</svg>
