<svg width="80" height="67" viewBox="0 0 80 67" fill="none" xmlns="http://www.w3.org/2000/svg">
<path fill-rule="evenodd" clip-rule="evenodd" d="M40.8969 1.40355C41.643 1.44926 42.983 1.57114 43.8662 1.70826C44.7494 1.83014 46.1199 2.13485 46.9117 2.36338C47.7035 2.60714 49.0131 3.07944 51.2515 4.03926H79.0415L78.9654 6.55308L55.2868 6.62926L56.3832 7.57385C56.9923 8.10708 57.982 9.11261 58.6064 9.82867C59.2307 10.5447 60.0987 11.6721 60.5402 12.3425C60.9818 13.0128 61.6823 14.2469 62.1087 15.0848C62.5198 15.9228 63.0223 17.0502 63.205 17.5987C63.403 18.1471 63.601 18.6347 63.6466 18.7108C63.6923 18.7718 64.7582 18.1014 66.0221 17.2178C67.286 16.3341 68.4433 15.6028 68.6108 15.6028C68.7783 15.6028 69.1894 15.7857 69.5244 16.0142C69.8594 16.2427 71.9151 17.6901 74.0926 19.2441C76.2702 20.7981 78.2345 22.2454 78.4629 22.4587C78.6913 22.672 78.9045 22.992 78.935 23.1596C78.9654 23.3271 78.9197 23.6623 78.8131 23.9213C78.7065 24.226 78.4629 24.4393 78.1127 24.5764C77.8234 24.6831 77.3361 24.7593 76.4529 24.7593V29.208C76.4529 31.8132 76.392 33.8852 76.3006 34.1594C76.2092 34.4794 75.9808 34.7536 75.6915 34.8907C75.3108 35.0888 74.2449 35.1193 62.9766 35.1345L62.1848 36.7647C61.7584 37.6635 61.1189 38.8367 60.1291 40.3754L65.2607 45.4793H79.0415V48.0693H67.8494L73.1181 53.3559C76.864 57.1343 78.4781 58.8558 78.7065 59.3434C78.8893 59.7243 79.0872 60.4403 79.1329 60.9431C79.2091 61.583 79.1634 62.1162 78.9959 62.6951C78.8588 63.1522 78.5543 63.8378 78.2954 64.2187C78.0518 64.5995 77.5493 65.1175 77.1838 65.3918C76.8336 65.6508 76.2245 65.986 75.8438 66.1231C75.4631 66.2602 74.7474 66.3821 74.2449 66.3821C73.6663 66.3821 72.9963 66.2602 72.4176 66.0469C71.5497 65.727 71.0928 65.2851 52.8504 47.079L51.5256 47.795C50.7795 48.1911 49.5613 48.7396 48.8151 49.0291C48.069 49.3186 46.866 49.6994 46.1503 49.8823C45.4347 50.0651 44.1099 50.3088 43.181 50.4307C42.2521 50.5526 40.8817 50.6593 40.1355 50.6593C39.3894 50.6593 38.1864 50.5831 37.4707 50.4917C36.755 50.4155 35.6587 50.2327 35.0343 50.1108C34.41 49.9889 33.1766 49.6385 32.2934 49.3338C31.4102 49.0443 30.3748 48.633 29.2479 48.0693H1.22949V45.4793L24.9538 45.4031L23.7813 44.3975C23.1417 43.8491 22.1367 42.8283 21.5429 42.1123C20.9338 41.4114 20.0658 40.2535 19.5937 39.5375C19.1065 38.8214 18.3908 37.5417 17.2183 35.1193L4.54907 35.0431L3.81815 34.2051V24.7593L2.85882 24.6983C2.067 24.6526 1.85382 24.5917 1.5645 24.2413C1.38177 24.028 1.22949 23.6928 1.22949 23.4947C1.24472 23.3119 1.32086 23.0072 1.42745 22.8244C1.53404 22.6416 3.58974 21.0723 6.02613 19.3355C8.44728 17.5987 10.6857 16.0447 10.975 15.8771C11.31 15.6943 11.6298 15.6181 11.843 15.679C12.041 15.7247 13.1526 16.456 14.3251 17.294C15.4976 18.1319 16.4874 18.8175 16.533 18.8175C16.5787 18.8175 16.7158 18.4518 16.8528 18.01C16.9899 17.5834 17.4619 16.4713 17.9035 15.5419C18.3299 14.6126 18.9999 13.3785 19.3806 12.7996C19.746 12.2206 20.4769 11.2151 20.9794 10.5904C21.4819 9.96579 22.5783 8.80791 24.9081 6.62926H1.22949V4.03926H29.0195L30.1616 3.52126C30.7859 3.24703 31.9584 2.8052 32.7502 2.5462C33.5421 2.2872 34.7755 1.96726 35.4912 1.84538C36.2068 1.70826 37.3946 1.54067 38.156 1.4645C38.9021 1.38832 40.1355 1.35785 40.8969 1.40355ZM35.5673 4.42014C34.8973 4.55726 33.7248 4.8772 32.9786 5.1362C32.2173 5.37997 30.8925 5.97414 30.0093 6.4312C29.1261 6.88826 27.8622 7.65003 27.2075 8.12232C26.5527 8.59461 25.4106 9.56967 24.6949 10.2857C23.964 11.0018 22.9895 12.0987 22.5326 12.7234C22.0606 13.348 21.4058 14.3536 21.0556 14.9325C20.7053 15.5114 20.1724 16.5779 19.8678 17.294C19.5785 18.01 19.1522 19.1679 18.9542 19.884C18.741 20.6 18.4669 21.8646 18.3451 22.7025C18.1471 23.8604 18.1167 24.8354 18.1776 26.7398C18.2385 28.4614 18.3603 29.6803 18.5735 30.6248C18.7562 31.3714 19.0456 32.4378 19.2131 32.9863C19.3958 33.5348 19.8526 34.6317 20.2181 35.424C20.5835 36.2162 21.2535 37.4198 21.7104 38.0901C22.152 38.7605 22.9742 39.8422 23.5224 40.4821C24.0706 41.1372 25.0604 42.1275 25.6999 42.676C26.3547 43.2244 27.4054 44.0167 28.0297 44.4433C28.6541 44.8546 29.7809 45.4945 30.5423 45.8449C31.2884 46.2105 32.5827 46.7285 33.3898 46.9875C34.2121 47.2465 35.5216 47.5817 36.283 47.7188C37.2575 47.9017 38.491 47.9778 40.2117 47.9778C42.2064 47.9626 43.0592 47.9017 44.3231 47.6274C45.2062 47.4446 46.531 47.079 47.2924 46.82C48.0385 46.561 49.1045 46.1344 49.6527 45.8601C50.2008 45.5859 51.0536 45.1136 51.5561 44.8089C52.1195 44.4737 53.5813 43.1483 55.3629 41.381C57.708 39.05 58.3932 38.273 59.0175 37.237C59.4286 36.5361 60.0225 35.3783 60.3271 34.6622C60.6316 33.9461 61.0275 32.8797 61.195 32.3007C61.3778 31.7218 61.6366 30.6096 61.7889 29.8631C61.9869 28.8576 62.063 27.8216 62.0478 25.9019C62.0478 23.8299 61.9716 22.992 61.6975 21.7122C61.5148 20.8286 61.1493 19.4878 60.8905 18.7413C60.6316 17.9948 60.2205 16.9588 59.9768 16.456C59.718 15.9533 59.2764 15.1306 58.9718 14.6278C58.6673 14.125 58.043 13.1957 57.5557 12.571C57.0836 11.9464 56.1091 10.8799 55.4086 10.1943C54.7234 9.50873 53.7336 8.65555 53.2311 8.27467C52.7286 7.90902 51.9063 7.36055 51.4038 7.05585C50.9013 6.75114 50.1247 6.32455 49.6831 6.11126C49.2567 5.89797 48.3583 5.51708 47.7035 5.28855C47.064 5.04479 45.9067 4.69438 45.1606 4.52679C44.3992 4.34397 42.9983 4.13067 42.0389 4.03926C41.0796 3.96308 40.0746 3.90214 39.831 3.90214C39.5721 3.91738 38.7955 3.97832 38.0798 4.0545C37.3641 4.11544 36.2373 4.28303 35.5673 4.42014ZM9.13252 20.2801C7.79251 21.2399 6.69613 22.0626 6.69613 22.0931C6.71136 22.1388 8.76706 22.1693 11.2796 22.1693C15.6955 22.1693 15.8478 22.154 15.8478 21.8798C15.8478 21.6665 15.1778 21.1028 13.716 20.0516L11.5841 18.528L9.13252 20.2801ZM66.4333 20.0973C65.2455 20.9352 64.271 21.6665 64.271 21.7122C64.271 21.7579 64.3319 21.8798 64.3928 21.9864C64.4689 22.1236 65.5501 22.154 69.0524 22.1388L73.5901 22.0931C70.7883 20.0973 69.6615 19.305 69.2808 19.0308L68.5803 18.5433L66.4333 20.0973ZM6.42204 32.5445H10.3812V28.5833L12.8937 28.6595L12.9698 32.5445C15.5585 32.5445 16.3199 32.4836 16.3199 32.4226C16.3199 32.3617 16.1828 31.6608 16.0001 30.8686C15.8173 30.0002 15.6498 28.4767 15.5889 27.0903L15.4823 24.7745H6.42204V32.5445ZM64.6821 26.9379C64.6364 28.1415 64.4689 29.726 64.3014 30.4877C64.1491 31.2343 63.9816 32.0113 63.9207 32.1941C63.8294 32.5445 63.8294 32.5445 65.5805 32.5445H67.3317V28.5833H69.9203V32.5445H73.8795V24.7745H64.7887L64.6821 26.9379ZM55.0584 45.6468C68.8696 59.45 73.0876 63.5636 73.3617 63.6854C73.6358 63.8073 74.0774 63.914 74.3515 63.914C74.6256 63.914 75.1281 63.7616 75.4479 63.5635C75.7829 63.3807 76.194 62.9846 76.3615 62.6951C76.529 62.3904 76.6508 61.9029 76.6508 61.5525C76.6508 61.2173 76.5595 60.7755 76.4529 60.5622C76.3463 60.3489 72.2806 56.1897 67.4078 51.3144C62.5503 46.4238 58.5302 42.4322 58.4846 42.4474C58.4389 42.4474 57.647 43.1635 56.7334 44.0471L55.0584 45.6468ZM40.5162 6.70544C42.1303 6.73591 43.4399 6.84255 44.1708 7.01014C44.7951 7.1625 45.8915 7.4672 46.6072 7.7262C47.3229 7.96997 48.4801 8.48797 49.1958 8.86885C49.9115 9.24973 50.9013 9.84391 51.4038 10.2096C51.9063 10.5752 52.7895 11.3065 53.3681 11.8397C53.9468 12.373 54.8452 13.348 55.3629 14.0184C55.8807 14.6887 56.5811 15.7247 56.9314 16.3037C57.2816 16.8978 57.7993 17.9643 58.0886 18.6651C58.378 19.3812 58.7434 20.5086 58.9109 21.179C59.0784 21.8493 59.3068 23.0834 59.4134 23.9213C59.52 24.8354 59.5505 26.0695 59.4896 27.0141C59.4439 27.8673 59.2916 29.1013 59.1546 29.7564C59.0327 30.3963 58.713 31.539 58.4693 32.2703C58.2257 33.0016 57.7689 34.0985 57.4643 34.7079C57.1598 35.3173 56.7334 36.0791 56.5202 36.4143C56.307 36.7494 55.7741 37.4807 55.3477 38.014C54.9213 38.5624 54.1295 39.4308 53.5965 39.9641C53.0636 40.4821 52.0434 41.3353 51.3277 41.838C50.612 42.356 49.3481 43.1026 48.5106 43.5139C47.6731 43.9253 46.3635 44.428 45.6174 44.6566C44.856 44.8698 43.4551 45.1593 42.4958 45.2812C41.3385 45.4336 40.2269 45.4945 39.2219 45.4336C38.3844 45.3878 37.1509 45.2355 36.4809 45.1136C35.8109 44.9765 34.8212 44.7327 34.273 44.5499C33.7248 44.3823 32.735 43.9862 32.065 43.6967C31.395 43.392 30.2986 42.7978 29.6286 42.3713C28.9586 41.9294 27.8622 41.1067 27.1922 40.5126C26.5222 39.9184 25.5477 38.8976 25.0147 38.2273C24.497 37.5721 23.827 36.6123 23.5224 36.1096C23.2179 35.6068 22.7763 34.8298 22.5479 34.3575C22.3195 33.9004 21.9235 32.8797 21.6647 32.0722C21.4058 31.28 21.086 29.9393 20.9338 29.1013C20.7358 27.9434 20.7053 27.0598 20.7663 25.3687C20.8119 24.1651 20.9642 22.6568 21.1013 22.0169C21.2383 21.3923 21.5276 20.3715 21.7408 19.7316C21.954 19.107 22.426 18.01 22.7763 17.294C23.1265 16.5931 23.8117 15.4505 24.299 14.7801C24.7711 14.1098 25.6543 13.0586 26.2481 12.4491C26.8572 11.8397 27.8622 10.9408 28.4866 10.4686C29.1109 9.99626 30.3138 9.24973 31.1514 8.82314C31.9889 8.38132 33.3289 7.81761 34.1207 7.55861C34.9125 7.28438 36.1155 6.97967 36.7855 6.85779C37.6078 6.72067 38.8107 6.65973 40.5162 6.70544ZM34.5014 10.1486C33.9989 10.3314 33.0395 10.758 32.3695 11.1084C31.6995 11.4588 30.6336 12.114 30.0093 12.5863C29.385 13.0586 28.4256 13.9117 27.8775 14.4907C27.3293 15.0696 26.5679 16.0294 26.172 16.6084C25.7761 17.2026 25.167 18.2995 24.8167 19.046C24.4665 19.8078 24.0097 21.0723 23.7965 21.8646C23.5376 22.8853 23.4006 23.9061 23.3397 25.2925C23.294 26.7398 23.3397 27.6692 23.5072 28.7204C23.6442 29.5279 23.964 30.7924 24.2229 31.539C24.4817 32.3007 24.9386 33.3672 25.2279 33.9004C25.5324 34.4489 26.0654 35.3021 26.4309 35.8048C26.7811 36.3076 27.512 37.176 28.045 37.7245C28.5779 38.273 29.4611 39.0652 30.0093 39.4766C30.5575 39.8879 31.5473 40.5126 32.2173 40.863C32.8873 41.2134 33.9075 41.6857 34.5014 41.8837C35.08 42.097 36.1155 42.3713 36.7855 42.5084C37.4555 42.6455 38.6585 42.7978 39.4503 42.8436C40.3944 42.8893 41.4299 42.8436 42.4196 42.6912C43.2571 42.5693 44.521 42.2798 45.2367 42.0513C45.9524 41.8228 47.0488 41.381 47.6731 41.061C48.2974 40.7411 49.2872 40.1469 49.8811 39.7355C50.4597 39.309 51.419 38.5015 51.9977 37.9226C52.5763 37.3436 53.3834 36.399 53.7945 35.8048C54.2056 35.2259 54.8147 34.2356 55.1345 33.5957C55.4391 32.9711 55.8959 31.8741 56.1091 31.1581C56.3375 30.4573 56.6268 29.2232 56.7334 28.4157C56.8552 27.6235 56.9618 26.4961 56.9618 25.9019C56.9618 25.323 56.8552 24.226 56.7334 23.4643C56.6116 22.7177 56.3679 21.6208 56.1852 21.0266C56.0025 20.4477 55.5609 19.3507 55.1954 18.589C54.83 17.8424 54.0838 16.6388 53.5509 15.9228C53.0179 15.222 52.1195 14.2012 51.5408 13.668C50.9622 13.1347 50.0486 12.4034 49.5004 12.053C48.9522 11.6874 48.1604 11.2303 47.7492 11.017C47.3229 10.8037 46.5006 10.4381 45.9219 10.2248C45.3281 9.99626 44.186 9.69155 43.3637 9.52397C42.3435 9.31067 41.308 9.2345 40.0137 9.2345C38.8107 9.24973 37.6687 9.34114 36.7855 9.5392C36.0241 9.69155 35.0039 9.96579 34.5014 10.1486ZM40.166 15.6181C40.3792 15.6181 42.3435 16.9283 45.1149 18.9089C47.6579 20.7219 49.8811 22.3673 50.0638 22.5654C50.277 22.7939 50.414 23.1291 50.414 23.4338C50.3988 23.708 50.3227 24.0432 50.2161 24.1803C50.1095 24.3174 49.8354 24.5003 49.607 24.5917C49.3786 24.6831 48.8913 24.7593 47.8254 24.7593V29.5279C47.8254 34.0833 47.8101 34.2966 47.5208 34.6317C47.3533 34.8146 46.9879 35.0126 46.7138 35.0583C46.4397 35.104 43.2571 35.1193 33.0548 35.0431L32.7198 34.7079C32.3695 34.3575 32.3695 34.3118 32.2782 24.8354L31.3341 24.744C30.6032 24.6526 30.3291 24.546 30.1159 24.287C29.9636 24.0889 29.7961 23.7537 29.7504 23.5404C29.7047 23.2967 29.7809 23.0224 29.9636 22.7787C30.1311 22.5806 32.1107 21.0876 34.3643 19.4574C36.618 17.8424 38.7651 16.3189 39.1305 16.0751C39.5112 15.8314 39.968 15.6181 40.166 15.6181ZM37.7448 20.2191C36.4657 21.1485 35.3541 21.956 35.2628 22.0321C35.1866 22.1236 37.09 22.1693 40.0289 22.1693C42.7242 22.1693 44.9322 22.1236 44.9169 22.0626C44.9169 22.0017 44.2165 21.4532 43.3637 20.859C42.511 20.2496 41.4146 19.4878 40.9426 19.1527L40.0898 18.528L37.7448 20.2191ZM34.8668 32.5445H38.826V28.5833H41.4146V32.5445H45.2215V24.7745H34.8668V32.5445Z" fill="white" stroke="white"/>
</svg>
