<svg width="80" height="67" viewBox="0 0 80 67" fill="none" xmlns="http://www.w3.org/2000/svg">
<path fill-rule="evenodd" clip-rule="evenodd" d="M40.6674 1.02147C41.4135 1.06718 42.7536 1.18906 43.6367 1.32618C44.5199 1.44806 45.8904 1.75277 46.6822 1.9813C47.474 2.22506 48.7836 2.69736 51.022 3.65718H78.8121L78.7359 6.171L55.0573 6.24718L56.1537 7.19177C56.7628 7.725 57.7525 8.73053 58.3769 9.44659C59.0012 10.1627 59.8692 11.2901 60.3108 11.9604C60.7524 12.6308 61.4528 13.8648 61.8792 14.7028C62.2903 15.5407 62.7928 16.6681 62.9756 17.2166C63.1735 17.7651 63.3715 18.2526 63.4171 18.3288C63.4628 18.3897 64.5288 17.7194 65.7926 16.8357C67.0565 15.9521 68.2138 15.2208 68.3813 15.2208C68.5488 15.2208 68.9599 15.4036 69.2949 15.6321C69.6299 15.8607 71.6856 17.308 73.8632 18.862C76.0407 20.416 78.005 21.8634 78.2334 22.0767C78.4618 22.2899 78.675 22.6099 78.7055 22.7775C78.7359 22.9451 78.6902 23.2802 78.5836 23.5392C78.4771 23.8439 78.2334 24.0572 77.8832 24.1944C77.5939 24.301 77.1066 24.3772 76.2234 24.3772V28.8259C76.2234 31.4311 76.1625 33.5031 76.0711 33.7774C75.9798 34.0973 75.7513 34.3715 75.462 34.5086C75.0813 34.7067 74.0154 34.7372 62.7471 34.7524L61.9553 36.3826C61.5289 37.2815 60.8894 38.4546 59.8996 39.9934L65.0312 45.0972H78.8121V47.6872H67.6199L72.8886 52.9738C76.6345 56.7522 78.2486 58.4738 78.4771 58.9613C78.6598 59.3422 78.8577 60.0582 78.9034 60.561C78.9796 61.2009 78.9339 61.7341 78.7664 62.3131C78.6293 62.7701 78.3248 63.4557 78.0659 63.8366C77.8223 64.2175 77.3198 64.7355 76.9543 65.0097C76.6041 65.2687 75.995 65.6039 75.6143 65.741C75.2336 65.8781 74.5179 66 74.0154 66C73.4368 66 72.7668 65.8781 72.1881 65.6648C71.3202 65.3449 70.8633 64.9031 52.6209 46.6969L51.2961 47.4129C50.55 47.8091 49.3318 48.3575 48.5857 48.647C47.8395 48.9365 46.6365 49.3174 45.9209 49.5002C45.2052 49.683 43.8804 49.9268 42.9515 50.0486C42.0226 50.1705 40.6522 50.2772 39.906 50.2772C39.1599 50.2772 37.9569 50.201 37.2412 50.1096C36.5255 50.0334 35.4292 49.8506 34.8048 49.7287C34.1805 49.6068 32.9471 49.2564 32.0639 48.9517C31.1807 48.6622 30.1453 48.2509 29.0184 47.6872H1V45.0972L24.7243 45.021L23.5518 44.0155C22.9122 43.467 21.9072 42.4462 21.3134 41.7302C20.7043 41.0294 19.8363 39.8715 19.3643 39.1554C18.877 38.4394 18.1613 37.1596 16.9888 34.7372L4.31958 34.661L3.58866 33.8231V24.3772L2.62933 24.3162C1.83751 24.2705 1.62432 24.2096 1.335 23.8592C1.15227 23.6459 1 23.3107 1 23.1126C1.01523 22.9298 1.09136 22.6251 1.19796 22.4423C1.30455 22.2595 3.36025 20.6902 5.79663 18.9534C8.21779 17.2166 10.4562 15.6626 10.7455 15.495C11.0805 15.3122 11.4003 15.236 11.6135 15.2969C11.8115 15.3427 12.9231 16.0739 14.0956 16.9119C15.2681 17.7498 16.2579 18.4354 16.3035 18.4354C16.3492 18.4354 16.4863 18.0698 16.6233 17.6279C16.7604 17.2014 17.2324 16.0892 17.674 15.1598C18.1004 14.2305 18.7704 12.9964 19.1511 12.4175C19.5165 11.8385 20.2474 10.833 20.7499 10.2084C21.2525 9.58371 22.3488 8.42583 24.6786 6.24718H1V3.65718H28.79L29.9321 3.13918C30.5564 2.86495 31.7289 2.42312 32.5207 2.16412C33.3126 1.90512 34.546 1.58518 35.2617 1.4633C35.9774 1.32618 37.1651 1.15859 37.9265 1.08242C38.6726 1.00624 39.906 0.975769 40.6674 1.02147ZM35.3378 4.03806C34.6678 4.17518 33.4953 4.49512 32.7491 4.75412C31.9878 4.99789 30.663 5.59206 29.7798 6.04912C28.8966 6.50618 27.6327 7.26795 26.978 7.74024C26.3232 8.21253 25.1811 9.18759 24.4654 9.90365C23.7345 10.6197 22.76 11.7167 22.3031 12.3413C21.8311 12.9659 21.1763 13.9715 20.8261 14.5504C20.4759 15.1294 19.9429 16.1958 19.6383 16.9119C19.349 17.6279 18.9227 18.7858 18.7247 19.5019C18.5115 20.2179 18.2374 21.4825 18.1156 22.3204C17.9177 23.4783 17.8872 24.4534 17.9481 26.3578C18.009 28.0794 18.1308 29.2982 18.344 30.2428C18.5267 30.9893 18.8161 32.0558 18.9836 32.6042C19.1663 33.1527 19.6231 34.2496 19.9886 35.0419C20.354 35.8341 21.024 37.0377 21.4809 37.7081C21.9225 38.3784 22.7447 39.4601 23.2929 40.1C23.8411 40.7551 24.8309 41.7454 25.4704 42.2939C26.1252 42.8424 27.1759 43.6346 27.8002 44.0612C28.4246 44.4725 29.5514 45.1124 30.3128 45.4628C31.0589 45.8285 32.3532 46.3465 33.1603 46.6055C33.9826 46.8645 35.2921 47.1996 36.0535 47.3368C37.028 47.5196 38.2615 47.5958 39.9822 47.5958C41.977 47.5805 42.8297 47.5196 44.0936 47.2454C44.9768 47.0625 46.3015 46.6969 47.0629 46.4379C47.8091 46.1789 48.875 45.7523 49.4232 45.4781C49.9713 45.2038 50.8241 44.7315 51.3266 44.4268C51.89 44.0916 53.3518 42.7662 55.1334 40.9989C57.4785 38.6679 58.1637 37.8909 58.788 36.8549C59.1992 36.1541 59.793 34.9962 60.0976 34.2801C60.4021 33.5641 60.798 32.4976 60.9655 31.9186C61.1483 31.3397 61.4071 30.2275 61.5594 29.481C61.7574 28.4755 61.8335 27.4395 61.8183 25.5198C61.8183 23.4478 61.7421 22.6099 61.468 21.3301C61.2853 20.4465 60.9198 19.1058 60.661 18.3592C60.4021 17.6127 59.991 16.5767 59.7473 16.0739C59.4885 15.5712 59.0469 14.7485 58.7423 14.2457C58.4378 13.7429 57.8135 12.8136 57.3262 12.1889C56.8541 11.5643 55.8796 10.4978 55.1791 9.81224C54.4939 9.12665 53.5041 8.27347 53.0016 7.89259C52.4991 7.52694 51.6768 6.97847 51.1743 6.67377C50.6718 6.36906 49.8952 5.94247 49.4536 5.72918C49.0272 5.51589 48.1288 5.135 47.4741 4.90647C46.8345 4.66271 45.6772 4.3123 44.9311 4.14471C44.1697 3.96189 42.7688 3.74859 41.8095 3.65718C40.8501 3.581 39.8451 3.52006 39.6015 3.52006C39.3426 3.5353 38.566 3.59624 37.8503 3.67242C37.1346 3.73336 36.0078 3.90095 35.3378 4.03806ZM8.90303 19.898C7.56301 20.8578 6.46664 21.6805 6.46664 21.711C6.48187 21.7567 8.53757 21.7872 11.0501 21.7872C15.466 21.7872 15.6183 21.7719 15.6183 21.4977C15.6183 21.2844 14.9483 20.7207 13.4865 19.6695L11.3546 18.1459L8.90303 19.898ZM66.2038 19.7152C65.016 20.5531 64.0415 21.2844 64.0415 21.3301C64.0415 21.3758 64.1024 21.4977 64.1633 21.6044C64.2394 21.7415 65.3206 21.7719 68.8229 21.7567L73.3606 21.711C70.5588 19.7152 69.432 18.9229 69.0513 18.6487L68.3508 18.1612L66.2038 19.7152ZM6.19255 32.1624H10.1517V28.2012L12.6642 28.2774L12.7403 32.1624C15.329 32.1624 16.0904 32.1015 16.0904 32.0405C16.0904 31.9796 15.9533 31.2788 15.7706 30.4865C15.5879 29.6181 15.4204 28.0946 15.3594 26.7082L15.2529 24.3924H6.19255V32.1624ZM64.4526 26.5558C64.4069 27.7594 64.2394 29.3439 64.0719 30.1056C63.9197 30.8522 63.7522 31.6292 63.6912 31.812C63.5999 32.1624 63.5999 32.1624 65.351 32.1624H67.1022V28.2012H69.6908V32.1624H73.65V24.3924H64.5592L64.4526 26.5558ZM54.8289 45.2648C68.6401 59.0679 72.8581 63.1815 73.1322 63.3034C73.4063 63.4252 73.8479 63.5319 74.122 63.5319C74.3961 63.5319 74.8986 63.3795 75.2184 63.1815C75.5534 62.9986 75.9645 62.6025 76.132 62.3131C76.2995 62.0084 76.4214 61.5208 76.4214 61.1704C76.4214 60.8352 76.33 60.3934 76.2234 60.1801C76.1168 59.9668 72.0511 55.8076 67.1783 50.9323C62.3208 46.0418 58.3007 42.0501 58.2551 42.0654C58.2094 42.0654 57.4176 42.7814 56.5039 43.6651L54.8289 45.2648ZM40.2867 6.32336C41.9008 6.35383 43.2104 6.46047 43.9413 6.62806C44.5656 6.78042 45.662 7.08512 46.3777 7.34412C47.0934 7.58789 48.2507 8.10589 48.9663 8.48677C49.682 8.86765 50.6718 9.46183 51.1743 9.82747C51.6768 10.1931 52.56 10.9244 53.1386 11.4577C53.7173 11.9909 54.6157 12.9659 55.1334 13.6363C55.6512 14.3067 56.3516 15.3427 56.7019 15.9216C57.0521 16.5158 57.5698 17.5822 57.8591 18.2831C58.1485 18.9991 58.5139 20.1265 58.6814 20.7969C58.8489 21.4672 59.0773 22.7013 59.1839 23.5392C59.2905 24.4534 59.321 25.6874 59.2601 26.632C59.2144 27.4852 59.0621 28.7192 58.9251 29.3744C58.8032 30.0142 58.4835 31.1569 58.2398 31.8882C57.9962 32.6195 57.5394 33.7164 57.2348 34.3258C56.9303 34.9352 56.5039 35.697 56.2907 36.0322C56.0775 36.3674 55.5446 37.0986 55.1182 37.6319C54.6918 38.1804 53.9 39.0488 53.3671 39.582C52.8341 40.1 51.8139 40.9532 51.0982 41.4559C50.3825 41.9739 49.1186 42.7205 48.2811 43.1318C47.4436 43.5432 46.134 44.0459 45.3879 44.2745C44.6265 44.4878 43.2256 44.7772 42.2663 44.8991C41.109 45.0515 39.9974 45.1124 38.9924 45.0515C38.1549 45.0058 36.9215 44.8534 36.2514 44.7315C35.5814 44.5944 34.5917 44.3506 34.0435 44.1678C33.4953 44.0002 32.5055 43.6041 31.8355 43.3147C31.1655 43.0099 30.0691 42.4158 29.3991 41.9892C28.7291 41.5474 27.6327 40.7246 26.9627 40.1305C26.2927 39.5363 25.3182 38.5155 24.7852 37.8452C24.2675 37.1901 23.5975 36.2302 23.2929 35.7275C22.9884 35.2247 22.5468 34.4477 22.3184 33.9754C22.09 33.5184 21.694 32.4976 21.4352 31.6901C21.1763 30.8979 20.8565 29.5572 20.7043 28.7192C20.5063 27.5614 20.4759 26.6777 20.5368 24.9866C20.5824 23.783 20.7347 22.2747 20.8718 21.6348C21.0088 21.0102 21.2981 19.9894 21.5113 19.3495C21.7245 18.7249 22.1966 17.6279 22.5468 16.9119C22.897 16.2111 23.5822 15.0684 24.0695 14.3981C24.5416 13.7277 25.4248 12.6765 26.0186 12.0671C26.6277 11.4577 27.6327 10.5588 28.2571 10.0865C28.8814 9.61418 30.0844 8.86765 30.9219 8.44106C31.7594 7.99924 33.0994 7.43553 33.8912 7.17653C34.683 6.9023 35.886 6.59759 36.556 6.47571C37.3783 6.33859 38.5812 6.27765 40.2867 6.32336ZM34.2719 9.76653C33.7694 9.94936 32.8101 10.3759 32.1401 10.7264C31.47 11.0768 30.4041 11.7319 29.7798 12.2042C29.1555 12.6765 28.1962 13.5296 27.648 14.1086C27.0998 14.6875 26.3384 15.6474 25.9425 16.2263C25.5466 16.8205 24.9375 17.9174 24.5873 18.6639C24.237 19.4257 23.7802 20.6902 23.567 21.4825C23.3082 22.5032 23.1711 23.524 23.1102 24.9104C23.0645 26.3578 23.1102 27.2871 23.2777 28.3384C23.4147 29.1458 23.7345 30.4104 23.9934 31.1569C24.2523 31.9186 24.7091 32.9851 24.9984 33.5184C25.3029 34.0668 25.8359 34.92 26.2014 35.4228C26.5516 35.9255 27.2825 36.7939 27.8155 37.3424C28.3484 37.8909 29.2316 38.6831 29.7798 39.0945C30.328 39.5058 31.3178 40.1305 31.9878 40.4809C32.6578 40.8313 33.678 41.3036 34.2719 41.5016C34.8505 41.7149 35.886 41.9892 36.556 42.1263C37.226 42.2634 38.429 42.4158 39.2208 42.4615C40.1649 42.5072 41.2004 42.4615 42.1901 42.3091C43.0276 42.1872 44.2915 41.8978 45.0072 41.6692C45.7229 41.4407 46.8193 40.9989 47.4436 40.6789C48.0679 40.359 49.0577 39.7648 49.6516 39.3535C50.2302 38.9269 51.1895 38.1194 51.7682 37.5405C52.3468 36.9615 53.1539 36.0169 53.565 35.4228C53.9762 34.8438 54.5852 33.8535 54.905 33.2136C55.2096 32.589 55.6664 31.4921 55.8796 30.776C56.108 30.0752 56.3973 28.8411 56.5039 28.0336C56.6257 27.2414 56.7323 26.114 56.7323 25.5198C56.7323 24.9409 56.6257 23.8439 56.5039 23.0822C56.3821 22.3356 56.1384 21.2387 55.9557 20.6445C55.773 20.0656 55.3314 18.9687 54.9659 18.2069C54.6005 17.4604 53.8543 16.2568 53.3214 15.5407C52.7884 14.8399 51.89 13.8191 51.3114 13.2859C50.7327 12.7527 49.8191 12.0214 49.2709 11.6709C48.7227 11.3053 47.9309 10.8482 47.5197 10.6349C47.0934 10.4217 46.2711 10.056 45.6924 9.84271C45.0986 9.61418 43.9565 9.30947 43.1342 9.14189C42.114 8.92859 41.0785 8.85242 39.7842 8.85242C38.5812 8.86765 37.4392 8.95906 36.556 9.15712C35.7946 9.30947 34.7744 9.58371 34.2719 9.76653ZM39.9365 15.236C40.1497 15.236 42.114 16.5462 44.8854 18.5268C47.4284 20.3398 49.6516 21.9852 49.8343 22.1833C50.0475 22.4118 50.1845 22.747 50.1845 23.0517C50.1693 23.3259 50.0932 23.6611 49.9866 23.7982C49.88 23.9354 49.6059 24.1182 49.3775 24.2096C49.1491 24.301 48.6618 24.3772 47.5959 24.3772V29.1458C47.5959 33.7012 47.5806 33.9145 47.2913 34.2496C47.1238 34.4325 46.7584 34.6305 46.4843 34.6762C46.2102 34.7219 43.0276 34.7372 32.8253 34.661L32.4903 34.3258C32.1401 33.9754 32.14 33.9297 32.0487 24.4534L31.1046 24.3619C30.3737 24.2705 30.0996 24.1639 29.8864 23.9049C29.7341 23.7068 29.5666 23.3716 29.5209 23.1584C29.4753 22.9146 29.5514 22.6404 29.7341 22.3966C29.9016 22.1985 31.8812 20.7055 34.1348 19.0753C36.3885 17.4604 38.5356 15.9368 38.901 15.6931C39.2817 15.4493 39.7385 15.236 39.9365 15.236ZM37.5153 19.8371C36.2362 20.7664 35.1246 21.5739 35.0333 21.6501C34.9571 21.7415 36.8605 21.7872 39.7994 21.7872C42.4947 21.7872 44.7027 21.7415 44.6874 21.6805C44.6874 21.6196 43.987 21.0711 43.1342 20.4769C42.2815 19.8675 41.1851 19.1058 40.7131 18.7706L39.8603 18.1459L37.5153 19.8371ZM34.6373 32.1624H38.5965V28.2012H41.1851V32.1624H44.992V24.3924H34.6373V32.1624Z" fill="#78B404" stroke="#78B404"/>
</svg>
