<svg width="79" height="48" viewBox="0 0 79 48" fill="none" xmlns="http://www.w3.org/2000/svg">
<path d="M64.959 47.2748H14.041C10.3302 47.2748 6.82085 45.836 4.15954 43.2234C1.47724 40.5904 0 37.0987 0 33.3918C0 29.6848 1.47724 26.1931 4.15954 23.5601C6.26013 21.498 8.88904 20.1673 11.7284 19.6979C11.7272 19.6352 11.7266 19.5721 11.7266 19.5087C11.7266 9.30194 20.0327 0.998047 30.2422 0.998047C34.0283 0.998047 37.6668 2.13753 40.7643 4.29341C42.9448 5.81098 44.7552 7.75538 46.101 10.0075C48.2733 8.66039 50.7789 7.93956 53.3867 7.93956C60.3125 7.93956 66.0702 13.034 67.1069 19.6716C70.0094 20.1159 72.6993 21.4581 74.8406 23.5601C77.5228 26.1931 79 29.6847 79 33.3918C79 37.0988 77.5228 40.5904 74.8406 43.2234C72.1792 45.836 68.6698 47.2748 64.959 47.2748ZM14.041 24.1364C8.85109 24.1364 4.62891 28.2884 4.62891 33.3918C4.62891 38.4952 8.85109 42.6471 14.041 42.6471H64.959C70.1489 42.6471 74.3711 38.4952 74.3711 33.3918C74.3711 28.2884 70.1489 24.1364 64.959 24.1364H62.6445V21.8226C62.6445 16.7192 58.4915 12.5672 53.3867 12.5672C50.9541 12.5672 48.6529 13.5113 46.907 15.2255L44.4157 17.6717L43.1328 14.4248C41.0206 9.07966 35.9607 5.62572 30.2422 5.62572C22.5851 5.62572 16.3555 11.8536 16.3555 19.5087C16.3555 20.0554 16.4413 20.6424 16.532 21.2639L16.9466 24.1364H14.041Z" fill="#1294F2"/>
</svg>
