<svg width="69" height="68" viewBox="0 0 69 68" fill="none" xmlns="http://www.w3.org/2000/svg">
<path fill-rule="evenodd" clip-rule="evenodd" d="M41.0139 1.02934C41.1966 1.06847 43.3373 1.81182 45.7782 2.69862C48.9761 3.85929 50.2814 4.40703 50.4642 4.61569C50.673 4.87651 50.6991 5.05909 50.6208 6.08935C50.5816 6.74141 50.5164 8.11074 50.3858 11.045L51.2082 11.658C51.665 11.984 52.4482 12.6491 53.871 13.9532L56.8731 13.262C59.4184 12.6621 59.9275 12.5839 60.1886 12.7143C60.4105 12.8186 61.285 14.201 62.9688 17.1092C64.7571 20.2 65.4228 21.465 65.4228 21.7649C65.4228 22.1431 65.1487 22.4822 63.3343 24.4384C61.9768 25.886 61.2589 26.7597 61.2981 26.8901C61.3372 26.9945 61.4808 27.6465 61.6244 28.3247C61.768 29.0028 61.9115 29.9157 62.0551 31.1285L64.7179 32.4587C66.232 33.2282 67.4721 33.9324 67.5765 34.0889C67.7723 34.3628 67.7201 34.7801 66.9369 39.4097C66.2842 43.3091 66.0362 44.4828 65.8535 44.6523C65.6969 44.7958 65.2139 44.9392 64.5091 45.0305C63.8956 45.1087 63.3865 45.187 63.3735 45.2C63.3604 45.2 63.4648 45.7739 63.5954 46.452C63.752 47.2084 63.8564 48.2256 63.8564 49.0602C63.8564 49.8166 63.7781 50.9251 63.6606 51.5381C63.5562 52.151 63.3343 53.0509 63.1646 53.5595C62.9949 54.0681 62.6033 54.9549 61.768 56.6242L64.483 59.3889C65.984 60.9147 67.3154 62.3754 67.4329 62.6231C67.5634 62.8709 67.707 63.3404 67.7462 63.6664C67.7853 63.9925 67.7462 64.5141 67.6548 64.8402C67.5765 65.1662 67.2893 65.6878 67.0152 66.0008C66.7542 66.3138 66.2973 66.692 66.0101 66.8485C65.6316 67.0441 65.2531 67.1093 64.6396 67.1093C64.0522 67.1093 63.6345 67.018 63.269 66.8355C62.9688 66.679 61.6374 65.414 57.3691 60.993L56.4032 61.4755C55.8681 61.7494 54.9935 62.1145 54.4583 62.2971C53.9232 62.4797 53.0225 62.7144 52.4743 62.8188C51.913 62.9231 50.8166 63.0144 50.0204 63.0144C49.0806 63.0144 48.1146 62.9231 47.2532 62.7405C46.5091 62.5971 45.3735 62.258 44.734 61.9841C44.0944 61.7103 43.2198 61.2799 42.8152 61.0191C42.3975 60.7582 41.9798 60.5626 41.9015 60.6017C41.8101 60.6409 41.3533 61.945 40.8834 63.5099C40.309 65.427 39.9435 66.4312 39.4606 66.9268L29.3316 66.9398L29.0444 66.6398C28.9008 66.4703 28.5876 65.727 28.3526 64.9706C28.1307 64.2142 27.7391 62.9361 27.0473 60.667L25.977 60.354C25.3765 60.1714 24.4106 59.8193 22.7399 59.102L21.0169 60.2496C20.064 60.8756 18.9023 61.645 18.4324 61.945C17.9625 62.2449 17.4535 62.4927 17.2968 62.4927C17.101 62.4927 15.7305 61.4364 13.381 59.4802C11.3839 57.824 9.62173 56.3242 9.46509 56.1547C9.2954 55.9851 9.16488 55.6852 9.16488 55.4765C9.16488 55.2809 9.66088 53.9507 10.2744 52.5162C10.8879 51.0816 11.3839 49.8297 11.3839 49.7384C11.3839 49.6601 11.1228 49.1907 10.8095 48.6951C10.4963 48.2126 10.0003 47.3649 9.70004 46.8041C9.32151 46.0999 9.07351 45.7869 8.87771 45.7347C8.70803 45.7086 7.35053 45.5261 5.83639 45.3435C3.39551 45.0566 3.06918 44.9914 2.80813 44.7306C2.57317 44.4697 2.41654 43.7133 1.71169 39.5401C0.928513 34.8322 0.902407 34.6366 1.11125 34.2845C1.26789 34.0237 2.03801 33.5803 3.94373 32.6283C6.28019 31.4546 6.5543 31.285 6.60651 30.959C6.64567 30.7634 6.71094 30.2809 6.75009 29.8896C6.80231 29.4984 6.94589 28.6377 7.08947 27.9986C7.22 27.3466 7.33747 26.8119 7.33747 26.7858C7.33747 26.7728 6.39767 25.7555 5.24901 24.5427C3.43466 22.6126 3.16055 22.2735 3.16055 21.8953C3.16055 21.5954 3.82625 20.3434 5.61449 17.2396C7.48106 14.0184 8.14675 12.9621 8.42086 12.8317C8.73413 12.7013 9.12572 12.7534 11.5536 13.3272C13.0677 13.6924 14.4121 13.9793 14.5166 13.9793C14.621 13.9793 15.0909 13.6272 15.5608 13.2229C16.0307 12.8056 16.8139 12.1405 18.2105 11.045L18.1322 10.0669C18.08 9.53223 18.0017 8.12378 17.9625 6.93703C17.8842 4.92868 17.8972 4.77218 18.1191 4.56352C18.2627 4.44615 20.3903 3.61151 22.8704 2.71166C25.3504 1.81182 27.5172 1.06847 27.7 1.06847C27.8827 1.06847 28.1307 1.13367 28.2482 1.22496C28.3787 1.31625 29.2402 2.42476 31.8899 5.95893H36.589L38.4164 3.52022C39.4214 2.17697 40.3482 1.05543 40.4657 1.02934C40.5831 0.990219 40.8311 0.990219 41.0139 1.02934V1.02934ZM19.9465 5.89373C19.9074 5.93285 19.9465 7.28914 20.0249 8.90625C20.1684 11.5015 20.1684 11.8797 19.9988 12.0883C19.8943 12.2187 19.3331 12.6752 18.7587 13.1186C18.1844 13.5489 17.2054 14.3966 16.5789 14.9835C15.6652 15.8442 15.3519 16.0659 15.0387 16.0659C14.8298 16.0659 13.5115 15.8051 12.1409 15.479C10.7573 15.153 9.53036 14.8922 9.42593 14.8922C9.30846 14.8922 8.47307 16.2094 7.33747 18.1655C6.29324 19.9783 5.43175 21.5302 5.4187 21.6215C5.3926 21.7258 6.26714 22.743 7.33747 23.8906C8.42086 25.0383 9.32151 26.1077 9.36067 26.2642C9.39983 26.4337 9.28235 27.2031 9.09961 27.9986C8.92992 28.7811 8.70803 30.0461 8.62971 30.8025C8.53834 31.5589 8.39476 32.3022 8.30339 32.4587C8.18591 32.6413 7.15473 33.2412 5.61449 34.0107C4.23089 34.7018 3.08224 35.2756 3.05613 35.2887C3.04308 35.2887 3.30414 37.0232 3.64351 39.1359C3.99594 41.2355 4.29615 43.0091 4.33531 43.0874C4.37447 43.1526 5.66671 43.3482 7.20694 43.5308C8.8255 43.7264 10.1438 43.9481 10.3135 44.0524C10.4702 44.1567 10.914 44.8349 11.2794 45.5652C11.658 46.3085 12.2976 47.404 12.7022 48.0169C13.1068 48.6299 13.4723 49.2559 13.5115 49.4124C13.5767 49.621 13.3679 50.247 12.8327 51.499C12.415 52.4901 11.8929 53.7029 11.671 54.2115L11.2794 55.1244L17.3882 60.2757C21.2779 57.7457 22.518 57.0154 22.6485 57.0154C22.766 57.0154 23.3795 57.2371 24.019 57.524C24.6456 57.7979 25.8595 58.2413 26.721 58.5151C27.5825 58.789 28.3918 59.102 28.5092 59.2194C28.6267 59.3367 29.0966 60.6539 29.5535 62.1667L30.3888 64.9054C36.602 64.9575 38.4033 64.9575 38.4033 64.9314C38.4033 64.9184 38.7557 63.7316 39.1865 62.2971C39.6172 60.8626 40.0219 59.5584 40.1002 59.3889C40.2177 59.1411 40.1263 58.9716 39.4084 58.0848C38.9646 57.5371 38.3642 56.7024 38.077 56.2329C37.8029 55.7634 37.3721 54.9158 37.1372 54.3419L36.7195 53.2986C34.5397 53.3639 33.2866 53.3247 32.5295 53.2465C31.7725 53.1552 30.5716 52.9465 29.8537 52.777C29.1358 52.5944 28.0785 52.2684 27.5042 52.0597C26.9298 51.838 25.8987 51.3555 25.2199 50.9904C24.5412 50.6252 23.4839 49.9731 22.8704 49.5297C22.2569 49.0994 21.2388 48.1995 20.5861 47.5475C19.9465 46.8954 19.0198 45.813 18.5368 45.1348C18.0539 44.4567 17.3621 43.3221 17.0097 42.6048C16.6572 41.8876 16.1873 40.766 15.9524 40.127C15.7305 39.4749 15.4172 38.3664 15.2736 37.6492C15.0387 36.5798 14.9865 35.9147 14.9865 33.8672C14.9865 31.7806 15.0387 31.1677 15.2867 30.02C15.4433 29.2636 15.7305 28.2073 15.9002 27.6726C16.0829 27.1379 16.5006 26.1337 16.8139 25.4556C17.1402 24.7774 17.7928 23.6298 18.2758 22.9126C18.7587 22.1953 19.6463 21.0868 20.2598 20.4478C20.8733 19.8087 21.8784 18.8828 22.518 18.3872C23.4317 17.683 23.7449 17.5004 24.1104 17.5004C24.4628 17.5004 24.6325 17.5917 24.8283 17.8525C24.985 18.0612 25.1024 18.3351 25.1024 18.4785C25.1024 18.622 24.998 18.8567 24.8675 19.0132C24.737 19.1567 24.1626 19.6262 23.6014 20.0565C23.027 20.4738 22.1264 21.2954 21.6043 21.8693C21.0691 22.4431 20.3381 23.356 19.9596 23.8906C19.5941 24.4253 19.0459 25.3643 18.7457 25.9772C18.4324 26.5902 18.0147 27.6074 17.7928 28.2595C17.584 28.8985 17.2968 29.9287 17.1663 30.5417C16.9966 31.3633 16.9313 32.224 16.9444 33.8672C16.9444 35.5234 16.9966 36.3581 17.1793 37.1927C17.3099 37.8057 17.5579 38.7446 17.7406 39.2793C17.9103 39.814 18.2888 40.753 18.576 41.3659C18.8632 41.9788 19.4375 42.97 19.8421 43.5829C20.2468 44.1959 21.1213 45.2392 21.7609 45.9173C22.4135 46.5824 23.3533 47.4431 23.8494 47.8213C24.3584 48.1995 25.233 48.7733 25.8073 49.0994C26.3816 49.4254 27.3214 49.8818 27.8957 50.1166C28.4701 50.3383 29.5013 50.6643 30.18 50.8339C30.8588 51.0164 32.0988 51.2121 32.9211 51.2903C33.7434 51.3685 34.8399 51.3946 35.3359 51.3425L36.2496 51.2642C36.2626 47.4562 36.3149 46.6998 36.4845 46.0608C36.602 45.5913 36.6934 45.2 36.6673 45.187C36.6542 45.174 36.1713 45.2261 35.5969 45.3044C34.8399 45.4087 34.1872 45.4087 33.2474 45.3044C32.5295 45.2131 31.4853 45.0044 30.9371 44.8218C30.3758 44.6393 29.6318 44.3524 29.2663 44.1698C28.9139 43.9872 28.5614 43.7264 28.4831 43.5829C28.4179 43.4395 28.3526 43.1786 28.3526 42.9961C28.3526 42.8135 28.4701 42.5527 28.6137 42.4092C28.7572 42.2658 29.0313 42.1484 29.2402 42.1484C29.436 42.1484 29.9712 42.3179 30.4411 42.5266C30.911 42.7483 31.668 43.0221 32.1379 43.1395C32.66 43.283 33.5085 43.3743 34.3569 43.3743C35.3228 43.3743 36.0146 43.3091 36.6934 43.1265C37.6332 42.8657 37.6593 42.8526 38.0509 42.1484C38.2858 41.7571 38.7949 41.0268 39.1865 40.5182C39.5911 40.0096 40.2699 39.2924 40.7006 38.9142C41.1183 38.536 41.9276 37.923 42.4889 37.5448C43.2068 37.0623 43.5331 36.7493 43.6375 36.4754C43.7028 36.2668 43.8333 35.5495 43.9116 34.9105C44.0291 34.0498 44.0291 33.4629 43.9247 32.6935C43.8464 32.1197 43.6245 31.2068 43.4417 30.6721C43.259 30.1374 42.9066 29.368 42.6716 28.9767C42.4497 28.5855 41.7318 27.7248 41.0792 27.0857C40.2438 26.2511 39.6303 25.7686 38.9907 25.4295C38.4947 25.1687 37.6724 24.8296 37.1633 24.6731C36.589 24.4905 35.7405 24.3601 34.879 24.321C33.8479 24.2688 33.2474 24.2949 32.4643 24.4775C31.8899 24.5949 30.9501 24.9209 30.3758 25.1817C29.8015 25.4556 28.953 25.9642 28.4962 26.3163C28.0263 26.6684 27.3736 27.3074 27.0212 27.7378C26.6818 28.1682 26.1989 28.8985 25.9509 29.368C25.7029 29.8375 25.3765 30.6199 25.2199 31.1285C25.0633 31.6241 24.9066 32.537 24.8675 33.1499C24.8153 33.802 24.8544 34.6888 24.9589 35.3017C25.0372 35.8755 25.2591 36.7232 25.4418 37.1927C25.6115 37.6622 25.99 38.4056 26.2641 38.849C26.5905 39.3576 26.7863 39.827 26.7863 40.0879C26.7993 40.3617 26.6949 40.6095 26.5121 40.7791C26.3425 40.9356 26.0683 41.0399 25.8203 41.0268C25.5332 41.0138 25.3113 40.8964 25.0502 40.5704C24.8544 40.3226 24.4759 39.7227 24.2148 39.2141C23.9538 38.7055 23.6014 37.8969 23.4317 37.3883C23.262 36.8797 23.0662 36.006 22.9879 35.4321C22.8965 34.8322 22.8704 33.8281 22.9096 33.0847C22.9487 32.3675 23.1053 31.3502 23.262 30.8286C23.4056 30.32 23.6927 29.5245 23.8885 29.068C24.0974 28.6246 24.5151 27.8813 24.8283 27.4118C25.1416 26.9423 25.7812 26.1729 26.2511 25.7034C26.721 25.2339 27.5825 24.5427 28.1568 24.1645C28.7311 23.7863 29.6709 23.3038 30.2453 23.0821C30.8196 22.8734 31.7202 22.6126 32.2424 22.5083C32.7514 22.4039 33.7434 22.3257 34.4222 22.3257C35.1009 22.3257 36.1191 22.417 36.6803 22.5344C37.2286 22.6517 38.0639 22.8865 38.5338 23.056C39.0037 23.2386 39.7608 23.6037 40.2307 23.8776C40.7006 24.1515 41.4577 24.6992 41.9145 25.0774C42.3714 25.4686 43.0762 26.1859 43.4678 26.6945C43.8464 27.1901 44.4337 28.129 44.747 28.7811C45.0603 29.4201 45.4519 30.4243 45.6085 30.9981C45.8304 31.8328 45.8957 32.4327 45.8957 33.9585C45.9087 35.0279 45.9348 35.8886 45.974 35.8886C46.0131 35.8886 46.3656 35.7973 46.7572 35.6799C47.201 35.5495 48.3104 35.4452 49.6549 35.393C51.6911 35.3017 51.8347 35.2887 51.9 35.0409C51.9391 34.8975 51.9783 34.3758 51.9783 33.8672C51.9783 33.3586 51.8869 32.3414 51.7825 31.585C51.6911 30.8286 51.4431 29.681 51.2604 29.0419C51.0777 28.3899 50.7122 27.3987 50.4642 26.8249C50.2162 26.2511 49.7463 25.3252 49.3938 24.7644C49.0545 24.1906 48.3627 23.2255 47.8536 22.6126C47.3445 21.9866 46.4961 21.1129 45.9609 20.6564C45.4258 20.2 44.6165 19.574 44.1466 19.274C43.6767 18.9611 42.8282 18.4785 42.2539 18.1916C41.6796 17.9047 40.7659 17.5004 40.2307 17.3048C39.6955 17.1222 38.7557 16.8353 38.1423 16.7049C37.4374 16.5354 36.3149 16.418 35.0748 16.3789C33.639 16.3267 32.7645 16.3528 31.8116 16.5093C31.0937 16.6136 29.945 16.8614 29.2663 17.057C28.1438 17.37 28.0002 17.3961 27.7 17.2266C27.5172 17.1222 27.3214 16.8745 27.2431 16.6788C27.1387 16.405 27.1648 16.2224 27.3084 15.9616C27.465 15.6877 27.7522 15.5312 28.6137 15.2443C29.2271 15.0356 30.428 14.7487 31.2895 14.6053C32.6078 14.3836 33.2083 14.3575 35.0748 14.4097C36.7978 14.4618 37.6071 14.5531 38.6644 14.8009C39.4214 14.9835 40.5309 15.3095 41.1444 15.5312C41.7579 15.7659 42.8152 16.2354 43.4939 16.6006C44.1727 16.9657 45.2039 17.5917 45.7782 17.996C46.3395 18.4003 47.3706 19.3001 48.0624 19.9783C48.7542 20.6564 49.6157 21.6215 49.9943 22.1301C50.3597 22.6256 50.921 23.4864 51.2473 24.0211C51.5737 24.5557 52.0827 25.586 52.3829 26.3033C52.6832 27.0205 53.0878 28.2464 53.2836 29.0419C53.4924 29.8244 53.7274 31.1546 53.8057 31.9762C53.9101 32.8369 53.9362 33.9846 53.8971 34.6497L53.8057 35.8234C54.6672 36.0842 55.5026 36.4494 56.2205 36.8015C56.9384 37.1405 57.6824 37.61 57.8913 37.8317C58.087 38.0534 58.2437 38.3403 58.2437 38.4577C58.2567 38.5881 58.1393 38.849 57.9826 39.0446C57.7999 39.3054 57.6041 39.4097 57.33 39.4097C57.1211 39.4097 56.4554 39.1489 55.8681 38.8359C55.2676 38.5099 54.4583 38.1317 54.0668 37.9882C53.6752 37.8317 52.9442 37.6231 52.4352 37.5187C51.9391 37.4144 50.8558 37.3231 50.0595 37.3231C49.2502 37.3231 48.193 37.4144 47.71 37.5187C47.214 37.61 46.4961 37.8187 46.1045 37.9491C45.7129 38.0926 45.0603 38.3664 44.6687 38.562C44.2771 38.7577 43.5984 39.1619 43.1676 39.4619C42.7369 39.7488 42.032 40.3487 41.5882 40.7791C41.1575 41.2094 40.557 41.9136 40.2699 42.344C39.9827 42.7744 39.5781 43.4525 39.3823 43.8437C39.1865 44.235 38.9124 44.887 38.7688 45.2783C38.6383 45.6695 38.4294 46.3868 38.338 46.8693C38.2336 47.3649 38.1423 48.356 38.1423 49.0863C38.1423 49.8297 38.2075 50.7817 38.2728 51.2121C38.3511 51.6424 38.5338 52.3727 38.6905 52.8422C38.8341 53.3117 39.1473 54.0681 39.3823 54.5376C39.6172 55.0071 40.0741 55.7374 40.3873 56.1677C40.7137 56.5981 41.288 57.2632 41.6796 57.6414C42.0712 58.0326 42.7369 58.5934 43.1676 58.9064C43.5984 59.2194 44.3946 59.6758 44.9298 59.9366C45.4649 60.1844 46.3525 60.5105 46.8877 60.667C47.5012 60.8365 48.441 60.9669 49.3677 61.0191C50.2553 61.0582 51.2604 61.0321 51.8478 60.9408C52.3829 60.8495 53.2966 60.6278 53.871 60.4322C54.4453 60.2366 55.3851 59.8062 55.9594 59.4932C56.7165 59.0629 57.3691 58.5412 58.3742 57.5371C59.3793 56.5329 59.9014 55.8808 60.3321 55.1244C60.6454 54.5506 61.0762 53.6116 61.2719 53.0378C61.4677 52.464 61.6896 51.5511 61.781 51.0164C61.8724 50.4557 61.8985 49.3993 61.8593 48.5386C61.8071 47.4562 61.7027 46.7128 61.4547 45.8912C61.2719 45.2652 60.9456 44.4176 60.7368 44.0002C60.5279 43.596 60.1755 42.9569 59.9536 42.6048C59.7317 42.2397 59.549 41.8093 59.549 41.6267C59.549 41.4442 59.6795 41.1703 59.8361 41.0138C60.0058 40.8443 60.293 40.7138 60.5018 40.7138C60.6976 40.7138 60.9848 40.8443 61.1545 41.0008C61.3242 41.1703 61.7157 41.7441 62.029 42.2788C62.3423 42.8135 62.6033 43.2699 62.6033 43.2699C62.6164 43.283 62.9949 43.2439 63.4648 43.1656C63.9347 43.1004 64.3263 43.0352 64.3394 43.0222C64.3524 43.0091 64.6526 41.2355 65.0181 39.0837C65.3705 36.9319 65.6577 35.1583 65.6447 35.1583C65.6316 35.1452 64.5091 34.5845 63.1385 33.8933C61.781 33.2151 60.5671 32.55 60.4366 32.4196C60.3191 32.2762 60.1886 31.8719 60.1363 31.5198C60.0972 31.1546 59.9928 30.4504 59.9275 29.9548C59.8492 29.4462 59.6403 28.3899 59.4707 27.6074C59.1704 26.2902 59.1574 26.1468 59.3401 25.8729C59.4576 25.7164 60.3713 24.6992 61.3764 23.6298C62.3814 22.5474 63.2038 21.6345 63.2038 21.5693C63.2038 21.5171 62.3553 19.9783 61.2981 18.1525C60.2408 16.3267 59.3532 14.8009 59.3271 14.7618C59.301 14.7226 58.0609 14.9835 56.5729 15.3356C55.0849 15.6877 53.7143 15.9746 53.5316 15.9877C53.2836 16.0007 52.9181 15.7399 52.0958 14.9835C51.4953 14.4097 50.4511 13.5489 49.7985 13.0534C49.1328 12.5578 48.5323 12.0492 48.4671 11.9188C48.4018 11.7884 48.4149 10.5495 48.5193 8.82801C48.6107 7.25002 48.6498 5.91981 48.5976 5.86764C48.5584 5.81548 46.8746 5.1895 44.8645 4.45919C42.3061 3.5463 41.1705 3.19419 41.0792 3.28548C41.0139 3.36373 40.1916 4.43311 39.2518 5.67203L37.5549 7.91512L30.9632 7.98033C28.2612 4.23749 27.4258 3.15507 27.3606 3.16811C27.2953 3.16811 25.6115 3.768 23.6275 4.49831C21.6434 5.22862 19.9857 5.8546 19.9465 5.89373V5.89373ZM59.0269 59.7541C59.7709 60.6148 60.0189 60.8756 60.058 60.9017C60.0972 60.9147 60.4888 60.5757 60.9195 60.1453L61.7027 59.3628L60.5279 58.2413L59.0269 59.7541ZM61.4416 62.3362C63.256 64.2924 63.9478 64.9445 64.1436 65.0488C64.3394 65.1401 64.6787 65.1923 64.9006 65.1662C65.1225 65.1271 65.3967 64.9445 65.5533 64.7358C65.6969 64.5402 65.8143 64.2403 65.8143 64.0838C65.8143 63.9273 65.7491 63.6534 65.6708 63.4969C65.5924 63.3404 64.979 62.6623 64.3263 61.9972C63.6737 61.3321 63.0993 60.7843 63.0602 60.7974C63.021 60.7974 62.6425 61.1364 62.2118 61.5668L61.4416 62.3362ZM50.412 39.0837C51.2865 39.1098 52.148 39.2271 52.7615 39.4097C53.3097 39.5532 54.1842 39.9053 54.7194 40.1922C55.2676 40.4661 56.0508 40.9747 56.4554 41.3268C56.8731 41.6659 57.5127 42.2918 57.8651 42.7222C58.2176 43.1526 58.7397 43.9481 59.0269 44.4828C59.301 45.0305 59.6534 45.9043 59.81 46.439C59.9536 46.9867 60.1233 47.9517 60.1625 48.5908C60.2147 49.4384 60.1755 50.1035 60.0189 50.9382C59.9014 51.5902 59.6273 52.5292 59.4184 53.0248C59.2096 53.5334 58.7527 54.355 58.4003 54.8506C58.0479 55.3592 57.3952 56.1156 56.9253 56.559C56.4685 56.9893 55.6853 57.5892 55.1763 57.8761C54.6802 58.1761 53.8318 58.5673 53.2836 58.7499C52.7484 58.9325 51.7825 59.1411 51.1299 59.2324C50.2684 59.3367 49.681 59.3367 48.9109 59.2324C48.3366 59.1542 47.5534 58.9977 47.1487 58.8803C46.7572 58.776 45.9087 58.4108 45.2561 58.0717C44.3424 57.6023 43.8464 57.2241 42.9588 56.3633C42.3061 55.6982 41.6274 54.8636 41.3141 54.3289C41.0139 53.8333 40.6223 52.9857 40.4526 52.4379C40.2699 51.9032 40.061 50.9643 39.9697 50.3513C39.8652 49.5689 39.8652 48.9298 39.9566 48.1343C40.0349 47.5344 40.2438 46.5563 40.4265 45.9825C40.5962 45.4087 40.9747 44.561 41.2488 44.1046C41.5099 43.6351 42.1234 42.8526 42.5802 42.357C43.0501 41.8615 43.755 41.2094 44.1466 40.9225C44.5512 40.6356 45.2822 40.2052 45.7782 39.9705C46.2872 39.7488 47.0443 39.4619 47.4751 39.3576C47.9058 39.2402 48.441 39.1228 48.6498 39.0967C48.8717 39.0576 49.6679 39.0576 50.412 39.0837V39.0837ZM46.3656 41.9006C45.5171 42.3179 45.0342 42.67 44.2771 43.4264C43.6375 44.0785 43.1285 44.7436 42.8152 45.3304C42.5541 45.8391 42.2409 46.6346 42.1103 47.091C41.9667 47.6387 41.8884 48.4082 41.9015 49.2428C41.9015 50.2079 41.9798 50.7947 42.1886 51.4598C42.3453 51.9684 42.6847 52.764 42.9457 53.2204C43.2068 53.6899 43.7942 54.4593 44.2771 54.9288C44.747 55.3983 45.5171 55.9982 45.974 56.259C46.4439 56.5198 47.2662 56.8589 47.8014 57.0154C48.5062 57.2241 49.1197 57.3154 49.9551 57.3154C50.6078 57.3154 51.4562 57.2371 51.8478 57.1458C52.2524 57.0545 53.0747 56.7415 53.6752 56.4546C54.5497 56.0373 55.0066 55.7113 55.7767 54.9288C56.5338 54.1724 56.8992 53.6768 57.3169 52.8292C57.6171 52.2293 57.9565 51.2903 58.074 50.7426C58.2045 50.0775 58.2567 49.4254 58.2045 48.7212C58.1654 48.1474 58.0348 47.3649 57.9174 46.9606C57.7999 46.5694 57.5127 45.8651 57.2908 45.4087C57.0559 44.9392 56.5076 44.1698 56.0247 43.6742C55.5678 43.1656 54.8238 42.5266 54.3931 42.2527C53.9623 41.9658 53.14 41.5876 52.5657 41.405C51.8869 41.1833 51.1299 41.0529 50.3467 41.0268C49.6027 40.9877 48.8717 41.0399 48.3235 41.1573C47.8666 41.2616 46.9791 41.6007 46.3656 41.9006V41.9006Z" fill="#FCFEFF" stroke="white" stroke-width="1.00104"/>
</svg>
