<svg width="66" height="67" viewBox="0 0 66 67" fill="none" xmlns="http://www.w3.org/2000/svg">
<path fill-rule="evenodd" clip-rule="evenodd" d="M16.0498 0C16.4108 0 16.8491 0.116023 17.21 0.309394C17.5452 0.476983 17.9578 0.850834 18.1769 1.17312C18.5508 1.72745 18.5636 1.79191 18.6281 5.15657H30.2304L30.2691 3.4549C30.2948 1.79191 30.3077 1.72745 30.6816 1.17312C30.9007 0.850834 31.3133 0.476983 31.6484 0.309394C32.0094 0.116023 32.4477 0 32.8087 0C33.1696 0 33.6079 0.116023 33.9689 0.309394C34.3041 0.476983 34.7166 0.850834 34.9358 1.17312C35.3096 1.72745 35.3225 1.79191 35.387 5.15657H47.1181L47.1439 3.44201C47.1826 1.79191 47.1955 1.72745 47.5693 1.17312C47.7885 0.850834 48.201 0.476983 48.5362 0.309394C48.8972 0.116023 49.3355 0 49.6964 0C50.0574 0 50.4957 0.116023 50.8567 0.309394C51.1918 0.476983 51.6044 0.850834 51.8235 1.17312C52.1974 1.72745 52.2103 1.79191 52.2747 5.15657L54.8272 5.20813C56.7094 5.23392 57.5602 5.31127 58.1403 5.46596C58.5657 5.58199 59.2361 5.81403 59.6228 5.96873C60.0096 6.12342 60.7315 6.52306 61.2343 6.85824C61.737 7.18052 62.4847 7.8122 62.9101 8.23762C63.3356 8.66303 63.9543 9.43652 64.3024 9.95218C64.6376 10.4678 65.0372 11.2155 65.179 11.6023C65.3208 11.989 65.54 12.6336 65.656 13.0203C65.8494 13.6391 65.8752 14.7865 65.9396 30.746L65.6431 31.3262C65.4626 31.6613 65.0888 32.0739 64.7665 32.293C64.2766 32.6282 64.0833 32.6798 63.3613 32.6798C62.7039 32.6669 62.4203 32.6024 62.0206 32.3575C61.737 32.177 61.3632 31.8031 60.8475 31.0039L60.7186 14.3739L60.3963 13.6004C60.2287 13.175 59.8807 12.5691 59.6228 12.2468C59.365 11.9246 58.9267 11.512 58.6431 11.3187C58.3724 11.1253 57.818 10.8288 57.4313 10.6741C56.8125 10.4292 56.4386 10.3905 52.2747 10.3131L52.236 12.0277C52.2103 13.6004 52.1845 13.768 51.8751 14.245C51.6946 14.5286 51.3208 14.9025 51.0371 15.083C50.6375 15.3279 50.3539 15.3924 49.6964 15.3924C49.0132 15.3924 48.7683 15.3408 48.3428 15.0701C48.0592 14.8896 47.6854 14.5157 47.5049 14.2321C47.2213 13.7809 47.1955 13.5747 47.1181 10.3131H35.387L35.3483 12.0277C35.3225 13.6004 35.2967 13.768 34.9873 14.245C34.8068 14.5286 34.433 14.9025 34.1494 15.083C33.7497 15.3279 33.479 15.3924 32.8087 15.3924C32.1383 15.3924 31.8676 15.3279 31.468 15.083C31.1844 14.9025 30.8105 14.5286 30.63 14.245C30.3206 13.768 30.2948 13.6004 30.2304 10.3131H18.6281L18.5894 12.0277C18.5508 13.5747 18.525 13.7809 18.2414 14.2321C18.0609 14.5157 17.687 14.8896 17.4034 15.0701C16.9909 15.3408 16.7331 15.4052 16.0498 15.4052C15.3666 15.4052 15.1087 15.3408 14.6962 15.0701C14.4126 14.8896 14.0388 14.5157 13.8583 14.2321C13.5747 13.7809 13.5489 13.5747 13.4715 10.3131L11.3058 10.3518C9.39785 10.3905 9.06267 10.4292 8.37942 10.6999C7.95401 10.8675 7.34811 11.2155 7.02583 11.4734C6.70354 11.7312 6.25234 12.2211 6.02029 12.582C5.78825 12.9301 5.50464 13.4973 5.37572 13.8583C5.16946 14.4642 5.15657 15.9596 5.15657 35.5803C5.15657 55.2011 5.16946 56.6965 5.37572 57.3024C5.50464 57.6504 5.78825 58.2305 6.02029 58.5786C6.25234 58.9396 6.70354 59.4294 7.02583 59.6873C7.34811 59.9451 7.95401 60.2932 9.15291 60.783L30.8105 60.912L31.3262 61.2471C31.6098 61.4276 31.9836 61.8015 32.1641 62.0851C32.409 62.4847 32.4735 62.7683 32.4864 63.4258C32.4864 64.1477 32.4348 64.3411 32.0996 64.831C31.8805 65.1532 31.468 65.5271 30.5527 66.0041L19.5305 65.9783C9.70724 65.9396 8.43099 65.9138 7.79931 65.7205C7.41257 65.6044 6.768 65.3853 6.38125 65.2435C5.99451 65.1017 5.24681 64.702 4.73115 64.3669C4.2155 64.0188 3.44201 63.4 3.01659 62.9746C2.59118 62.5492 1.9595 61.8015 1.63721 61.2987C1.30203 60.7959 0.9024 60.074 0.747703 59.6873C0.593005 59.3005 0.36096 58.6044 0.232046 58.1403C0.0128914 57.3539 0 56.1164 0 35.5803C0 15.7018 0.0128914 13.7938 0.219154 13.0848C0.335177 12.6594 0.554331 11.989 0.696137 11.6023C0.837942 11.2155 1.23758 10.4678 1.57275 9.95218C1.92082 9.43652 2.53961 8.66303 2.96503 8.23762C3.39044 7.8122 4.13815 7.18052 4.64091 6.85824C5.14368 6.52306 5.8656 6.12342 6.25234 5.96873C6.63908 5.81403 7.30944 5.59488 7.73485 5.46596C8.30208 5.31127 9.1658 5.23392 13.4715 5.15657L13.5102 3.44201C13.536 1.76612 13.5489 1.72745 13.9356 1.18601C14.1548 0.876617 14.5802 0.489874 14.9025 0.309394C15.2634 0.116023 15.676 0 16.0498 0V0ZM50.7277 34.8713C51.6173 34.8971 52.8033 35.0131 53.3705 35.1291C53.9377 35.2451 54.8401 35.4901 55.3687 35.6706C55.8972 35.851 56.8641 36.2636 57.4957 36.5987C58.1274 36.921 59.0943 37.514 59.6228 37.9137C60.1514 38.3133 60.9764 39.0352 61.4534 39.5251C61.9304 40.015 62.6007 40.7885 62.9359 41.2525C63.284 41.7166 63.8254 42.619 64.1477 43.2507C64.4829 43.8953 64.8954 44.8493 65.0759 45.3778C65.2564 45.9063 65.5271 46.9506 65.6689 47.6983C65.8494 48.5491 65.9396 49.5546 65.9396 50.4055C65.9396 51.2563 65.8494 52.2618 65.6689 53.1127C65.5271 53.8604 65.2564 54.9046 65.0759 55.4331C64.8954 55.9617 64.4829 56.9156 64.1477 57.5602C63.8254 58.1919 63.284 59.0943 62.9359 59.5584C62.6007 60.0225 61.9304 60.7959 61.4534 61.2858C60.9764 61.7757 60.1514 62.4976 59.6228 62.8972C59.0943 63.2969 58.1274 63.8899 57.4957 64.2122C56.8641 64.5473 55.8972 64.9599 55.3687 65.1403C54.8401 65.3208 53.7959 65.5915 53.0482 65.7334C52.1974 65.9138 51.1918 66.0041 50.341 66.0041C49.4902 66.0041 48.4846 65.9138 47.6338 65.7334C46.8861 65.5915 45.8419 65.3208 45.3133 65.1403C44.7848 64.9599 43.8179 64.5473 43.1863 64.2122C42.5546 63.8899 41.5877 63.2969 41.0592 62.8972C40.5306 62.4976 39.7056 61.7757 39.2286 61.2858C38.7516 60.7959 38.0813 60.0225 37.7461 59.5584C37.398 59.0943 36.8566 58.1919 36.5343 57.5602C36.1991 56.9156 35.7866 55.9617 35.6061 55.4331C35.4256 54.9046 35.1678 53.9764 35.0389 53.3705C34.8842 52.597 34.8068 51.7204 34.8068 50.4055C34.8068 49.0905 34.8842 48.2139 35.0389 47.4404C35.1678 46.8345 35.4256 45.9063 35.6061 45.3778C35.7866 44.8493 36.1991 43.8953 36.5343 43.2507C36.8566 42.619 37.398 41.7166 37.7461 41.2525C38.0813 40.7885 38.7516 40.015 39.2286 39.5251C39.7056 39.0352 40.5306 38.3133 41.0592 37.9137C41.5877 37.514 42.5546 36.921 43.1863 36.5987C43.8179 36.2636 44.7848 35.851 45.3133 35.6706C45.8419 35.4901 46.7443 35.2451 47.3115 35.142C47.8787 35.026 48.5233 34.9229 48.7296 34.8842C48.9358 34.8584 49.8382 34.8455 50.7277 34.8713V34.8713ZM46.7314 40.6209C46.3447 40.7627 45.6743 41.0721 45.2489 41.317C44.8235 41.549 44.1273 42.0389 43.7019 42.3741C43.2765 42.7222 42.6448 43.3538 42.3096 43.7664C41.9616 44.1918 41.4846 44.8879 41.2526 45.3133C41.0076 45.7388 40.6982 46.4091 40.5564 46.7959C40.4017 47.1826 40.1955 47.9561 40.0923 48.4975C39.9892 49.0519 39.899 49.9027 39.899 50.4055C39.899 50.8953 39.9892 51.7591 40.0923 52.3005C40.1955 52.8548 40.4017 53.6283 40.5564 54.0151C40.6982 54.4018 41.0076 55.0721 41.2526 55.4976C41.4846 55.923 41.9745 56.6191 42.3096 57.0445C42.6577 57.47 43.2894 58.1016 43.7019 58.4368C44.1273 58.7849 44.8235 59.2619 45.2489 59.4939C45.6743 59.7388 46.3447 60.0482 46.7314 60.19C47.1181 60.3447 47.8916 60.551 48.446 60.6541C48.9874 60.7573 49.8382 60.8475 50.341 60.8475C50.8438 60.8475 51.6946 60.7573 52.2489 60.6541C52.7904 60.551 53.5639 60.3447 53.9506 60.19C54.3373 60.0482 55.0077 59.7388 55.4331 59.4939C55.8585 59.2619 56.5547 58.7849 56.9801 58.4368C57.3926 58.1016 58.0243 57.47 58.3724 57.0445C58.7075 56.6191 59.1974 55.923 59.4295 55.4976C59.6744 55.0721 59.9838 54.4018 60.1256 54.0151C60.2803 53.6283 60.4866 52.8548 60.5897 52.3005C60.6928 51.7591 60.7831 50.8953 60.7831 50.4055C60.7831 49.9027 60.6928 49.0519 60.5897 48.4975C60.4866 47.9561 60.2803 47.1826 60.1256 46.7959C59.9838 46.4091 59.6744 45.7388 59.4295 45.3133C59.1974 44.8879 58.7204 44.1918 58.3724 43.7664C58.0372 43.3538 57.4055 42.7222 56.9801 42.3741C56.5547 42.0389 55.8585 41.549 55.4331 41.317C55.0077 41.0721 54.3373 40.7627 53.9506 40.6209C53.5639 40.4662 52.7904 40.2599 52.236 40.1568C51.6946 40.0536 50.7922 39.9634 50.2508 39.9763C49.6964 39.9763 48.8456 40.0665 48.3428 40.1697C47.8401 40.2728 47.1181 40.4662 46.7314 40.6209ZM16.2432 24.5453C16.6428 24.571 17.0811 24.7129 17.4034 24.9062C17.687 25.0738 18.0609 25.4477 18.2414 25.7313C18.4863 26.1309 18.5508 26.4016 18.5508 27.072C18.5508 27.7423 18.4863 28.0131 18.2414 28.4127C18.0609 28.6963 17.687 29.0702 17.4034 29.2506C16.9909 29.5214 16.7331 29.5858 16.0498 29.5858C15.3666 29.5858 15.1087 29.5214 14.6962 29.2506C14.4126 29.0702 14.0388 28.6963 13.8583 28.4127C13.6133 28.0131 13.5489 27.7294 13.5489 27.072C13.5489 26.3758 13.6005 26.1438 13.897 25.6797C14.0903 25.3832 14.4384 25.0351 14.6704 24.9191C14.8896 24.7902 15.199 24.6484 15.3408 24.5968C15.4826 24.5453 15.8951 24.5195 16.2432 24.5453ZM27.4587 24.5453C27.8584 24.571 28.2967 24.7129 28.619 24.9062C28.9026 25.0738 29.2764 25.4477 29.4569 25.7313C29.7018 26.1309 29.7663 26.4016 29.7663 27.072C29.7663 27.7423 29.7018 28.0131 29.4569 28.4127C29.2764 28.6963 28.9026 29.0702 28.619 29.2506C28.2064 29.5214 27.9486 29.5858 27.2654 29.5858C26.5821 29.5858 26.3243 29.5214 25.9118 29.2506C25.6281 29.0702 25.2543 28.6963 25.0738 28.4127C24.8289 28.0131 24.7644 27.7294 24.7644 27.072C24.7644 26.3758 24.816 26.1438 25.1125 25.6797C25.3059 25.3832 25.6539 25.0351 25.886 24.9191C26.1051 24.7902 26.4145 24.6484 26.5563 24.5968C26.6981 24.5453 27.1107 24.5195 27.4587 24.5453V24.5453ZM38.6743 24.5453C39.0739 24.571 39.5122 24.7129 39.8345 24.9062C40.1181 25.0738 40.492 25.4477 40.6724 25.7313C40.9174 26.1309 40.9818 26.4016 40.9818 27.072C40.9818 27.7423 40.9174 28.0131 40.6724 28.4127C40.492 28.6963 40.1181 29.0702 39.8345 29.2506C39.422 29.5214 39.1641 29.5858 38.4809 29.5858C37.7976 29.5858 37.5398 29.5214 37.1273 29.2506C36.8437 29.0702 36.4698 28.6963 36.2894 28.4127C36.0444 28.0131 35.98 27.7294 35.98 27.072C35.98 26.3758 36.0315 26.1438 36.328 25.6797C36.5214 25.3832 36.8695 25.0351 37.1015 24.9191C37.3207 24.7902 37.6301 24.6484 37.7719 24.5968C37.9137 24.5453 38.3262 24.5195 38.6743 24.5453ZM49.8898 24.5453C50.2894 24.571 50.7277 24.7129 51.05 24.9062C51.3336 25.0738 51.7075 25.4477 51.888 25.7313C52.1329 26.1309 52.1974 26.4016 52.1974 27.072C52.1974 27.7423 52.1329 28.0131 51.888 28.4127C51.7075 28.6963 51.3336 29.0702 51.05 29.2506C50.6375 29.5214 50.3797 29.5858 49.6964 29.5858C49.0132 29.5858 48.7554 29.5214 48.3428 29.2506C48.0592 29.0702 47.6854 28.6963 47.5049 28.4127C47.26 28.0131 47.1955 27.7294 47.1955 27.072C47.1955 26.3758 47.2471 26.1438 47.5436 25.6797C47.7369 25.3832 48.085 25.0351 48.317 24.9191C48.5362 24.7902 48.8456 24.6484 48.9874 24.5968C49.1292 24.5453 49.5417 24.5195 49.8898 24.5453ZM16.2432 35.7608C16.6428 35.7866 17.0811 35.9284 17.4034 36.1218C17.687 36.2894 18.0609 36.6632 18.2414 36.9468C18.4863 37.3464 18.5508 37.6172 18.5508 38.2875C18.5508 38.9579 18.4863 39.2286 18.2414 39.6282C18.0609 39.9118 17.687 40.2857 17.4034 40.4662C16.9909 40.7369 16.7331 40.8013 16.0498 40.8013C15.3666 40.8013 15.1087 40.7369 14.6962 40.4662C14.4126 40.2857 14.0388 39.9118 13.8583 39.6282C13.6133 39.2286 13.5489 38.945 13.5489 38.2875C13.5489 37.5914 13.6005 37.3593 13.897 36.8952C14.0903 36.5987 14.4384 36.2507 14.6704 36.1347C14.8896 36.0057 15.199 35.8639 15.3408 35.8124C15.4826 35.7608 15.8951 35.735 16.2432 35.7608ZM27.4587 35.7608C27.8584 35.7866 28.2967 35.9284 28.619 36.1218C28.9026 36.2894 29.2764 36.6632 29.4569 36.9468C29.7018 37.3464 29.7663 37.6172 29.7663 38.2875C29.7663 38.9579 29.7018 39.2286 29.4569 39.6282C29.2764 39.9118 28.9026 40.2857 28.619 40.4662C28.2064 40.7369 27.9486 40.8013 27.2654 40.8013C26.5821 40.8013 26.3243 40.7369 25.9118 40.4662C25.6281 40.2857 25.2543 39.9118 25.0738 39.6282C24.8289 39.2286 24.7644 38.945 24.7644 38.2875C24.7644 37.5914 24.816 37.3593 25.1125 36.8952C25.3059 36.5987 25.6539 36.2507 25.8731 36.1347C26.1051 36.0057 26.4145 35.8639 26.5563 35.8124C26.6981 35.7608 27.0978 35.735 27.4587 35.7608ZM16.2432 46.9763C16.6428 47.0021 17.0811 47.1439 17.4034 47.3373C17.687 47.5049 18.0609 47.8787 18.2414 48.1623C18.4863 48.562 18.5508 48.8327 18.5508 49.5031C18.5508 50.1734 18.4863 50.4441 18.2414 50.8438C18.0609 51.1274 17.687 51.5012 17.4034 51.6817C16.9909 51.9524 16.7331 52.0169 16.0498 52.0169C15.3666 52.0169 15.1087 51.9524 14.6962 51.6817C14.4126 51.5012 14.0388 51.1274 13.8583 50.8438C13.6133 50.4441 13.5489 50.1605 13.5489 49.5031C13.5489 48.8069 13.6005 48.5749 13.897 48.1108C14.0903 47.8143 14.4384 47.4662 14.6575 47.3502C14.8896 47.2213 15.199 47.0795 15.3408 47.0279C15.4826 46.9763 15.8822 46.9506 16.2432 46.9763ZM27.4587 46.9763C27.8584 47.0021 28.2967 47.1439 28.619 47.3373C28.9026 47.5049 29.2764 47.8787 29.4569 48.1623C29.7018 48.562 29.7663 48.8327 29.7663 49.5031C29.7663 50.1734 29.7018 50.4441 29.4569 50.8438C29.2764 51.1274 28.9026 51.5012 28.619 51.6817C28.2064 51.9524 27.9486 52.0169 27.2654 52.0169C26.5821 52.0169 26.3243 51.9524 25.9118 51.6817C25.6281 51.5012 25.2543 51.1274 25.0738 50.8438C24.8289 50.4441 24.7644 50.1605 24.7644 49.5031C24.7644 48.8069 24.816 48.5749 25.1125 48.1108C25.3059 47.8143 25.6539 47.4662 25.8731 47.3502C26.1051 47.2213 26.4145 47.0795 26.5563 47.0279C26.6981 46.9763 27.0978 46.9506 27.4587 46.9763ZM50.5344 42.5933C50.934 42.619 51.3723 42.7608 51.6946 42.9542C51.9782 43.1218 52.3521 43.4957 52.5325 43.7793C52.8162 44.2305 52.8548 44.4367 52.9451 47.7627L53.9248 47.8401C54.6725 47.8916 55.0464 47.9948 55.4331 48.2268C55.7167 48.4073 56.0906 48.7811 56.2711 49.0647C56.516 49.4644 56.5805 49.748 56.5805 50.4055C56.5805 51.0887 56.5289 51.3336 56.2582 51.7591C56.0777 52.0427 55.7038 52.4165 55.4202 52.597C54.9303 52.9193 54.8788 52.9193 52.2103 52.9193C49.5417 52.9193 49.4902 52.9193 49.0003 52.597C48.7167 52.4165 48.3428 52.0427 47.8272 51.2434V44.282L48.1752 43.7277C48.3815 43.4312 48.7296 43.0831 48.9487 42.9671C49.1808 42.8382 49.4902 42.6964 49.632 42.6448C49.7738 42.5933 50.1734 42.5675 50.5344 42.5933Z" fill="#78B404"/>
</svg>
