<svg width="100" height="100" viewBox="0 0 100 100" fill="none" xmlns="http://www.w3.org/2000/svg">
<path fill-rule="evenodd" clip-rule="evenodd" d="M24.3164 0C24.8633 0 25.5273 0.175781 26.0742 0.46875C26.582 0.722656 27.207 1.28906 27.5391 1.77734C28.1055 2.61719 28.125 2.71484 28.2227 7.8125H45.8008L45.8594 5.23438C45.8984 2.71484 45.918 2.61719 46.4844 1.77734C46.8164 1.28906 47.4414 0.722656 47.9492 0.46875C48.4961 0.175781 49.1602 0 49.707 0C50.2539 0 50.918 0.175781 51.4648 0.46875C51.9727 0.722656 52.5977 1.28906 52.9297 1.77734C53.4961 2.61719 53.5156 2.71484 53.6133 7.8125H71.3867L71.4258 5.21484C71.4844 2.71484 71.5039 2.61719 72.0703 1.77734C72.4023 1.28906 73.0273 0.722656 73.5352 0.46875C74.082 0.175781 74.7461 0 75.293 0C75.8398 0 76.5039 0.175781 77.0508 0.46875C77.5586 0.722656 78.1836 1.28906 78.5156 1.77734C79.082 2.61719 79.1016 2.71484 79.1992 7.8125L83.0664 7.89063C85.918 7.92969 87.207 8.04688 88.0859 8.28125C88.7305 8.45703 89.7461 8.80859 90.332 9.04297C90.918 9.27734 92.0117 9.88281 92.7734 10.3906C93.5352 10.8789 94.668 11.8359 95.3125 12.4805C95.957 13.125 96.8945 14.2969 97.4219 15.0781C97.9297 15.8594 98.5352 16.9922 98.75 17.5781C98.9648 18.1641 99.2969 19.1406 99.4727 19.7266C99.7656 20.6641 99.8047 22.4023 99.9023 46.582L99.4531 47.4609C99.1797 47.9688 98.6133 48.5938 98.125 48.9258C97.3828 49.4336 97.0898 49.5117 95.9961 49.5117C95 49.4922 94.5703 49.3945 93.9648 49.0234C93.5352 48.75 92.9688 48.1836 92.1875 46.9727L91.9922 21.7773L91.5039 20.6055C91.25 19.9609 90.7227 19.043 90.332 18.5547C89.9414 18.0664 89.2773 17.4414 88.8477 17.1484C88.4375 16.8555 87.5977 16.4062 87.0117 16.1719C86.0742 15.8008 85.5078 15.7422 79.1992 15.625L79.1406 18.2227C79.1016 20.6055 79.0625 20.8594 78.5938 21.582C78.3203 22.0117 77.7539 22.5781 77.3242 22.8516C76.7188 23.2227 76.2891 23.3203 75.293 23.3203C74.2578 23.3203 73.8867 23.2422 73.2422 22.832C72.8125 22.5586 72.2461 21.9922 71.9727 21.5625C71.543 20.8789 71.5039 20.5664 71.3867 15.625H53.6133L53.5547 18.2227C53.5156 20.6055 53.4766 20.8594 53.0078 21.582C52.7344 22.0117 52.168 22.5781 51.7383 22.8516C51.1328 23.2227 50.7227 23.3203 49.707 23.3203C48.6914 23.3203 48.2812 23.2227 47.6758 22.8516C47.2461 22.5781 46.6797 22.0117 46.4062 21.582C45.9375 20.8594 45.8984 20.6055 45.8008 15.625H28.2227L28.1641 18.2227C28.1055 20.5664 28.0664 20.8789 27.6367 21.5625C27.3633 21.9922 26.7969 22.5586 26.3672 22.832C25.7422 23.2422 25.3516 23.3398 24.3164 23.3398C23.2812 23.3398 22.8906 23.2422 22.2656 22.832C21.8359 22.5586 21.2695 21.9922 20.9961 21.5625C20.5664 20.8789 20.5273 20.5664 20.4102 15.625L17.1289 15.6836C14.2383 15.7422 13.7305 15.8008 12.6953 16.2109C12.0508 16.4648 11.1328 16.9922 10.6445 17.3828C10.1562 17.7734 9.47266 18.5156 9.12109 19.0625C8.76953 19.5898 8.33984 20.4492 8.14453 20.9961C7.83203 21.9141 7.8125 24.1797 7.8125 53.9062C7.8125 83.6328 7.83203 85.8984 8.14453 86.8164C8.33984 87.3438 8.76953 88.2227 9.12109 88.75C9.47266 89.2969 10.1562 90.0391 10.6445 90.4297C11.1328 90.8203 12.0508 91.3477 13.8672 92.0898L46.6797 92.2852L47.4609 92.793C47.8906 93.0664 48.457 93.6328 48.7305 94.0625C49.1016 94.668 49.1992 95.0977 49.2188 96.0938C49.2188 97.1875 49.1406 97.4805 48.6328 98.2227C48.3008 98.7109 47.6758 99.2773 46.2891 100L29.5898 99.9609C14.707 99.9023 12.7734 99.8633 11.8164 99.5703C11.2305 99.3945 10.2539 99.0625 9.66797 98.8477C9.08203 98.6328 7.94922 98.0273 7.16797 97.5195C6.38672 96.9922 5.21484 96.0547 4.57031 95.4102C3.92578 94.7656 2.96875 93.6328 2.48047 92.8711C1.97266 92.1094 1.36719 91.0156 1.13281 90.4297C0.898438 89.8438 0.546875 88.7891 0.351562 88.0859C0.0195312 86.8945 0 85.0195 0 53.9062C0 23.7891 0.0195313 20.8984 0.332031 19.8242C0.507812 19.1797 0.839844 18.1641 1.05469 17.5781C1.26953 16.9922 1.875 15.8594 2.38281 15.0781C2.91016 14.2969 3.84766 13.125 4.49219 12.4805C5.13672 11.8359 6.26953 10.8789 7.03125 10.3906C7.79297 9.88281 8.88672 9.27734 9.47266 9.04297C10.0586 8.80859 11.0742 8.47656 11.7188 8.28125C12.5781 8.04688 13.8867 7.92969 20.4102 7.8125L20.4688 5.21484C20.5078 2.67578 20.5273 2.61719 21.1133 1.79688C21.4453 1.32812 22.0898 0.742188 22.5781 0.46875C23.125 0.175781 23.75 0 24.3164 0V0ZM76.8555 52.832C78.2031 52.8711 80 53.0469 80.8594 53.2227C81.7188 53.3984 83.0859 53.7695 83.8867 54.043C84.6875 54.3164 86.1523 54.9414 87.1094 55.4492C88.0664 55.9375 89.5312 56.8359 90.332 57.4414C91.1328 58.0469 92.3828 59.1406 93.1055 59.8828C93.8281 60.625 94.8438 61.7969 95.3516 62.5C95.8789 63.2031 96.6992 64.5703 97.1875 65.5273C97.6953 66.5039 98.3203 67.9492 98.5938 68.75C98.8672 69.5508 99.2773 71.1328 99.4922 72.2656C99.7656 73.5547 99.9023 75.0781 99.9023 76.3672C99.9023 77.6562 99.7656 79.1797 99.4922 80.4688C99.2773 81.6016 98.8672 83.1836 98.5938 83.9844C98.3203 84.7852 97.6953 86.2305 97.1875 87.207C96.6992 88.1641 95.8789 89.5312 95.3516 90.2344C94.8438 90.9375 93.8281 92.1094 93.1055 92.8516C92.3828 93.5938 91.1328 94.6875 90.332 95.293C89.5312 95.8984 88.0664 96.7969 87.1094 97.2852C86.1523 97.793 84.6875 98.418 83.8867 98.6914C83.0859 98.9648 81.5039 99.375 80.3711 99.5898C79.082 99.8633 77.5586 100 76.2695 100C74.9805 100 73.457 99.8633 72.168 99.5898C71.0352 99.375 69.4531 98.9648 68.6523 98.6914C67.8516 98.418 66.3867 97.793 65.4297 97.2852C64.4727 96.7969 63.0078 95.8984 62.207 95.293C61.4062 94.6875 60.1562 93.5938 59.4336 92.8516C58.7109 92.1094 57.6953 90.9375 57.1875 90.2344C56.6602 89.5312 55.8398 88.1641 55.3516 87.207C54.8438 86.2305 54.2188 84.7852 53.9453 83.9844C53.6719 83.1836 53.2812 81.7773 53.0859 80.8594C52.8516 79.6875 52.7344 78.3594 52.7344 76.3672C52.7344 74.375 52.8516 73.0469 53.0859 71.875C53.2812 70.957 53.6719 69.5508 53.9453 68.75C54.2188 67.9492 54.8438 66.5039 55.3516 65.5273C55.8398 64.5703 56.6602 63.2031 57.1875 62.5C57.6953 61.7969 58.7109 60.625 59.4336 59.8828C60.1562 59.1406 61.4062 58.0469 62.207 57.4414C63.0078 56.8359 64.4727 55.9375 65.4297 55.4492C66.3867 54.9414 67.8516 54.3164 68.6523 54.043C69.4531 53.7695 70.8203 53.3984 71.6797 53.2422C72.5391 53.0664 73.5156 52.9102 73.8281 52.8516C74.1406 52.8125 75.5078 52.793 76.8555 52.832ZM70.8008 61.543C70.2148 61.7578 69.1992 62.2266 68.5547 62.5977C67.9102 62.9492 66.8555 63.6914 66.2109 64.1992C65.5664 64.7266 64.6094 65.6836 64.1016 66.3086C63.5742 66.9531 62.8516 68.0078 62.5 68.6523C62.1289 69.2969 61.6602 70.3125 61.4453 70.8984C61.2109 71.4844 60.8984 72.6562 60.7422 73.4766C60.5859 74.3164 60.4492 75.6055 60.4492 76.3672C60.4492 77.1094 60.5859 78.418 60.7422 79.2383C60.8984 80.0781 61.2109 81.25 61.4453 81.8359C61.6602 82.4219 62.1289 83.4375 62.5 84.082C62.8516 84.7266 63.5938 85.7812 64.1016 86.4258C64.6289 87.0703 65.5859 88.0273 66.2109 88.5352C66.8555 89.0625 67.9102 89.7852 68.5547 90.1367C69.1992 90.5078 70.2148 90.9766 70.8008 91.1914C71.3867 91.4258 72.5586 91.7383 73.3984 91.8945C74.2188 92.0508 75.5078 92.1875 76.2695 92.1875C77.0312 92.1875 78.3203 92.0508 79.1602 91.8945C79.9805 91.7383 81.1523 91.4258 81.7383 91.1914C82.3242 90.9766 83.3398 90.5078 83.9844 90.1367C84.6289 89.7852 85.6836 89.0625 86.3281 88.5352C86.9531 88.0273 87.9102 87.0703 88.4375 86.4258C88.9453 85.7812 89.6875 84.7266 90.0391 84.082C90.4102 83.4375 90.8789 82.4219 91.0938 81.8359C91.3281 81.25 91.6406 80.0781 91.7969 79.2383C91.9531 78.418 92.0898 77.1094 92.0898 76.3672C92.0898 75.6055 91.9531 74.3164 91.7969 73.4766C91.6406 72.6562 91.3281 71.4844 91.0938 70.8984C90.8789 70.3125 90.4102 69.2969 90.0391 68.6523C89.6875 68.0078 88.9648 66.9531 88.4375 66.3086C87.9297 65.6836 86.9727 64.7266 86.3281 64.1992C85.6836 63.6914 84.6289 62.9492 83.9844 62.5977C83.3398 62.2266 82.3242 61.7578 81.7383 61.543C81.1523 61.3086 79.9805 60.9961 79.1406 60.8398C78.3203 60.6836 76.9531 60.5469 76.1328 60.5664C75.293 60.5664 74.0039 60.7031 73.2422 60.8594C72.4805 61.0156 71.3867 61.3086 70.8008 61.543ZM24.6094 37.1875C25.2148 37.2266 25.8789 37.4414 26.3672 37.7344C26.7969 37.9883 27.3633 38.5547 27.6367 38.9844C28.0078 39.5898 28.1055 40 28.1055 41.0156C28.1055 42.0312 28.0078 42.4414 27.6367 43.0469C27.3633 43.4766 26.7969 44.043 26.3672 44.3164C25.7422 44.7266 25.3516 44.8242 24.3164 44.8242C23.2812 44.8242 22.8906 44.7266 22.2656 44.3164C21.8359 44.043 21.2695 43.4766 20.9961 43.0469C20.625 42.4414 20.5273 42.0117 20.5273 41.0156C20.5273 39.9609 20.6055 39.6094 21.0547 38.9062C21.3477 38.457 21.875 37.9297 22.2266 37.7539C22.5586 37.5586 23.0273 37.3438 23.2422 37.2656C23.457 37.1875 24.082 37.1484 24.6094 37.1875ZM41.6016 37.1875C42.207 37.2266 42.8711 37.4414 43.3594 37.7344C43.7891 37.9883 44.3555 38.5547 44.6289 38.9844C45 39.5898 45.0977 40 45.0977 41.0156C45.0977 42.0312 45 42.4414 44.6289 43.0469C44.3555 43.4766 43.7891 44.043 43.3594 44.3164C42.7344 44.7266 42.3438 44.8242 41.3086 44.8242C40.2734 44.8242 39.8828 44.7266 39.2578 44.3164C38.8281 44.043 38.2617 43.4766 37.9883 43.0469C37.6172 42.4414 37.5195 42.0117 37.5195 41.0156C37.5195 39.9609 37.5977 39.6094 38.0469 38.9062C38.3398 38.457 38.8672 37.9297 39.2188 37.7539C39.5508 37.5586 40.0195 37.3438 40.2344 37.2656C40.4492 37.1875 41.0742 37.1484 41.6016 37.1875ZM58.5938 37.1875C59.1992 37.2266 59.8633 37.4414 60.3516 37.7344C60.7812 37.9883 61.3477 38.5547 61.6211 38.9844C61.9922 39.5898 62.0898 40 62.0898 41.0156C62.0898 42.0312 61.9922 42.4414 61.6211 43.0469C61.3477 43.4766 60.7812 44.043 60.3516 44.3164C59.7266 44.7266 59.3359 44.8242 58.3008 44.8242C57.2656 44.8242 56.875 44.7266 56.25 44.3164C55.8203 44.043 55.2539 43.4766 54.9805 43.0469C54.6094 42.4414 54.5117 42.0117 54.5117 41.0156C54.5117 39.9609 54.5898 39.6094 55.0391 38.9062C55.332 38.457 55.8594 37.9297 56.2109 37.7539C56.543 37.5586 57.0117 37.3438 57.2266 37.2656C57.4414 37.1875 58.0664 37.1484 58.5938 37.1875ZM75.5859 37.1875C76.1914 37.2266 76.8555 37.4414 77.3438 37.7344C77.7734 37.9883 78.3398 38.5547 78.6133 38.9844C78.9844 39.5898 79.082 40 79.082 41.0156C79.082 42.0312 78.9844 42.4414 78.6133 43.0469C78.3398 43.4766 77.7734 44.043 77.3438 44.3164C76.7188 44.7266 76.3281 44.8242 75.293 44.8242C74.2578 44.8242 73.8672 44.7266 73.2422 44.3164C72.8125 44.043 72.2461 43.4766 71.9727 43.0469C71.6016 42.4414 71.5039 42.0117 71.5039 41.0156C71.5039 39.9609 71.582 39.6094 72.0312 38.9062C72.3242 38.457 72.8516 37.9297 73.2031 37.7539C73.5352 37.5586 74.0039 37.3438 74.2188 37.2656C74.4336 37.1875 75.0586 37.1484 75.5859 37.1875ZM24.6094 54.1797C25.2148 54.2188 25.8789 54.4336 26.3672 54.7266C26.7969 54.9805 27.3633 55.5469 27.6367 55.9766C28.0078 56.582 28.1055 56.9922 28.1055 58.0078C28.1055 59.0234 28.0078 59.4336 27.6367 60.0391C27.3633 60.4688 26.7969 61.0352 26.3672 61.3086C25.7422 61.7188 25.3516 61.8164 24.3164 61.8164C23.2812 61.8164 22.8906 61.7188 22.2656 61.3086C21.8359 61.0352 21.2695 60.4688 20.9961 60.0391C20.625 59.4336 20.5273 59.0039 20.5273 58.0078C20.5273 56.9531 20.6055 56.6016 21.0547 55.8984C21.3477 55.4492 21.875 54.9219 22.2266 54.7461C22.5586 54.5508 23.0273 54.3359 23.2422 54.2578C23.457 54.1797 24.082 54.1406 24.6094 54.1797ZM41.6016 54.1797C42.207 54.2188 42.8711 54.4336 43.3594 54.7266C43.7891 54.9805 44.3555 55.5469 44.6289 55.9766C45 56.582 45.0977 56.9922 45.0977 58.0078C45.0977 59.0234 45 59.4336 44.6289 60.0391C44.3555 60.4688 43.7891 61.0352 43.3594 61.3086C42.7344 61.7188 42.3438 61.8164 41.3086 61.8164C40.2734 61.8164 39.8828 61.7188 39.2578 61.3086C38.8281 61.0352 38.2617 60.4688 37.9883 60.0391C37.6172 59.4336 37.5195 59.0039 37.5195 58.0078C37.5195 56.9531 37.5977 56.6016 38.0469 55.8984C38.3398 55.4492 38.8672 54.9219 39.1992 54.7461C39.5508 54.5508 40.0195 54.3359 40.2344 54.2578C40.4492 54.1797 41.0547 54.1406 41.6016 54.1797ZM24.6094 71.1719C25.2148 71.2109 25.8789 71.4258 26.3672 71.7188C26.7969 71.9727 27.3633 72.5391 27.6367 72.9688C28.0078 73.5742 28.1055 73.9844 28.1055 75C28.1055 76.0156 28.0078 76.4258 27.6367 77.0312C27.3633 77.4609 26.7969 78.0273 26.3672 78.3008C25.7422 78.7109 25.3516 78.8086 24.3164 78.8086C23.2812 78.8086 22.8906 78.7109 22.2656 78.3008C21.8359 78.0273 21.2695 77.4609 20.9961 77.0312C20.625 76.4258 20.5273 75.9961 20.5273 75C20.5273 73.9453 20.6055 73.5938 21.0547 72.8906C21.3477 72.4414 21.875 71.9141 22.207 71.7383C22.5586 71.543 23.0273 71.3281 23.2422 71.25C23.457 71.1719 24.0625 71.1328 24.6094 71.1719ZM41.6016 71.1719C42.207 71.2109 42.8711 71.4258 43.3594 71.7188C43.7891 71.9727 44.3555 72.5391 44.6289 72.9688C45 73.5742 45.0977 73.9844 45.0977 75C45.0977 76.0156 45 76.4258 44.6289 77.0312C44.3555 77.4609 43.7891 78.0273 43.3594 78.3008C42.7344 78.7109 42.3438 78.8086 41.3086 78.8086C40.2734 78.8086 39.8828 78.7109 39.2578 78.3008C38.8281 78.0273 38.2617 77.4609 37.9883 77.0312C37.6172 76.4258 37.5195 75.9961 37.5195 75C37.5195 73.9453 37.5977 73.5938 38.0469 72.8906C38.3398 72.4414 38.8672 71.9141 39.1992 71.7383C39.5508 71.543 40.0195 71.3281 40.2344 71.25C40.4492 71.1719 41.0547 71.1328 41.6016 71.1719ZM76.5625 64.5312C77.168 64.5703 77.832 64.7852 78.3203 65.0781C78.75 65.332 79.3164 65.8984 79.5898 66.3281C80.0195 67.0117 80.0781 67.3242 80.2148 72.3633L81.6992 72.4805C82.832 72.5586 83.3984 72.7148 83.9844 73.0664C84.4141 73.3398 84.9805 73.9062 85.2539 74.3359C85.625 74.9414 85.7227 75.3711 85.7227 76.3672C85.7227 77.4023 85.6445 77.7734 85.2344 78.418C84.9609 78.8477 84.3945 79.4141 83.9648 79.6875C83.2227 80.1758 83.1445 80.1758 79.1016 80.1758C75.0586 80.1758 74.9805 80.1758 74.2383 79.6875C73.8086 79.4141 73.2422 78.8477 72.4609 77.6367V67.0898L72.9883 66.25C73.3008 65.8008 73.8281 65.2734 74.1602 65.0977C74.5117 64.9023 74.9805 64.6875 75.1953 64.6094C75.4102 64.5312 76.0156 64.4922 76.5625 64.5312Z" fill="#78B404"/>
</svg>
