<svg width="67" height="67" viewBox="0 0 67 67" fill="none" xmlns="http://www.w3.org/2000/svg">
<path fill-rule="evenodd" clip-rule="evenodd" d="M16.6875 0.902466C17.0485 0.902466 17.4868 1.01849 17.8477 1.21186C18.1829 1.37945 18.5954 1.7533 18.8146 2.07559C19.1885 2.62992 19.2013 2.69437 19.2658 6.05903H30.8681L30.9068 4.35737C30.9325 2.69437 30.9454 2.62992 31.3193 2.07559C31.5384 1.7533 31.951 1.37945 32.2861 1.21186C32.6471 1.01849 33.0854 0.902466 33.4464 0.902466C33.8073 0.902466 34.2456 1.01849 34.6066 1.21186C34.9418 1.37945 35.3543 1.7533 35.5734 2.07559C35.9473 2.62992 35.9602 2.69437 36.0247 6.05903H47.7558L47.7816 4.34448C47.8203 2.69437 47.8332 2.62992 48.207 2.07559C48.4262 1.7533 48.8387 1.37945 49.1739 1.21186C49.5349 1.01849 49.9732 0.902466 50.3341 0.902466C50.6951 0.902466 51.1334 1.01849 51.4944 1.21186C51.8295 1.37945 52.2421 1.7533 52.4612 2.07559C52.8351 2.62992 52.848 2.69437 52.9124 6.05903L55.4649 6.1106C57.3471 6.13638 58.1979 6.21373 58.778 6.36843C59.2034 6.48445 59.8738 6.7165 60.2605 6.87119C60.6473 7.02589 61.3692 7.42552 61.872 7.7607C62.3747 8.08299 63.1224 8.71467 63.5478 9.14008C63.9733 9.5655 64.592 10.339 64.9401 10.8546C65.2753 11.3703 65.6749 12.118 65.8167 12.5047C65.9585 12.8915 66.1777 13.5361 66.2937 13.9228C66.4871 14.5416 66.5129 15.6889 66.5773 31.6485L66.2808 32.2286C66.1003 32.5638 65.7265 32.9763 65.4042 33.1955C64.9143 33.5307 64.721 33.5822 63.999 33.5822C63.3416 33.5693 63.058 33.5049 62.6583 33.2599C62.3747 33.0795 62.0009 32.7056 61.4852 31.9063L61.3563 15.2764L61.034 14.5029C60.8664 14.0775 60.5184 13.4716 60.2605 13.1493C60.0027 12.827 59.5644 12.4145 59.2808 12.2211C59.0101 12.0278 58.4557 11.7313 58.069 11.5766C57.4502 11.3316 57.0763 11.293 52.9124 11.2156L52.8737 12.9302C52.848 14.5029 52.8222 14.6705 52.5128 15.1475C52.3323 15.4311 51.9584 15.8049 51.6748 15.9854C51.2752 16.2304 50.9916 16.2948 50.3341 16.2948C49.6509 16.2948 49.4059 16.2433 48.9805 15.9725C48.6969 15.7921 48.3231 15.4182 48.1426 15.1346C47.859 14.6834 47.8332 14.4771 47.7558 11.2156H36.0247L35.986 12.9302C35.9602 14.5029 35.9344 14.6705 35.625 15.1475C35.4445 15.4311 35.0707 15.8049 34.7871 15.9854C34.3874 16.2304 34.1167 16.2948 33.4464 16.2948C32.776 16.2948 32.5053 16.2304 32.1057 15.9854C31.822 15.8049 31.4482 15.4311 31.2677 15.1475C30.9583 14.6705 30.9325 14.5029 30.8681 11.2156H19.2658L19.2271 12.9302C19.1885 14.4771 19.1627 14.6834 18.8791 15.1346C18.6986 15.4182 18.3247 15.7921 18.0411 15.9725C17.6286 16.2433 17.3708 16.3077 16.6875 16.3077C16.0043 16.3077 15.7464 16.2433 15.3339 15.9725C15.0503 15.7921 14.6765 15.4182 14.496 15.1346C14.2124 14.6834 14.1866 14.4771 14.1092 11.2156L11.9435 11.2543C10.0355 11.293 9.70037 11.3316 9.01712 11.6023C8.5917 11.7699 7.98581 12.118 7.66352 12.3758C7.34123 12.6337 6.89004 13.1235 6.65799 13.4845C6.42594 13.8326 6.14233 14.3998 6.01342 14.7607C5.80716 15.3666 5.79426 16.862 5.79426 36.4828C5.79426 56.1035 5.80716 57.5989 6.01342 58.2048C6.14233 58.5529 6.42594 59.133 6.65799 59.4811C6.89004 59.842 7.34123 60.3319 7.66352 60.5897C7.98581 60.8476 8.5917 61.1956 9.79061 61.6855L31.4482 61.8144L31.9639 62.1496C32.2475 62.3301 32.6213 62.7039 32.8018 62.9875C33.0467 63.3872 33.1112 63.6708 33.1241 64.3283C33.1241 65.0502 33.0725 65.2435 32.7373 65.7334C32.5182 66.0557 32.1057 66.4296 31.1904 66.9065L20.1682 66.8808C10.3449 66.8421 9.06869 66.8163 8.43701 66.6229C8.05026 66.5069 7.40569 66.2878 7.01895 66.146C6.63221 66.0041 5.8845 65.6045 5.36885 65.2693C4.85319 64.9213 4.0797 64.3025 3.65429 63.8771C3.22887 63.4516 2.59719 62.7039 2.27491 62.2012C1.93973 61.6984 1.54009 60.9765 1.3854 60.5897C1.2307 60.203 0.998655 59.5069 0.869741 59.0428C0.650587 58.2564 0.637695 57.0188 0.637695 36.4828C0.637695 16.6042 0.650587 14.6963 0.856849 13.9873C0.972872 13.5618 1.19203 12.8915 1.33383 12.5047C1.47564 12.118 1.87527 11.3703 2.21045 10.8546C2.55852 10.339 3.17731 9.5655 3.60272 9.14008C4.02814 8.71467 4.77584 8.08299 5.27861 7.7607C5.78137 7.42552 6.50329 7.02589 6.89004 6.87119C7.27678 6.7165 7.94713 6.49734 8.37255 6.36843C8.93977 6.21373 9.8035 6.13638 14.1092 6.05903L14.1479 4.34448C14.1737 2.66859 14.1866 2.62992 14.5733 2.08848C14.7925 1.77908 15.2179 1.39234 15.5402 1.21186C15.9011 1.01849 16.3137 0.902466 16.6875 0.902466V0.902466ZM51.3654 35.7738C52.255 35.7995 53.441 35.9156 54.0082 36.0316C54.5754 36.1476 55.4778 36.3925 56.0064 36.573C56.5349 36.7535 57.5018 37.166 58.1334 37.5012C58.7651 37.8235 59.732 38.4165 60.2605 38.8161C60.7891 39.2158 61.6141 39.9377 62.0911 40.4276C62.5681 40.9174 63.2384 41.6909 63.5736 42.155C63.9217 42.6191 64.4631 43.5215 64.7854 44.1532C65.1206 44.7978 65.5331 45.7517 65.7136 46.2803C65.8941 46.8088 66.1648 47.853 66.3066 48.6007C66.4871 49.4516 66.5773 50.4571 66.5773 51.3079C66.5773 52.1588 66.4871 53.1643 66.3066 54.0151C66.1648 54.7628 65.8941 55.807 65.7136 56.3356C65.5331 56.8641 65.1206 57.8181 64.7854 58.4627C64.4631 59.0943 63.9217 59.9967 63.5736 60.4608C63.2384 60.9249 62.5681 61.6984 62.0911 62.1883C61.6141 62.6782 60.7891 63.4001 60.2605 63.7997C59.732 64.1993 58.7651 64.7923 58.1334 65.1146C57.5018 65.4498 56.5349 65.8623 56.0064 66.0428C55.4778 66.2233 54.4336 66.494 53.6859 66.6358C52.8351 66.8163 51.8295 66.9065 50.9787 66.9065C50.1279 66.9065 49.1223 66.8163 48.2715 66.6358C47.5238 66.494 46.4796 66.2233 45.951 66.0428C45.4225 65.8623 44.4556 65.4498 43.824 65.1146C43.1923 64.7923 42.2254 64.1993 41.6969 63.7997C41.1683 63.4001 40.3433 62.6782 39.8663 62.1883C39.3893 61.6984 38.719 60.9249 38.3838 60.4608C38.0357 59.9967 37.4943 59.0943 37.172 58.4627C36.8368 57.8181 36.4243 56.8641 36.2438 56.3356C36.0633 55.807 35.8055 54.8788 35.6766 54.2729C35.5219 53.4995 35.4445 52.6228 35.4445 51.3079C35.4445 49.993 35.5219 49.1164 35.6766 48.3429C35.8055 47.737 36.0633 46.8088 36.2438 46.2803C36.4243 45.7517 36.8368 44.7978 37.172 44.1532C37.4943 43.5215 38.0357 42.6191 38.3838 42.155C38.719 41.6909 39.3893 40.9174 39.8663 40.4276C40.3433 39.9377 41.1683 39.2158 41.6969 38.8161C42.2254 38.4165 43.1923 37.8235 43.824 37.5012C44.4556 37.166 45.4225 36.7535 45.951 36.573C46.4796 36.3925 47.382 36.1476 47.9492 36.0445C48.5164 35.9285 49.161 35.8253 49.3673 35.7867C49.5735 35.7609 50.4759 35.748 51.3654 35.7738ZM47.3691 41.5233C46.9824 41.6651 46.312 41.9745 45.8866 42.2195C45.4612 42.4515 44.765 42.9414 44.3396 43.2766C43.9142 43.6246 43.2825 44.2563 42.9473 44.6688C42.5993 45.0943 42.1223 45.7904 41.8902 46.2158C41.6453 46.6412 41.3359 47.3116 41.1941 47.6983C41.0394 48.0851 40.8331 48.8586 40.73 49.4C40.6269 49.9543 40.5366 50.8052 40.5366 51.3079C40.5366 51.7978 40.6269 52.6615 40.73 53.203C40.8331 53.7573 41.0394 54.5308 41.1941 54.9175C41.3359 55.3043 41.6453 55.9746 41.8902 56.4C42.1223 56.8254 42.6122 57.5216 42.9473 57.947C43.2954 58.3724 43.9271 59.0041 44.3396 59.3393C44.765 59.6873 45.4612 60.1643 45.8866 60.3964C46.312 60.6413 46.9824 60.9507 47.3691 61.0925C47.7558 61.2472 48.5293 61.4535 49.0837 61.5566C49.6251 61.6597 50.4759 61.75 50.9787 61.75C51.4815 61.75 52.3323 61.6597 52.8866 61.5566C53.4281 61.4535 54.2016 61.2472 54.5883 61.0925C54.975 60.9507 55.6454 60.6413 56.0708 60.3964C56.4962 60.1643 57.1924 59.6873 57.6178 59.3393C58.0303 59.0041 58.662 58.3724 59.0101 57.947C59.3452 57.5216 59.8351 56.8254 60.0672 56.4C60.3121 55.9746 60.6215 55.3043 60.7633 54.9175C60.918 54.5308 61.1242 53.7573 61.2274 53.203C61.3305 52.6615 61.4207 51.7978 61.4207 51.3079C61.4207 50.8052 61.3305 49.9543 61.2274 49.4C61.1242 48.8586 60.918 48.0851 60.7633 47.6983C60.6215 47.3116 60.3121 46.6412 60.0672 46.2158C59.8351 45.7904 59.3581 45.0943 59.0101 44.6688C58.6749 44.2563 58.0432 43.6246 57.6178 43.2766C57.1924 42.9414 56.4962 42.4515 56.0708 42.2195C55.6454 41.9745 54.975 41.6651 54.5883 41.5233C54.2016 41.3686 53.4281 41.1624 52.8737 41.0592C52.3323 40.9561 51.4299 40.8659 50.8885 40.8788C50.3341 40.8788 49.4833 40.969 48.9805 41.0721C48.4778 41.1753 47.7558 41.3686 47.3691 41.5233ZM16.8809 25.4477C17.2805 25.4735 17.7188 25.6153 18.0411 25.8087C18.3247 25.9763 18.6986 26.3501 18.8791 26.6337C19.124 27.0334 19.1885 27.3041 19.1885 27.9744C19.1885 28.6448 19.124 28.9155 18.8791 29.3152C18.6986 29.5988 18.3247 29.9726 18.0411 30.1531C17.6286 30.4238 17.3708 30.4883 16.6875 30.4883C16.0043 30.4883 15.7464 30.4238 15.3339 30.1531C15.0503 29.9726 14.6765 29.5988 14.496 29.3152C14.251 28.9155 14.1866 28.6319 14.1866 27.9744C14.1866 27.2783 14.2381 27.0463 14.5346 26.5822C14.728 26.2857 15.0761 25.9376 15.3081 25.8216C15.5273 25.6927 15.8367 25.5509 15.9785 25.4993C16.1203 25.4477 16.5328 25.4219 16.8809 25.4477ZM28.0964 25.4477C28.4961 25.4735 28.9344 25.6153 29.2567 25.8087C29.5403 25.9763 29.9141 26.3501 30.0946 26.6337C30.3395 27.0334 30.404 27.3041 30.404 27.9744C30.404 28.6448 30.3395 28.9155 30.0946 29.3152C29.9141 29.5988 29.5403 29.9726 29.2567 30.1531C28.8441 30.4238 28.5863 30.4883 27.9031 30.4883C27.2198 30.4883 26.962 30.4238 26.5495 30.1531C26.2658 29.9726 25.892 29.5988 25.7115 29.3152C25.4666 28.9155 25.4021 28.6319 25.4021 27.9744C25.4021 27.2783 25.4537 27.0463 25.7502 26.5822C25.9436 26.2857 26.2916 25.9376 26.5237 25.8216C26.7428 25.6927 27.0522 25.5509 27.194 25.4993C27.3358 25.4477 27.7484 25.4219 28.0964 25.4477ZM39.312 25.4477C39.7116 25.4735 40.1499 25.6153 40.4722 25.8087C40.7558 25.9763 41.1297 26.3501 41.3101 26.6337C41.5551 27.0334 41.6195 27.3041 41.6195 27.9744C41.6195 28.6448 41.5551 28.9155 41.3101 29.3152C41.1297 29.5988 40.7558 29.9726 40.4722 30.1531C40.0597 30.4238 39.8018 30.4883 39.1186 30.4883C38.4353 30.4883 38.1775 30.4238 37.765 30.1531C37.4814 29.9726 37.1075 29.5988 36.927 29.3152C36.6821 28.9155 36.6177 28.6319 36.6177 27.9744C36.6177 27.2783 36.6692 27.0463 36.9657 26.5822C37.1591 26.2857 37.5072 25.9376 37.7392 25.8216C37.9584 25.6927 38.2678 25.5509 38.4096 25.4993C38.5514 25.4477 38.9639 25.4219 39.312 25.4477ZM50.5275 25.4477C50.9271 25.4735 51.3654 25.6153 51.6877 25.8087C51.9713 25.9763 52.3452 26.3501 52.5257 26.6337C52.7706 27.0334 52.8351 27.3041 52.8351 27.9744C52.8351 28.6448 52.7706 28.9155 52.5257 29.3152C52.3452 29.5988 51.9713 29.9726 51.6877 30.1531C51.2752 30.4238 51.0174 30.4883 50.3341 30.4883C49.6509 30.4883 49.3931 30.4238 48.9805 30.1531C48.6969 29.9726 48.3231 29.5988 48.1426 29.3152C47.8976 28.9155 47.8332 28.6319 47.8332 27.9744C47.8332 27.2783 47.8848 27.0463 48.1813 26.5822C48.3746 26.2857 48.7227 25.9376 48.9547 25.8216C49.1739 25.6927 49.4833 25.5509 49.6251 25.4993C49.7669 25.4477 50.1794 25.4219 50.5275 25.4477ZM16.8809 36.6633C17.2805 36.689 17.7188 36.8309 18.0411 37.0242C18.3247 37.1918 18.6986 37.5657 18.8791 37.8493C19.124 38.2489 19.1885 38.5196 19.1885 39.19C19.1885 39.8603 19.124 40.1311 18.8791 40.5307C18.6986 40.8143 18.3247 41.1882 18.0411 41.3686C17.6286 41.6394 17.3708 41.7038 16.6875 41.7038C16.0043 41.7038 15.7464 41.6394 15.3339 41.3686C15.0503 41.1882 14.6765 40.8143 14.496 40.5307C14.251 40.1311 14.1866 39.8474 14.1866 39.19C14.1866 38.4938 14.2381 38.2618 14.5346 37.7977C14.728 37.5012 15.0761 37.1531 15.3081 37.0371C15.5273 36.9082 15.8367 36.7664 15.9785 36.7148C16.1203 36.6633 16.5328 36.6375 16.8809 36.6633ZM28.0964 36.6633C28.4961 36.689 28.9344 36.8309 29.2567 37.0242C29.5403 37.1918 29.9141 37.5657 30.0946 37.8493C30.3395 38.2489 30.404 38.5196 30.404 39.19C30.404 39.8603 30.3395 40.1311 30.0946 40.5307C29.9141 40.8143 29.5403 41.1882 29.2567 41.3686C28.8441 41.6394 28.5863 41.7038 27.9031 41.7038C27.2198 41.7038 26.962 41.6394 26.5495 41.3686C26.2658 41.1882 25.892 40.8143 25.7115 40.5307C25.4666 40.1311 25.4021 39.8474 25.4021 39.19C25.4021 38.4938 25.4537 38.2618 25.7502 37.7977C25.9436 37.5012 26.2916 37.1531 26.5108 37.0371C26.7428 36.9082 27.0522 36.7664 27.194 36.7148C27.3358 36.6633 27.7355 36.6375 28.0964 36.6633ZM16.8809 47.8788C17.2805 47.9046 17.7188 48.0464 18.0411 48.2398C18.3247 48.4074 18.6986 48.7812 18.8791 49.0648C19.124 49.4644 19.1885 49.7352 19.1885 50.4055C19.1885 51.0759 19.124 51.3466 18.8791 51.7462C18.6986 52.0298 18.3247 52.4037 18.0411 52.5842C17.6286 52.8549 17.3708 52.9193 16.6875 52.9193C16.0043 52.9193 15.7464 52.8549 15.3339 52.5842C15.0503 52.4037 14.6765 52.0298 14.496 51.7462C14.251 51.3466 14.1866 51.063 14.1866 50.4055C14.1866 49.7094 14.2381 49.4773 14.5346 49.0132C14.728 48.7167 15.0761 48.3687 15.2952 48.2527C15.5273 48.1237 15.8367 47.9819 15.9785 47.9304C16.1203 47.8788 16.5199 47.853 16.8809 47.8788ZM28.0964 47.8788C28.4961 47.9046 28.9344 48.0464 29.2567 48.2398C29.5403 48.4074 29.9141 48.7812 30.0946 49.0648C30.3395 49.4644 30.404 49.7352 30.404 50.4055C30.404 51.0759 30.3395 51.3466 30.0946 51.7462C29.9141 52.0298 29.5403 52.4037 29.2567 52.5842C28.8441 52.8549 28.5863 52.9193 27.9031 52.9193C27.2198 52.9193 26.962 52.8549 26.5495 52.5842C26.2658 52.4037 25.892 52.0298 25.7115 51.7462C25.4666 51.3466 25.4021 51.063 25.4021 50.4055C25.4021 49.7094 25.4537 49.4773 25.7502 49.0132C25.9436 48.7167 26.2916 48.3687 26.5108 48.2527C26.7428 48.1237 27.0522 47.9819 27.194 47.9304C27.3358 47.8788 27.7355 47.853 28.0964 47.8788ZM51.1721 43.4957C51.5717 43.5215 52.01 43.6633 52.3323 43.8567C52.6159 44.0243 52.9898 44.3981 53.1702 44.6817C53.4539 45.1329 53.4925 45.3392 53.5828 48.6652L54.5625 48.7425C55.3102 48.7941 55.6841 48.8972 56.0708 49.1293C56.3544 49.3097 56.7283 49.6836 56.9088 49.9672C57.1537 50.3668 57.2181 50.6505 57.2181 51.3079C57.2181 51.9912 57.1666 52.2361 56.8959 52.6615C56.7154 52.9451 56.3415 53.319 56.0579 53.4995C55.568 53.8217 55.5165 53.8217 52.848 53.8217C50.1794 53.8217 50.1279 53.8217 49.638 53.4995C49.3544 53.319 48.9805 52.9451 48.4649 52.1459V45.1845L48.8129 44.6302C49.0192 44.3337 49.3673 43.9856 49.5864 43.8696C49.8185 43.7407 50.1279 43.5989 50.2697 43.5473C50.4115 43.4957 50.8111 43.4699 51.1721 43.4957Z" fill="white"/>
</svg>
