<svg width="100" height="100" viewBox="0 0 100 100" fill="none" xmlns="http://www.w3.org/2000/svg">
<path fill-rule="evenodd" clip-rule="evenodd" d="M78.9815 0L81.13 0.46875C82.3214 0.722656 83.8839 1.17188 84.6456 1.46484C85.4073 1.73828 86.7159 2.34375 87.5753 2.79297C88.4347 3.24219 89.8018 4.10156 90.6026 4.70703C91.4034 5.3125 92.6925 6.46484 93.4347 7.24609C94.1964 8.04688 95.2706 9.35547 95.7979 10.1562C96.3448 10.957 97.1261 12.2656 97.5167 13.0469C97.9073 13.8086 98.4347 15.0977 98.7081 15.8594C98.962 16.6406 99.3526 18.1641 99.587 19.2383C99.9776 21.1328 99.9776 21.7578 99.9776 61.9141L99.4893 62.6953C99.2159 63.125 98.669 63.7109 98.2784 64.0039C97.6534 64.4922 97.3995 64.5508 96.0519 64.5508C94.6651 64.5508 94.4893 64.5117 93.7862 63.9453C93.3761 63.6133 92.8683 63.0469 92.6534 62.6758C92.2628 62.0312 92.2628 61.5625 92.1651 41.4062C92.0675 23.0078 92.0284 20.6836 91.7354 19.7266C91.5597 19.1406 91.2276 18.1641 91.0128 17.5781C90.7979 16.9922 90.1925 15.8398 89.6651 15.0391C89.1378 14.2383 88.2198 13.0664 87.6143 12.4609C86.9893 11.8359 85.8175 10.8789 84.9972 10.3516C84.1573 9.80469 82.9854 9.17969 82.3995 8.96484C81.8136 8.75 80.837 8.41797 80.2511 8.24219C79.2745 7.94922 76.5987 7.91016 50.8565 7.85156C29.919 7.8125 22.1456 7.85156 21.0714 8.02734C20.2706 8.14453 18.9425 8.47656 18.1417 8.76953C17.3409 9.04297 16.0128 9.6875 15.212 10.1953C14.4112 10.6836 13.2003 11.6406 12.5362 12.2852C11.8526 12.9492 10.8565 14.1602 10.3292 15C9.78232 15.8203 9.15732 16.9922 8.94248 17.5781C8.72763 18.1641 8.3956 19.1797 8.21982 19.8242C7.90732 20.8984 7.88779 23.5156 7.88779 50C7.88779 76.4844 7.90732 79.1016 8.21982 80.1758C8.3956 80.8203 8.72763 81.8359 8.94248 82.4219C9.15732 83.0078 9.76279 84.1602 10.2901 84.9609C10.8175 85.7617 11.794 86.9922 12.4972 87.6562C13.1808 88.3398 14.3722 89.2969 15.1144 89.7656C15.8565 90.2344 16.9698 90.8008 17.5558 91.0352C18.1417 91.25 19.1183 91.582 19.7042 91.7578C20.6612 92.0508 23.0245 92.0898 61.8136 92.2852L62.5948 92.793C63.005 93.0664 63.5714 93.6328 63.8448 94.0625C64.2354 94.668 64.3331 95.0781 64.3331 96.0938C64.3331 97.1094 64.2354 97.5195 63.8448 98.1445C63.5714 98.5547 62.9659 99.1602 61.5987 100H41.2862C21.4815 100 20.9347 100 19.1183 99.5898C18.1026 99.375 16.6183 98.9844 15.8565 98.7109C15.0753 98.457 13.7862 97.9297 13.0245 97.5391C12.2433 97.1484 10.9347 96.3867 10.1339 95.8398C9.3331 95.293 7.86826 94.0625 6.89169 93.0859C5.91513 92.1094 4.68466 90.6445 4.13779 89.8438C3.59091 89.043 2.82919 87.7344 2.43857 86.9727C2.04794 86.1914 1.5206 84.9023 1.24716 84.1406C0.993257 83.3594 0.622163 82.1094 0.446382 81.3477C0.114351 80.0781 0.0948197 77.7539 0.0362259 50.6836C-0.0418991 21.5039 -0.0223678 21.3867 0.387788 19.2383C0.602632 18.0664 1.01279 16.4648 1.28623 15.7227C1.55966 14.9805 2.08701 13.7305 2.47763 12.9883C2.84873 12.2461 3.59091 10.957 4.13779 10.1562C4.68466 9.35547 5.91513 7.89063 6.89169 6.91406C7.86826 5.9375 9.37216 4.66797 10.2315 4.10156C11.0909 3.51562 12.4972 2.71484 13.3565 2.30469C14.2159 1.89453 15.544 1.36719 16.2862 1.13281C17.0284 0.898438 18.3175 0.566406 19.1183 0.371094C20.4659 0.078125 23.005 0.0390625 78.9815 0V0ZM55.6417 51.9727C55.9151 51.9531 58.9815 52.5195 62.4776 53.2031C65.9737 53.8867 69.7042 54.7461 70.7784 55.0781C71.8526 55.4297 73.4347 56.0547 74.294 56.4648C75.1534 56.8555 76.5597 57.6562 77.419 58.2227C78.2784 58.7695 79.6456 59.7852 80.4464 60.4688C81.2472 61.1328 85.2511 65.0586 89.3526 69.1797C93.4542 73.3008 97.0675 77.0508 97.38 77.5391C97.712 78.0273 98.2003 78.8477 98.4737 79.3945C98.7276 79.9219 99.1573 81.0352 99.4112 81.8359C99.8018 83.0469 99.88 83.7305 99.88 85.7422C99.88 87.7539 99.8018 88.4375 99.4112 89.6484C99.1573 90.4492 98.7081 91.6016 98.4151 92.1875C98.1222 92.7734 97.4386 93.8281 96.9308 94.5117C96.4034 95.2148 95.4464 96.1914 94.8018 96.7188C94.1573 97.2266 93.0636 97.9492 92.3604 98.3203C91.6573 98.6914 90.3487 99.2188 89.4308 99.4922C88.1026 99.9023 87.3604 100 85.7198 100C84.0597 100 83.3565 99.9023 82.0089 99.4922C81.0909 99.2188 79.919 98.75 79.3722 98.4961C78.8448 98.2227 78.005 97.7344 77.5167 97.4023C77.0284 97.0898 73.3175 93.5156 69.255 89.4727C65.1925 85.4297 61.2667 81.4258 60.544 80.5664C59.8018 79.707 58.7472 78.3008 58.2003 77.4414C57.6339 76.582 56.8331 75.1758 56.4425 74.3164C56.0323 73.457 55.4073 71.875 55.0558 70.8008C54.7237 69.7266 53.8644 65.9961 53.1808 62.5C52.4972 59.0039 51.9308 55.9766 51.9308 55.7617C51.9308 55.5469 52.0284 55.0391 52.1261 54.6289C52.2433 54.2188 52.6534 53.5742 53.1026 53.125C53.5323 52.6953 54.1769 52.2656 54.5284 52.168C54.8604 52.0703 55.3683 51.9727 55.6417 51.9727ZM61.5206 64.3945C61.8526 65.9961 62.3214 67.9297 62.5948 68.6914C62.8487 69.4727 63.2979 70.5859 63.5714 71.1328C63.8643 71.6992 64.4893 72.7734 64.9581 73.5352C65.6026 74.5312 68.0245 77.1094 73.8839 82.9688C80.3878 89.5117 82.1065 91.1328 82.9854 91.5625C83.9034 92.0117 84.3136 92.0898 85.7198 92.0898C87.1261 92.0898 87.5558 92.0117 88.4542 91.5625C89.0401 91.2891 89.919 90.625 90.3878 90.0977C90.8761 89.5898 91.4425 88.7695 91.6573 88.2812C91.9503 87.6367 92.0479 86.9727 92.0675 85.7422C92.0675 84.3164 91.9893 83.9258 91.5401 83.0078C91.1104 82.1289 89.4893 80.4102 82.9464 73.9062C77.087 68.0469 74.5089 65.625 73.5128 64.9805C72.7511 64.5117 71.6768 63.8867 71.1104 63.5938C70.5636 63.3203 69.4503 62.8711 68.669 62.6172C67.9073 62.3438 65.9737 61.875 64.3722 61.543C62.7901 61.2109 61.3643 60.9375 61.2081 60.9375C61.0518 60.9375 60.9151 61.0742 60.9151 61.2305C60.9151 61.3867 61.1886 62.8125 61.5206 64.3945ZM24.294 19.3555C24.7237 19.3359 25.505 19.4727 26.0519 19.668C26.6378 19.8633 27.3409 20.3125 27.8292 20.7812C28.2979 21.2695 28.7472 21.9727 28.9425 22.5586C29.1378 23.0859 29.2745 23.8477 29.2745 24.2188C29.2745 24.5898 29.1378 25.332 28.9425 25.8789C28.7472 26.4648 28.2979 27.168 27.8292 27.6563C27.3409 28.125 26.6378 28.5742 26.0519 28.7695C25.505 28.9648 24.7628 29.1016 24.3917 29.1016C24.0206 29.1016 23.2589 28.9648 22.7315 28.7695C22.1456 28.5742 21.4425 28.125 20.9542 27.6563C20.4854 27.168 20.0362 26.4648 19.8409 25.8789C19.6456 25.332 19.5089 24.5898 19.5089 24.2188C19.5089 23.8477 19.6456 23.0859 19.8409 22.5586C20.0362 21.9727 20.4854 21.25 20.9542 20.7812C21.4034 20.3516 22.1456 19.8633 22.6339 19.6875C23.1222 19.5117 23.8644 19.3555 24.294 19.3555ZM77.8097 20.8008L78.5714 21.2891C79.0011 21.5625 79.5675 22.1289 79.8409 22.5391C80.2511 23.1641 80.3487 23.5547 80.3487 24.6094C80.3487 25.6641 80.2511 26.0547 79.8409 26.6797C79.5675 27.0898 79.0011 27.6562 77.8097 28.418H39.5284L38.7667 27.9297C38.337 27.6562 37.7901 27.1289 37.5362 26.7578C37.3018 26.3867 37.0479 25.6836 36.9698 25.1953C36.9112 24.707 36.9503 23.9453 37.0675 23.4766C37.2042 22.9688 37.5753 22.3633 38.0636 21.875C38.4933 21.4453 39.1378 21.0156 39.4698 20.918C39.8409 20.8008 47.9659 20.7422 77.8097 20.8008ZM77.8097 36.4258L78.5714 36.9141C79.0011 37.1875 79.5675 37.7539 79.8409 38.1641C80.2511 38.7891 80.3487 39.1797 80.3487 40.2344C80.3487 41.2891 80.2511 41.6797 79.8409 42.3047C79.5675 42.7148 79.0011 43.2812 77.8097 44.043H22.1456L21.3839 43.5547C20.9542 43.2812 20.4073 42.7539 20.1534 42.3828C19.919 42.0117 19.6651 41.3086 19.587 40.8203C19.5284 40.332 19.5675 39.5703 19.6847 39.1016C19.8214 38.5938 20.1925 37.9883 20.6808 37.5C21.1104 37.0703 21.755 36.6406 22.087 36.543C22.4776 36.4258 34.0597 36.3672 77.8097 36.4258ZM38.7472 52.0508L39.5089 52.5391C39.9386 52.8125 40.505 53.3789 40.7784 53.7891C41.1886 54.4141 41.2862 54.8047 41.2862 55.8594C41.2862 56.9141 41.1886 57.3047 40.7784 57.9297C40.505 58.3398 39.9386 58.9062 38.7472 59.668H22.1456L21.3839 59.1797C20.9542 58.9062 20.4073 58.3789 20.1534 58.0078C19.919 57.6367 19.6651 56.9336 19.587 56.4453C19.5284 55.957 19.5675 55.1953 19.6847 54.7266C19.8214 54.2188 20.1925 53.6133 20.6808 53.125C21.1104 52.6953 21.755 52.2656 22.087 52.168C22.4581 52.0508 26.2667 51.9922 38.7472 52.0508Z" fill="#78B404"/>
</svg>
