<svg width="66" height="67" viewBox="0 0 66 67" fill="none" xmlns="http://www.w3.org/2000/svg">
<path fill-rule="evenodd" clip-rule="evenodd" d="M52.131 0L53.5491 0.309394C54.3355 0.476983 55.3668 0.773485 55.8695 0.966857C56.3723 1.14734 57.236 1.54697 57.8033 1.84347C58.3705 2.13998 59.2729 2.7072 59.8014 3.10683C60.33 3.50647 61.1808 4.26706 61.6707 4.78272C62.1735 5.31126 62.8825 6.17499 63.2305 6.70354C63.5915 7.23209 64.1072 8.09581 64.365 8.61147C64.6228 9.11423 64.9709 9.96507 65.1514 10.4678C65.319 10.9835 65.5768 11.989 65.7315 12.698C65.9893 13.9485 65.9893 14.361 65.9893 40.8658L65.667 41.3815C65.4865 41.6651 65.1256 42.0518 64.8678 42.2452C64.4552 42.5675 64.2876 42.6061 63.3981 42.6061C62.4828 42.6061 62.3668 42.5804 61.9027 42.2065C61.632 41.9874 61.2968 41.6135 61.155 41.3686C60.8972 40.9432 60.8972 40.6338 60.8327 27.3298C60.7683 15.1861 60.7425 13.652 60.5491 13.0203C60.4331 12.6336 60.214 11.989 60.0721 11.6023C59.9303 11.2155 59.5307 10.4549 59.1826 9.92639C58.8346 9.39785 58.2287 8.62436 57.829 8.22473C57.4165 7.8122 56.643 7.18052 56.1016 6.83245C55.5473 6.47149 54.7738 6.05897 54.387 5.91716C54.0003 5.77536 53.3557 5.5562 52.969 5.44018C52.3244 5.24681 50.5583 5.22103 33.5674 5.18235C19.7478 5.15657 14.617 5.18235 13.908 5.29837C13.3794 5.37572 12.5028 5.59488 11.9743 5.78825C11.4457 5.96873 10.5691 6.39414 10.0405 6.72932C9.512 7.05161 8.71273 7.68329 8.27442 8.1087C7.82322 8.54701 7.16576 9.34628 6.81769 9.90061C6.45673 10.4421 6.0442 11.2155 5.9024 11.6023C5.76059 11.989 5.54144 12.6594 5.42542 13.0848C5.21915 13.7938 5.20626 15.5213 5.20626 33.002C5.20626 50.4828 5.21915 52.2103 5.42542 52.9193C5.54144 53.3447 5.76059 54.0151 5.9024 54.4018C6.0442 54.7885 6.44384 55.5491 6.79191 56.0777C7.13998 56.6062 7.78455 57.4184 8.24864 57.8567C8.69984 58.3079 9.48621 58.9396 9.97609 59.249C10.466 59.5584 11.2008 59.9322 11.5875 60.0869C11.9743 60.2287 12.6188 60.4479 13.0056 60.5639C13.6373 60.7573 15.1971 60.7831 40.7995 60.912L41.3151 61.2471C41.5859 61.4276 41.9597 61.8015 42.1402 62.0851C42.398 62.4847 42.4625 62.7554 42.4625 63.4258C42.4625 64.0961 42.398 64.3669 42.1402 64.7794C41.9597 65.0501 41.5601 65.4497 40.6577 66.0041H27.2506C14.1787 66.0041 13.8177 66.0041 12.6188 65.7334C11.9485 65.5915 10.9687 65.3337 10.466 65.1532C9.9503 64.9856 9.09947 64.6376 8.59671 64.3798C8.08105 64.1219 7.21732 63.6192 6.68878 63.2582C6.16023 62.8972 5.19337 62.0851 4.5488 61.4405C3.90423 60.7959 3.09207 59.8291 2.73111 59.3005C2.37015 58.772 1.86738 57.9083 1.60956 57.4055C1.35173 56.8898 1.00366 56.039 0.823179 55.5362C0.65559 55.0206 0.410653 54.1955 0.29463 53.6928C0.0754762 52.8548 0.0625848 51.3207 0.0239106 33.4532C-0.0276551 14.1935 -0.0147637 14.1161 0.255956 12.698C0.397762 11.9246 0.668482 10.8675 0.848962 10.3776C1.02944 9.88772 1.37751 9.06267 1.63534 8.57279C1.88028 8.08292 2.37015 7.23209 2.73111 6.70354C3.09207 6.17499 3.90423 5.20813 4.5488 4.56356C5.19337 3.91899 6.18601 3.08105 6.75323 2.7072C7.32045 2.32046 8.24864 1.79191 8.81586 1.52119C9.38308 1.25047 10.2597 0.902399 10.7496 0.747702C11.2394 0.593005 12.0903 0.373851 12.6188 0.244937C13.5083 0.0515657 15.1842 0.0257828 52.131 0ZM36.7258 34.3041C36.9063 34.2912 38.9302 34.665 41.2378 35.1162C43.5453 35.5674 46.0076 36.1347 46.7166 36.3538C47.4257 36.5858 48.4699 36.9984 49.0371 37.2691C49.6043 37.5269 50.5325 38.0555 51.0997 38.4293C51.6669 38.7903 52.5693 39.4606 53.0979 39.9118C53.6264 40.3501 56.2692 42.9413 58.9764 45.6614C61.6836 48.3815 64.0685 50.8567 64.2747 51.1789C64.4939 51.5012 64.8162 52.0427 64.9967 52.4036C65.1643 52.7517 65.4479 53.4865 65.6155 54.0151C65.8733 54.8143 65.9249 55.2655 65.9249 56.5933C65.9249 57.9212 65.8733 58.3724 65.6155 59.1716C65.4479 59.7002 65.1514 60.4608 64.958 60.8475C64.7646 61.2342 64.3134 61.9304 63.9783 62.3816C63.6302 62.8457 62.9985 63.4902 62.5731 63.8383C62.1477 64.1735 61.4257 64.6505 60.9617 64.8954C60.4976 65.1403 59.6338 65.4884 59.0279 65.6689C58.1513 65.9396 57.6614 66.0041 56.5786 66.0041C55.4828 66.0041 55.0187 65.9396 54.1292 65.6689C53.5233 65.4884 52.7498 65.179 52.3889 65.0114C52.0408 64.831 51.4865 64.5087 51.1642 64.2895C50.8419 64.0833 48.3925 61.7241 45.7111 59.0556C43.0297 56.3871 40.4385 53.7443 39.9615 53.1771C39.4717 52.6099 38.7755 51.6817 38.4146 51.1145C38.0407 50.5473 37.5122 49.6191 37.2543 49.0519C36.9836 48.4846 36.5711 47.4404 36.339 46.7314C36.1199 46.0224 35.5527 43.5601 35.1015 41.2525C34.6503 38.945 34.2764 36.9468 34.2764 36.805C34.2764 36.6632 34.3409 36.328 34.4053 36.0573C34.4827 35.7866 34.7534 35.3612 35.0499 35.0647C35.3335 34.7811 35.7589 34.4974 35.991 34.433C36.2101 34.3685 36.5453 34.3041 36.7258 34.3041ZM40.6061 42.503C40.8253 43.5601 41.1347 44.8364 41.3151 45.3391C41.4827 45.8548 41.7792 46.5896 41.9597 46.9506C42.1531 47.3244 42.5656 48.0334 42.875 48.5362C43.3004 49.1937 44.8989 50.8953 48.7664 54.7628C53.0592 59.0814 54.1937 60.1514 54.7738 60.435C55.3797 60.7315 55.6504 60.7831 56.5786 60.7831C57.5068 60.7831 57.7904 60.7315 58.3834 60.435C58.7701 60.2545 59.3502 59.8162 59.6596 59.4681C59.9819 59.1329 60.3558 58.5915 60.4976 58.2692C60.6909 57.8438 60.7554 57.4055 60.7683 56.5933C60.7683 55.6523 60.7167 55.3944 60.4202 54.7885C60.1366 54.2084 59.0666 53.074 54.748 48.7811C50.8806 44.9137 49.1789 43.3152 48.5214 42.8898C48.0187 42.5804 47.3096 42.1678 46.9358 41.9745C46.5748 41.794 45.84 41.4975 45.3244 41.3299C44.8216 41.1494 43.5453 40.84 42.4883 40.6209C41.444 40.4017 40.503 40.2212 40.3998 40.2212C40.2967 40.2212 40.2065 40.3115 40.2065 40.4146C40.2065 40.5177 40.3869 41.4588 40.6061 42.503ZM16.0351 12.7754C16.3187 12.7625 16.8343 12.8527 17.1953 12.9817C17.582 13.1106 18.0461 13.4071 18.3684 13.7165C18.6778 14.0388 18.9743 14.5028 19.1032 14.8896C19.2321 15.2377 19.3224 15.7404 19.3224 15.9854C19.3224 16.2303 19.2321 16.7202 19.1032 17.0811C18.9743 17.4679 18.6778 17.932 18.3684 18.2543C18.0461 18.5636 17.582 18.8601 17.1953 18.9891C16.8343 19.118 16.3444 19.2082 16.0995 19.2082C15.8546 19.2082 15.3518 19.118 15.0037 18.9891C14.617 18.8601 14.1529 18.5636 13.8306 18.2543C13.5212 17.932 13.2247 17.4679 13.0958 17.0811C12.9669 16.7202 12.8767 16.2303 12.8767 15.9854C12.8767 15.7404 12.9669 15.2377 13.0958 14.8896C13.2247 14.5028 13.5212 14.0259 13.8306 13.7165C14.1271 13.4329 14.617 13.1106 14.9393 12.9946C15.2616 12.8785 15.7514 12.7754 16.0351 12.7754ZM51.3575 13.7294L51.8603 14.0516C52.1439 14.2321 52.5178 14.606 52.6983 14.8767C52.969 15.2892 53.0334 15.5471 53.0334 16.2432C53.0334 16.9393 52.969 17.1972 52.6983 17.6097C52.5178 17.8804 52.1439 18.2543 51.3575 18.757H26.0904L25.5876 18.4347C25.304 18.2543 24.943 17.9062 24.7754 17.6612C24.6207 17.4163 24.4532 16.9522 24.4016 16.6299C24.3629 16.3076 24.3887 15.8049 24.466 15.4955C24.5563 15.1603 24.8012 14.7607 25.1235 14.4384C25.4071 14.1548 25.8325 13.8712 26.0517 13.8067C26.2966 13.7294 31.6595 13.6907 51.3575 13.7294ZM51.3575 24.0425L51.8603 24.3648C52.1439 24.5453 52.5178 24.9191 52.6983 25.1898C52.969 25.6024 53.0334 25.8602 53.0334 26.5563C53.0334 27.2525 52.969 27.5103 52.6983 27.9228C52.5178 28.1935 52.1439 28.5674 51.3575 29.0702H14.617L14.1142 28.7479C13.8306 28.5674 13.4697 28.2193 13.3021 27.9744C13.1474 27.7294 12.9798 27.2654 12.9282 26.9431C12.8895 26.6208 12.9153 26.118 12.9927 25.8086C13.0829 25.4734 13.3279 25.0738 13.6501 24.7515C13.9338 24.4679 14.3592 24.1843 14.5783 24.1198C14.8362 24.0425 22.4808 24.0038 51.3575 24.0425ZM25.5747 34.3556L26.0775 34.6779C26.3611 34.8584 26.7349 35.2323 26.9154 35.503C27.1861 35.9155 27.2506 36.1733 27.2506 36.8695C27.2506 37.5656 27.1861 37.8234 26.9154 38.236C26.7349 38.5067 26.3611 38.8805 25.5747 39.3833H14.617L14.1142 39.061C13.8306 38.8805 13.4697 38.5325 13.3021 38.2875C13.1474 38.0426 12.9798 37.5785 12.9282 37.2562C12.8895 36.9339 12.9153 36.4312 12.9927 36.1218C13.0829 35.7866 13.3279 35.3869 13.6501 35.0647C13.9338 34.7811 14.3592 34.4974 14.5783 34.433C14.8233 34.3556 17.3371 34.317 25.5747 34.3556Z" fill="#FAB100"/>
</svg>
