<svg width="67" height="67" viewBox="0 0 67 67" fill="none" xmlns="http://www.w3.org/2000/svg">
<path fill-rule="evenodd" clip-rule="evenodd" d="M52.422 0.043335L53.8401 0.352729C54.6265 0.520318 55.6578 0.81682 56.1606 1.01019C56.6633 1.19067 57.5271 1.59031 58.0943 1.88681C58.6615 2.18331 59.5639 2.75053 60.0924 3.15017C60.621 3.5498 61.4718 4.3104 61.9617 4.82605C62.4645 5.3546 63.1735 6.21833 63.5216 6.74687C63.8825 7.27542 64.3982 8.13915 64.656 8.6548C64.9138 9.15757 65.2619 10.0084 65.4424 10.5112C65.61 11.0268 65.8678 12.0324 66.0225 12.7414C66.2803 13.9919 66.2803 14.4044 66.2803 40.9091L65.958 41.4248C65.7776 41.7084 65.4166 42.0951 65.1588 42.2885C64.7462 42.6108 64.5787 42.6495 63.6892 42.6495C62.7739 42.6495 62.6578 42.6237 62.1937 42.2498C61.923 42.0307 61.5878 41.6568 61.446 41.4119C61.1882 40.9865 61.1882 40.6771 61.1238 27.3731C61.0593 15.2294 61.0335 13.6953 60.8401 13.0637C60.7241 12.6769 60.505 12.0324 60.3632 11.6456C60.2214 11.2589 59.8217 10.4983 59.4737 9.96973C59.1256 9.44118 58.5197 8.6677 58.1201 8.26806C57.7075 7.85554 56.934 7.22386 56.3926 6.87579C55.8383 6.51483 55.0648 6.1023 54.678 5.9605C54.2913 5.81869 53.6467 5.59954 53.26 5.48351C52.6154 5.29014 50.8493 5.26436 33.8584 5.22569C20.0388 5.1999 14.908 5.22569 14.199 5.34171C13.6704 5.41906 12.7938 5.63821 12.2653 5.83158C11.7367 6.01206 10.8601 6.43748 10.3316 6.77266C9.80301 7.09494 9.00374 7.72662 8.56544 8.15204C8.11424 8.59035 7.45677 9.38962 7.1087 9.94395C6.74775 10.4854 6.33522 11.2589 6.19341 11.6456C6.05161 12.0324 5.83245 12.7027 5.71643 13.1281C5.51017 13.8372 5.49728 15.5646 5.49728 33.0454C5.49728 50.5261 5.51017 52.2536 5.71643 52.9626C5.83245 53.388 6.05161 54.0584 6.19341 54.4451C6.33522 54.8319 6.73485 55.5925 7.08292 56.121C7.43099 56.6496 8.07556 57.4617 8.53965 57.9C8.99085 58.3512 9.77723 58.9829 10.2671 59.2923C10.757 59.6017 11.4918 59.9756 11.8785 60.1302C12.2653 60.2721 12.9098 60.4912 13.2966 60.6072C13.9283 60.8006 15.4881 60.8264 41.0905 60.9553L41.6061 61.2905C41.8769 61.471 42.2507 61.8448 42.4312 62.1284C42.689 62.5281 42.7535 62.7988 42.7535 63.4691C42.7535 64.1395 42.689 64.4102 42.4312 64.8227C42.2507 65.0934 41.8511 65.4931 40.9487 66.0474H27.5416C14.4697 66.0474 14.1087 66.0474 12.9098 65.7767C12.2395 65.6349 11.2597 65.3771 10.757 65.1966C10.2413 65.029 9.39049 64.6809 8.88772 64.4231C8.37206 64.1653 7.50834 63.6625 6.97979 63.3015C6.45124 62.9406 5.48439 62.1284 4.83981 61.4838C4.19524 60.8393 3.38308 59.8724 3.02212 59.3439C2.66116 58.8153 2.1584 57.9516 1.90057 57.4488C1.64274 56.9332 1.29467 56.0823 1.11419 55.5796C0.946606 55.0639 0.701669 54.2389 0.585646 53.7361C0.366492 52.8982 0.3536 51.3641 0.314926 33.4966C0.263361 14.2368 0.276252 14.1594 0.546972 12.7414C0.688777 11.9679 0.959497 10.9108 1.13998 10.4209C1.32046 9.93106 1.66853 9.106 1.92635 8.61613C2.17129 8.12626 2.66116 7.27542 3.02212 6.74687C3.38308 6.21833 4.19524 5.25147 4.83981 4.6069C5.48439 3.96233 6.47703 3.12438 7.04425 2.75053C7.61147 2.36379 8.53965 1.83524 9.10687 1.56452C9.6741 1.2938 10.5507 0.945734 11.0406 0.791037C11.5305 0.63634 12.3813 0.417186 12.9098 0.288272C13.7994 0.0949006 15.4752 0.0691178 52.422 0.043335V0.043335ZM37.0168 34.3474C37.1973 34.3345 39.2212 34.7084 41.5288 35.1596C43.8364 35.6108 46.2986 36.178 47.0077 36.3971C47.7167 36.6292 48.7609 37.0417 49.3281 37.3124C49.8953 37.5703 50.8235 38.0988 51.3907 38.4727C51.958 38.8336 52.8604 39.504 53.3889 39.9552C53.9175 40.3935 56.5602 42.9847 59.2674 45.7048C61.9746 48.4248 64.3595 50.9 64.5658 51.2223C64.7849 51.5446 65.1072 52.086 65.2877 52.447C65.4553 52.795 65.7389 53.5298 65.9065 54.0584C66.1643 54.8577 66.2159 55.3089 66.2159 56.6367C66.2159 57.9645 66.1643 58.4157 65.9065 59.215C65.7389 59.7435 65.4424 60.5041 65.249 60.8908C65.0556 61.2776 64.6044 61.9737 64.2693 62.4249C63.9212 62.889 63.2895 63.5336 62.8641 63.8817C62.4387 64.2168 61.7168 64.6938 61.2527 64.9387C60.7886 65.1837 59.9249 65.5318 59.319 65.7122C58.4423 65.9829 57.9525 66.0474 56.8696 66.0474C55.7738 66.0474 55.3097 65.9829 54.4202 65.7122C53.8143 65.5318 53.0408 65.2224 52.6799 65.0548C52.3318 64.8743 51.7775 64.552 51.4552 64.3329C51.1329 64.1266 48.6835 61.7675 46.0021 59.0989C43.3207 56.4304 40.7295 53.7877 40.2525 53.2204C39.7627 52.6532 39.0665 51.725 38.7056 51.1578C38.3317 50.5906 37.8032 49.6624 37.5453 49.0952C37.2746 48.528 36.8621 47.4838 36.6301 46.7747C36.4109 46.0657 35.8437 43.6034 35.3925 41.2959C34.9413 38.9883 34.5674 36.9901 34.5674 36.8483C34.5674 36.7065 34.6319 36.3714 34.6963 36.1006C34.7737 35.8299 35.0444 35.4045 35.3409 35.108C35.6245 34.8244 36.0499 34.5408 36.282 34.4763C36.5011 34.4119 36.8363 34.3474 37.0168 34.3474ZM40.8971 42.5464C41.1163 43.6034 41.4257 44.8797 41.6061 45.3825C41.7737 45.8981 42.0702 46.6329 42.2507 46.9939C42.4441 47.3677 42.8566 48.0768 43.166 48.5795C43.5914 49.237 45.19 50.9387 49.0574 54.8061C53.3502 59.1247 54.4847 60.1947 55.0648 60.4783C55.6707 60.7748 55.9414 60.8264 56.8696 60.8264C57.7978 60.8264 58.0814 60.7748 58.6744 60.4783C59.0611 60.2978 59.6412 59.8595 59.9506 59.5115C60.2729 59.1763 60.6468 58.6348 60.7886 58.3126C60.982 57.8871 61.0464 57.4488 61.0593 56.6367C61.0593 55.6956 61.0077 55.4378 60.7112 54.8319C60.4276 54.2518 59.3576 53.1173 55.039 48.8245C51.1716 44.957 49.4699 43.3585 48.8125 42.9331C48.3097 42.6237 47.6007 42.2112 47.2268 42.0178C46.8658 41.8373 46.131 41.5408 45.6154 41.3732C45.1126 41.1927 43.8364 40.8834 42.7793 40.6642C41.7351 40.445 40.794 40.2646 40.6909 40.2646C40.5877 40.2646 40.4975 40.3548 40.4975 40.4579C40.4975 40.5611 40.678 41.5021 40.8971 42.5464ZM16.3261 12.8187C16.6097 12.8058 17.1253 12.8961 17.4863 13.025C17.873 13.1539 18.3371 13.4504 18.6594 13.7598C18.9688 14.0821 19.2653 14.5462 19.3942 14.9329C19.5231 15.281 19.6134 15.7838 19.6134 16.0287C19.6134 16.2736 19.5231 16.7635 19.3942 17.1245C19.2653 17.5112 18.9688 17.9753 18.6594 18.2976C18.3371 18.607 17.873 18.9035 17.4863 19.0324C17.1253 19.1613 16.6355 19.2516 16.3905 19.2516C16.1456 19.2516 15.6428 19.1613 15.2948 19.0324C14.908 18.9035 14.4439 18.607 14.1216 18.2976C13.8122 17.9753 13.5157 17.5112 13.3868 17.1245C13.2579 16.7635 13.1677 16.2736 13.1677 16.0287C13.1677 15.7838 13.2579 15.281 13.3868 14.9329C13.5157 14.5462 13.8122 14.0692 14.1216 13.7598C14.4181 13.4762 14.908 13.1539 15.2303 13.0379C15.5526 12.9219 16.0425 12.8187 16.3261 12.8187ZM51.6486 13.7727L52.1513 14.095C52.4349 14.2755 52.8088 14.6493 52.9893 14.92C53.26 15.3326 53.3244 15.5904 53.3244 16.2865C53.3244 16.9827 53.26 17.2405 52.9893 17.653C52.8088 17.9237 52.4349 18.2976 51.6486 18.8004H26.3814L25.8786 18.4781C25.595 18.2976 25.234 17.9495 25.0665 17.7046C24.9118 17.4596 24.7442 16.9956 24.6926 16.6733C24.6539 16.351 24.6797 15.8482 24.7571 15.5388C24.8473 15.2036 25.0922 14.804 25.4145 14.4817C25.6981 14.1981 26.1236 13.9145 26.3427 13.85C26.5876 13.7727 31.9505 13.734 51.6486 13.7727ZM51.6486 24.0858L52.1513 24.4081C52.4349 24.5886 52.8088 24.9625 52.9893 25.2332C53.26 25.6457 53.3244 25.9035 53.3244 26.5997C53.3244 27.2958 53.26 27.5536 52.9893 27.9662C52.8088 28.2369 52.4349 28.6107 51.6486 29.1135H14.908L14.4052 28.7912C14.1216 28.6107 13.7607 28.2627 13.5931 28.0177C13.4384 27.7728 13.2708 27.3087 13.2192 26.9864C13.1806 26.6641 13.2063 26.1614 13.2837 25.852C13.3739 25.5168 13.6189 25.1171 13.9412 24.7949C14.2248 24.5113 14.6502 24.2276 14.8693 24.1632C15.1272 24.0858 22.7718 24.0472 51.6486 24.0858ZM25.8657 34.399L26.3685 34.7213C26.6521 34.9017 27.0259 35.2756 27.2064 35.5463C27.4771 35.9588 27.5416 36.2167 27.5416 36.9128C27.5416 37.6089 27.4771 37.8668 27.2064 38.2793C27.0259 38.55 26.6521 38.9239 25.8657 39.4266H14.908L14.4052 39.1043C14.1216 38.9239 13.7607 38.5758 13.5931 38.3309C13.4384 38.0859 13.2708 37.6218 13.2192 37.2995C13.1806 36.9773 13.2063 36.4745 13.2837 36.1651C13.3739 35.8299 13.6189 35.4303 13.9412 35.108C14.2248 34.8244 14.6502 34.5408 14.8693 34.4763C15.1143 34.399 17.6281 34.3603 25.8657 34.399Z" fill="white"/>
</svg>
