<svg width="67" height="67" viewBox="0 0 67 67" fill="none" xmlns="http://www.w3.org/2000/svg">
<path fill-rule="evenodd" clip-rule="evenodd" d="M19.3436 0.790664L53.0912 0.777832L59.6739 7.36054C63.2924 10.9663 66.3336 14.1229 66.4362 14.3539C66.603 14.7131 66.6287 17.8056 66.603 39.1833C66.5645 63.4867 66.5645 63.5894 66.2951 64.1668C66.1539 64.4876 65.7818 65.0009 65.461 65.3089C65.153 65.6296 64.5884 66.0146 63.5491 66.4765H19.4077L18.7277 66.1814C18.3684 66.0146 17.8038 65.6296 17.4958 65.3089C17.175 65.0009 16.8029 64.4876 16.6617 64.1668C16.3923 63.6022 16.3923 63.3969 16.3281 36.7068H15.1989C14.583 36.7068 13.5308 36.617 12.8635 36.5143C12.1963 36.3989 11.0928 36.1294 10.4255 35.8984C9.75825 35.6674 8.75737 35.2312 8.19277 34.9104C7.641 34.5896 6.71711 33.9608 6.15252 33.4989C5.57509 33.0369 4.76668 32.2542 4.3304 31.7409C3.90695 31.2276 3.26537 30.3423 2.91891 29.752C2.55962 29.1746 2.09767 28.1993 1.8667 27.5963C1.64856 26.9932 1.35343 26.0436 1.22511 25.479C1.0583 24.7348 0.994141 23.9392 0.994141 22.5919C0.994141 21.2445 1.0583 20.449 1.22511 19.7047C1.35343 19.1401 1.64856 18.1906 1.8667 17.5875C2.09767 16.9844 2.55962 16.0092 2.91891 15.4317C3.26537 14.8415 3.90695 13.9561 4.3304 13.4428C4.76668 12.9295 5.57509 12.1468 6.15252 11.6848C6.71711 11.2229 7.641 10.5941 8.19277 10.2733C8.75737 9.95255 9.75825 9.51627 10.4255 9.2853C11.0928 9.05433 12.1963 8.78486 12.8635 8.66938C13.5308 8.56672 14.583 8.4769 16.3281 8.4769L16.3538 6.07736C16.3923 3.96011 16.4308 3.58799 16.6617 3.08755C16.8029 2.76676 17.175 2.25349 17.4958 1.94552C17.8038 1.62473 18.3427 1.23978 18.702 1.08579L19.3436 0.790664ZM19.1896 3.84463C18.9843 4.10126 18.9586 4.39639 18.9586 6.56496V9.003C20.4471 9.55477 21.1785 9.86273 21.525 10.0424C21.8714 10.222 22.6029 10.6711 23.129 11.0433C23.6551 11.4154 24.5405 12.1725 25.0922 12.7242C25.6312 13.276 26.4267 14.264 26.8502 14.9185C27.2736 15.5729 27.7997 16.5353 28.0179 17.0614C28.2488 17.6003 28.5696 18.5755 28.7493 19.2428C29.0316 20.3206 29.0701 20.7184 29.0701 22.579C29.0701 24.4396 29.0316 24.8503 28.7493 25.9153C28.5696 26.5954 28.2488 27.5706 28.0179 28.0967C27.7997 28.6356 27.2736 29.598 26.8502 30.2524C26.4267 30.9069 25.6312 31.8949 25.0794 32.4467C24.5405 32.9984 23.6551 33.7555 23.129 34.1276C22.6029 34.4997 21.8714 34.9489 21.525 35.1285C21.1657 35.3082 20.4471 35.6161 19.921 35.8086L18.9586 36.1551V63.1275L19.6644 63.8332H63.2924L63.9982 63.1275L64.0623 16.1631L51.9748 16.099L51.2306 15.2649V3.33136C27.017 3.34419 19.8569 3.39552 19.7029 3.45967C19.5489 3.511 19.3179 3.69065 19.1896 3.84463V3.84463ZM53.7969 13.5968H62.2017C55.7858 7.1424 53.8996 5.25612 53.8611 5.25612C53.8226 5.25612 53.7969 7.1424 53.7969 9.42645V13.5968ZM10.2972 12.0826C9.77108 12.3264 8.96268 12.7755 8.50073 13.0963C8.03879 13.4043 7.30738 14.0202 6.8711 14.4693C6.42198 14.9056 5.78039 15.6884 5.44677 16.2016C5.11314 16.7149 4.6512 17.5618 4.43306 18.0879C4.20209 18.6268 3.91979 19.4609 3.8043 19.9485C3.63749 20.6029 3.57333 21.3343 3.57333 22.6432C3.58616 24.0803 3.63749 24.6578 3.86846 25.4662C4.02244 26.0308 4.39456 27.0188 4.71536 27.6476C5.02332 28.2892 5.63925 29.2644 6.08836 29.8162C6.53747 30.3679 7.33304 31.1635 7.85914 31.5869C8.38525 32.0104 9.34763 32.6135 9.97639 32.9214C10.618 33.2294 11.5932 33.6144 12.1578 33.7683C12.9919 33.9993 13.5308 34.0506 15.0449 34.0506C16.5591 34.0506 17.098 33.9993 17.9321 33.7683C18.4967 33.6144 19.3693 33.2936 19.8569 33.0626C20.3573 32.8316 21.1272 32.3825 21.5891 32.0745C22.0511 31.7666 22.7825 31.1507 23.2316 30.7015C23.6679 30.2653 24.2967 29.4825 24.6303 28.9693C24.9639 28.456 25.3874 27.6861 25.5798 27.2626C25.7723 26.8392 26.0546 26.0308 26.1958 25.4662C26.3497 24.9016 26.4652 24.3113 26.4652 24.1573V23.8622L14.5317 23.798L13.8259 23.0923L13.7618 11.1587C13.21 11.1716 12.6582 11.2871 12.1578 11.4154C11.6702 11.5437 10.8233 11.8388 10.2972 12.0826V12.0826ZM16.3281 21.2958H26.4652C26.4652 20.8596 26.3497 20.2565 26.2086 19.6919C26.0674 19.1273 25.6953 18.1521 25.3745 17.5105C25.0666 16.8817 24.4506 15.9065 24.0015 15.3547C23.5524 14.803 22.7568 14.0074 22.2307 13.5839C21.7046 13.1605 20.7551 12.5574 20.1135 12.2494C19.4847 11.9286 18.4967 11.5565 17.9321 11.4154C17.3675 11.2742 16.7772 11.1587 16.6232 11.1587H16.3281V21.2958ZM47.766 8.46407L48.1894 8.84902C48.5231 9.15698 48.6 9.31097 48.6 9.74725C48.6 10.1964 48.5231 10.3503 47.766 11.0304L33.2404 10.9663L32.8683 10.5556C32.6501 10.3118 32.4962 9.99105 32.4962 9.78574C32.4833 9.59326 32.6116 9.27247 32.7528 9.06716C32.9068 8.87469 33.1506 8.65655 33.3046 8.59239C33.4585 8.54106 36.782 8.4769 47.766 8.46407ZM47.766 13.5968L48.1894 13.9817C48.5231 14.2897 48.6 14.4437 48.6 14.88C48.6 15.3291 48.5231 15.4831 47.766 16.1631L33.2404 16.099L32.8683 15.6884C32.6501 15.4446 32.4962 15.1238 32.4962 14.9185C32.4833 14.726 32.6116 14.4052 32.7528 14.1999C32.9068 14.0074 33.1506 13.7893 33.3046 13.7251C33.4585 13.6738 36.782 13.6096 47.766 13.5968ZM7.44853 21.3087C7.60251 21.3087 7.9233 21.4883 8.17994 21.745C8.55206 22.1171 8.62905 22.2967 8.62905 22.7458C8.62905 23.041 8.71887 23.6184 8.82153 24.029C8.92418 24.4396 9.19365 25.1326 9.42462 25.5688C9.64276 26.0051 10.1432 26.698 10.541 27.083C10.9388 27.4808 11.6189 27.994 12.068 28.2122C12.5042 28.4303 13.1972 28.6998 13.6078 28.8024C14.0056 28.9179 14.583 29.0077 14.891 28.9949C15.3401 28.9949 15.5069 29.0719 15.879 29.444C16.187 29.7648 16.3281 30.0086 16.3281 30.2781C16.3281 30.5476 16.187 30.8042 15.8918 31.1122C15.5197 31.4971 15.3657 31.5613 14.8653 31.5613C14.5445 31.5613 13.8259 31.4714 13.287 31.3688C12.6967 31.2533 11.7857 30.9197 11.0671 30.5732C10.0534 30.0856 9.66842 29.8033 8.74454 28.8794C7.80782 27.9555 7.53835 27.5963 7.05074 26.5569C6.67862 25.7998 6.38349 24.9401 6.24234 24.2472C6.12685 23.6184 6.06269 22.9255 6.10119 22.579C6.15252 22.2711 6.28083 21.8989 6.39632 21.7706C6.49897 21.6295 6.71711 21.4755 6.8711 21.4242C7.02508 21.36 7.28171 21.3087 7.44853 21.3087V21.3087ZM33.1121 21.3087C33.2661 21.3087 33.5869 21.4755 33.8178 21.6808C34.1515 21.9888 34.2285 22.1427 34.2285 22.579C34.2285 23.041 34.1643 23.1821 33.7793 23.5157C33.4072 23.8365 33.2532 23.8879 32.8811 23.8237C32.6116 23.7852 32.2909 23.5927 32.0855 23.3618C31.8802 23.1436 31.7263 22.8228 31.7263 22.6175C31.7134 22.425 31.8417 22.1043 31.9829 21.8989C32.1369 21.7065 32.3807 21.4883 32.5347 21.4242C32.6886 21.3728 32.9453 21.3087 33.1121 21.3087V21.3087ZM58.0314 21.2958L58.4549 21.6808C58.7885 21.9888 58.8655 22.1427 58.8655 22.579C58.8655 23.0281 58.7885 23.1821 58.0314 23.8622L37.6032 23.798L37.2311 23.3874C37.0129 23.1436 36.859 22.8228 36.859 22.6175C36.8461 22.425 36.9745 22.1043 37.1156 21.8989C37.2696 21.7065 37.5134 21.4883 37.6674 21.4242C37.8213 21.3728 42.4665 21.3087 58.0314 21.2958V21.2958ZM33.1121 26.4414C33.2661 26.4414 33.5869 26.6082 33.8178 26.8135C34.1515 27.1215 34.2285 27.2755 34.2285 27.7117C34.2285 28.1737 34.1643 28.3148 33.7793 28.6485C33.4072 28.9693 33.2532 29.0206 32.8811 28.9564C32.6116 28.9179 32.2909 28.7254 32.0855 28.4945C31.8802 28.2763 31.7263 27.9555 31.7263 27.7502C31.7134 27.5578 31.8417 27.237 31.9829 27.0317C32.1369 26.8392 32.3807 26.621 32.5347 26.5569C32.6886 26.5056 32.9453 26.4414 33.1121 26.4414V26.4414ZM58.0314 26.4286L58.4549 26.8135C58.7885 27.1215 58.8655 27.2755 58.8655 27.7117C58.8655 28.1609 58.7885 28.3148 58.0314 28.9949L37.6032 28.9308L37.2311 28.5201C37.0129 28.2763 36.859 27.9555 36.859 27.7502C36.8461 27.5578 36.9745 27.237 37.1156 27.0317C37.2696 26.8392 37.5134 26.621 37.6674 26.5569C37.8213 26.5056 42.4665 26.4414 58.0314 26.4286V26.4286ZM57.454 34.9489C57.8774 34.9745 58.4805 35.1028 58.8013 35.244C59.1221 35.3851 59.6354 35.7573 59.9433 36.0652C60.2641 36.3732 60.6363 36.8993 60.7774 37.2073C60.9699 37.6307 61.0469 38.0542 61.0469 38.7471C61.0469 39.44 60.9699 39.8763 60.7774 40.2869C60.6363 40.6077 60.2641 41.1209 59.9433 41.4417C59.6354 41.7497 59.1221 42.1347 58.8013 42.2758C58.365 42.4683 57.9544 42.5324 56.0553 42.5324L47.2527 51.9638L47.535 52.5797C47.7531 53.0417 47.8301 53.4266 47.8301 54.1452C47.8301 54.8381 47.7531 55.2744 47.5607 55.685C47.4195 56.0058 47.0474 56.5191 46.7266 56.8399C46.4186 57.1478 45.9054 57.5328 45.5846 57.6739C45.174 57.8536 44.7377 57.9306 44.0448 57.9306C43.3518 57.9306 42.9156 57.8536 42.5049 57.6739C42.1842 57.5328 41.6709 57.1478 41.3629 56.8399C41.0421 56.5191 40.67 56.0058 40.5417 55.685C40.4005 55.3771 40.2594 54.851 40.2337 54.5302C40.1952 54.2094 40.2594 53.6191 40.5802 52.3488L38.6298 49.9107C36.8461 47.6908 36.6408 47.4727 36.3457 47.5368C36.1661 47.5753 35.7041 47.6395 35.3192 47.678C34.87 47.7293 34.4081 47.6908 33.4585 47.3829L31.1488 49.8851C29.8785 51.2581 28.8519 52.4514 28.8648 52.5284C28.8776 52.6054 28.9546 53.016 29.0444 53.4395C29.1727 54.0426 29.1727 54.3762 29.0572 54.9151C28.9674 55.3129 28.7236 55.9032 28.4926 56.2496C28.2617 56.5961 27.8382 57.0452 27.5559 57.2505C27.2736 57.4558 26.7219 57.7124 26.3369 57.8279C25.9006 57.9562 25.3874 58.0076 24.9896 57.9691C24.6431 57.9306 24.0913 57.7894 23.7706 57.6611C23.4498 57.52 22.9365 57.1478 22.6285 56.8399C22.3077 56.5191 21.9356 56.0058 21.7945 55.685C21.602 55.2744 21.525 54.8381 21.525 54.1452C21.525 53.4523 21.602 53.0288 21.7945 52.6054C21.9356 52.2974 22.3077 51.7713 22.6285 51.4634C22.9365 51.1554 23.4498 50.7833 23.7706 50.6421C24.0913 50.501 24.6688 50.3727 25.0537 50.3342C25.4772 50.3085 25.9904 50.3598 26.9143 50.655L29.2241 48.1528C30.4944 46.7669 31.5209 45.5864 31.5081 45.5094C31.4953 45.4196 31.4183 45.009 31.3285 44.5855C31.2002 43.9953 31.2002 43.6616 31.3156 43.1099C31.4055 42.7249 31.6493 42.1218 31.8802 41.7882C32.1112 41.4417 32.5347 40.9926 32.817 40.7873C33.0993 40.582 33.651 40.3125 34.036 40.2099C34.4723 40.0816 34.9855 40.0302 35.3833 40.0687C35.7426 40.1072 36.2815 40.2484 36.6023 40.3767C36.9231 40.5179 37.4364 40.89 37.7444 41.1979C38.0652 41.5059 38.4373 42.032 38.5656 42.34C38.7067 42.6608 38.8479 43.1869 38.8736 43.4948C38.9121 43.8285 38.8479 44.4187 38.5271 45.6762L42.4408 50.578L42.8899 50.4753C43.1337 50.4112 43.7753 50.3727 45.2638 50.3727L54.0536 40.9285L53.7841 40.3254C53.6301 39.9918 53.4761 39.4528 53.4505 39.132C53.412 38.8241 53.4376 38.2723 53.5274 37.913C53.6044 37.5665 53.8354 37.0148 54.0407 36.694C54.246 36.386 54.631 35.9497 54.9005 35.7444C55.1827 35.5263 55.696 35.2568 56.0425 35.1285C56.4788 34.9745 56.9279 34.9104 57.454 34.9489V34.9489ZM56.2734 37.9772C56.1451 38.144 56.0425 38.4648 56.0425 38.7599C56.0425 39.132 56.1323 39.3502 56.4018 39.6196C56.6712 39.8891 56.8765 39.9661 57.2615 39.9661C57.6465 39.9661 57.8646 39.8763 58.1341 39.6068C58.3907 39.3502 58.4805 39.132 58.4805 38.7471C58.4805 38.3878 58.3907 38.1568 58.1597 37.9258C57.9801 37.7462 57.6593 37.5794 57.454 37.5409C57.2487 37.5024 56.9407 37.528 56.7867 37.5794C56.6327 37.6435 56.4018 37.8232 56.2734 37.9772V37.9772ZM34.113 43.0714C33.9975 43.1997 33.8692 43.5077 33.8307 43.7515C33.7537 44.1364 33.805 44.2776 34.113 44.624C34.3439 44.8935 34.6519 45.0731 34.9342 45.1245C35.3063 45.1886 35.4603 45.1373 35.8324 44.8165C36.2045 44.4829 36.2815 44.3289 36.2815 43.8926C36.2815 43.5205 36.1917 43.2895 35.9607 43.0585C35.7811 42.8789 35.4603 42.7121 35.255 42.6736C35.0497 42.6351 34.7417 42.6608 34.5877 42.7121C34.4338 42.7762 34.2285 42.9302 34.113 43.0714V43.0714ZM24.3223 53.3753C24.194 53.5421 24.0913 53.8629 24.0913 54.158C24.0913 54.5302 24.1812 54.7483 24.4506 55.0178C24.7201 55.2872 24.9254 55.3642 25.3104 55.3642C25.6953 55.3642 25.9135 55.2744 26.1829 55.0049C26.4396 54.7483 26.5294 54.5302 26.5294 54.1324C26.5294 53.7089 26.4524 53.5421 26.1188 53.247C25.8878 53.0417 25.567 52.8749 25.413 52.8749C25.2462 52.8749 24.9896 52.9262 24.8356 52.9903C24.6816 53.0417 24.4506 53.2213 24.3223 53.3753ZM43.0182 53.4651C42.8001 53.7474 42.7616 53.9399 42.8129 54.2735C42.8514 54.5302 43.0311 54.8766 43.2107 55.0434C43.4545 55.2872 43.6726 55.3642 44.0448 55.3642C44.4297 55.3642 44.6479 55.2744 44.9173 55.0049C45.174 54.7483 45.2638 54.5302 45.2638 54.1452C45.2638 53.7859 45.174 53.5549 44.943 53.324C44.7633 53.1443 44.4425 52.9775 44.2372 52.939C44.0319 52.9005 43.724 52.9262 43.57 52.9903C43.416 53.0545 43.1594 53.2726 43.0182 53.4651Z" fill="#FCFEFF"/>
</svg>
