<svg width="69" height="62" viewBox="0 0 69 62" fill="none" xmlns="http://www.w3.org/2000/svg">
<path fill-rule="evenodd" clip-rule="evenodd" d="M35.8251 1.50911C35.6535 1.63166 35.1022 2.18446 34.6 2.73749L33.6869 3.74311L32.3103 4.17677C29.3973 5.09418 29.1627 5.6191 30.7639 7.63763L31.277 8.28452L16.9743 8.34333C1.21451 8.40814 2.3539 8.35027 1.53351 9.12677C0.721628 9.89504 0.773965 8.47977 0.777105 29.5987C0.780246 51.0482 0.707235 49.3067 1.63871 50.143C2.39982 50.8265 1.99787 50.8029 12.873 50.8029H22.8867V52.6716V54.5403L19.6483 54.5866C14.5088 54.6601 13.1389 55.5551 13.1389 58.8388V60.2294L13.6154 60.6224C14.302 61.1885 47.8971 61.4772 49.0913 60.9271C50.4445 60.3038 50.3075 57.3333 48.8587 55.8848C47.7487 54.7751 47.1932 54.6432 43.3964 54.5877L40.158 54.5403V52.6716V50.8029H49.7731H59.3884L59.8542 51.6502C61.6261 54.873 65.6825 55.1524 67.3092 52.1636C68.1935 50.5391 68.0411 50.0312 64.8856 44.0839L62.2705 39.1548L62.2739 28.7772L62.2773 18.3995L62.7668 18.1971C63.6392 17.8363 63.7538 17.5081 63.8504 15.0966L63.9355 12.9699L65.2592 11.2289C67.4988 8.28346 67.3413 7.86581 63.5351 6.6593L61.2349 5.93019L59.8095 4.40224C57.1926 1.59708 56.9531 1.59685 54.3686 4.39871L52.9436 5.9436L50.705 6.64365C48.5327 7.32289 47.7869 7.69679 47.6035 8.19878C47.5611 8.31463 46.9399 8.3411 44.8381 8.3164L42.1276 8.28452L42.7915 7.42663C44.1855 5.62545 43.8257 4.98279 40.9431 4.12443L39.7 3.75429L38.7841 2.74314C37.4003 1.2153 36.6658 0.909028 35.8251 1.50911ZM37.6465 4.26639L38.565 5.24684L39.9558 5.69225C40.7208 5.93725 41.3294 6.17084 41.3084 6.21141C41.2873 6.25187 40.9309 6.73716 40.5164 7.28972L39.7625 8.29428L39.6785 9.61476C39.6064 10.7475 39.5646 10.9274 39.3855 10.8801C36.948 10.2357 36.4333 10.2357 33.9958 10.8801C33.8167 10.9274 33.7749 10.7476 33.703 9.61547C33.6195 8.30558 33.6147 8.28981 33.0511 7.52554C32.7389 7.10201 32.3836 6.61743 32.2616 6.44853L32.0397 6.14167L33.4243 5.69814L34.809 5.25472L35.7312 4.27027C36.833 3.09411 36.549 3.0947 37.6465 4.26639ZM59.0708 6.34126L60.1236 7.46121L62.3419 8.15561C63.562 8.53763 64.5803 8.86437 64.6047 8.88178C64.6293 8.89919 64.0505 9.70192 63.3185 10.6654L61.9879 12.4174L61.9131 14.4969C61.8719 15.6407 61.7857 16.5765 61.7215 16.5765C61.6571 16.5765 60.6678 16.3648 59.5228 16.106C56.9894 15.5335 57.2818 15.5335 54.6977 16.106C53.5299 16.3648 52.5274 16.5765 52.4699 16.5765C52.4126 16.5765 52.324 15.6371 52.2732 14.4888L52.1806 12.4011L50.8667 10.6584C50.1441 9.6998 49.5733 8.90001 49.5985 8.88107C49.6236 8.86214 50.6413 8.53493 51.8601 8.15397L54.0759 7.46121L55.584 5.83704L57.0921 4.21287L57.555 4.7171C57.8098 4.99432 58.4919 5.72519 59.0708 6.34126ZM31.7843 10.8427C31.7846 11.7934 32.0759 12.3282 32.7562 12.6267L33.2704 12.8524L34.9839 12.4741L36.6975 12.0959L38.395 12.4706C40.8625 13.0153 41.5957 12.656 41.5967 10.9015L41.5973 10.1076H44.8444H48.0915L49.1681 11.5447L50.2446 12.9818L50.3133 14.9262C50.4416 18.5567 50.7785 18.7873 54.6924 17.9231L57.1239 17.3862L58.6605 17.7352C59.5055 17.9272 60.2223 18.107 60.2533 18.1349C60.2843 18.1627 60.2945 22.0462 60.276 26.7651L60.2424 35.3448L58.0242 31.1652C53.2109 22.0959 52.735 21.2482 52.157 20.7127C49.7146 18.4507 45.9844 19.8939 46.2086 23.014C46.2728 23.9086 46.3645 24.1121 50.6228 32.8076C56.0425 43.8743 55.99 43.7661 55.99 43.8837C55.99 43.9374 44.0081 43.9811 29.3634 43.9811H2.73687V27.2796C2.73687 10.7348 2.73936 10.5758 2.99856 10.3428C3.25711 10.1104 3.43466 10.1076 17.5221 10.1076H31.784L31.7843 10.8427ZM14.3819 12.0693C13.742 12.2925 13.7277 12.3542 13.7277 14.8893C13.7277 17.586 13.7837 17.7526 14.6887 17.7526C15.5081 17.7526 15.6192 17.4975 15.667 15.5059L15.7092 13.7537H17.6421C19.8005 13.7537 20.0517 13.667 20.0517 12.9224C20.0517 12.1341 19.7724 12.0511 17.0282 12.0245C15.6807 12.0114 14.4899 12.0317 14.3819 12.0693ZM18.3843 16.1151L18.0455 16.4769V27.0037V37.5303L18.428 37.8741L18.8104 38.2179H30.541H42.2716L42.6541 37.8741L43.0365 37.5303V27.0037V16.4769L42.6978 16.1151L42.359 15.7532H30.541H18.723L18.3843 16.1151ZM41.0739 23.0733V28.6291L39.2094 26.9673C36.0913 24.188 36.2676 24.166 32.1335 27.8507L29.2773 30.3964L27.0961 28.3815C23.6972 25.242 23.2467 25.1477 21.1189 27.131L20.013 28.1617L20.0106 22.8396L20.0082 17.5174H30.541H41.0739V23.0733ZM50.1434 21.5311C50.7788 21.8252 51.0971 22.2509 52.1462 24.2091C52.749 25.3343 53.2423 26.2916 53.2423 26.3364C53.2423 26.4195 50.5199 27.5736 50.324 27.5736C50.1844 27.5736 48.2932 23.7131 48.1458 23.1276C47.8429 21.9234 48.9976 21.0006 50.1434 21.5311ZM38.6847 28.9544L41.0739 31.0998V33.7767V36.4537H38.6987H36.3234L35.5912 35.839C35.1883 35.501 33.9275 34.4243 32.789 33.4464L30.7192 31.6684L33.3593 29.2387C36.5145 26.3348 35.8093 26.3725 38.6847 28.9544ZM28.4457 32.0725L33.3831 36.4537H26.6956H20.0082V33.5443V30.6349L21.675 29.1332C22.5918 28.3073 23.3793 27.645 23.4251 27.6614C23.4711 27.6778 25.7303 29.6627 28.4457 32.0725ZM59.7906 38.5708C62.8319 44.2957 65.4289 49.2318 65.5617 49.5398C66.45 51.5994 64.1396 53.3935 62.4582 51.9496C61.978 51.5372 51.4346 30.5672 51.1064 29.3716C51.0712 29.2437 54.0692 27.9749 54.1714 28.0746C54.2206 28.1224 56.7492 32.8458 59.7906 38.5708ZM45.7064 36.4657C45.4893 36.6809 45.4516 36.9395 45.415 38.4651L45.3729 40.2174H43.4399C41.2815 40.2174 41.0303 40.3041 41.0303 41.0487C41.0303 41.8511 41.2907 41.9228 44.2041 41.9228C47.6437 41.9228 47.3544 42.1812 47.3544 39.108C47.3544 36.3831 47.3029 36.2184 46.4513 36.2184C46.114 36.2184 45.8761 36.2974 45.7064 36.4657ZM57.7237 47.3071C58.1375 48.1636 58.476 48.9036 58.476 48.9515C58.476 49.1584 3.23107 49.0513 2.97619 48.844C2.76893 48.6754 2.73687 48.4547 2.73687 47.1973V45.7454L29.8541 45.7475L56.9713 45.7497L57.7237 47.3071ZM38.1659 52.7141L38.202 54.5666H31.5256H24.8494V52.7632C24.8494 51.7712 24.8891 50.9239 24.9378 50.8803C24.9865 50.8365 27.9745 50.8144 31.5781 50.8312L38.1299 50.8617L38.1659 52.7141ZM46.1582 56.4401C47.3308 56.6437 48.003 57.4488 48.0065 58.6538L48.0086 59.3889H31.5224H15.0361L15.039 58.7126C15.0441 57.5007 15.6757 56.703 16.8216 56.4609C17.4616 56.3258 45.3857 56.3059 46.1582 56.4401Z" fill="#FAB100" stroke="#FAB100"/>
</svg>
