<svg width="100" height="100" viewBox="0 0 100 100" fill="none" xmlns="http://www.w3.org/2000/svg">
<path fill-rule="evenodd" clip-rule="evenodd" d="M48.7032 0.238518C48.4372 0.36549 45.7122 2.64375 42.6476 5.30117L37.0759 10.1329L27.5452 10.1359C14.4136 10.14 15.6882 9.05445 15.6812 20.2399L15.6765 28.0125L8.16116 34.2603C3.24228 38.3496 0.544618 40.7218 0.352402 41.1267C-0.177558 42.2435 -0.0816458 97.392 0.452026 98.438C1.33145 100.162 -3.93904 99.9957 49.8708 99.9957C103.681 99.9957 98.4101 100.162 99.2895 98.438C99.8232 97.392 99.9191 42.2435 99.3891 41.1267C99.1969 40.7218 96.4993 38.3496 91.5804 34.2603L84.065 28.0125L84.0603 20.2399C84.0533 9.05504 85.3281 10.1409 72.1963 10.1333L62.6656 10.1279L56.9548 5.17557C53.8139 2.45193 51.045 0.170149 50.8016 0.104905C50.1294 -0.0751996 49.242 -0.0187461 48.7032 0.238518ZM51.772 8.42956L53.6319 10.0411L51.7513 10.097C50.717 10.1279 49.0249 10.1279 47.9912 10.097L46.1116 10.0411L47.9424 8.44147C48.9493 7.56166 49.8044 6.83655 49.8426 6.82991C49.8809 6.82327 50.7492 7.5431 51.772 8.42956ZM78.1952 34.549V53.099L69.4006 59.9433L60.6059 66.7877H49.8882H39.1706L30.3583 59.9353L21.5463 53.083V34.541V15.999H49.8708H78.1952V34.549ZM46.4871 20.2026C21.4936 24.4024 23.9773 62.8565 49.2437 62.8801C53.8462 62.8844 53.3195 57.3502 48.6788 56.9443C37.033 55.9252 30.5615 42.7412 36.8986 32.9452C43.5466 22.6682 58.9721 23.7269 64.141 34.8147C66.7105 40.3268 64.6046 48.621 60.6352 48.621C59.2057 48.621 59.2471 48.9132 59.2464 38.8592C59.2458 30.3296 59.2298 29.9399 58.8574 29.3293C57.6934 27.42 54.7568 27.4487 53.8366 29.3785C53.4512 30.1866 53.5528 30.1708 52.099 29.6512C46.6211 27.6933 40.4159 31.5769 38.8428 37.9477C36.3491 48.0475 45.6436 57.0742 53.5975 52.2772L54.6869 51.6202L55.7851 52.6423C61.133 57.6199 68.8509 53.0898 70.7895 43.8351C73.6074 30.383 60.685 17.8169 46.4871 20.2026ZM50.8475 35.5107C53.8409 37.0113 54.2105 43.639 51.4591 46.4789C49.1101 48.9034 45.9901 47.6617 44.7112 43.7933C43.0213 38.682 46.8541 33.5086 50.8475 35.5107ZM15.6419 45.2011L15.5884 48.4477L11.6816 45.4104C9.53284 43.7398 7.80505 42.3064 7.84217 42.2249C7.87928 42.1437 9.63735 40.6374 11.749 38.878L15.5884 35.6789L15.6419 38.8166C15.6714 40.5425 15.6714 43.4155 15.6419 45.2011ZM88.0599 38.9211C89.9938 40.5276 91.6896 41.9456 91.8281 42.072C92.0402 42.2656 85.8918 47.3546 84.2996 48.3032C84.1062 48.4184 84.0555 47.1217 84.0555 42.077C84.0555 37.0314 84.1062 35.7361 84.2996 35.8529C84.434 35.934 86.1261 37.3146 88.0599 38.9211ZM19.7091 59.0756C27.1122 64.8335 33.1691 69.6225 33.1691 69.7178C33.1691 69.8495 6.88109 90.4384 6.0841 90.9311C5.99327 90.9871 5.91904 81.4412 5.91904 69.7178C5.91904 57.9944 5.99327 48.4485 6.0841 48.5046C6.17493 48.5608 12.3063 53.3178 19.7091 59.0756ZM93.7754 80.3532L93.7248 90.9887L80.1486 80.4293C72.6817 74.6217 66.5724 69.8014 66.5724 69.7178C66.5724 69.6342 72.6817 64.814 80.1486 59.0063L93.7248 48.4469L93.7754 59.0825C93.8032 64.932 93.8032 74.5037 93.7754 80.3532ZM74.3322 83.3202C81.8825 89.1898 88.0965 94.0245 88.1414 94.0639C88.1861 94.1032 70.9694 94.1354 49.8821 94.1354H11.5413L25.3555 83.3917L39.1696 72.6479H49.887H60.6042L74.3322 83.3202Z" fill="#78B404"/>
</svg>
