<svg width="66" height="65" viewBox="0 0 66 65" fill="none" xmlns="http://www.w3.org/2000/svg">
<path fill-rule="evenodd" clip-rule="evenodd" d="M6.41992 0C7.00391 0 7.58789 0.0888672 8.13379 0.266602C8.59082 0.418945 9.25098 0.723633 9.59375 0.939453C9.94922 1.16797 10.4697 1.6377 10.7744 1.98047C11.0791 2.32324 11.4473 2.86914 11.8789 3.80859H27.5576V2.66602C27.5576 1.77734 27.6084 1.40918 27.8115 1.01562C27.9808 0.677083 28.2347 0.423177 28.5732 0.253906C29.0557 0.0126953 29.335 0 33.2705 0C37.2061 0 37.4854 0.0126953 37.9678 0.253906C38.3063 0.423177 38.5602 0.677083 38.7295 1.01562C38.9326 1.40918 38.9834 1.77734 38.9834 3.80859H54.6621L54.9414 3.21191C55.0938 2.86914 55.4619 2.32324 55.7666 1.98047C56.0713 1.6377 56.5918 1.16797 56.9473 0.939453C57.29 0.723633 57.9502 0.418945 58.4072 0.266602C58.9277 0.101562 59.5498 0 60.0957 0C60.6416 0 61.251 0.101562 61.7969 0.291992C62.2793 0.457031 62.9141 0.761719 63.2314 0.977539C63.5488 1.19336 63.9805 1.56152 64.1963 1.80273C64.4248 2.03125 64.7422 2.4502 64.9199 2.72949C65.085 3.00879 65.3516 3.60547 65.5039 4.0625C65.6562 4.54492 65.7705 5.20508 65.7705 5.64941C65.7705 6.06836 65.6943 6.69043 65.6055 7.0459C65.5039 7.38867 65.3008 7.95996 65.123 8.31543C64.958 8.6582 64.4756 9.29297 64.0566 9.71191C63.625 10.1436 62.9902 10.626 62.5967 10.8037C62.2158 10.9941 61.5938 11.21 61.2256 11.2861C60.8701 11.3623 60.2988 11.4258 59.9561 11.4258C59.626 11.4258 59.0674 11.3496 58.7246 11.2607C58.3691 11.1592 57.7979 10.9561 57.4551 10.7783C57.0996 10.6133 56.4775 10.1309 56.0459 9.71191C55.6016 9.26758 55.1445 8.6709 54.6621 7.61719H51.1963C49.3047 7.61719 47.7432 7.64258 47.7432 7.68066C47.7432 7.71875 48.1621 7.99805 48.6572 8.30273C49.165 8.60742 50.1299 9.28027 50.79 9.78809C51.4502 10.3086 52.5547 11.2734 53.2529 11.9336C53.9385 12.5937 54.9668 13.7109 55.5254 14.4092C56.084 15.1074 56.9092 16.2246 57.3408 16.8848C57.7725 17.5449 58.4707 18.7764 58.9023 19.6143C59.3213 20.4521 59.8164 21.5439 60.0068 22.0264C60.1846 22.5088 60.502 23.4609 60.7051 24.1211C60.9209 24.7812 61.2256 26.0127 61.3906 26.8506C61.5557 27.6885 61.7588 28.9707 61.835 29.707C61.8984 30.4434 61.9619 31.4209 61.9619 31.9033C61.9619 32.5 61.8857 32.9063 61.708 33.2617C61.5387 33.6003 61.2848 33.8542 60.9463 34.0234C60.667 34.1631 60.2607 34.2773 60.0576 34.2773C59.8545 34.2773 59.4482 34.1631 59.1689 34.0234C58.8304 33.8542 58.5765 33.6003 58.4072 33.2617C58.2422 32.9316 58.1533 32.5 58.1533 32.0303C58.1533 31.624 58.0898 30.6973 58.0264 29.9609C57.9502 29.2246 57.7471 27.9678 57.5693 27.168C57.3789 26.3682 57.0615 25.1875 56.8584 24.5654C56.6553 23.9434 56.1475 22.7373 55.7539 21.8994C55.3604 21.0615 54.7002 19.8555 54.2939 19.2334C53.8877 18.6113 53.291 17.748 52.9609 17.3291C52.6436 16.9102 51.7803 15.9453 51.0439 15.1836C50.3076 14.4346 49.2539 13.4443 48.6953 13.0127C48.1367 12.5811 47.1973 11.9082 46.6006 11.5146C46.0039 11.1338 45.001 10.5625 44.3789 10.2451C43.7568 9.94043 42.6904 9.4834 42.0303 9.22949C41.3701 8.97559 40.4053 8.6582 38.9834 8.25195V9.07715C38.9834 9.64844 38.9072 10.0547 38.7295 10.4102C38.5602 10.7487 38.3063 11.0026 37.9678 11.1719C37.4854 11.4131 37.2061 11.4258 33.2705 11.4258C29.335 11.4258 29.0557 11.4131 28.5732 11.1719C28.2347 11.0026 27.9808 10.7487 27.8115 10.4102C27.6338 10.0547 27.5576 9.64844 27.5576 8.25195L26.6309 8.51855C26.1357 8.6582 25.1709 8.97559 24.5107 9.22949C23.8506 9.4707 22.7334 9.96582 22.0352 10.3213C21.3369 10.6895 20.334 11.2607 19.8135 11.6035C19.293 11.9463 18.5186 12.4795 18.0996 12.7969C17.6807 13.1143 16.7158 13.9775 15.9541 14.7139C15.2051 15.4502 14.2275 16.5166 13.7832 17.0752C13.3516 17.6338 12.6533 18.6113 12.2471 19.2334C11.8408 19.8555 11.1807 21.0615 10.7871 21.8994C10.3936 22.7373 9.88574 23.9688 9.65723 24.6289C9.44141 25.2891 9.12402 26.457 8.95898 27.2314C8.79395 28.0059 8.59082 29.2246 8.51465 29.9609C8.45117 30.6973 8.3877 31.624 8.3877 32.0303C8.3877 32.5 8.29883 32.9316 8.13379 33.2617C7.96452 33.6003 7.71061 33.8542 7.37207 34.0234C7.09277 34.1631 6.68652 34.2773 6.4834 34.2773C6.26758 34.2773 5.87402 34.1631 5.59473 34.0234C5.25195 33.8457 4.99805 33.6045 4.82031 33.2363C4.56641 32.7285 4.55371 32.5635 4.61719 31.04C4.66797 30.126 4.82031 28.7041 4.95996 27.8662C5.09961 27.0283 5.37891 25.7207 5.58203 24.9463C5.78516 24.1719 6.2041 22.9277 6.49609 22.1533C6.80078 21.3789 7.34668 20.1602 7.72754 19.4238C8.0957 18.6875 8.76855 17.5449 9.2002 16.8848C9.63184 16.2246 10.457 15.1074 11.0156 14.4092C11.5742 13.7109 12.6025 12.5937 13.2881 11.9336C13.9863 11.2607 15.0273 10.3467 15.624 9.87695C16.2207 9.41992 17.2236 8.72168 18.9883 7.60449L11.8789 7.61719L11.4346 8.46777C11.168 8.96289 10.7236 9.54688 10.3428 9.88965C9.9873 10.207 9.41602 10.6133 9.07324 10.7783C8.73047 10.9561 8.15918 11.1592 7.81641 11.2607C7.46094 11.3496 6.91504 11.4258 6.57227 11.4258C6.24219 11.4258 5.6709 11.3623 5.30273 11.2861C4.94727 11.21 4.33789 10.9941 3.95703 10.8037C3.57617 10.626 3.00488 10.2451 2.6875 9.95313C2.37012 9.67383 1.92578 9.15332 1.69727 8.81055C1.48145 8.46777 1.17676 7.82031 1.03711 7.36328C0.884766 6.89355 0.770508 6.20801 0.770508 5.77637C0.770508 5.35742 0.84668 4.73535 0.935547 4.37988C1.02441 4.03711 1.22754 3.49121 1.37988 3.17383C1.51953 2.85645 1.8877 2.32324 2.19238 1.98047C2.49707 1.6377 2.99219 1.18066 3.30957 0.977539C3.62695 0.761719 4.24902 0.457031 4.70605 0.304688C5.23926 0.114258 5.84863 0.0126953 6.41992 0V0ZM4.83301 4.82422C4.69336 5.10352 4.5791 5.50977 4.5791 5.71289C4.5791 5.91602 4.69336 6.32227 4.83301 6.60156C5.00228 6.9401 5.25618 7.19401 5.59473 7.36328C5.87402 7.50293 6.26758 7.61719 6.4834 7.61719C6.68652 7.61719 7.09277 7.50293 7.37207 7.36328C7.71061 7.19401 7.96452 6.9401 8.13379 6.60156C8.27344 6.32227 8.3877 5.91602 8.3877 5.71289C8.3877 5.50977 8.27344 5.10352 8.13379 4.82422C7.96452 4.48568 7.71061 4.23177 7.37207 4.0625C7.09277 3.92285 6.67383 3.80859 6.44531 3.80859C6.22949 3.82129 5.82324 3.93555 5.55664 4.0625C5.26465 4.22754 4.99805 4.50684 4.83301 4.82422ZM31.3662 7.61719H35.1748V3.80859H31.3662V7.61719ZM58.4072 4.82422C58.2676 5.10352 58.1533 5.50977 58.1533 5.71289C58.1533 5.91602 58.2676 6.32227 58.4072 6.60156C58.5765 6.9401 58.8304 7.19401 59.1689 7.36328C59.4482 7.50293 59.8545 7.61719 60.0576 7.61719C60.2607 7.61719 60.667 7.50293 60.9463 7.36328C61.2848 7.19401 61.5387 6.9401 61.708 6.60156C61.8477 6.32227 61.9619 5.91602 61.9619 5.71289C61.9619 5.50977 61.8477 5.10352 61.708 4.82422C61.5387 4.48568 61.2848 4.23177 60.9463 4.0625C60.667 3.92285 60.248 3.80859 60.0195 3.80859C59.8037 3.82129 59.3975 3.93555 59.1309 4.0625C58.8389 4.22754 58.5723 4.50684 58.4072 4.82422ZM33.3975 15.2725C33.7148 15.2852 34.1465 15.4248 34.3496 15.5771C34.6543 15.793 36.0508 18.4971 41.5732 29.5293C45.3311 37.0703 48.4287 43.4053 48.4668 43.6084C48.5049 43.8115 48.4668 44.1924 48.3906 44.4336C48.3145 44.6748 46.5879 47.3916 40.8877 56.0498V59.7568C40.8877 63.2227 40.875 63.5146 40.6338 63.9844C40.4645 64.3229 40.2106 64.5768 39.8721 64.7461C39.3896 64.9873 39.1104 65 33.2705 65C27.4307 65 27.1514 64.9873 26.6689 64.7461C26.3304 64.5768 26.0765 64.3229 25.9072 63.9844C25.666 63.5146 25.6533 63.2227 25.6533 56.0498L22.0859 50.6543C20.1309 47.6836 18.417 45.043 18.2773 44.7764C18.1504 44.5225 18.0361 44.1035 18.0361 43.8623C18.0361 43.5322 19.7373 40.0029 24.8408 29.7959C28.5732 22.3184 31.7217 16.0723 31.8232 15.9199C31.9248 15.7803 32.1914 15.5645 32.4199 15.4375C32.6738 15.2979 33.0293 15.2471 33.3975 15.2725V15.2725ZM26.7578 34.4932C24.2568 39.5078 22.2129 43.6846 22.2256 43.7607C22.2256 43.8496 23.6475 46.084 25.3867 48.7119L28.5479 53.5107H37.9932L44.3535 43.8623C44.0996 43.1768 42.043 39 39.6055 34.1504L35.1875 25.3271C35.1748 44.04 35.1621 44.3193 34.9209 44.8145C34.7516 45.153 34.4977 45.4069 34.1592 45.5762C33.8799 45.7158 33.4736 45.8301 33.2705 45.8301C33.0547 45.8301 32.6611 45.7158 32.3818 45.5762C32.1025 45.4365 31.7725 45.1445 31.6455 44.9033C31.4424 44.5352 31.4297 43.7227 31.3662 34.9375L31.3027 25.3779L26.7578 34.4932ZM29.4619 61.1914H37.0791V57.3828H29.4619V61.1914Z" fill="#FAB100"/>
</svg>
