<svg width="33" height="34" viewBox="0 0 33 34" fill="none" xmlns="http://www.w3.org/2000/svg">
<path d="M16.5 0.386841C7.40195 0.386841 0 7.78858 0 16.8868C0 25.9849 7.40195 33.3868 16.5 33.3868C25.598 33.3868 33 25.9849 33 16.8868C33 7.78858 25.5982 0.386841 16.5 0.386841ZM25.9746 14.0998L15.6085 24.4658C15.1677 24.9066 14.5818 25.1492 13.9585 25.1492C13.3353 25.1492 12.7494 24.9066 12.3086 24.4658L7.02541 19.1827C6.58464 18.7419 6.34188 18.156 6.34188 17.5327C6.34188 16.9093 6.58464 16.3234 7.02541 15.8826C7.466 15.4419 8.05191 15.1991 8.67536 15.1991C9.29863 15.1991 9.88471 15.4419 10.3253 15.8828L13.9584 19.5157L22.6744 10.7997C23.1151 10.359 23.701 10.1164 24.3243 10.1164C24.9476 10.1164 25.5335 10.359 25.9742 10.7997C26.8844 11.7098 26.8844 13.19 25.9746 14.0998Z" fill="#33EC7D"/>
</svg>
