<svg width="101" height="100" viewBox="0 0 101 100" fill="none" xmlns="http://www.w3.org/2000/svg">
<path fill-rule="evenodd" clip-rule="evenodd" d="M52.5111 0.479046C52.2539 0.683307 51.428 1.60464 50.6757 2.52636L49.3076 4.20239L47.2452 4.92515C42.881 6.45416 42.5295 7.32903 44.9283 10.6933L45.6972 11.7714L24.269 11.8694C0.65789 11.9774 2.3649 11.881 1.1358 13.1752C-0.0805465 14.4556 -0.00213556 12.0968 0.0025691 47.2951C0.00727376 83.0442 -0.10211 80.1417 1.29341 81.5356C2.4337 82.6747 1.83151 82.6353 18.1245 82.6353H33.1269V85.7498V88.8643L28.2752 88.9415C20.5753 89.064 18.5229 90.5556 18.5229 96.0285V98.3461L19.2368 99.0013C20.2653 99.9447 70.5972 100.426 72.3863 99.509C74.4136 98.4702 74.2084 93.5194 72.0378 91.1053C70.3749 89.2558 69.5425 89.0358 63.8542 88.9433L59.0025 88.8643V85.7498V82.6353H73.4078H87.8133L88.5111 84.0475C91.1657 89.4189 97.243 89.8846 99.6802 84.9032C101.005 82.1956 100.777 81.3492 96.0492 71.4371L92.1312 63.2219L92.1363 45.9259L92.1413 28.6298L92.8747 28.2924C94.1818 27.691 94.3535 27.1441 94.4982 23.1249L94.6256 19.5804L96.6088 16.6788C99.9642 11.7696 99.7282 11.0735 94.0258 9.0627L90.5796 7.84752L88.4441 5.30093C84.5235 0.625675 84.1648 0.625283 80.2927 5.29505L78.1577 7.86987L74.8039 9.03662C71.5495 10.1687 70.4321 10.7919 70.1573 11.6285C70.0938 11.8216 69.163 11.8657 66.0142 11.8245L61.9533 11.7714L62.948 10.3416C65.0364 7.33961 64.4974 6.26852 60.1787 4.83791L58.3164 4.22101L56.9442 2.53577C54.871 -0.0106303 53.7705 -0.521086 52.5111 0.479046ZM55.2398 5.07452L56.6159 6.7086L58.6997 7.45096C59.8456 7.85928 60.7576 8.24859 60.726 8.31622C60.6944 8.38366 60.1605 9.19247 59.5394 10.1134L58.4099 11.7877L58.2841 13.9885C58.1761 15.8764 58.1135 16.1761 57.8452 16.0973C54.1934 15.0233 53.4222 15.0233 49.7704 16.0973C49.502 16.1761 49.4395 15.8766 49.3317 13.9897C49.2066 11.8065 49.1994 11.7802 48.3551 10.5064C47.8874 9.80054 47.355 8.99291 47.1723 8.71141L46.8398 8.19998L48.9142 7.46076L50.9887 6.72174L52.3703 5.08099C54.0211 3.12071 53.5955 3.12169 55.2398 5.07452ZM87.3375 8.53264L88.9147 10.3992L92.2382 11.5566C94.0661 12.1933 95.5916 12.7378 95.6283 12.7668C95.6651 12.7958 94.7979 14.1337 93.7013 15.7396L91.7077 18.6596L91.5958 22.1254C91.5341 24.0317 91.4049 25.5913 91.3086 25.5913C91.2122 25.5913 89.73 25.2385 88.0146 24.8072C84.2191 23.853 84.6572 23.853 80.7857 24.8072C79.0361 25.2385 77.5342 25.5913 77.4481 25.5913C77.3623 25.5913 77.2295 24.0257 77.1533 22.1119L77.0147 18.6324L75.0462 15.7278C73.9635 14.1302 73.1085 12.7972 73.1461 12.7657C73.1837 12.7341 74.7084 12.1887 76.5344 11.5538L79.8542 10.3992L82.1136 7.69227L84.373 4.98533L85.0665 5.8257C85.4482 6.28773 86.4701 7.50585 87.3375 8.53264ZM46.4572 16.035C46.4575 17.6195 46.8941 18.5108 47.9132 19.0083L48.6836 19.3845L51.2508 18.7541L53.818 18.1237L56.3612 18.7482C60.0579 19.656 61.1565 19.0572 61.158 16.133L61.1588 14.8098H66.0236H70.8885L72.5014 17.2051L74.1141 19.6002L74.217 22.8409C74.4093 28.8917 74.9141 29.2761 80.7778 27.8357L84.4206 26.9408L86.7228 27.5226C87.9887 27.8425 89.0625 28.1422 89.109 28.1887C89.1555 28.235 89.1707 34.7076 89.1431 42.5724L89.0927 56.8718L85.7695 49.9058C78.5582 34.7903 77.8453 33.3775 76.9792 32.485C73.3202 28.715 67.7316 31.1203 68.0674 36.3205C68.1637 37.8115 68.3011 38.1506 74.6808 52.6431C82.8005 71.0877 82.7218 70.9074 82.7218 71.1034C82.7218 71.1928 64.7706 71.2657 42.8303 71.2657H2.93867V43.4298C2.93867 15.8552 2.94239 15.5902 3.33072 15.2019C3.71807 14.8145 3.98408 14.8098 25.0898 14.8098H46.4568L46.4572 16.035ZM20.3851 18.0794C19.4263 18.4514 19.405 18.5541 19.405 22.7793C19.405 27.2738 19.4889 27.5516 20.8448 27.5516C22.0723 27.5516 22.2387 27.1264 22.3105 23.8071L22.3736 20.8867H25.2695C28.5032 20.8867 28.8796 20.7422 28.8796 19.5012C28.8796 18.1874 28.461 18.049 24.3498 18.0047C22.3309 17.9829 20.5468 18.0166 20.3851 18.0794ZM26.3814 24.8223L25.8739 25.4253V42.97V60.5144L26.4469 61.0874L27.0199 61.6604H44.5945H62.1691L62.7421 61.0874L63.3151 60.5144V42.97V25.4253L62.8076 24.8223L62.3001 24.2191H44.5945H26.8889L26.3814 24.8223ZM60.3747 36.4193V45.6791L57.5813 42.9094C52.9098 38.2773 53.174 38.2406 46.9804 44.3817L42.7013 48.6246L39.4333 45.2664C34.3411 40.0339 33.6662 39.8766 30.4784 43.1823L28.8215 44.9L28.818 36.0298L28.8143 27.1596H44.5945H60.3747V36.4193ZM73.9626 33.849C74.9145 34.3393 75.3914 35.0487 76.9631 38.3123C77.8662 40.1877 78.6053 41.7832 78.6053 41.8579C78.6053 41.9963 74.5265 43.9199 74.2331 43.9199C74.0239 43.9199 71.1905 37.4857 70.9698 36.5099C70.516 34.5029 72.2459 32.9649 73.9626 33.849ZM56.7952 46.2213L60.3747 49.7968V54.2584V58.72H56.8162H53.2575L52.1606 57.6955C51.557 57.1322 49.6681 55.3377 47.9624 53.7079L44.8615 50.7446L48.8167 46.6951C53.5439 41.8551 52.4874 41.9181 56.7952 46.2213ZM41.4553 51.418L48.8524 58.72H38.8333H28.8143V53.871V49.0221L31.3115 46.5192C32.685 45.1427 33.8649 44.0389 33.9335 44.0661C34.0024 44.0936 37.3872 47.4017 41.4553 51.418ZM88.4158 62.2485C92.9723 71.7901 96.8631 80.0168 97.062 80.5302C98.3929 83.9628 94.9314 86.953 92.4125 84.5466C91.693 83.8591 75.8969 48.9092 75.4053 46.9166C75.3526 46.7033 79.8442 44.5887 79.9973 44.7548C80.071 44.8346 83.8592 52.7068 88.4158 62.2485ZM67.3151 58.74C66.9899 59.0987 66.9334 59.5298 66.8785 62.0724L66.8154 64.9929H63.9195C60.6858 64.9929 60.3094 65.1373 60.3094 66.3784C60.3094 67.7157 60.6995 67.8353 65.0643 67.8353C70.2174 67.8353 69.784 68.2659 69.784 63.1439C69.784 58.6024 69.707 58.3279 68.431 58.3279C67.9257 58.3279 67.5693 58.4595 67.3151 58.74ZM85.3192 76.809C85.9392 78.2365 86.4464 79.4699 86.4464 79.5497C86.4464 79.8945 3.67906 79.7161 3.2972 79.3705C2.9867 79.0896 2.93867 78.7216 2.93867 76.6261V74.2061L43.5654 74.2097L84.192 74.2134L85.3192 76.809ZM56.018 85.8208L56.0721 88.9082H46.0696H36.0673V85.9025C36.0673 84.2492 36.1269 82.837 36.1998 82.7643C36.2727 82.6914 40.7494 82.6545 46.1482 82.6826L55.9641 82.7333L56.018 85.8208ZM67.9919 92.0307C69.7487 92.37 70.7557 93.7119 70.761 95.7202L70.7642 96.9453H46.0647H21.3652L21.3696 95.8182C21.3772 93.7983 22.3234 92.4688 24.0402 92.0654C24.999 91.8402 66.8346 91.8071 67.9919 92.0307Z" fill="#78B404"/>
</svg>
