<svg width="103" height="102" viewBox="0 0 103 102" fill="none" xmlns="http://www.w3.org/2000/svg">
<path fill-rule="evenodd" clip-rule="evenodd" d="M53.5111 1.47905C53.2539 1.68331 52.428 2.60464 51.6757 3.52636L50.3076 5.20239L48.2452 5.92515C43.881 7.45416 43.5295 8.32903 45.9283 11.6933L46.6972 12.7714L25.269 12.8694C1.65789 12.9774 3.3649 12.881 2.1358 14.1752C0.919454 15.4556 0.997864 13.0968 1.00257 48.2951C1.00727 84.0442 0.89789 81.1417 2.29341 82.5356C3.4337 83.6747 2.83151 83.6353 19.1245 83.6353H34.1269V86.7498V89.8643L29.2752 89.9415C21.5753 90.064 19.5229 91.5556 19.5229 97.0285V99.3461L20.2368 100.001C21.2653 100.945 71.5972 101.426 73.3863 100.509C75.4136 99.4702 75.2084 94.5194 73.0378 92.1053C71.3749 90.2558 70.5425 90.0358 64.8542 89.9433L60.0025 89.8643V86.7498V83.6353H74.4078H88.8133L89.5111 85.0475C92.1657 90.4189 98.243 90.8846 100.68 85.9032C102.005 83.1956 101.777 82.3492 97.0492 72.4371L93.1312 64.2219L93.1363 46.9259L93.1413 29.6298L93.8747 29.2924C95.1818 28.691 95.3535 28.1441 95.4982 24.1249L95.6256 20.5804L97.6088 17.6788C100.964 12.7696 100.728 12.0735 95.0258 10.0627L91.5796 8.84752L89.4441 6.30093C85.5235 1.62568 85.1648 1.62528 81.2927 6.29505L79.1577 8.86987L75.8039 10.0366C72.5495 11.1687 71.4321 11.7919 71.1573 12.6285C71.0938 12.8216 70.163 12.8657 67.0142 12.8245L62.9533 12.7714L63.948 11.3416C66.0364 8.33961 65.4974 7.26852 61.1787 5.83791L59.3164 5.22101L57.9442 3.53577C55.871 0.98937 54.7705 0.478914 53.5111 1.47905ZM56.2398 6.07452L57.6159 7.7086L59.6997 8.45096C60.8456 8.85928 61.7576 9.24859 61.726 9.31622C61.6944 9.38366 61.1605 10.1925 60.5394 11.1134L59.4099 12.7877L59.2841 14.9885C59.1761 16.8764 59.1135 17.1761 58.8452 17.0973C55.1934 16.0233 54.4222 16.0233 50.7704 17.0973C50.502 17.1761 50.4395 16.8766 50.3317 14.9897C50.2066 12.8065 50.1994 12.7802 49.3551 11.5064C48.8874 10.8005 48.355 9.99291 48.1723 9.71141L47.8398 9.19998L49.9142 8.46076L51.9887 7.72174L53.3703 6.08099C55.0211 4.12071 54.5955 4.12169 56.2398 6.07452ZM88.3375 9.53264L89.9147 11.3992L93.2382 12.5566C95.0661 13.1933 96.5916 13.7378 96.6283 13.7668C96.6651 13.7958 95.7979 15.1337 94.7013 16.7396L92.7077 19.6596L92.5958 23.1254C92.5341 25.0317 92.4049 26.5913 92.3086 26.5913C92.2122 26.5913 90.73 26.2385 89.0146 25.8072C85.2191 24.853 85.6572 24.853 81.7857 25.8072C80.0361 26.2385 78.5342 26.5913 78.4481 26.5913C78.3623 26.5913 78.2295 25.0257 78.1533 23.1119L78.0147 19.6324L76.0462 16.7278C74.9635 15.1302 74.1085 13.7972 74.1461 13.7657C74.1837 13.7341 75.7084 13.1887 77.5344 12.5538L80.8542 11.3992L83.1136 8.69227L85.373 5.98533L86.0665 6.8257C86.4482 7.28773 87.4701 8.50585 88.3375 9.53264ZM47.4572 17.035C47.4575 18.6195 47.8941 19.5108 48.9132 20.0083L49.6836 20.3845L52.2508 19.7541L54.818 19.1237L57.3612 19.7482C61.0579 20.656 62.1565 20.0572 62.158 17.133L62.1588 15.8098H67.0236H71.8885L73.5014 18.2051L75.1141 20.6002L75.217 23.8409C75.4093 29.8917 75.9141 30.2761 81.7778 28.8357L85.4206 27.9408L87.7228 28.5226C88.9887 28.8425 90.0625 29.1422 90.109 29.1887C90.1555 29.235 90.1707 35.7076 90.1431 43.5724L90.0927 57.8718L86.7695 50.9058C79.5582 35.7903 78.8453 34.3775 77.9792 33.485C74.3202 29.715 68.7316 32.1203 69.0674 37.3205C69.1637 38.8115 69.3011 39.1506 75.6808 53.6431C83.8005 72.0877 83.7218 71.9074 83.7218 72.1034C83.7218 72.1928 65.7706 72.2657 43.8303 72.2657H3.93867V44.4298C3.93867 16.8552 3.94239 16.5902 4.33072 16.2019C4.71807 15.8145 4.98408 15.8098 26.0898 15.8098H47.4568L47.4572 17.035ZM21.3851 19.0794C20.4263 19.4514 20.405 19.5541 20.405 23.7793C20.405 28.2738 20.4889 28.5516 21.8448 28.5516C23.0723 28.5516 23.2387 28.1264 23.3105 24.8071L23.3736 21.8867H26.2695C29.5032 21.8867 29.8796 21.7422 29.8796 20.5012C29.8796 19.1874 29.461 19.049 25.3498 19.0047C23.3309 18.9829 21.5468 19.0166 21.3851 19.0794ZM27.3814 25.8223L26.8739 26.4253V43.97V61.5144L27.4469 62.0874L28.0199 62.6604H45.5945H63.1691L63.7421 62.0874L64.3151 61.5144V43.97V26.4253L63.8076 25.8223L63.3001 25.2191H45.5945H27.8889L27.3814 25.8223ZM61.3747 37.4193V46.6791L58.5813 43.9094C53.9098 39.2773 54.174 39.2406 47.9804 45.3817L43.7013 49.6246L40.4333 46.2664C35.3411 41.0339 34.6662 40.8766 31.4784 44.1823L29.8215 45.9L29.818 37.0298L29.8143 28.1596H45.5945H61.3747V37.4193ZM74.9626 34.849C75.9145 35.3393 76.3914 36.0487 77.9631 39.3123C78.8662 41.1877 79.6053 42.7832 79.6053 42.8579C79.6053 42.9963 75.5265 44.9199 75.2331 44.9199C75.0239 44.9199 72.1905 38.4857 71.9698 37.5099C71.516 35.5029 73.2459 33.9649 74.9626 34.849ZM57.7952 47.2213L61.3747 50.7968V55.2584V59.72H57.8162H54.2575L53.1606 58.6955C52.557 58.1322 50.6681 56.3377 48.9624 54.7079L45.8615 51.7446L49.8167 47.6951C54.5439 42.8551 53.4874 42.9181 57.7952 47.2213ZM42.4553 52.418L49.8524 59.72H39.8333H29.8143V54.871V50.0221L32.3115 47.5192C33.685 46.1427 34.8649 45.0389 34.9335 45.0661C35.0024 45.0936 38.3872 48.4017 42.4553 52.418ZM89.4158 63.2485C93.9723 72.7901 97.8631 81.0168 98.062 81.5302C99.3929 84.9628 95.9314 87.953 93.4125 85.5466C92.693 84.8591 76.8969 49.9092 76.4053 47.9166C76.3526 47.7033 80.8442 45.5887 80.9973 45.7548C81.071 45.8346 84.8592 53.7068 89.4158 63.2485ZM68.3151 59.74C67.9899 60.0987 67.9334 60.5298 67.8785 63.0724L67.8154 65.9929H64.9195C61.6858 65.9929 61.3094 66.1373 61.3094 67.3784C61.3094 68.7157 61.6995 68.8353 66.0643 68.8353C71.2174 68.8353 70.784 69.2659 70.784 64.1439C70.784 59.6024 70.707 59.3279 69.431 59.3279C68.9257 59.3279 68.5693 59.4595 68.3151 59.74ZM86.3192 77.809C86.9392 79.2365 87.4464 80.4699 87.4464 80.5497C87.4464 80.8945 4.67906 80.7161 4.2972 80.3705C3.9867 80.0896 3.93867 79.7216 3.93867 77.6261V75.2061L44.5654 75.2097L85.192 75.2134L86.3192 77.809ZM57.018 86.8208L57.0721 89.9082H47.0696H37.0673V86.9025C37.0673 85.2492 37.1269 83.837 37.1998 83.7643C37.2727 83.6914 41.7494 83.6545 47.1482 83.6826L56.9641 83.7333L57.018 86.8208ZM68.9919 93.0307C70.7487 93.37 71.7557 94.7119 71.761 96.7202L71.7642 97.9453H47.0647H22.3652L22.3696 96.8182C22.3772 94.7983 23.3234 93.4688 25.0402 93.0654C25.999 92.8402 67.8346 92.8071 68.9919 93.0307Z" fill="#78B404" stroke="#78B404" stroke-width="2"/>
</svg>
