<svg width="67" height="67" viewBox="0 0 67 67" fill="none" xmlns="http://www.w3.org/2000/svg">
<path fill-rule="evenodd" clip-rule="evenodd" d="M1 1H7.61794L16.6603 7.04295L20.5917 6.16469C23.5534 5.50927 24.8639 5.28643 25.8992 5.234C26.8427 5.18156 27.6552 5.234 28.4546 5.37819C29.0968 5.48306 30.7611 5.94185 32.124 6.37442C33.4869 6.82011 35.0595 7.25268 35.5968 7.35755C36.1341 7.44931 38.0605 7.94743 39.8558 8.45865C42.3458 9.1665 43.3286 9.38935 44.7702 9.38935L59.4476 1H66V16.4679L65.1744 16.7169C64.7288 16.848 61.5312 17.8311 51.7812 20.8329L47.1552 23.6119L47.0897 24.2673C47.0635 24.6344 46.9325 25.1325 46.8014 25.3815C46.6835 25.6306 46.4214 26.0107 46.2248 26.2074C46.0413 26.4171 45.6744 26.6924 45.4254 26.8235C45.1764 26.9545 44.7571 27.0987 44.5081 27.1381C44.1149 27.2167 44.0363 27.2954 43.9446 27.7148C43.879 27.977 43.7349 28.3702 43.63 28.5931C43.5252 28.8159 43.2762 29.1567 43.0796 29.3534C42.8962 29.5631 42.5292 29.8384 42.2802 29.9695C42.0312 30.1005 41.5988 30.2447 41.3236 30.2841C40.9829 30.3365 40.8387 30.4283 40.8387 30.5987C40.8256 30.7166 40.7601 31.0312 40.5111 31.7784L41.2974 32.1454C41.7298 32.3552 42.6996 32.9319 43.4597 33.4301C44.3377 34.0199 45.3075 34.8196 46.1462 35.6585C46.8669 36.3926 47.7974 37.4805 48.2036 38.0966C48.6099 38.7127 49.2389 39.8269 49.6058 40.5872C49.9597 41.3475 50.4052 42.4617 50.5887 43.0778C50.7591 43.6939 51.0081 44.8737 51.126 45.6995C51.2964 46.8399 51.3357 47.6264 51.2702 48.911C51.2308 49.8417 51.0867 51.1526 50.9425 51.7949C50.7984 52.4372 50.497 53.5121 50.2742 54.1544C50.0383 54.7967 49.6714 55.688 49.4617 56.1206C49.2389 56.5532 48.7933 57.3135 48.4657 57.8247C48.1512 58.3359 47.496 59.2142 47.0111 59.7779C46.5393 60.3546 45.6744 61.2198 45.0978 61.7048C44.5212 62.1767 43.6431 62.8452 43.1321 63.1598C42.621 63.4875 41.8347 63.9463 41.3629 64.1823C40.8911 64.4182 39.8296 64.8377 39.004 65.113C38.1784 65.3751 36.8548 65.7028 36.0554 65.8339C34.9808 65.9912 34.1683 66.0305 32.8448 65.9781C31.8488 65.9388 30.5645 65.7815 29.8962 65.6373C29.254 65.4931 28.1794 65.1916 27.5373 64.9688C26.8952 64.7328 26.004 64.3658 25.5716 64.156C25.1391 63.9332 24.3659 63.4875 23.8679 63.1598C23.37 62.8452 22.4788 62.1767 21.9022 61.7048C21.3256 61.2198 20.4607 60.3546 19.9889 59.7779C19.504 59.2142 18.8488 58.3359 18.5343 57.8247C18.2067 57.3135 17.7611 56.5532 17.5383 56.1206C17.3286 55.688 16.9355 54.7442 16.6865 54.0233C16.4375 53.3023 16.1361 52.2143 16.005 51.5982C15.8871 50.9822 15.756 49.75 15.7167 48.8455C15.6643 47.6395 15.7036 46.8137 15.874 45.6995C15.9919 44.8737 16.2409 43.6939 16.4113 43.0778C16.5948 42.4617 17.0796 41.2558 17.499 40.3906C17.9446 39.473 18.6653 38.267 19.2419 37.5068C19.7792 36.7858 20.6966 35.7634 21.2601 35.239C21.8236 34.7016 22.9113 33.8626 23.6714 33.3645C24.4315 32.8664 25.0867 32.46 25.1522 32.46C25.2046 32.46 25.2439 32.4076 25.2439 32.329C25.2439 32.2503 25.0998 32.1717 24.9163 32.1323C24.7329 32.093 24.3266 31.8046 23.999 31.4769C23.5665 31.0443 23.3569 30.6904 22.9768 29.3796L22.2036 29.1567C21.6532 28.9863 21.2863 28.7635 20.8538 28.3309C20.4214 27.8983 20.2117 27.5444 19.8317 26.2336L19.0585 26.0107C18.5212 25.8403 18.1411 25.6175 17.7349 25.2242C17.381 24.8703 17.0796 24.4115 16.9486 24.0052C16.8175 23.6512 16.7258 23.258 16.7258 23.1531C16.7258 23.0351 15.9526 22.4977 14.9173 21.8947C13.2268 20.8854 12.7812 20.7019 1 16.4023L1 1ZM3.09677 14.9604C10.6058 17.7 12.8075 18.4734 12.8468 18.4341C12.873 18.3948 13.4889 16.2188 14.1966 13.584L15.5071 8.79947L6.9627 3.09734H3.09677V14.9604ZM53.4062 6.84633C49.8417 8.90434 46.8276 10.6346 46.7228 10.6871C46.5655 10.7919 47.0242 11.5522 49.121 14.6851C50.5363 16.8218 51.7812 18.5652 51.873 18.5652C51.9647 18.5652 54.6905 17.7394 57.9274 16.7431L63.8246 14.9342L63.8901 3.09734L59.8931 3.12355L53.4062 6.84633ZM19.7792 8.48487C18.6915 8.73393 17.748 8.96988 17.6825 9.03542C17.6169 9.10096 16.9617 11.3687 16.2278 14.0821C15.494 16.7956 14.878 19.1026 14.878 19.2206C14.878 19.3255 15.4022 19.7318 16.0837 20.1644L17.3024 20.9116C20.1855 18.0278 21.0635 17.2675 21.4304 17.084C21.7581 16.9266 22.2823 16.7825 22.6099 16.7431C22.9768 16.7169 23.4748 16.7825 23.9204 16.9266C24.4052 17.0839 24.8246 17.3461 25.2046 17.7263C25.5978 18.1326 25.8206 18.5128 25.9778 19.0502L26.2006 19.8105C27.5242 20.2037 27.878 20.4266 28.3105 20.8592C28.7429 21.2917 28.9657 21.6457 29.123 22.1962L29.3458 22.9565C30.6694 23.3497 31.0232 23.5726 31.4556 24.0052C31.8881 24.4377 32.1109 24.7917 32.2812 25.3553C32.504 26.1156 32.5171 26.1418 33.0937 26.2729C33.4214 26.3516 33.9325 26.6006 34.247 26.8103C34.5484 27.0332 34.9546 27.492 35.1512 27.8328C35.4002 28.2785 35.5312 28.7242 35.5837 29.3665C35.6492 30.2185 35.6754 30.2841 36.1734 30.6904C36.4617 30.9133 36.8286 31.1754 36.999 31.2541C37.1563 31.3327 37.4052 31.4114 37.5494 31.4114C37.6935 31.4114 37.9687 31.3327 38.1391 31.241C38.3226 31.1492 38.5323 30.9264 38.6109 30.756C38.6895 30.5724 38.7157 30.2578 38.6764 30.0612C38.624 29.7991 37.877 29.0912 35.754 27.3216C34.1815 26.0238 32.8841 24.9096 32.871 24.8703C32.8579 24.8179 33.1462 24.4508 33.5262 24.0314L34.2077 23.2842C37.3528 25.9321 38.7026 27.0594 39.2268 27.4789C39.9083 28.0425 40.2752 28.2654 40.5635 28.2654C40.7863 28.2654 41.1139 28.1867 41.2843 28.095C41.4677 28.0032 41.6905 27.7541 41.7692 27.5444C41.8609 27.2822 41.874 27.0332 41.7954 26.8235C41.7298 26.653 40.4062 25.434 38.8337 24.1362C37.2742 22.8385 35.9899 21.7374 35.9899 21.7112C35.9899 21.6719 36.2913 21.3048 36.6714 20.8854L37.3528 20.1382C41.0091 23.2055 42.3589 24.3198 42.6996 24.6081C43.1583 24.9883 43.4335 25.1194 43.7873 25.1194C44.1411 25.1194 44.3508 25.0145 44.6391 24.7261C44.8488 24.5033 45.0191 24.1887 45.0191 24.0314C45.0191 23.8741 44.9405 23.6119 44.8488 23.4546C44.7702 23.3104 42.6865 21.3704 40.2359 19.1551C37.379 16.5727 35.5706 15.039 35.1905 14.8555C34.7712 14.672 34.4567 14.6196 34.0766 14.672C33.749 14.7244 32.7268 15.2488 31.2591 16.1139C30.001 16.8742 28.7298 17.5558 28.4415 17.6476C28.127 17.7394 27.6421 17.7787 27.1966 17.7263C26.7772 17.6738 26.2137 17.4903 25.8206 17.2675C25.4143 17.0315 25.0081 16.6645 24.7329 16.2581C24.497 15.9042 24.248 15.4061 24.1825 15.157C24.1169 14.8949 24.0514 14.423 24.0514 14.1084C24.0514 13.7806 24.1431 13.2432 24.248 12.9286C24.3528 12.6009 24.6673 12.0766 24.9425 11.762C25.3488 11.2901 25.9254 10.9361 28.3105 9.74327L31.1935 8.28824C29.6734 7.80324 28.8085 7.58039 28.2843 7.47553C27.7601 7.37066 26.8689 7.29201 26.3185 7.29201C25.7288 7.29201 24.5494 7.46242 23.5272 7.67215C22.5575 7.88189 20.8669 8.24892 19.7792 8.48487ZM29.8831 11.3032C27.7732 12.3649 26.6331 13.0073 26.4365 13.2694C26.1744 13.584 26.1351 13.7413 26.1875 14.305C26.2399 14.7507 26.3579 15.0522 26.5675 15.2488C26.7379 15.4192 27.1048 15.5896 27.3931 15.6289C27.878 15.6945 28.0877 15.5896 30.3417 14.2525C32.1109 13.1908 32.9627 12.7582 33.4869 12.6533C33.88 12.5616 34.5091 12.5354 34.8629 12.5878C35.2298 12.6271 35.8196 12.7975 36.1734 12.9679C36.619 13.1777 38.0212 14.3443 40.4325 16.5334C42.4113 18.3161 44.5212 20.2168 45.124 20.7412L46.1986 21.7112C48.9375 20.0858 49.7369 19.5614 49.7369 19.509C49.7369 19.4566 48.5444 17.6214 47.0897 15.4454L44.4294 11.4736C42.9748 11.4867 41.9919 11.2507 39.122 10.438C36.5272 9.69084 35.256 9.38935 34.7712 9.38935C34.3911 9.40245 33.8407 9.48111 33.5524 9.57286C33.2641 9.66462 31.6129 10.438 29.8831 11.3032ZM18.8357 22.8516C18.8226 23.1793 18.9143 23.376 19.2026 23.6775C19.4778 23.9396 19.7268 24.0707 20.0151 24.0707C20.3821 24.0707 20.6704 23.8348 22.2429 22.2617C23.8155 20.6887 24.0514 20.4004 24.0514 20.0333C24.0514 19.7318 23.9335 19.4959 23.6583 19.2206C23.3831 18.9453 23.1341 18.8274 22.8458 18.8274C22.4788 18.8274 22.2036 19.0502 20.6442 20.6232C19.1764 22.1307 18.8619 22.5108 18.8357 22.8516ZM21.9808 25.9976C21.9677 26.3253 22.0595 26.522 22.3478 26.8235C22.623 27.0856 22.872 27.2167 23.1603 27.2167C23.5272 27.2167 23.8155 26.9808 25.3881 25.4078C26.9607 23.8348 27.1966 23.5464 27.1966 23.1793C27.1966 22.8778 27.0786 22.6419 26.8034 22.3666C26.5282 22.0913 26.2792 21.9734 25.9909 21.9734C25.624 21.9734 25.3488 22.1962 23.7893 23.7692C22.3216 25.2767 22.0071 25.6568 21.9808 25.9976ZM25.126 29.1436C25.1129 29.4713 25.2046 29.668 25.4929 29.9695C25.7681 30.2316 26.0171 30.3627 26.3054 30.3627C26.6724 30.3627 26.9607 30.1268 28.5333 28.5538C30.1058 26.9808 30.3417 26.6924 30.3417 26.3253C30.3417 26.0238 30.2238 25.7879 29.9486 25.5126C29.6734 25.2373 29.4244 25.1194 29.1361 25.1194C28.7692 25.1194 28.4939 25.3422 26.9345 26.9152C25.4667 28.4227 25.1522 28.8028 25.126 29.1436ZM28.2712 32.2896C28.2581 32.6173 28.3498 32.814 28.6381 33.1155C28.9133 33.3776 29.1623 33.5087 29.4506 33.5087C29.8175 33.5087 30.1058 33.2728 31.6784 31.6998C33.251 30.1268 33.4869 29.8384 33.4869 29.4713C33.4869 29.1698 33.3689 28.9339 33.0937 28.6586C32.8185 28.3833 32.5696 28.2654 32.2812 28.2654C31.9143 28.2654 31.6391 28.4882 30.0796 30.0612C28.6119 31.5687 28.2974 31.9488 28.2712 32.2896ZM32.8317 33.5743C33.3952 34.0986 33.6835 34.3214 33.8538 34.4001C34.0111 34.4918 34.2601 34.5574 34.4042 34.5574C34.5484 34.5574 34.8105 34.4787 34.9939 34.387C35.1774 34.2952 35.3871 34.0855 35.4526 33.9282C35.5312 33.7709 35.5837 33.4956 35.5837 33.3383C35.5837 33.181 35.3609 32.8271 35.0857 32.5649C34.8236 32.2896 34.5484 32.0668 34.4698 32.0668C34.3911 32.0668 33.998 32.3945 33.5786 32.814L32.8317 33.5743ZM37.5756 34.1379C37.4839 34.4787 37.4052 34.8327 37.3921 34.9244C37.3659 35.0293 37.6804 35.2259 38.1522 35.3963C38.5847 35.5667 39.253 35.8682 39.6593 36.0648C40.0524 36.2615 40.8125 36.7334 41.3367 37.1004C41.874 37.4674 42.752 38.2408 43.3024 38.8176C43.8528 39.3944 44.5212 40.194 44.7833 40.5872C45.0454 40.9805 45.4647 41.7277 45.7137 42.2258C45.9627 42.737 46.3296 43.6153 46.5131 44.192C46.6835 44.7688 46.9062 45.7781 46.998 46.4204C47.0897 47.1021 47.129 48.1507 47.0766 48.911C47.0373 49.632 46.9194 50.602 46.8014 51.0739C46.6966 51.5458 46.5 52.2537 46.3558 52.6469C46.2248 53.0402 45.8841 53.8136 45.622 54.351C45.3468 54.8884 44.9143 55.6356 44.6522 55.9895C44.3901 56.3566 43.7742 57.0775 43.2631 57.6019C42.752 58.1393 41.9526 58.8472 41.4939 59.2011C41.0222 59.5419 40.1966 60.0531 39.6593 60.3153C39.1089 60.5906 38.3488 60.9183 37.9556 61.0625C37.5494 61.1936 36.8417 61.4033 36.3831 61.5082C35.9113 61.613 34.9415 61.7441 34.2208 61.7834C33.4607 61.8228 32.3992 61.7965 31.7308 61.7048C31.0756 61.613 30.0796 61.3902 29.503 61.2067C28.9264 61.0231 27.9829 60.643 27.4062 60.3546C26.8296 60.0662 25.9647 59.5419 25.506 59.2011C25.0343 58.8472 24.2349 58.1393 23.7238 57.6019C23.2127 57.0775 22.5968 56.3566 22.3347 55.9895C22.0726 55.6356 21.627 54.8622 21.3387 54.2855C21.0504 53.7087 20.6704 52.7649 20.4869 52.1881C20.3034 51.6114 20.0806 50.6807 20.002 50.1301C19.9234 49.5664 19.871 48.6751 19.871 48.1639C19.871 47.6395 19.9496 46.6826 20.0544 46.0272C20.1593 45.3849 20.3952 44.4411 20.5655 43.9299C20.7359 43.4317 21.0635 42.6321 21.2994 42.1602C21.5353 41.6883 22.0202 40.9018 22.3609 40.3906C22.7147 39.8925 23.4486 39.0273 24.0121 38.4768C24.5756 37.9393 25.4274 37.2315 25.8992 36.9169C26.3579 36.6023 27.1573 36.1566 27.6683 35.9207L28.5857 35.4881C27.8125 35.1735 27.38 34.8458 27.1048 34.5705L26.62 34.0462C25.0867 34.8982 24.2611 35.4488 23.7893 35.8158C23.3306 36.1959 22.5312 36.93 22.0202 37.4543C21.5222 37.9918 20.8538 38.7783 20.5655 39.2108C20.2641 39.6434 19.7923 40.4693 19.4909 41.046C19.2026 41.6228 18.7833 42.6321 18.5736 43.2744C18.3508 43.9299 18.0756 45.0703 17.9577 45.8306C17.8004 46.8399 17.7611 47.6395 17.8266 48.8455C17.8659 49.75 18.0101 50.9822 18.1542 51.5982C18.2853 52.2143 18.5474 53.0926 18.7177 53.5645C18.9012 54.0364 19.2419 54.7967 19.4778 55.2686C19.7137 55.7405 20.1986 56.5663 20.5655 57.1038C20.9194 57.6412 21.7581 58.6243 22.4133 59.2797C23.0685 59.9352 24.0383 60.761 24.5887 61.128C25.126 61.4951 25.9778 61.9932 26.4889 62.2422C26.9869 62.5044 27.8125 62.8583 28.3236 63.0418C28.8216 63.2122 29.7389 63.4744 30.3548 63.6055C31.1542 63.7759 32.0192 63.8414 33.5 63.8414C34.9677 63.8414 35.8327 63.7759 36.6452 63.6055C37.248 63.4744 38.1653 63.2122 38.6764 63.0418C39.1744 62.8583 40 62.5044 40.5111 62.2422C41.0091 61.9932 41.8609 61.4951 42.4113 61.128C42.9486 60.761 43.9183 59.9352 44.5736 59.2797C45.2288 58.6243 46.0675 57.6412 46.4214 57.1038C46.7883 56.5663 47.2863 55.7405 47.5222 55.2686C47.7581 54.7967 48.0857 54.0364 48.2692 53.5645C48.4395 53.0926 48.7016 52.2143 48.8327 51.5982C48.9768 50.9822 49.121 49.75 49.1734 48.8455C49.2258 47.6788 49.1865 46.8268 49.0423 45.8961C48.9375 45.1752 48.6885 44.0872 48.4919 43.4711C48.2954 42.855 47.9415 41.9505 47.7056 41.4393C47.4698 40.9412 46.9718 40.0629 46.6048 39.5123C46.2379 38.9487 45.4909 38.0049 44.9274 37.415C44.3639 36.8382 43.4466 35.9993 42.87 35.5667C42.2933 35.1473 41.2319 34.5049 40.5111 34.151C39.7903 33.7971 38.9909 33.4825 38.7419 33.4563C38.4798 33.4301 38.1522 33.4301 38.0081 33.4563C37.8246 33.5087 37.6935 33.7053 37.5756 34.1379ZM29.1754 37.4937C28.7036 37.6903 27.878 38.1229 27.3407 38.4637C26.7903 38.8045 25.9385 39.4861 25.4143 39.9974C24.9032 40.4955 24.1825 41.3868 23.8024 41.9636C23.4355 42.5404 22.9637 43.458 22.754 43.9954C22.5444 44.5328 22.2823 45.4766 22.1643 46.0927C22.0464 46.7088 21.9546 47.6788 21.9677 48.2556C21.9677 48.8324 22.0726 49.8417 22.2036 50.484C22.3478 51.1395 22.6099 52.0439 22.8064 52.5158C22.9899 52.9877 23.4224 53.8136 23.7631 54.351C24.1038 54.8884 24.8246 55.7798 25.3619 56.3172C25.9123 56.8678 26.7903 57.5888 27.3407 57.9296C27.878 58.2573 28.7036 58.6899 29.1754 58.8865C29.6341 59.0831 30.5514 59.3453 31.2067 59.4764C31.8488 59.6074 32.8185 59.7254 33.3689 59.7254C33.9062 59.7254 34.8629 59.6337 35.4919 59.5288C36.121 59.4239 37.0645 59.1749 37.5887 58.9651C38.1129 58.7685 39.0171 58.3097 39.5938 57.9558C40.1704 57.6019 41.0746 56.8678 41.625 56.3172C42.1623 55.7798 42.9093 54.8622 43.2631 54.2855C43.6169 53.7087 44.0756 52.8042 44.2722 52.293C44.4688 51.7686 44.7177 50.8248 44.8357 50.1956C44.9405 49.5533 45.0323 48.662 45.0323 48.1901C45.0323 47.7182 44.9405 46.8268 44.8357 46.1976C44.7177 45.5553 44.4688 44.6115 44.2722 44.1003C44.0756 43.5759 43.6169 42.6715 43.2631 42.0947C42.9093 41.5179 42.1623 40.6003 41.625 40.0629C41.0746 39.5123 40.1966 38.7914 39.6593 38.4637C39.1089 38.1229 38.2833 37.6903 37.8246 37.4937C37.3528 37.3101 36.4355 37.0349 35.7933 36.9038C35.1119 36.7596 34.1028 36.6678 33.4345 36.6678C32.7792 36.6678 31.744 36.7858 31.1411 36.9169C30.5252 37.0349 29.6341 37.3101 29.1754 37.4937ZM9.43952 29.7073C9.50504 29.7073 11.1169 31.8308 13.0433 34.4263C14.9567 37.0218 16.4899 39.1715 16.4637 39.2108C16.4244 39.2371 16.0444 39.5254 14.8256 40.4299L10.501 34.6491L10.4355 56.5794H8.33871L8.27319 34.6491L6.1371 37.4805C4.97077 39.0535 3.96169 40.3251 3.90927 40.3251C3.85685 40.3251 3.48992 40.0891 3.09677 39.8007C2.69052 39.4992 2.33669 39.2371 2.31048 39.2108C2.27117 39.1715 3.83065 37.0349 5.78327 34.4394C7.72278 31.844 9.37399 29.7204 9.43952 29.7073ZM57.6653 29.7073C57.7308 29.7073 59.3427 31.8308 61.2691 34.4263C63.1825 37.0218 64.7157 39.1715 64.6895 39.2108C64.6502 39.2371 64.2702 39.5254 63.0514 40.4299L58.7268 34.6491L58.6613 56.5794H56.5645L56.499 34.6491L52.1744 40.4299L51.3881 39.84C50.9556 39.5254 50.5625 39.2371 50.5363 39.2108C50.497 39.1715 52.0565 37.0349 54.0091 34.4394C55.9486 31.844 57.5998 29.7204 57.6653 29.7073ZM8.33871 58.6768H10.4355V60.7741H8.33871V58.6768ZM56.5645 58.6768H58.6613V60.7741H56.5645V58.6768ZM32.4516 38.7521H34.5484V40.8494L35.1643 40.928C35.505 40.9674 36.0554 41.1378 36.3831 41.3082C36.6976 41.4655 37.1431 41.7539 37.3659 41.9243C37.5756 42.1078 37.9425 42.6059 38.1653 43.0254C38.4012 43.458 38.6109 44.074 38.7419 45.0441H36.6452L36.5796 44.5853C36.5403 44.3231 36.3306 43.9299 36.0817 43.6546C35.8458 43.4055 35.4526 43.1302 35.2036 43.0516C34.9415 42.9861 34.0504 42.9467 33.2117 42.9729C31.9274 43.0123 31.626 43.0516 31.3246 43.2744C31.128 43.4186 30.8397 43.707 30.6956 43.9036C30.4859 44.192 30.4204 44.4673 30.4204 45.0441C30.4204 45.6208 30.4859 45.9092 30.6956 46.1845C30.8397 46.3811 31.128 46.6695 31.3246 46.8137C31.626 47.0365 31.9536 47.089 33.6704 47.1545C35.4526 47.2201 35.7278 47.2594 36.3175 47.5609C36.6714 47.7444 37.1431 48.0459 37.3659 48.2163C37.5756 48.3998 37.9556 48.9241 38.2046 49.3829C38.624 50.1563 38.6633 50.3136 38.6633 51.3361C38.6633 52.3585 38.624 52.5158 38.2046 53.2892C37.9556 53.748 37.5756 54.2723 37.3659 54.4559C37.1431 54.6263 36.6976 54.9147 36.3831 55.072C36.0554 55.2424 35.505 55.4128 34.5484 55.5308V57.6281H32.4516V55.5308L31.8226 55.4521C31.4819 55.4128 30.9314 55.2424 30.6169 55.072C30.2893 54.9147 29.8437 54.6263 29.6341 54.4559C29.4113 54.2723 29.0312 53.748 28.7823 53.2892C28.4284 52.5945 28.3236 52.2537 28.1925 50.2874H30.3548L30.381 51.1919C30.4073 51.8604 30.4859 52.2012 30.6825 52.4634C30.8266 52.6469 31.1018 52.9353 31.3115 53.0926C31.6391 53.3417 31.8488 53.3679 33.5 53.3679C35.0988 53.3679 35.3478 53.3417 35.6623 53.1057C35.8589 52.9615 36.1472 52.6731 36.2913 52.4765C36.501 52.2012 36.5796 51.9128 36.5796 51.3361C36.5796 50.7593 36.501 50.484 36.2913 50.1956C36.1472 49.999 35.8589 49.7106 35.6623 49.5664C35.3609 49.3436 35.0333 49.2912 33.3165 49.2256C31.5343 49.1601 31.2591 49.1208 30.6825 48.8193C30.3155 48.6358 29.8437 48.3343 29.6341 48.1639C29.4113 47.9803 29.0312 47.456 28.7823 46.9972C28.3629 46.2238 28.3236 46.0665 28.3236 45.0441C28.3236 44.1003 28.376 43.8381 28.6643 43.2744C28.8478 42.9205 29.1492 42.4486 29.3327 42.2258C29.503 42.016 30.001 41.649 30.4335 41.4131C30.8528 41.1902 31.4819 40.9674 32.4516 40.8494V38.7521Z" fill="white" stroke="white"/>
</svg>
