<svg width="67" height="67" viewBox="0 0 67 67" fill="none" xmlns="http://www.w3.org/2000/svg">
<path fill-rule="evenodd" clip-rule="evenodd" d="M0.770508 0.61792H7.38845L16.4308 6.66087L20.3622 5.78261C23.3239 5.12719 24.6344 4.90435 25.6697 4.85192C26.6132 4.79948 27.4257 4.85192 28.2251 4.99611C28.8673 5.10098 30.5316 5.55977 31.8945 5.99234C33.2574 6.43803 34.83 6.8706 35.3673 6.97547C35.9046 7.06723 37.831 7.56535 39.6264 8.07657C42.1163 8.78442 43.0991 9.00727 44.5407 9.00727L59.2181 0.61792H65.7705V16.0858L64.9449 16.3348C64.4993 16.4659 61.3018 17.449 51.5518 20.4509L46.9258 23.2298L46.8602 23.8852C46.834 24.2523 46.703 24.7504 46.5719 24.9995C46.454 25.2485 46.1919 25.6287 45.9953 25.8253C45.8118 26.035 45.4449 26.3103 45.1959 26.4414C44.9469 26.5725 44.5276 26.7167 44.2786 26.756C43.8854 26.8346 43.8068 26.9133 43.7151 27.3327C43.6495 27.5949 43.5054 27.9882 43.4005 28.211C43.2957 28.4338 43.0467 28.7747 42.8501 28.9713C42.6667 29.181 42.2997 29.4563 42.0507 29.5874C41.8018 29.7185 41.3693 29.8627 41.0941 29.902C40.7534 29.9544 40.6092 30.0462 40.6092 30.2166C40.5961 30.3346 40.5306 30.6492 40.2816 31.3963L41.0679 31.7634C41.5003 31.9731 42.4701 32.5499 43.2302 33.048C44.1082 33.6379 45.078 34.4375 45.9167 35.2764C46.6374 36.0105 47.5679 37.0985 47.9741 37.7146C48.3804 38.3307 49.0094 39.4449 49.3764 40.2051C49.7302 40.9654 50.1757 42.0796 50.3592 42.6957C50.5296 43.3118 50.7786 44.4916 50.8965 45.3174C51.0669 46.4578 51.1062 47.2443 51.0407 48.5289C51.0014 49.4596 50.8572 50.7705 50.713 51.4128C50.5689 52.0551 50.2675 53.13 50.0447 53.7723C49.8088 54.4146 49.4419 55.306 49.2322 55.7385C49.0094 56.1711 48.5639 56.9314 48.2362 57.4426C47.9217 57.9539 47.2665 58.8321 46.7816 59.3958C46.3098 59.9725 45.4449 60.8377 44.8683 61.3227C44.2917 61.7946 43.4136 62.4631 42.9026 62.7777C42.3915 63.1054 41.6052 63.5642 41.1334 63.8002C40.6616 64.0361 39.6001 64.4556 38.7745 64.7309C37.9489 64.993 36.6253 65.3208 35.826 65.4518C34.7514 65.6091 33.9389 65.6485 32.6153 65.596C31.6193 65.5567 30.335 65.3994 29.6667 65.2552C29.0245 65.111 27.9499 64.8095 27.3078 64.5867C26.6657 64.3507 25.7745 63.9837 25.3421 63.774C24.9096 63.5511 24.1364 63.1054 23.6385 62.7777C23.1405 62.4631 22.2493 61.7946 21.6727 61.3227C21.0961 60.8377 20.2312 59.9725 19.7594 59.3958C19.2745 58.8321 18.6193 57.9539 18.3048 57.4426C17.9772 56.9314 17.5316 56.1711 17.3088 55.7385C17.0991 55.306 16.706 54.3622 16.457 53.6412C16.208 52.9202 15.9066 51.8323 15.7755 51.2162C15.6576 50.6001 15.5266 49.3679 15.4872 48.4634C15.4348 47.2574 15.4741 46.4316 15.6445 45.3174C15.7624 44.4916 16.0114 43.3118 16.1818 42.6957C16.3653 42.0796 16.8501 40.8737 17.2695 40.0085C17.7151 39.0909 18.4358 37.885 19.0124 37.1247C19.5497 36.4037 20.4671 35.3813 21.0306 34.8569C21.5941 34.3195 22.6818 33.4806 23.4419 32.9824C24.202 32.4843 24.8572 32.078 24.9227 32.078C24.9751 32.078 25.0145 32.0255 25.0145 31.9469C25.0145 31.8682 24.8703 31.7896 24.6868 31.7503C24.5034 31.7109 24.0971 31.4225 23.7695 31.0948C23.337 30.6623 23.1274 30.3083 22.7473 28.9975L21.9741 28.7747C21.4237 28.6043 21.0568 28.3814 20.6243 27.9488C20.1919 27.5163 19.9822 27.1623 19.6022 25.8515L18.829 25.6287C18.2917 25.4582 17.9116 25.2354 17.5054 24.8422C17.1516 24.4882 16.8501 24.0294 16.7191 23.6231C16.588 23.2692 16.4963 22.8759 16.4963 22.771C16.4963 22.6531 15.7231 22.1156 14.6878 21.5126C12.9973 20.5033 12.5518 20.3198 0.770508 16.0202L0.770508 0.61792ZM2.86728 14.5783C10.3764 17.318 12.578 18.0914 12.6173 18.052C12.6435 18.0127 13.2594 15.8367 13.9671 13.2019L15.2776 8.41739L6.73321 2.71526H2.86728V14.5783ZM53.1768 6.46425C49.6122 8.52226 46.5981 10.2526 46.4933 10.305C46.336 10.4099 46.7947 11.1701 48.8915 14.303C50.3068 16.4397 51.5518 18.1831 51.6435 18.1831C51.7352 18.1831 54.461 17.3573 57.6979 16.3611L63.5951 14.5521L63.6606 2.71526L59.6637 2.74147L53.1768 6.46425ZM19.5497 8.10279C18.462 8.35185 17.5185 8.5878 17.453 8.65334C17.3874 8.71888 16.7322 10.9866 15.9983 13.7001C15.2645 16.4135 14.6485 18.7206 14.6485 18.8385C14.6485 18.9434 15.1727 19.3498 15.8542 19.7823L17.0729 20.5295C19.956 17.6457 20.834 16.8854 21.2009 16.7019C21.5286 16.5446 22.0528 16.4004 22.3804 16.3611C22.7473 16.3348 23.2453 16.4004 23.6909 16.5446C24.1757 16.7019 24.5951 16.964 24.9751 17.3442C25.3683 17.7505 25.5911 18.1307 25.7483 18.6681L25.9711 19.4284C27.2947 19.8217 27.6485 20.0445 28.081 20.4771C28.5134 20.9097 28.7362 21.2636 28.8935 21.8141L29.1163 22.5744C30.4399 22.9677 30.7937 23.1905 31.2262 23.6231C31.6586 24.0557 31.8814 24.4096 32.0518 24.9732C32.2745 25.7335 32.2876 25.7597 32.8643 25.8908C33.1919 25.9695 33.703 26.2185 34.0175 26.4283C34.3189 26.6511 34.7251 27.1099 34.9217 27.4507C35.1707 27.8964 35.3018 28.3421 35.3542 28.9844C35.4197 29.8364 35.4459 29.902 35.9439 30.3083C36.2322 30.5312 36.5991 30.7933 36.7695 30.872C36.9268 30.9506 37.1757 31.0293 37.3199 31.0293C37.4641 31.0293 37.7393 30.9506 37.9096 30.8589C38.0931 30.7671 38.3028 30.5443 38.3814 30.3739C38.46 30.1904 38.4862 29.8758 38.4469 29.6791C38.3945 29.417 37.6475 28.7091 35.5245 26.9395C33.952 25.6418 32.6546 24.5276 32.6415 24.4882C32.6284 24.4358 32.9167 24.0688 33.2967 23.6493L33.9782 22.9021C37.1233 25.55 38.4731 26.6773 38.9973 27.0968C39.6788 27.6605 40.0457 27.8833 40.334 27.8833C40.5568 27.8833 40.8844 27.8046 41.0548 27.7129C41.2382 27.6211 41.461 27.3721 41.5397 27.1623C41.6314 26.9002 41.6445 26.6511 41.5659 26.4414C41.5003 26.271 40.1768 25.0519 38.6042 23.7542C37.0447 22.4564 35.7604 21.3553 35.7604 21.3291C35.7604 21.2898 36.0618 20.9228 36.4419 20.5033L37.1233 19.7561C40.7796 22.8235 42.1294 23.9377 42.4701 24.2261C42.9288 24.6062 43.204 24.7373 43.5578 24.7373C43.9116 24.7373 44.1213 24.6324 44.4096 24.344C44.6193 24.1212 44.7897 23.8066 44.7897 23.6493C44.7897 23.492 44.711 23.2298 44.6193 23.0725C44.5407 22.9283 42.457 20.9883 40.0064 18.773C37.1495 16.1906 35.3411 14.657 34.961 14.4734C34.5417 14.2899 34.2272 14.2375 33.8471 14.2899C33.5195 14.3424 32.4973 14.8667 31.0296 15.7319C29.7715 16.4921 28.5003 17.1738 28.212 17.2655C27.8975 17.3573 27.4126 17.3966 26.9671 17.3442C26.5477 17.2917 25.9842 17.1082 25.5911 16.8854C25.1848 16.6494 24.7786 16.2824 24.5034 15.876C24.2675 15.5221 24.0185 15.024 23.953 14.7749C23.8874 14.5128 23.8219 14.0409 23.8219 13.7263C23.8219 13.3986 23.9137 12.8611 24.0185 12.5465C24.1233 12.2188 24.4378 11.6945 24.713 11.3799C25.1193 10.908 25.6959 10.5541 28.081 9.36119L30.9641 7.90616C29.4439 7.42116 28.579 7.19831 28.0548 7.09345C27.5306 6.98858 26.6395 6.90993 26.0891 6.90993C25.4993 6.90993 24.3199 7.08034 23.2977 7.29007C22.328 7.49981 20.6374 7.86684 19.5497 8.10279ZM29.6536 10.9211C27.5437 11.9829 26.4036 12.6252 26.207 12.8873C25.9449 13.2019 25.9056 13.3592 25.958 13.9229C26.0104 14.3686 26.1284 14.6701 26.338 14.8667C26.5084 15.0371 26.8753 15.2075 27.1637 15.2468C27.6485 15.3124 27.8582 15.2075 30.1122 13.8705C31.8814 12.8087 32.7332 12.3761 33.2574 12.2712C33.6505 12.1795 34.2796 12.1533 34.6334 12.2057C35.0003 12.245 35.5901 12.4154 35.9439 12.5858C36.3895 12.7956 37.7917 13.9622 40.203 16.1513C42.1818 17.9341 44.2917 19.8348 44.8945 20.3591L45.9691 21.3291C48.708 19.7037 49.5074 19.1793 49.5074 19.1269C49.5074 19.0745 48.3149 17.2393 46.8602 15.0633L44.1999 11.0915C42.7453 11.1046 41.7624 10.8687 38.8925 10.0559C36.2977 9.30876 35.0266 9.00727 34.5417 9.00727C34.1616 9.02037 33.6112 9.09903 33.3229 9.19078C33.0346 9.28254 31.3834 10.0559 29.6536 10.9211ZM18.6062 22.4695C18.5931 22.7973 18.6848 22.9939 18.9731 23.2954C19.2483 23.5575 19.4973 23.6886 19.7856 23.6886C20.1526 23.6886 20.4409 23.4527 22.0135 21.8797C23.586 20.3067 23.8219 20.0183 23.8219 19.6512C23.8219 19.3498 23.704 19.1138 23.4288 18.8385C23.1536 18.5633 22.9046 18.4453 22.6163 18.4453C22.2493 18.4453 21.9741 18.6681 20.4147 20.2411C18.9469 21.7486 18.6324 22.1287 18.6062 22.4695ZM21.7514 25.6155C21.7382 25.9433 21.83 26.1399 22.1183 26.4414C22.3935 26.7035 22.6425 26.8346 22.9308 26.8346C23.2977 26.8346 23.586 26.5987 25.1586 25.0257C26.7312 23.4527 26.9671 23.1643 26.9671 22.7973C26.9671 22.4958 26.8491 22.2598 26.5739 21.9845C26.2987 21.7093 26.0497 21.5913 25.7614 21.5913C25.3945 21.5913 25.1193 21.8141 23.5598 23.3871C22.0921 24.8946 21.7776 25.2747 21.7514 25.6155ZM24.8965 28.7616C24.8834 29.0893 24.9751 29.2859 25.2634 29.5874C25.5387 29.8495 25.7876 29.9806 26.076 29.9806C26.4429 29.9806 26.7312 29.7447 28.3038 28.1717C29.8764 26.5987 30.1122 26.3103 30.1122 25.9433C30.1122 25.6418 29.9943 25.4058 29.7191 25.1305C29.4439 24.8553 29.1949 24.7373 28.9066 24.7373C28.5397 24.7373 28.2645 24.9601 26.705 26.5331C25.2372 28.0406 24.9227 28.4207 24.8965 28.7616ZM28.0417 31.9076C28.0286 32.2353 28.1203 32.4319 28.4086 32.7334C28.6838 32.9956 28.9328 33.1266 29.2211 33.1266C29.588 33.1266 29.8764 32.8907 31.4489 31.3177C33.0215 29.7447 33.2574 29.4563 33.2574 29.0893C33.2574 28.7878 33.1395 28.5518 32.8643 28.2765C32.5891 28.0013 32.3401 27.8833 32.0518 27.8833C31.6848 27.8833 31.4096 28.1061 29.8501 29.6791C28.3824 31.1866 28.0679 31.5667 28.0417 31.9076ZM32.6022 33.1922C33.1657 33.7165 33.454 33.9394 33.6243 34.018C33.7816 34.1098 34.0306 34.1753 34.1747 34.1753C34.3189 34.1753 34.581 34.0967 34.7645 34.0049C34.9479 33.9131 35.1576 33.7034 35.2231 33.5461C35.3018 33.3888 35.3542 33.1135 35.3542 32.9562C35.3542 32.7989 35.1314 32.445 34.8562 32.1828C34.5941 31.9076 34.3189 31.6847 34.2403 31.6847C34.1616 31.6847 33.7685 32.0124 33.3491 32.4319L32.6022 33.1922ZM37.3461 33.7558C37.2544 34.0967 37.1757 34.4506 37.1626 34.5423C37.1364 34.6472 37.451 34.8438 37.9227 35.0142C38.3552 35.1846 39.0235 35.4861 39.4298 35.6828C39.8229 35.8794 40.583 36.3513 41.1072 36.7183C41.6445 37.0854 42.5225 37.8588 43.0729 38.4355C43.6233 39.0123 44.2917 39.8119 44.5538 40.2051C44.8159 40.5984 45.2352 41.3456 45.4842 41.8437C45.7332 42.3549 46.1001 43.2332 46.2836 43.8099C46.454 44.3867 46.6768 45.3961 46.7685 46.0384C46.8602 46.72 46.8995 47.7687 46.8471 48.5289C46.8078 49.2499 46.6899 50.2199 46.5719 50.6918C46.4671 51.1637 46.2705 51.8716 46.1264 52.2648C45.9953 52.6581 45.6546 53.4315 45.3925 53.9689C45.1173 54.5064 44.6848 55.2535 44.4227 55.6075C44.1606 55.9745 43.5447 56.6955 43.0336 57.2198C42.5225 57.7572 41.7231 58.4651 41.2645 58.819C40.7927 59.1598 39.9671 59.6711 39.4298 59.9332C38.8794 60.2085 38.1193 60.5362 37.7262 60.6804C37.3199 60.8115 36.6122 61.0212 36.1536 61.1261C35.6818 61.2309 34.712 61.362 33.9913 61.4014C33.2312 61.4407 32.1697 61.4145 31.5014 61.3227C30.8461 61.2309 29.8501 61.0081 29.2735 60.8246C28.6969 60.6411 27.7534 60.2609 27.1768 59.9725C26.6001 59.6842 25.7352 59.1598 25.2766 58.819C24.8048 58.4651 24.0054 57.7572 23.4943 57.2198C22.9832 56.6955 22.3673 55.9745 22.1052 55.6075C21.8431 55.2535 21.3975 54.4801 21.1092 53.9034C20.8209 53.3266 20.4409 52.3828 20.2574 51.806C20.0739 51.2293 19.8512 50.2986 19.7725 49.748C19.6939 49.1844 19.6415 48.293 19.6415 47.7818C19.6415 47.2574 19.7201 46.3005 19.8249 45.6451C19.9298 45.0028 20.1657 44.059 20.336 43.5478C20.5064 43.0497 20.834 42.25 21.0699 41.7781C21.3058 41.3062 21.7907 40.5197 22.1314 40.0085C22.4852 39.5104 23.2191 38.6453 23.7826 38.0947C24.3461 37.5573 25.1979 36.8494 25.6697 36.5348C26.1284 36.2202 26.9278 35.7745 27.4389 35.5386L28.3562 35.106C27.583 34.7914 27.1505 34.4637 26.8753 34.1884L26.3905 33.6641C24.8572 34.5161 24.0316 35.0667 23.5598 35.4337C23.1012 35.8139 22.3018 36.5479 21.7907 37.0723C21.2927 37.6097 20.6243 38.3962 20.336 38.8288C20.0346 39.2613 19.5628 40.0872 19.2614 40.6639C18.9731 41.2407 18.5538 42.2501 18.3441 42.8924C18.1213 43.5478 17.8461 44.6882 17.7282 45.4485C17.5709 46.4578 17.5316 47.2574 17.5971 48.4634C17.6364 49.3679 17.7806 50.6001 17.9247 51.2162C18.0558 51.8323 18.3179 52.7105 18.4882 53.1824C18.6717 53.6543 19.0124 54.4146 19.2483 54.8865C19.4842 55.3584 19.9691 56.1842 20.336 56.7217C20.6899 57.2591 21.5286 58.2422 22.1838 58.8977C22.8391 59.5531 23.8088 60.3789 24.3592 60.7459C24.8965 61.113 25.7483 61.6111 26.2594 61.8601C26.7574 62.1223 27.583 62.4762 28.0941 62.6598C28.5921 62.8302 29.5094 63.0923 30.1253 63.2234C30.9247 63.3938 31.7897 63.4594 33.2705 63.4594C34.7382 63.4594 35.6032 63.3938 36.4157 63.2234C37.0185 63.0923 37.9358 62.8302 38.4469 62.6598C38.9449 62.4762 39.7705 62.1223 40.2816 61.8601C40.7796 61.6111 41.6314 61.113 42.1818 60.7459C42.7191 60.3789 43.6889 59.5531 44.3441 58.8977C44.9993 58.2422 45.838 57.2591 46.1919 56.7217C46.5588 56.1842 47.0568 55.3584 47.2927 54.8865C47.5286 54.4146 47.8562 53.6543 48.0397 53.1824C48.21 52.7105 48.4721 51.8323 48.6032 51.2162C48.7473 50.6001 48.8915 49.3679 48.9439 48.4634C48.9963 47.2968 48.957 46.4447 48.8128 45.514C48.708 44.7931 48.459 43.7051 48.2624 43.089C48.0659 42.4729 47.712 41.5684 47.4762 41.0572C47.2403 40.5591 46.7423 39.6808 46.3753 39.1303C46.0084 38.5666 45.2614 37.6228 44.6979 37.0329C44.1344 36.4562 43.2171 35.6172 42.6405 35.1847C42.0639 34.7652 41.0024 34.1229 40.2816 33.7689C39.5608 33.415 38.7614 33.1004 38.5124 33.0742C38.2503 33.048 37.9227 33.048 37.7786 33.0742C37.5951 33.1266 37.4641 33.3233 37.3461 33.7558ZM28.9459 37.1116C28.4741 37.3082 27.6485 37.7408 27.1112 38.0816C26.5608 38.4224 25.709 39.104 25.1848 39.6153C24.6737 40.1134 23.953 41.0048 23.5729 41.5815C23.206 42.1583 22.7342 43.0759 22.5245 43.6133C22.3149 44.1508 22.0528 45.0946 21.9348 45.7107C21.8169 46.3267 21.7251 47.2968 21.7382 47.8735C21.7382 48.4503 21.8431 49.4596 21.9741 50.102C22.1183 50.7574 22.3804 51.6618 22.577 52.1337C22.7604 52.6056 23.1929 53.4315 23.5336 53.9689C23.8743 54.5064 24.5951 55.3977 25.1324 55.9352C25.6828 56.4857 26.5608 57.2067 27.1112 57.5475C27.6485 57.8752 28.4741 58.3078 28.9459 58.5044C29.4046 58.701 30.3219 58.9632 30.9772 59.0943C31.6193 59.2254 32.5891 59.3433 33.1395 59.3433C33.6768 59.3433 34.6334 59.2516 35.2624 59.1467C35.8915 59.0419 36.835 58.7928 37.3592 58.5831C37.8834 58.3864 38.7876 57.9276 39.3643 57.5737C39.9409 57.2198 40.8451 56.4857 41.3955 55.9352C41.9328 55.3977 42.6798 54.4801 43.0336 53.9034C43.3874 53.3266 43.8461 52.4221 44.0427 51.9109C44.2393 51.3866 44.4882 50.4428 44.6062 49.8136C44.711 49.1713 44.8028 48.2799 44.8028 47.808C44.8028 47.3361 44.711 46.4447 44.6062 45.8155C44.4882 45.1732 44.2393 44.2294 44.0427 43.7182C43.8461 43.1939 43.3874 42.2894 43.0336 41.7126C42.6798 41.1358 41.9328 40.2183 41.3955 39.6808C40.8451 39.1303 39.9671 38.4093 39.4298 38.0816C38.8794 37.7408 38.0538 37.3082 37.5951 37.1116C37.1233 36.9281 36.206 36.6528 35.5639 36.5217C34.8824 36.3775 33.8733 36.2858 33.205 36.2858C32.5497 36.2858 31.5145 36.4037 30.9116 36.5348C30.2957 36.6528 29.4046 36.9281 28.9459 37.1116ZM9.21002 29.3252C9.27555 29.3252 10.8874 31.4488 12.8139 34.0442C14.7272 36.6397 16.2604 38.7894 16.2342 38.8288C16.1949 38.855 15.8149 39.1434 14.5961 40.0478L10.2715 34.2671L10.206 56.1973H8.10922L8.04369 34.2671L5.9076 37.0985C4.74127 38.6715 3.7322 39.943 3.67978 39.943C3.62736 39.943 3.26043 39.707 2.86728 39.4186C2.46103 39.1172 2.1072 38.855 2.08099 38.8288C2.04168 38.7894 3.60115 36.6528 5.55377 34.0573C7.49329 31.4619 9.1445 29.3383 9.21002 29.3252ZM57.4358 29.3252C57.5013 29.3252 59.1132 31.4488 61.0397 34.0442C62.953 36.6397 64.4862 38.7894 64.46 38.8288C64.4207 38.855 64.0407 39.1434 62.8219 40.0478L58.4973 34.2671L58.4318 56.1973H56.335L56.2695 34.2671L51.9449 40.0478L51.1586 39.458C50.7262 39.1434 50.333 38.855 50.3068 38.8288C50.2675 38.7894 51.827 36.6528 53.7796 34.0573C55.7191 31.4619 57.3703 29.3383 57.4358 29.3252ZM8.10922 58.2947H10.206V60.392H8.10922V58.2947ZM56.335 58.2947H58.4318V60.392H56.335V58.2947ZM32.2221 38.37H34.3189V40.4673L34.9348 40.546C35.2755 40.5853 35.826 40.7557 36.1536 40.9261C36.4681 41.0834 36.9137 41.3718 37.1364 41.5422C37.3461 41.7257 37.713 42.2238 37.9358 42.6433C38.1717 43.0759 38.3814 43.692 38.5124 44.662H36.4157L36.3501 44.2032C36.3108 43.941 36.1012 43.5478 35.8522 43.2725C35.6163 43.0234 35.2231 42.7482 34.9741 42.6695C34.712 42.604 33.8209 42.5647 32.9822 42.5909C31.6979 42.6302 31.3965 42.6695 31.0951 42.8924C30.8985 43.0366 30.6102 43.3249 30.4661 43.5216C30.2564 43.8099 30.1909 44.0852 30.1909 44.662C30.1909 45.2388 30.2564 45.5271 30.4661 45.8024C30.6102 45.999 30.8985 46.2874 31.0951 46.4316C31.3965 46.6545 31.7241 46.7069 33.4409 46.7724C35.2231 46.838 35.4983 46.8773 36.088 47.1788C36.4419 47.3623 36.9137 47.6638 37.1364 47.8342C37.3461 48.0177 37.7262 48.5421 37.9751 49.0009C38.3945 49.7742 38.4338 49.9315 38.4338 50.954C38.4338 51.9764 38.3945 52.1337 37.9751 52.9071C37.7262 53.3659 37.3461 53.8903 37.1364 54.0738C36.9137 54.2442 36.4681 54.5326 36.1536 54.6899C35.826 54.8603 35.2755 55.0307 34.3189 55.1487V57.246H32.2221V55.1487L31.5931 55.07C31.2524 55.0307 30.702 54.8603 30.3874 54.6899C30.0598 54.5326 29.6143 54.2442 29.4046 54.0738C29.1818 53.8903 28.8018 53.3659 28.5528 52.9071C28.1989 52.2124 28.0941 51.8716 27.963 49.9053H30.1253L30.1516 50.8098C30.1778 51.4783 30.2564 51.8191 30.453 52.0813C30.5971 52.2648 30.8723 52.5532 31.082 52.7105C31.4096 52.9596 31.6193 52.9858 33.2705 52.9858C34.8693 52.9858 35.1183 52.9596 35.4328 52.7236C35.6294 52.5794 35.9177 52.2911 36.0618 52.0944C36.2715 51.8191 36.3501 51.5308 36.3501 50.954C36.3501 50.3772 36.2715 50.102 36.0618 49.8136C35.9177 49.6169 35.6294 49.3286 35.4328 49.1844C35.1314 48.9615 34.8038 48.9091 33.087 48.8436C31.3048 48.778 31.0296 48.7387 30.453 48.4372C30.086 48.2537 29.6143 47.9522 29.4046 47.7818C29.1818 47.5983 28.8018 47.0739 28.5528 46.6151C28.1334 45.8417 28.0941 45.6844 28.0941 44.662C28.0941 43.7182 28.1465 43.456 28.4348 42.8924C28.6183 42.5384 28.9197 42.0665 29.1032 41.8437C29.2735 41.634 29.7715 41.2669 30.204 41.031C30.6233 40.8081 31.2524 40.5853 32.2221 40.4673V38.37Z" fill="#78B404" stroke="#78B404"/>
</svg>
