<svg width="67" height="67" viewBox="0 0 67 67" fill="none" xmlns="http://www.w3.org/2000/svg">
<path fill-rule="evenodd" clip-rule="evenodd" d="M27.966 1C28.9194 1 30.3813 1.0762 31.1949 1.17779C32.0211 1.29209 33.3559 1.52068 34.1567 1.71117C34.9576 1.88897 36.1906 2.23186 36.8898 2.47315C37.5889 2.70174 38.9745 3.29862 39.9661 3.7812C40.9703 4.27648 42.4322 5.10195 43.2076 5.63533C43.9957 6.16872 45.1271 7.00689 45.7118 7.51487C46.2966 8.01015 47.2118 8.87372 47.733 9.4325C48.2542 9.99128 49.0805 10.9564 49.5762 11.5914C50.0593 12.2264 50.7712 13.2424 51.1652 13.8773C51.5466 14.5123 52.1822 15.6807 52.5635 16.4807C52.9449 17.2808 53.5042 18.6778 53.8093 19.5921C54.1017 20.5065 54.4703 21.8146 54.6101 22.513C54.75 23.2115 54.9407 24.3545 55.0169 25.0529C55.1059 25.8403 55.144 27.3008 55.0932 28.8628C55.0551 30.3741 54.9534 31.8726 54.8262 32.5457C54.7118 33.168 54.483 34.2347 54.3051 34.8951C54.1398 35.5555 53.8474 36.5333 53.6568 37.054C53.4788 37.5747 53.072 38.5526 52.7796 39.2129C52.4873 39.8733 51.9534 40.9401 51.5847 41.5624C51.2288 42.1846 50.9364 42.7307 50.9364 42.7688C50.9364 42.8069 51.3686 43.2641 51.8771 43.7848C52.5762 44.4959 52.8559 44.8769 52.9576 45.2706C53.0466 45.6262 53.0593 45.9691 52.8686 46.6422L59.0212 52.8015C64.4619 58.2496 65.2373 59.0623 65.5932 59.7862C65.9492 60.5101 66 60.726 66 61.6911C66 62.6055 65.9492 62.8849 65.6568 63.4691C65.4661 63.8628 65.0212 64.4469 64.6398 64.8025C64.1314 65.2851 63.75 65.5137 63.0763 65.7423C62.3898 65.9709 62.0085 66.0344 61.4237 65.9836C60.9788 65.9455 60.3432 65.7804 59.8983 65.5772C59.2246 65.2724 58.4491 64.5485 46.7288 52.865L46.0678 52.9031C45.7118 52.9285 45.2288 52.8777 45.0254 52.8015C44.822 52.7126 44.25 52.2554 43.7542 51.7728C43.2584 51.2902 42.8262 50.8965 42.7627 50.8965C42.7118 50.8965 42.1779 51.1886 41.555 51.5569C40.9449 51.9252 39.8517 52.484 39.1144 52.8142C38.3771 53.1443 37.144 53.6142 36.3813 53.8555C35.6059 54.1095 34.411 54.427 33.7118 54.5667C33.0127 54.7064 31.9194 54.8842 31.2965 54.9604C30.661 55.0366 29.2118 55.1001 28.055 55.1001C26.8982 55.1001 25.2965 55.0112 24.4957 54.9096C23.6948 54.7953 22.3474 54.5413 21.5084 54.3254C20.6694 54.1095 19.5508 53.7793 19.0296 53.6015C18.5084 53.4237 17.3897 52.9538 16.5508 52.5602C15.7118 52.1538 14.4787 51.4934 13.8177 51.087C13.1567 50.6679 12.1779 50.0076 11.6567 49.6139C11.1355 49.2202 10.1058 48.3312 9.38125 47.6454C8.65668 46.947 7.60159 45.8167 7.04227 45.1182C6.48294 44.4198 5.72023 43.3911 5.3643 42.8323C5.00837 42.2735 4.52531 41.4735 4.2965 41.0544C4.05497 40.6353 3.63548 39.7717 3.35582 39.1494C3.08887 38.5272 2.68209 37.5239 2.4787 36.927C2.27531 36.3301 2.00836 35.4158 1.86853 34.8951C1.7287 34.3744 1.53802 33.5108 1.43632 32.9902C1.33463 32.4695 1.18209 31.3265 1.10582 30.4502C1.00412 29.4978 0.978697 28.1262 1.01683 27.0214C1.06768 26.0054 1.20751 24.4942 1.36005 23.656C1.49988 22.8178 1.79226 21.5098 2.00836 20.7351C2.22446 19.9604 2.65667 18.7159 2.97446 17.9412C3.27955 17.1665 3.82616 15.9982 4.18209 15.3378C4.53803 14.6774 5.11006 13.6995 5.46599 13.1789C5.82193 12.6582 6.36854 11.8835 6.68633 11.4644C7.00413 11.0453 7.89396 10.0548 8.66939 9.25471C9.4321 8.46733 10.5507 7.43867 11.1482 6.96879C11.7457 6.4862 12.6609 5.81313 13.1821 5.47024C13.7033 5.11465 14.733 4.51777 15.4702 4.12409C16.2075 3.7431 17.3516 3.20972 18.0126 2.95573C18.6736 2.68904 19.6779 2.33345 20.2372 2.16836C20.7965 2.00326 21.8008 1.74927 22.4618 1.60958C23.1228 1.45718 24.2414 1.26669 24.9406 1.17779C25.6398 1.0889 26.9999 1.0127 27.9533 1L27.966 1ZM22.6016 3.7685C21.9406 3.9209 20.7965 4.23838 20.0592 4.49238C19.322 4.74637 18.038 5.27975 17.1991 5.68613C16.3601 6.09252 15.1016 6.81639 14.4024 7.27358C13.7033 7.74346 12.6991 8.48003 12.1779 8.92452C11.6567 9.3563 10.7033 10.258 10.0804 10.9183C9.44481 11.566 8.59312 12.5566 8.17362 13.1154C7.75413 13.6741 7.05498 14.7282 6.61006 15.4648C6.17786 16.2014 5.52955 17.484 5.17362 18.3222C4.81769 19.1604 4.36006 20.443 4.15667 21.1796C3.95328 21.9162 3.6609 23.1734 3.52107 23.9735C3.39396 24.7736 3.24141 26.1451 3.20328 27.0214C3.15243 27.9357 3.17785 29.2819 3.26684 30.1963C3.35582 31.0725 3.53379 32.3552 3.67362 33.0537C3.81345 33.7521 4.18209 35.0983 4.49989 36.0381C4.81769 36.9778 5.42786 38.4383 5.86006 39.2764C6.27955 40.1146 7.00413 41.3465 7.44905 42.0068C7.89396 42.6672 8.66939 43.6959 9.17786 44.2801C9.67363 44.8642 10.5126 45.7405 11.0338 46.2358C11.555 46.7184 12.4957 47.5057 13.1313 47.9756C13.7541 48.4455 14.7584 49.1186 15.3558 49.4742C15.9533 49.8298 16.9448 50.3631 17.5804 50.6552C18.2033 50.9473 19.4618 51.4299 20.377 51.7347C21.2796 52.0268 22.6525 52.3951 23.4279 52.5475C24.4576 52.7634 25.4745 52.8523 27.305 52.9031C28.8813 52.9412 30.2415 52.903 31.055 52.8142C31.7542 52.7253 32.822 52.5475 33.4321 52.4078C34.055 52.2808 35.1101 51.9887 35.7838 51.7728C36.4703 51.5569 37.6271 51.1124 38.3644 50.7822C39.1016 50.452 40.2076 49.8806 40.8432 49.4996C41.4661 49.1186 42.5339 48.3947 43.1949 47.8994C43.8559 47.4041 44.9237 46.4898 45.5466 45.8675C46.1822 45.2452 47.0593 44.2801 47.5169 43.7213C47.9618 43.1625 48.661 42.1846 49.0805 41.5624C49.4873 40.9274 50.1356 39.7844 50.5169 39.0224C50.8856 38.2478 51.4449 36.8508 51.7627 35.9111C52.0678 34.9713 52.4491 33.587 52.589 32.8251C52.7415 32.0758 52.9068 30.6661 52.983 29.6883C53.072 28.4818 53.072 27.3897 52.983 26.2848C52.9068 25.3958 52.7669 24.2148 52.6525 23.656C52.5508 23.0972 52.3474 22.1828 52.2076 21.6241C52.0678 21.0653 51.7373 20.062 51.4957 19.4016C51.2415 18.7413 50.7457 17.5983 50.3771 16.8617C50.0084 16.1252 49.3601 15.0076 48.9534 14.3853C48.5339 13.7503 47.7712 12.7217 47.25 12.0994C46.7161 11.4644 45.8135 10.4993 45.2161 9.95318C44.6313 9.4071 43.7161 8.61973 43.1949 8.22604C42.6737 7.81966 41.6949 7.15928 41.0339 6.76559C40.3728 6.35921 39.3686 5.81313 38.8093 5.54644C38.2499 5.27975 37.2457 4.87336 36.5847 4.63207C35.9237 4.39078 34.7796 4.04789 34.0423 3.8574C33.305 3.6796 31.9576 3.45101 31.055 3.33672C30.1398 3.23512 28.7415 3.14622 27.9406 3.15892C27.1398 3.17162 25.8813 3.24782 25.144 3.33672C24.4067 3.42561 23.2626 3.62881 22.6016 3.7685ZM48.3432 46.0707C47.7839 46.7057 46.7923 47.6962 46.1313 48.2677C45.483 48.8392 44.8856 49.3472 44.7966 49.398C44.7076 49.4615 44.8856 49.7155 45.2923 50.1345L45.9279 50.7695L50.8856 45.8167C49.6779 44.5848 49.5635 44.5214 49.4745 44.6864C49.411 44.8134 48.9025 45.423 48.3432 46.0707ZM48.4703 51.4045C60.0381 62.9484 60.7246 63.5961 61.2076 63.7231C61.589 63.812 61.9195 63.812 62.2881 63.7104C62.6441 63.6215 63.0127 63.3929 63.3051 63.0754C63.6483 62.7198 63.8136 62.4277 63.8644 62.034C63.9152 61.7292 63.8771 61.2848 63.7881 60.9927C63.661 60.5736 62.5678 59.4179 57.572 54.4143L51.5212 48.3566L48.4703 51.4045ZM27.8771 5.31785C28.4999 5.30515 29.6186 5.35595 30.3559 5.43214C31.0932 5.50834 32.3516 5.71153 33.1525 5.88933C33.9533 6.06712 35.0974 6.38461 35.6949 6.6005C36.2923 6.80369 37.3728 7.27358 38.1101 7.62916C38.8474 7.98475 40.0169 8.65783 40.7161 9.11501C41.4152 9.58489 42.4703 10.3977 43.0678 10.9183C43.6652 11.4263 44.4788 12.2264 44.8856 12.6709C45.2923 13.1281 45.9279 13.89 46.2966 14.3853C46.6779 14.8679 47.2245 15.668 47.5169 16.1633C47.822 16.6458 48.3432 17.6237 48.6737 18.3222C49.0042 19.0207 49.4873 20.189 49.7288 20.9256C49.9703 21.6495 50.3008 22.8559 50.4661 23.5925C50.7203 24.7736 50.7584 25.2561 50.7457 28.1008C50.7457 31.1233 50.733 31.3392 50.3898 32.7997C50.1991 33.6378 49.894 34.7427 49.7034 35.2761C49.5254 35.7968 49.1567 36.7365 48.8898 37.3715C48.6228 37.9938 48.1017 38.997 47.7457 39.5939C47.3898 40.1781 46.8432 41.0163 46.5381 41.4354C46.233 41.8544 45.572 42.6545 45.0635 43.2133C44.5678 43.7721 43.7288 44.6102 43.1949 45.0928C42.6737 45.5627 41.6694 46.3374 40.9703 46.82C40.2711 47.3025 39.0635 48.0137 38.3008 48.3947C37.5254 48.7757 36.216 49.3218 35.3771 49.6012C34.5381 49.8806 33.2542 50.2488 32.5169 50.4012C31.3347 50.6552 30.8262 50.6933 28.1313 50.6933C25.4237 50.6933 24.9279 50.6552 23.7457 50.4012C23.0084 50.2361 21.8643 49.9314 21.2033 49.7155C20.5423 49.5123 19.5381 49.1313 18.9787 48.9027C18.4194 48.6614 17.4406 48.1661 16.8177 47.8105C16.1821 47.4422 15.127 46.7438 14.466 46.2485C13.805 45.7532 12.8008 44.8896 12.2287 44.3436C11.6694 43.7848 10.894 42.9593 10.5253 42.5148C10.1567 42.0576 9.50837 41.1687 9.08888 40.5464C8.6821 39.9114 8.03379 38.7685 7.66515 38.0065C7.28379 37.2318 6.81345 36.1142 6.61006 35.5301C6.40667 34.9332 6.08888 33.7902 5.8982 32.9902C5.72023 32.1774 5.50413 30.755 5.41515 29.8153C5.30074 28.4691 5.30074 27.7071 5.42786 26.3229C5.50413 25.345 5.72023 23.8846 5.8982 23.0845C6.08888 22.2717 6.40667 21.1288 6.61006 20.5446C6.82616 19.9477 7.24566 18.9191 7.56345 18.2587C7.86854 17.5856 8.50413 16.4807 8.96176 15.7823C9.41939 15.0838 10.1313 14.1059 10.5253 13.6234C10.9194 13.1281 11.7584 12.2391 12.3813 11.6549C13.0169 11.058 13.9448 10.2453 14.466 9.86428C14.9872 9.4706 15.9279 8.83562 16.5635 8.45463C17.1864 8.07365 18.3304 7.50217 19.1058 7.18468C19.8686 6.85449 20.9872 6.44811 21.5847 6.27031C22.1821 6.09252 23.1228 5.85123 23.6821 5.74963C24.2415 5.63533 25.1567 5.49564 25.716 5.44484C26.2754 5.38134 27.2415 5.33055 27.8771 5.31785ZM23.9364 7.90855C23.377 8.02285 22.3474 8.30224 21.6482 8.53083C20.9491 8.75942 19.805 9.22931 19.1058 9.58489C18.4067 9.92778 17.4279 10.4739 16.9448 10.7787C16.4491 11.0961 15.7118 11.6295 15.2923 11.9597C14.8728 12.3026 14.1736 12.9249 13.7287 13.344C13.2838 13.7757 12.6228 14.4996 12.2541 14.9568C11.8728 15.4013 11.2753 16.2395 10.894 16.7982C10.5253 17.357 9.88973 18.5 9.49566 19.3381C9.10159 20.1763 8.64396 21.2558 8.49142 21.7511C8.35159 22.2336 8.11007 23.148 7.97023 23.783C7.8304 24.4053 7.65244 25.6371 7.57617 26.5134C7.46176 27.7071 7.46176 28.4818 7.58888 29.6883C7.66515 30.5518 7.8304 31.6948 7.9321 32.2282C8.03379 32.7489 8.33888 33.8283 8.60583 34.6411C8.87278 35.4412 9.34312 36.5841 9.63549 37.181C9.92787 37.7652 10.4745 38.7177 10.8304 39.2764C11.1991 39.8352 11.8092 40.6607 12.1779 41.1179C12.5592 41.5624 13.2584 42.3243 13.7541 42.8069C14.2499 43.2895 15.0889 44.0134 15.6101 44.4071C16.1313 44.8134 17.0719 45.4357 17.7075 45.8167C18.3304 46.1977 19.5381 46.7819 20.377 47.1248C21.216 47.4549 22.4745 47.874 23.1737 48.0391C23.8728 48.2042 24.9279 48.4074 25.5254 48.4836C26.2245 48.5852 27.4067 48.6106 28.8304 48.5725C30.3432 48.5217 31.4491 48.4074 32.2627 48.2423C32.9237 48.1026 34.0677 47.7724 34.805 47.5184C35.5423 47.2645 36.6864 46.7819 37.3474 46.4517C38.0084 46.1088 39.1016 45.4865 39.7627 45.042C40.5762 44.5086 41.5169 43.6959 42.6228 42.5783C43.7161 41.4989 44.5678 40.5083 45.0889 39.7209C45.5339 39.0478 46.1567 37.9938 46.4745 37.3715C46.7796 36.7365 47.2245 35.7333 47.4534 35.1491C47.6822 34.5522 48.0254 33.3838 48.2288 32.5457C48.572 31.0979 48.5974 30.8693 48.5847 28.1008C48.5847 25.5228 48.5593 25.0148 48.3051 23.91C48.1398 23.2115 47.8474 22.1193 47.6313 21.4971C47.4152 20.8621 46.9957 19.808 46.6779 19.1477C46.3601 18.4746 45.7373 17.3951 45.305 16.7347C44.8601 16.0617 44.072 15.033 43.5508 14.4488C43.0296 13.8519 42.1271 12.963 41.5423 12.4677C40.9449 11.9724 40.0296 11.2739 39.5084 10.9183C38.9872 10.5755 37.9576 9.99128 37.2203 9.62299C36.483 9.25471 35.3135 8.75942 34.6143 8.53083C33.9152 8.30224 32.911 8.02285 32.3898 7.92125C31.8686 7.81966 30.8771 7.66726 30.1906 7.59107C29.5169 7.51487 28.4872 7.46407 27.9025 7.47677C27.3304 7.48947 26.4279 7.54027 25.9067 7.60376C25.3855 7.65456 24.4957 7.79426 23.9364 7.90855ZM27.7118 9.63569C28.3728 9.62299 28.4872 9.66109 28.8304 10.004C29.0338 10.2072 29.2118 10.4993 29.2118 10.639C29.2118 10.7787 29.1482 11.0199 29.0593 11.1723C28.983 11.3247 28.8304 11.5279 28.716 11.6041C28.6016 11.6803 27.966 11.7946 27.305 11.8327C26.644 11.8835 25.7923 11.9724 25.4237 12.0359C24.9533 12.1248 24.6609 12.1121 24.4194 11.9978C24.2287 11.9089 23.9872 11.6676 23.8982 11.4644C23.7965 11.2485 23.7584 10.9437 23.7965 10.7914C23.8347 10.639 23.9999 10.3977 24.1525 10.258C24.3304 10.1056 24.7754 9.95318 25.2711 9.87698C25.7287 9.80079 26.3008 9.72459 26.5423 9.69919C26.7838 9.67379 27.3177 9.64839 27.7118 9.63569ZM20.466 11.4009C20.5931 11.4009 20.8474 11.4771 21.0381 11.566C21.2414 11.6676 21.4321 11.8327 21.483 11.947C21.5465 12.0613 21.5847 12.3026 21.5847 12.4804C21.5847 12.6455 21.5211 12.9122 21.4575 13.0519C21.3813 13.1916 21.0253 13.4456 20.6567 13.636C20.3008 13.8138 19.4872 14.3218 18.8643 14.7409C18.2414 15.1727 17.2118 16.0363 16.5889 16.6712C15.966 17.2935 15.0889 18.3476 14.644 19.0207C14.2118 19.681 13.6524 20.6462 13.4109 21.1796C13.1694 21.7003 12.8262 22.5892 12.6482 23.148C12.4702 23.7068 12.2414 24.6466 12.127 25.2434C12.0253 25.8276 11.8982 26.8309 11.8474 27.4659C11.7711 28.3167 11.6948 28.6596 11.5169 28.8247C11.3897 28.9517 11.1609 29.0787 10.9957 29.1295C10.8431 29.1676 10.5507 29.1295 10.3346 29.0279C10.1313 28.939 9.88973 28.7104 9.78803 28.5453C9.67363 28.304 9.6482 27.9103 9.71176 27.0849C9.7499 26.4499 9.90244 25.3323 10.0423 24.6085C10.1821 23.8719 10.4999 22.7035 10.7414 22.0051C10.983 21.3066 11.4406 20.2398 11.7584 19.6556C12.0635 19.0588 12.5719 18.1952 12.877 17.7507C13.1821 17.2935 13.8177 16.468 14.3008 15.9093C14.7838 15.3505 15.6355 14.5123 16.1948 14.0551C16.7414 13.598 17.4533 13.0392 17.7711 12.8233C18.0889 12.6201 18.7753 12.201 19.2965 11.9216C19.8177 11.6295 20.3516 11.4009 20.466 11.4009ZM28.1313 13.9408C28.2711 13.9408 28.5889 14.017 28.8304 14.1059C29.072 14.1821 29.9491 14.8552 30.7754 15.5918C31.6016 16.3157 32.3135 16.9379 32.3643 16.9506C32.4152 16.976 32.4915 16.8363 32.5296 16.6331C32.5804 16.4426 32.7838 16.0871 32.9745 15.8458C33.1779 15.6172 33.5338 15.3378 33.7499 15.2489C34.0169 15.1346 34.716 15.0838 35.6949 15.0838C36.5338 15.0838 37.3728 15.1346 37.5635 15.2108C37.7669 15.287 38.0593 15.4775 38.2245 15.6299C38.3898 15.7823 38.6313 16.1379 38.7584 16.4173C38.9618 16.8617 39 17.2808 39 22.9575L39.9406 23.8719C40.6017 24.5196 40.9322 24.9386 41.0339 25.3069C41.1483 25.6752 41.1483 25.9546 41.0466 26.3483C40.9703 26.6404 40.7161 27.0976 40.4872 27.3516C40.233 27.631 39.8771 27.8595 39.0127 28.1008L38.9745 33.8156C38.9364 39.378 38.9237 39.5304 38.6694 39.9749C38.5169 40.2162 38.1737 40.5591 37.411 41.0544H28.1313C19.5381 41.0544 18.8262 41.029 18.4321 40.8258C18.216 40.6988 17.8728 40.394 17.3262 39.6701L17.2499 28.1008L16.716 27.9484C16.4236 27.8595 16.0169 27.631 15.8135 27.4405C15.6101 27.2373 15.3686 26.8944 15.2796 26.6658C15.1779 26.4372 15.1016 26.0689 15.1016 25.8403C15.1016 25.6117 15.2287 25.1799 15.3813 24.8878C15.5974 24.4942 17.1609 23.021 21.0126 19.5667C23.9491 16.9379 26.466 14.6901 26.6059 14.5504C26.7457 14.4234 27.0889 14.2329 27.3686 14.1313C27.6482 14.0297 27.9915 13.9408 28.1313 13.9408ZM17.3262 25.8149C25.6016 25.8657 30.4321 25.8657 33.4067 25.8403L38.8093 25.8149C30.661 18.4238 28.2584 16.2649 28.2076 16.2522C28.1567 16.2268 25.6779 18.373 22.716 21.0145L17.3262 25.8149ZM34.6779 19.0842C36.2033 20.4938 36.6991 20.8748 36.7499 20.824C36.8008 20.7732 36.8389 19.9477 36.8389 18.9826V17.2427H34.6779V19.0842ZM19.4236 38.9589L24.8262 38.8955C24.9533 34.984 24.9915 34.6284 25.233 34.1966C25.3728 33.9172 25.716 33.4854 25.9957 33.2315C26.2626 32.9775 26.7076 32.6981 26.9872 32.6092C27.2669 32.5076 27.8135 32.4314 28.1948 32.4314C28.6779 32.4314 29.0974 32.533 29.5296 32.7362C29.8728 32.914 30.3432 33.2822 30.5847 33.5616C30.8135 33.841 31.0932 34.349 31.1949 34.7046C31.322 35.1237 31.3855 35.9238 31.3855 37.1429L31.3728 38.9589L36.7754 38.8955V28.1008L19.4364 28.0373L19.4236 38.9589ZM27.0381 37.1302L27.0508 38.9589H29.2118C29.2118 35.3142 29.1991 35.2634 28.894 34.9586C28.6525 34.7173 28.4364 34.6411 28.0677 34.6411C27.6864 34.6411 27.5084 34.7173 27.2923 34.9713C27.0381 35.2761 27.0254 35.4285 27.0381 37.1302Z" fill="#78B404" stroke="#78B404"/>
</svg>
