<svg width="67" height="67" viewBox="0 0 67 67" fill="none" xmlns="http://www.w3.org/2000/svg">
<path fill-rule="evenodd" clip-rule="evenodd" d="M28.1955 1.38208C29.1489 1.38208 30.6108 1.45828 31.4243 1.55987C32.2506 1.67417 33.5854 1.90276 34.3862 2.09325C35.1871 2.27105 36.4201 2.61394 37.1193 2.85523C37.8184 3.08382 39.204 3.6807 40.1955 4.16328C41.1998 4.65856 42.6617 5.48403 43.4371 6.01741C44.2252 6.5508 45.3566 7.38897 45.9413 7.89695C46.5261 8.39223 47.4413 9.2558 47.9625 9.81458C48.4837 10.3734 49.31 11.3385 49.8057 11.9735C50.2888 12.6085 51.0007 13.6244 51.3947 14.2594C51.7761 14.8944 52.4117 16.0628 52.793 16.8628C53.1744 17.6629 53.7337 19.0598 54.0388 19.9742C54.3312 20.8886 54.6998 22.1966 54.8396 22.8951C54.9795 23.5936 55.1701 24.7365 55.2464 25.435C55.3354 26.2224 55.3735 27.6828 55.3227 29.2449C55.2846 30.7561 55.1829 32.2547 55.0557 32.9278C54.9413 33.55 54.7125 34.6168 54.5346 35.2772C54.3693 35.9375 54.0769 36.9154 53.8862 37.4361C53.7083 37.9568 53.3015 38.9346 53.0091 39.595C52.7168 40.2554 52.1829 41.3222 51.8142 41.9444C51.4583 42.5667 51.1659 43.1128 51.1659 43.1509C51.1659 43.189 51.5981 43.6462 52.1066 44.1669C52.8057 44.878 53.0854 45.259 53.1871 45.6527C53.2761 46.0083 53.2888 46.3512 53.0981 47.0243L59.2507 53.1835C64.6914 58.6316 65.4668 59.4444 65.8227 60.1683C66.1786 60.8922 66.2295 61.1081 66.2295 62.0732C66.2295 62.9876 66.1786 63.267 65.8863 63.8512C65.6956 64.2448 65.2507 64.829 64.8693 65.1846C64.3608 65.6672 63.9795 65.8958 63.3058 66.1244C62.6193 66.353 62.238 66.4165 61.6532 66.3657C61.2083 66.3276 60.5727 66.1625 60.1278 65.9593C59.4541 65.6545 58.6786 64.9306 46.9583 53.247L46.2973 53.2851C45.9413 53.3105 45.4583 53.2597 45.2549 53.1835C45.0515 53.0946 44.4795 52.6375 43.9837 52.1549C43.4879 51.6723 43.0557 51.2786 42.9922 51.2786C42.9413 51.2786 42.4074 51.5707 41.7845 51.939C41.1744 52.3073 40.0811 52.866 39.3439 53.1962C38.6066 53.5264 37.3735 53.9963 36.6108 54.2376C35.8354 54.4916 34.6405 54.8091 33.9413 54.9488C33.2421 55.0885 32.1489 55.2663 31.526 55.3425C30.8904 55.4187 29.4413 55.4822 28.2845 55.4822C27.1277 55.4822 25.526 55.3933 24.7252 55.2917C23.9243 55.1774 22.5769 54.9234 21.7379 54.7075C20.8989 54.4916 19.7803 54.1614 19.2591 53.9836C18.7379 53.8058 17.6192 53.3359 16.7803 52.9422C15.9413 52.5359 14.7082 51.8755 14.0472 51.4691C13.3862 51.05 12.4074 50.3896 11.8862 49.9959C11.365 49.6023 10.3353 48.7133 9.61075 48.0275C8.88617 47.329 7.83108 46.1988 7.27176 45.5003C6.71244 44.8018 5.94972 43.7732 5.59379 43.2144C5.23786 42.6556 4.75481 41.8555 4.52599 41.4365C4.28447 41.0174 3.86497 40.1538 3.58531 39.5315C3.31836 38.9092 2.91158 37.906 2.70819 37.3091C2.5048 36.7122 2.23785 35.7979 2.09802 35.2772C1.95819 34.7565 1.76751 33.8929 1.66582 33.3722C1.56412 32.8516 1.41158 31.7086 1.33531 30.8323C1.23361 29.8799 1.20819 28.5083 1.24632 27.4035C1.29717 26.3875 1.437 24.8762 1.58955 24.0381C1.72938 23.1999 2.02175 21.8918 2.23785 21.1172C2.45395 20.3425 2.88616 19.0979 3.20396 18.3233C3.50904 17.5486 4.05565 16.3802 4.41158 15.7199C4.76752 15.0595 5.33955 14.0816 5.69549 13.5609C6.05142 13.0403 6.59803 12.2656 6.91583 11.8465C7.23362 11.4274 8.12346 10.4369 8.89888 9.63679C9.66159 8.84941 10.7802 7.82075 11.3777 7.35087C11.9752 6.86828 12.8904 6.19521 13.4116 5.85232C13.9328 5.49673 14.9625 4.89985 15.6997 4.50617C16.437 4.12518 17.5811 3.5918 18.2421 3.33781C18.9031 3.07112 19.9074 2.71553 20.4667 2.55044C21.026 2.38534 22.0303 2.13135 22.6913 1.99166C23.3523 1.83926 24.4709 1.64877 25.1701 1.55987C25.8692 1.47098 27.2294 1.39478 28.1828 1.38208L28.1955 1.38208ZM22.8311 4.15058C22.1701 4.30298 21.026 4.62046 20.2887 4.87446C19.5514 5.12845 18.2675 5.66183 17.4286 6.06821C16.5896 6.4746 15.3311 7.19847 14.6319 7.65566C13.9328 8.12554 12.9285 8.86211 12.4074 9.3066C11.8862 9.73838 10.9328 10.64 10.3099 11.3004C9.67431 11.9481 8.82261 12.9387 8.40312 13.4974C7.98362 14.0562 7.28447 15.1103 6.83956 15.8469C6.40735 16.5834 5.75904 17.8661 5.40311 18.7043C5.04718 19.5424 4.58955 20.8251 4.38616 21.5617C4.18277 22.2982 3.8904 23.5555 3.75057 24.3556C3.62345 25.1556 3.4709 26.5272 3.43277 27.4035C3.38192 28.3178 3.40735 29.664 3.49633 30.5783C3.58531 31.4546 3.76328 32.7373 3.90311 33.4357C4.04294 34.1342 4.41158 35.4804 4.72938 36.4201C5.04718 37.3599 5.65735 38.8203 6.08955 39.6585C6.50905 40.4967 7.23362 41.7285 7.67854 42.3889C8.12346 43.0493 8.89888 44.078 9.40736 44.6621C9.90312 45.2463 10.7421 46.1226 11.2633 46.6179C11.7845 47.1005 12.7252 47.8878 13.3608 48.3577C13.9836 48.8276 14.9879 49.5007 15.5853 49.8563C16.1828 50.2118 17.1743 50.7452 17.8099 51.0373C18.4328 51.3294 19.6913 51.812 20.6065 52.1168C21.5091 52.4089 22.882 52.7771 23.6574 52.9295C24.687 53.1454 25.704 53.2343 27.5345 53.2851C29.1108 53.3232 30.471 53.2851 31.2845 53.1962C31.9837 53.1073 33.0515 52.9295 33.6616 52.7898C34.2845 52.6629 35.3396 52.3708 36.0133 52.1549C36.6998 51.939 37.8566 51.4945 38.5938 51.1643C39.3311 50.8341 40.4371 50.2626 41.0727 49.8817C41.6955 49.5007 42.7633 48.7768 43.4244 48.2815C44.0854 47.7862 45.1532 46.8719 45.7761 46.2496C46.4117 45.6273 47.2888 44.6621 47.7464 44.1034C48.1913 43.5446 48.8905 42.5667 49.31 41.9444C49.7168 41.3095 50.3651 40.1665 50.7464 39.4045C51.1151 38.6299 51.6744 37.2329 51.9922 36.2931C52.2973 35.3534 52.6786 33.9691 52.8185 33.2071C52.971 32.4579 53.1362 31.0482 53.2125 30.0704C53.3015 28.8639 53.3015 27.7717 53.2125 26.6669C53.1362 25.7779 52.9964 24.5969 52.882 24.0381C52.7803 23.4793 52.5769 22.5649 52.4371 22.0061C52.2973 21.4474 51.9668 20.4441 51.7252 19.7837C51.471 19.1233 50.9752 17.9804 50.6066 17.2438C50.2379 16.5072 49.5896 15.3897 49.1829 14.7674C48.7634 14.1324 48.0006 13.1038 47.4795 12.4815C46.9456 11.8465 46.043 10.8813 45.4456 10.3353C44.8608 9.78918 43.9456 9.00181 43.4244 8.60812C42.9032 8.20174 41.9244 7.54136 41.2633 7.14767C40.6023 6.74129 39.5981 6.19521 39.0388 5.92852C38.4794 5.66183 37.4752 5.25544 36.8142 5.01415C36.1532 4.77286 35.0091 4.42997 34.2718 4.23948C33.5345 4.06168 32.1871 3.83309 31.2845 3.7188C30.3693 3.6172 28.971 3.5283 28.1701 3.541C27.3693 3.5537 26.1108 3.6299 25.3735 3.7188C24.6362 3.80769 23.4921 4.01089 22.8311 4.15058V4.15058ZM48.5727 46.4528C48.0134 47.0878 47.0218 48.0783 46.3608 48.6498C45.7125 49.2213 45.115 49.7293 45.0261 49.7801C44.9371 49.8436 45.115 50.0975 45.5218 50.5166L46.1574 51.1516L51.1151 46.1988C49.9074 44.9669 49.793 44.9034 49.704 45.0685C49.6405 45.1955 49.132 45.8051 48.5727 46.4528ZM48.6998 51.7866C60.2676 63.3305 60.9541 63.9781 61.4371 64.1051C61.8185 64.194 62.149 64.194 62.5176 64.0924C62.8736 64.0035 63.2422 63.775 63.5346 63.4575C63.8778 63.1019 64.043 62.8098 64.0939 62.4161C64.1447 62.1113 64.1066 61.6668 64.0176 61.3747C63.8905 60.9557 62.7973 59.8 57.8015 54.7964L51.7507 48.7387L48.6998 51.7866ZM28.1065 5.69993C28.7294 5.68723 29.8481 5.73803 30.5854 5.81422C31.3226 5.89042 32.5811 6.09361 33.382 6.27141C34.1828 6.4492 35.3269 6.76669 35.9244 6.98258C36.5218 7.18577 37.6023 7.65566 38.3396 8.01124C39.0769 8.36683 40.2464 9.03991 40.9455 9.49709C41.6447 9.96697 42.6998 10.7797 43.2972 11.3004C43.8947 11.8084 44.7083 12.6085 45.115 13.053C45.5218 13.5101 46.1574 14.2721 46.5261 14.7674C46.9074 15.25 47.454 16.0501 47.7464 16.5453C48.0515 17.0279 48.5727 18.0058 48.9032 18.7043C49.2337 19.4027 49.7168 20.5711 49.9583 21.3077C50.1998 22.0315 50.5303 23.238 50.6956 23.9746C50.9498 25.1556 50.9879 25.6382 50.9752 28.4829C50.9752 31.5054 50.9625 31.7213 50.6193 33.1817C50.4286 34.0199 50.1235 35.1248 49.9329 35.6582C49.7549 36.1788 49.3862 37.1186 49.1193 37.7536C48.8523 38.3759 48.3312 39.3791 47.9752 39.976C47.6193 40.5602 47.0727 41.3984 46.7676 41.8174C46.4625 42.2365 45.8015 43.0366 45.293 43.5954C44.7972 44.1542 43.9583 44.9923 43.4244 45.4749C42.9032 45.9448 41.8989 46.7195 41.1998 47.202C40.5006 47.6846 39.293 48.3958 38.5303 48.7768C37.7549 49.1578 36.4455 49.7039 35.6066 49.9832C34.7676 50.2626 33.4837 50.6309 32.7464 50.7833C31.5642 51.0373 31.0557 51.0754 28.3608 51.0754C25.6531 51.0754 25.1574 51.0373 23.9752 50.7833C23.2379 50.6182 22.0938 50.3134 21.4328 50.0975C20.7718 49.8944 19.7675 49.5134 19.2082 49.2848C18.6489 49.0435 17.6701 48.5482 17.0472 48.1926C16.4116 47.8243 15.3565 47.1258 14.6955 46.6306C14.0345 46.1353 13.0302 45.2717 12.4582 44.7256C11.8989 44.1669 11.1235 43.3414 10.7548 42.8969C10.3862 42.4397 9.73787 41.5507 9.31837 40.9285C8.91159 40.2935 8.26329 39.1505 7.89464 38.3886C7.51328 37.6139 7.04295 36.4963 6.83956 35.9121C6.63616 35.3153 6.31837 34.1723 6.12769 33.3722C5.94972 32.5595 5.73362 31.1371 5.64464 30.1974C5.53023 28.8512 5.53023 28.0892 5.65735 26.705C5.73362 25.7271 5.94972 24.2667 6.12769 23.4666C6.31837 22.6538 6.63616 21.5109 6.83956 20.9267C7.05566 20.3298 7.47515 19.3011 7.79295 18.6408C8.09803 17.9677 8.73363 16.8628 9.19125 16.1644C9.64888 15.4659 10.3607 14.488 10.7548 14.0054C11.1489 13.5101 11.9879 12.6212 12.6108 12.037C13.2463 11.4401 14.1743 10.6274 14.6955 10.2464C15.2167 9.85268 16.1574 9.2177 16.793 8.83671C17.4158 8.45573 18.5599 7.88425 19.3353 7.56676C20.0981 7.23657 21.2167 6.83019 21.8142 6.65239C22.4116 6.4746 23.3523 6.23331 23.9116 6.13171C24.4709 6.01742 25.3862 5.87772 25.9455 5.82692C26.5048 5.76342 27.4709 5.71263 28.1065 5.69993V5.69993ZM24.1659 8.29063C23.6065 8.40493 22.5769 8.68432 21.8777 8.91291C21.1786 9.1415 20.0345 9.61139 19.3353 9.96697C18.6362 10.3099 17.6574 10.8559 17.1743 11.1607C16.6786 11.4782 15.9413 12.0116 15.5218 12.3418C15.1023 12.6847 14.4031 13.307 13.9582 13.726C13.5133 14.1578 12.8523 14.8817 12.4836 15.3389C12.1023 15.7834 11.5048 16.6215 11.1235 17.1803C10.7548 17.7391 10.1192 18.8821 9.72515 19.7202C9.33108 20.5584 8.87346 21.6379 8.72091 22.1331C8.58108 22.6157 8.33956 23.5301 8.19973 24.1651C8.0599 24.7873 7.88193 26.0192 7.80566 26.8955C7.69125 28.0892 7.69125 28.8639 7.81837 30.0704C7.89464 30.9339 8.0599 32.0769 8.16159 32.6103C8.26329 33.1309 8.56837 34.2104 8.83532 35.0232C9.10227 35.8233 9.57261 36.9662 9.86498 37.5631C10.1574 38.1473 10.704 39.0997 11.0599 39.6585C11.4285 40.2173 12.0387 41.0428 12.4074 41.4999C12.7887 41.9444 13.4879 42.7064 13.9836 43.189C14.4794 43.6716 15.3184 44.3954 15.8396 44.7891C16.3608 45.1955 17.3014 45.8178 17.937 46.1988C18.5599 46.5798 19.7675 47.164 20.6065 47.5068C21.4455 47.837 22.704 48.2561 23.4031 48.4212C24.1023 48.5863 25.1574 48.7895 25.7548 48.8657C26.454 48.9673 27.6362 48.9927 29.0599 48.9546C30.5726 48.9038 31.6786 48.7895 32.4921 48.6244C33.1532 48.4847 34.2972 48.1545 35.0345 47.9005C35.7718 47.6465 36.9159 47.1639 37.5769 46.8338C38.2379 46.4909 39.3311 45.8686 39.9922 45.4241C40.8057 44.8907 41.7464 44.078 42.8523 42.9604C43.9456 41.8809 44.7973 40.8904 45.3184 40.103C45.7634 39.4299 46.3862 38.3759 46.704 37.7536C47.0091 37.1186 47.454 36.1153 47.6828 35.5312C47.9117 34.9343 48.2549 33.7659 48.4583 32.9278C48.8015 31.48 48.8269 31.2514 48.8142 28.4829C48.8142 25.9049 48.7888 25.3969 48.5345 24.2921C48.3693 23.5936 48.0769 22.5014 47.8608 21.8791C47.6447 21.2442 47.2252 20.1901 46.9074 19.5297C46.5896 18.8567 45.9667 17.7772 45.5345 17.1168C45.0896 16.4437 44.3015 15.4151 43.7803 14.8309C43.2591 14.234 42.3566 13.3451 41.7718 12.8498C41.1744 12.3545 40.2591 11.656 39.7379 11.3004C39.2167 10.9575 38.1871 10.3734 37.4498 10.0051C36.7125 9.63679 35.543 9.1415 34.8438 8.91291C34.1447 8.68432 33.1404 8.40493 32.6193 8.30333C32.0981 8.20174 31.1065 8.04934 30.4201 7.97315C29.7464 7.89695 28.7167 7.84615 28.132 7.85885C27.5599 7.87155 26.6574 7.92235 26.1362 7.98584C25.615 8.03664 24.7252 8.17634 24.1659 8.29063V8.29063ZM27.9413 10.0178C28.6023 10.0051 28.7167 10.0432 29.0599 10.3861C29.2633 10.5893 29.4413 10.8813 29.4413 11.021C29.4413 11.1607 29.3777 11.402 29.2887 11.5544C29.2125 11.7068 29.0599 11.91 28.9455 11.9862C28.8311 12.0624 28.1955 12.1767 27.5345 12.2148C26.8735 12.2656 26.0218 12.3545 25.6531 12.418C25.1828 12.5069 24.8904 12.4942 24.6489 12.3799C24.4582 12.291 24.2167 12.0497 24.1277 11.8465C24.026 11.6306 23.9879 11.3258 24.026 11.1734C24.0642 11.021 24.2294 10.7797 24.382 10.6401C24.5599 10.4877 25.0048 10.3353 25.5006 10.2591C25.9582 10.1829 26.5303 10.1067 26.7718 10.0813C27.0133 10.0559 27.5472 10.0305 27.9413 10.0178V10.0178ZM20.6955 11.783C20.8226 11.783 21.0769 11.8592 21.2675 11.9481C21.4709 12.0497 21.6616 12.2148 21.7125 12.3291C21.776 12.4434 21.8142 12.6847 21.8142 12.8625C21.8142 13.0276 21.7506 13.2943 21.687 13.434C21.6108 13.5736 21.2548 13.8276 20.8862 14.0181C20.5303 14.1959 19.7167 14.7039 19.0938 15.123C18.4709 15.5548 17.4413 16.4183 16.8184 17.0533C16.1955 17.6756 15.3184 18.7297 14.8735 19.4027C14.4413 20.0631 13.8819 21.0283 13.6404 21.5617C13.3989 22.0823 13.0557 22.9713 12.8777 23.5301C12.6997 24.0889 12.4709 25.0286 12.3565 25.6255C12.2548 26.2097 12.1277 27.213 12.0769 27.8479C12.0006 28.6988 11.9243 29.0417 11.7463 29.2068C11.6192 29.3338 11.3904 29.4608 11.2252 29.5116C11.0726 29.5497 10.7802 29.5116 10.5641 29.41C10.3607 29.3211 10.1192 29.0925 10.0175 28.9274C9.90312 28.6861 9.8777 28.2924 9.94126 27.4669C9.97939 26.832 10.1319 25.7144 10.2718 24.9905C10.4116 24.254 10.7294 23.0856 10.9709 22.3871C11.2124 21.6887 11.6701 20.6219 11.9879 20.0377C12.293 19.4408 12.8014 18.5773 13.1065 18.1328C13.4116 17.6756 14.0472 16.8501 14.5302 16.2913C15.0133 15.7326 15.865 14.8944 16.4243 14.4372C16.9709 13.98 17.6828 13.4213 18.0006 13.2054C18.3184 13.0022 19.0048 12.5831 19.526 12.3037C20.0472 12.0116 20.5811 11.783 20.6955 11.783V11.783ZM28.3608 14.3229C28.5006 14.3229 28.8184 14.3991 29.0599 14.488C29.3015 14.5642 30.1786 15.2373 31.0049 15.9739C31.8311 16.6977 32.543 17.32 32.5938 17.3327C32.6447 17.3581 32.721 17.2184 32.7591 17.0152C32.8099 16.8247 33.0133 16.4691 33.204 16.2279C33.4074 15.9993 33.7633 15.7199 33.9794 15.631C34.2464 15.5167 34.9455 15.4659 35.9244 15.4659C36.7633 15.4659 37.6023 15.5167 37.793 15.5929C37.9964 15.6691 38.2888 15.8596 38.454 16.012C38.6193 16.1644 38.8608 16.5199 38.9879 16.7993C39.1913 17.2438 39.2294 17.6629 39.2294 23.3396L40.1701 24.254C40.8311 24.9016 41.1616 25.3207 41.2633 25.689C41.3778 26.0573 41.3778 26.3367 41.2761 26.7304C41.1998 27.0225 40.9455 27.4797 40.7167 27.7336C40.4625 28.013 40.1066 28.2416 39.2422 28.4829L39.204 34.1977C39.1659 39.7601 39.1532 39.9125 38.8989 40.357C38.7464 40.5983 38.4032 40.9412 37.6405 41.4365H28.3608C19.7675 41.4365 19.0557 41.4111 18.6616 41.2079C18.4455 41.0809 18.1023 40.7761 17.5557 40.0522L17.4794 28.4829L16.9455 28.3305C16.6531 28.2416 16.2464 28.013 16.043 27.8225C15.8396 27.6193 15.598 27.2765 15.5091 27.0479C15.4074 26.8193 15.3311 26.451 15.3311 26.2224C15.3311 25.9938 15.4582 25.562 15.6108 25.2699C15.8269 24.8762 17.3904 23.4031 21.2421 19.9488C24.1786 17.32 26.6955 15.0722 26.8354 14.9325C26.9752 14.8055 27.3184 14.615 27.5981 14.5134C27.8777 14.4118 28.2209 14.3229 28.3608 14.3229V14.3229ZM17.5557 26.197C25.8311 26.2478 30.6616 26.2478 33.6362 26.2224L39.0388 26.197C30.8904 18.8059 28.4879 16.6469 28.4371 16.6342C28.3862 16.6088 25.9074 18.7551 22.9455 21.3966L17.5557 26.197ZM34.9074 19.4662C36.4328 20.8759 36.9286 21.2569 36.9794 21.2061C37.0303 21.1553 37.0684 20.3298 37.0684 19.3646V17.6248H34.9074V19.4662ZM19.6531 39.341L25.0557 39.2775C25.1828 35.3661 25.2209 35.0105 25.4625 34.5787C25.6023 34.2993 25.9455 33.8675 26.2252 33.6135C26.4921 33.3595 26.937 33.0801 27.2167 32.9913C27.4964 32.8897 28.043 32.8135 28.4243 32.8135C28.9074 32.8135 29.3269 32.9151 29.7591 33.1182C30.1023 33.296 30.5726 33.6643 30.8142 33.9437C31.043 34.2231 31.3226 34.7311 31.4243 35.0867C31.5515 35.5058 31.615 36.3058 31.615 37.525L31.6023 39.341L37.0049 39.2775V28.4829L19.6658 28.4194L19.6531 39.341ZM27.2676 37.5123L27.2803 39.341H29.4413C29.4413 35.6963 29.4286 35.6455 29.1235 35.3407C28.882 35.0994 28.6659 35.0232 28.2972 35.0232C27.9159 35.0232 27.7379 35.0994 27.5218 35.3534C27.2676 35.6582 27.2548 35.8106 27.2676 37.5123Z" fill="white" stroke="white"/>
</svg>
