<svg width="68" height="68" viewBox="0 0 68 68" fill="none" xmlns="http://www.w3.org/2000/svg">
<path fill-rule="evenodd" clip-rule="evenodd" d="M34.207 1C34.716 1 35.3395 1.07635 35.6703 1.19087C35.9884 1.30539 36.3956 1.47081 36.5992 1.57261C36.7901 1.6744 37.1718 1.96707 37.4645 2.23428C37.7444 2.48877 38.1516 2.95958 38.3425 3.2777C38.5461 3.59581 38.8006 4.21932 38.9278 4.6774C39.0678 5.25001 39.1059 5.73354 39.055 6.26797C39.0041 6.70061 38.8133 7.37501 38.597 7.83309C38.3806 8.26573 37.9607 8.87651 37.6426 9.19462C37.3245 9.51274 36.7646 9.9072 36.3956 10.0726C36.0393 10.238 35.6321 10.4035 35.5176 10.4544C35.314 10.518 35.2886 10.7088 35.2886 13.3301L36.0266 13.4065C36.4211 13.4446 37.35 13.5846 38.088 13.7118C38.826 13.8518 40.0221 14.1699 40.7601 14.4244C41.4982 14.6789 42.6688 15.1752 43.3687 15.5187C44.0685 15.875 44.9847 16.3967 45.4046 16.6767C45.8245 16.9566 46.5625 17.5038 47.9113 18.6108L52.9757 13.521L52.6067 12.8211C52.3904 12.4394 52.1359 11.7777 52.0341 11.3578C51.9196 10.9379 51.8305 10.2762 51.8305 9.89447C51.8305 9.51274 51.9196 8.86378 52.0214 8.4566C52.1232 8.06214 52.3649 7.42591 52.5431 7.06962C52.734 6.70061 53.2302 6.05165 53.6628 5.61902C54.1591 5.13548 54.7444 4.70285 55.2661 4.44836C55.7242 4.23204 56.4623 3.99027 56.9203 3.91393C57.3784 3.82485 58.0656 3.79941 58.4473 3.83758C58.829 3.87575 59.4653 4.01572 59.847 4.14297C60.2287 4.28294 60.7759 4.52471 61.0558 4.70285C61.3358 4.88099 61.7811 5.21183 62.0611 5.4536C62.3283 5.69537 62.7482 6.20435 63.0027 6.58609C63.2444 6.96782 63.5626 7.60405 63.6898 7.98579C63.8171 8.36753 63.957 9.00375 63.9952 9.38549C64.0334 9.76723 64.0079 10.4544 63.9189 10.9124C63.8425 11.3705 63.6007 12.1085 63.3844 12.5666C63.1299 13.0883 62.6973 13.6737 62.2138 14.1699C61.7811 14.6026 61.1322 15.0988 60.7759 15.2897C60.4069 15.4678 59.7706 15.7096 59.3762 15.8114C58.969 15.9132 58.32 16.0023 57.9383 16.0023C57.5566 16.0023 56.8949 15.9132 56.475 15.7987C56.0551 15.6969 55.3934 15.4424 54.3118 14.8571L49.222 19.9342L49.9346 20.7994C50.329 21.2702 50.9143 22.0719 51.2325 22.5554C51.5378 23.039 52.0596 23.9678 52.3777 24.5914C52.6958 25.2149 53.1539 26.3346 53.4084 27.0726C53.6628 27.8107 53.9937 29.0322 54.1209 29.8084C54.2609 30.5846 54.4009 31.539 54.5027 32.6715H57.3021L57.4929 32.0734C57.5947 31.7298 57.862 31.1827 58.091 30.8391C58.32 30.4956 58.7145 30.0629 58.9563 29.8593C59.198 29.6685 59.7197 29.3631 60.1015 29.1849C60.4832 29.0068 61.1449 28.8286 61.5648 28.7777C62.0992 28.7268 62.5828 28.765 63.1554 28.9177C63.6135 29.0322 64.237 29.274 64.5424 29.4649C64.8605 29.6557 65.3567 30.1011 65.6621 30.4447C65.9802 30.8009 66.3492 31.399 66.5019 31.7807C66.7055 32.3152 66.7819 32.7351 66.7692 33.5622C66.7692 34.3638 66.6928 34.8219 66.4892 35.3436C66.3365 35.7253 65.9675 36.3361 65.6621 36.6797C65.3567 37.036 64.8605 37.4686 64.5424 37.6595C64.237 37.8504 63.6135 38.0921 63.1554 38.2066C62.5828 38.3593 62.0992 38.3975 61.5648 38.3466C61.1322 38.2957 60.4578 38.1048 60.0124 37.8885C59.567 37.6722 58.9563 37.2523 58.6382 36.9342C58.32 36.6161 57.9256 36.0562 57.7602 35.6999C57.5947 35.3309 57.4293 34.9237 57.3784 34.8092C57.3148 34.6056 57.1239 34.5801 54.5027 34.5801L54.439 35.1909C54.4009 35.5218 54.2864 36.3616 54.1718 37.0614C54.0573 37.7613 53.7519 38.9956 53.4847 39.7972C53.2302 40.5989 52.734 41.8077 52.4031 42.4694C52.0723 43.131 51.5378 44.0727 51.2325 44.5689C50.9143 45.0652 50.329 45.8541 49.222 47.1902L54.3118 52.2673L55.0117 51.8983C55.3934 51.682 56.0551 51.4275 56.475 51.3257C56.8949 51.2112 57.5566 51.1221 57.9383 51.1221C58.32 51.1221 58.9817 51.2112 59.4016 51.3257C59.8215 51.4275 60.2923 51.6438 60.4578 51.7965C60.6105 51.9492 60.7377 52.2037 60.7377 52.3691C60.7377 52.5218 60.6868 52.7635 60.6105 52.9035C60.5341 53.0435 60.3432 53.2089 60.1651 53.2853C59.9361 53.3743 59.6561 53.3616 59.1217 53.2089C58.6382 53.0689 58.1164 53.018 57.6202 53.0562C57.2003 53.0944 56.6022 53.2344 56.2841 53.3743C55.966 53.5016 55.4316 53.8706 55.1007 54.1887C54.7572 54.4941 54.3245 55.0667 54.1464 55.4484C53.8537 56.0338 53.8028 56.3137 53.8028 57.2299C53.8028 58.0824 53.8664 58.426 54.0828 58.8841C54.2355 59.2022 54.579 59.7112 54.8462 60.0166C55.1389 60.3474 55.6479 60.7291 56.1569 60.9709C56.8567 61.3017 57.1112 61.3654 57.9383 61.3654C58.6763 61.3526 59.0453 61.289 59.5925 61.0345C59.9742 60.8564 60.5468 60.4619 60.865 60.1565C61.1703 59.8384 61.5648 59.2658 61.743 58.8841C61.9465 58.4005 62.0483 57.9424 62.0611 57.4207C62.0611 57.0008 62.0229 56.3392 61.9593 55.9574C61.8575 55.3339 61.8702 55.2321 62.112 54.9649C62.2986 54.7783 62.5404 54.685 62.8373 54.685C63.1808 54.685 63.3462 54.774 63.5371 55.0412C63.6771 55.2321 63.8552 55.7793 63.9316 56.2755C64.0079 56.7845 64.0334 57.4716 63.9825 57.8661C63.9316 58.2478 63.7916 58.8586 63.6771 59.2022C63.5498 59.5585 63.2444 60.1565 63.0027 60.5383C62.7482 60.92 62.3283 61.429 62.0611 61.6707C61.7811 61.9125 61.3358 62.2434 61.0558 62.4215C60.7759 62.5996 60.2287 62.8414 59.847 62.9814C59.4653 63.1086 58.829 63.2486 58.4473 63.2868C58.0656 63.3249 57.3784 63.2995 56.9203 63.2104C56.4623 63.1341 55.7242 62.8923 55.2661 62.676C54.7444 62.4215 54.1591 61.9889 53.6628 61.5053C53.2302 61.0727 52.734 60.4237 52.5431 60.0675C52.3649 59.6984 52.1232 59.0622 52.0214 58.6678C51.9196 58.2606 51.8305 57.6116 51.8305 57.2299C51.8305 56.8481 51.9196 56.1865 52.0341 55.7665C52.1359 55.3466 52.3904 54.685 52.9757 53.6034L47.9113 48.5135L47.0461 49.2261C46.5625 49.6206 45.8245 50.1677 45.4046 50.4477C44.9847 50.7276 44.0431 51.262 43.3051 51.6311C42.567 52.0001 41.3073 52.5218 40.5056 52.7763C39.704 53.0435 38.4697 53.3489 37.7699 53.4634C37.07 53.5779 36.2302 53.6924 35.2886 53.7942V55.1939C35.2886 56.4155 35.314 56.6064 35.5176 56.67C35.6321 56.7209 36.0393 56.8863 36.4083 57.0517C36.7646 57.2171 37.3245 57.6116 37.6426 57.9297C37.9607 58.2478 38.3806 58.8586 38.597 59.304C38.8133 59.7493 39.0041 60.4237 39.055 60.8564C39.1059 61.3908 39.0678 61.8743 38.9278 62.4469C38.8006 62.905 38.5461 63.5285 38.3425 63.8466C38.1516 64.1648 37.7444 64.6356 37.4645 64.9028C37.1718 65.1573 36.7901 65.4499 36.5992 65.5517C36.3956 65.6535 35.9884 65.819 35.6703 65.9335C35.3522 66.048 34.7287 66.1371 34.2706 66.1371C33.6726 66.1371 33.2145 66.048 32.6164 65.819C32.1583 65.6408 31.5348 65.2718 31.2294 65.0173C30.9113 64.7628 30.4787 64.2538 30.2496 63.9103C30.0079 63.554 29.7279 62.905 29.6134 62.4469C29.4734 61.8743 29.4353 61.3781 29.4862 60.8564C29.5371 60.4237 29.7279 59.7493 29.9443 59.2913C30.1606 58.8586 30.5678 58.2606 30.8731 57.9552C31.1658 57.6498 31.7257 57.2553 32.1074 57.0772C32.4892 56.899 32.9091 56.7082 33.0363 56.67C33.2272 56.6064 33.2526 56.4155 33.2526 53.7942L32.6546 53.7306C32.311 53.6924 31.4712 53.5779 30.7714 53.4634C30.0715 53.3489 28.8372 53.0435 28.0356 52.7763C27.2339 52.5218 26.0251 52.0255 25.3634 51.6947C24.7017 51.3638 23.7601 50.8294 23.2639 50.5113C22.7803 50.1932 21.9787 49.6206 20.6426 48.5135L15.5655 53.6034L15.9345 54.3032C16.1508 54.685 16.4053 55.3466 16.5071 55.7665C16.6216 56.1865 16.7107 56.8481 16.7107 57.2299C16.7107 57.6116 16.6216 58.2606 16.5198 58.6678C16.418 59.0622 16.1763 59.6984 15.9981 60.0675C15.8073 60.4237 15.311 61.0727 14.8784 61.5053C14.3821 61.9889 13.7968 62.4215 13.2751 62.676C12.817 62.8923 12.079 63.1341 11.6209 63.2104C11.1628 63.2995 10.4757 63.3249 10.0939 63.2868C9.71219 63.2486 9.07596 63.1086 8.69422 62.9814C8.31249 62.8414 7.76533 62.5996 7.48539 62.4215C7.20545 62.2434 6.76009 61.9125 6.48015 61.6707C6.21293 61.429 5.79302 60.92 5.53853 60.5383C5.29676 60.1565 4.97865 59.5203 4.8514 59.1386C4.72416 58.7568 4.58419 58.1206 4.54601 57.7389C4.50784 57.3571 4.53329 56.67 4.62236 56.2119C4.69871 55.7538 4.94047 55.0158 5.15679 54.5577C5.41128 54.036 5.84392 53.4507 6.32745 52.9544C6.76009 52.5218 7.40904 52.0255 7.77805 51.8347C8.13434 51.6565 8.77057 51.4147 9.17776 51.3129C9.57222 51.2112 10.2212 51.1221 10.6029 51.1221C10.9846 51.1221 11.6463 51.2112 12.0662 51.3257C12.4861 51.4275 13.1478 51.682 14.2294 52.2673L19.3192 47.1902L18.6067 46.3249C18.2122 45.8541 17.6269 45.0652 17.3088 44.5689C17.0034 44.0727 16.4817 43.1565 16.1635 42.533C15.8454 41.9095 15.3873 40.7897 15.1329 40.0517C14.8784 39.3137 14.5602 38.1176 14.4203 37.3795C14.293 36.6415 14.1531 35.7126 14.0385 34.5801H12.6388C11.4173 34.5801 11.2264 34.6056 11.1628 34.8092C11.1119 34.9237 10.9465 35.3309 10.7811 35.6999C10.6156 36.0562 10.2212 36.6161 9.90306 36.9342C9.58494 37.2523 8.97416 37.6722 8.54153 37.8885C8.08344 38.1048 7.40904 38.2957 6.97641 38.3466C6.44197 38.3975 5.95844 38.3593 5.38583 38.2194C4.92775 38.0921 4.2788 37.8249 3.93523 37.5959C3.59167 37.3668 3.08269 36.9342 2.81547 36.6161C2.53553 36.298 2.19197 35.7253 2.03927 35.3436C1.82296 34.8092 1.75933 34.3893 1.77206 33.5622C1.77206 32.7732 1.8484 32.2897 2.052 31.7807C2.19197 31.399 2.53553 30.8264 2.81547 30.5083C3.08269 30.1902 3.59167 29.7575 3.93523 29.5285C4.2788 29.2994 4.92775 29.0322 5.38583 28.905C5.95844 28.765 6.44197 28.7268 6.97641 28.7777C7.39632 28.8286 8.05799 29.0068 8.43973 29.1849C8.82147 29.3631 9.34318 29.6685 9.58494 29.8593C9.82671 30.0629 10.2212 30.4956 10.4502 30.8391C10.6793 31.1827 10.9465 31.7298 11.2391 32.6715H14.0385L14.1149 31.8189C14.1531 31.3354 14.3058 30.3556 14.4457 29.6176C14.5857 28.8795 14.9038 27.7089 15.1456 27.009C15.3873 26.3092 15.8454 25.2149 16.1635 24.5914C16.4817 23.9678 17.0034 23.039 17.3088 22.5554C17.6269 22.0719 18.2122 21.2702 19.3192 19.9342L14.2294 14.8571L13.5296 15.2261C13.1478 15.4424 12.4861 15.6969 12.0662 15.7987C11.6463 15.9132 10.9846 16.0023 10.6029 16.0023C10.2212 16.0023 9.57222 15.9132 9.17776 15.8114C8.77057 15.7096 8.13434 15.4678 7.77805 15.2897C7.40904 15.0988 6.76009 14.6026 6.32745 14.1699C5.84392 13.6737 5.41128 13.0883 5.15679 12.5666C4.94047 12.1085 4.69871 11.3705 4.62236 10.9124C4.53329 10.4544 4.50784 9.76723 4.54601 9.38549C4.58419 9.00375 4.72416 8.36753 4.8514 7.98579C4.97865 7.60405 5.30949 6.94237 5.58943 6.53519C5.85664 6.11528 6.34018 5.5554 6.65829 5.28818C6.97641 5.02096 7.52356 4.65195 7.86713 4.47381C8.22341 4.30839 8.7324 4.13024 9.01234 4.09207C9.39407 4.02845 9.59767 4.07935 9.82671 4.24477C10.0176 4.39746 10.1321 4.6265 10.1448 4.88099C10.1448 5.09731 10.0685 5.37725 9.96668 5.5045C9.86488 5.61902 9.43225 5.87351 9.01234 6.06438C8.59243 6.25525 7.99437 6.66243 7.67626 6.96782C7.37087 7.28594 6.97641 7.85854 6.79826 8.24028C6.54377 8.78744 6.48015 9.15645 6.46742 9.89447C6.46742 10.7216 6.53105 10.9761 6.86188 11.6759C7.10365 12.1849 7.48539 12.6939 7.81623 12.9865C8.12162 13.2538 8.6306 13.5973 8.94871 13.75C9.4068 13.9663 9.73764 14.03 10.6029 14.03C11.4173 14.03 11.8245 13.9663 12.2571 13.7627C12.5752 13.6228 13.1096 13.2538 13.4405 12.9356C13.7841 12.6303 14.2167 12.0577 14.3948 11.6759C14.6875 11.0779 14.7384 10.8106 14.7257 9.89447C14.7257 9.0292 14.662 8.68564 14.4203 8.17666C14.2549 7.83309 13.7459 7.17142 13.2878 6.71333C12.5625 5.96258 12.4861 5.84806 12.5625 5.5045C12.6007 5.3009 12.7661 5.02096 12.9315 4.89372C13.0842 4.76647 13.326 4.66468 13.4659 4.66468C13.6059 4.66468 13.9495 4.8301 14.2294 5.03369C14.5094 5.23728 14.9547 5.63174 15.2219 5.92441C15.4764 6.21707 15.8327 6.75151 16.0108 7.09507C16.189 7.45136 16.418 8.06214 16.5198 8.46932C16.6216 8.86378 16.7107 9.51274 16.7107 9.89447C16.7107 10.2762 16.6216 10.9379 16.5071 11.3578C16.4053 11.7777 16.1508 12.4394 15.5655 13.521L20.6426 18.6108L21.5079 17.8982C21.9787 17.5038 22.7803 16.9184 23.2639 16.6003C23.7601 16.2949 24.6763 15.7732 25.2998 15.4551C25.9233 15.137 27.0431 14.6789 27.7811 14.4244C28.5191 14.1699 29.7152 13.8518 30.4532 13.7118C31.1913 13.5846 32.1202 13.4446 33.2526 13.3301V11.9304C33.2526 10.7088 33.2272 10.518 33.0363 10.4544C32.9091 10.4162 32.4892 10.2253 32.1074 10.0472C31.7257 9.86902 31.1658 9.47456 30.8731 9.16917C30.5678 8.86378 30.1606 8.26573 29.9443 7.83309C29.7279 7.37501 29.5371 6.70061 29.4862 6.26797C29.4353 5.73354 29.4734 5.25001 29.6134 4.6774C29.7407 4.21932 30.0079 3.57036 30.2369 3.2268C30.466 2.88324 30.8986 2.37425 31.2167 2.10704C31.5348 1.83982 32.1329 1.48353 32.5528 1.31811C33.0872 1.1018 33.5962 1.01272 34.207 1V1ZM31.8784 4.23204C31.6493 4.58833 31.433 5.09731 31.3949 5.37725C31.344 5.66992 31.3949 6.1789 31.5094 6.58609C31.6621 7.15869 31.8275 7.40046 32.3874 7.89672C32.8836 8.34208 33.2272 8.53295 33.6726 8.62202C34.0543 8.71109 34.4869 8.71109 34.8814 8.62202C35.314 8.53295 35.6576 8.34208 36.1538 7.89672C36.7137 7.40046 36.8791 7.15869 37.0318 6.58609C37.1464 6.1789 37.1973 5.66992 37.1464 5.37725C37.1082 5.09731 36.8919 4.58833 36.6628 4.23204C36.3574 3.76123 36.052 3.50674 35.5431 3.23952C35.085 3.01048 34.6396 2.89596 34.2706 2.89596C33.9016 2.89596 33.4562 3.01048 32.9981 3.23952C32.4892 3.50674 32.1838 3.76123 31.8784 4.23204V4.23204ZM55.7751 6.35704C55.3934 6.58609 54.8717 7.0569 54.6045 7.41318C54.3373 7.76947 54.0191 8.36753 53.9046 8.74926C53.7774 9.20735 53.7265 9.71633 53.7646 10.2126C53.8028 10.6325 53.9428 11.2306 54.0828 11.5487C54.21 11.8668 54.579 12.4012 54.8971 12.7321C55.2025 13.0756 55.7751 13.5083 56.1569 13.6864C56.7549 13.9791 57.0221 14.03 57.9383 14.03C58.7909 14.03 59.1471 13.9663 59.5925 13.75C59.9106 13.5846 60.4196 13.2538 60.725 12.9865C61.0558 12.6939 61.4248 12.1849 61.6793 11.6759C62.0102 10.9761 62.0738 10.7216 62.0738 9.89447C62.0611 9.15645 61.9974 8.78744 61.743 8.24028C61.5648 7.85854 61.1703 7.28594 60.865 6.96782C60.5468 6.66243 59.9997 6.2807 59.6561 6.11528C59.2998 5.96258 58.6763 5.79716 58.2564 5.77171C57.8365 5.73354 57.2639 5.75899 56.984 5.82261C56.704 5.89896 56.1569 6.14073 55.7751 6.35704V6.35704ZM29.9443 15.7605C29.3462 15.9132 28.341 16.2313 27.7175 16.4731C27.0939 16.7148 26.1142 17.1602 25.5543 17.4656C24.9944 17.7583 24.0528 18.369 23.4547 18.8017C22.8567 19.247 21.826 20.1505 21.1643 20.8249C20.4772 21.512 19.5737 22.6063 19.1029 23.3189C18.6321 24.0187 18.0213 25.0749 17.7414 25.6729C17.4615 26.271 17.067 27.2762 16.8634 27.8997C16.6471 28.5232 16.3799 29.5667 16.2526 30.1902C16.0745 31.03 16.0236 31.9207 16.0236 33.5622C16.0236 35.2036 16.0745 36.0944 16.2526 36.9342C16.3799 37.5577 16.6471 38.6011 16.8634 39.2246C17.067 39.8481 17.4615 40.8534 17.7414 41.4514C18.0213 42.0495 18.6321 43.1056 19.1029 43.8055C19.6246 44.6071 20.439 45.5742 21.2915 46.414C22.0296 47.152 23.1493 48.1064 23.7728 48.5517C24.3963 48.9971 25.4907 49.6333 26.1905 49.9769C26.8904 50.3204 27.9847 50.7658 28.6082 50.9821C29.2317 51.1857 30.2751 51.4529 30.8986 51.5802C31.7384 51.7583 32.6291 51.8092 34.2706 51.8092C35.9121 51.8092 36.8028 51.7583 37.6426 51.5802C38.2661 51.4529 39.3095 51.1857 39.933 50.9694C40.5565 50.7658 41.5618 50.3713 42.1598 50.0914C42.7579 49.8114 43.814 49.2007 44.5139 48.7299C45.2646 48.2336 46.3081 47.3556 47.0715 46.6049C47.7714 45.905 48.6494 44.9379 49.0057 44.4417C49.3619 43.9454 49.9473 43.0293 50.2908 42.4057C50.6344 41.7822 51.1052 40.8152 51.3088 40.268C51.5251 39.7336 51.8432 38.7538 52.0087 38.1048C52.1741 37.4686 52.3904 36.3361 52.4667 35.5981C52.5685 34.8092 52.594 33.6385 52.5558 32.7351C52.5176 31.8953 52.3904 30.7246 52.2759 30.1265C52.1486 29.5285 51.8941 28.5232 51.6778 27.8997C51.4742 27.2762 51.0798 26.271 50.7998 25.6729C50.5199 25.0749 49.9091 24.0187 49.4383 23.3189C48.9039 22.5045 48.0895 21.5375 47.186 20.6467C46.2953 19.7433 45.3283 18.9289 44.5139 18.3945C43.814 17.9237 42.6943 17.2874 42.0326 16.9821C41.3709 16.6639 40.3402 16.2568 39.7422 16.0786C39.1441 15.9005 38.2279 15.6587 37.7062 15.5569C37.1845 15.4424 35.8612 15.3406 34.7796 15.3024C33.698 15.277 32.4001 15.3024 31.9166 15.3788C31.4203 15.4424 30.5423 15.6205 29.9443 15.7605V15.7605ZM4.68598 31.3354C4.39332 31.5644 4.0752 31.9843 3.89706 32.3533C3.73164 32.7096 3.60439 33.2441 3.60439 33.5622C3.60439 33.9439 3.71892 34.3765 3.94796 34.8346C4.21517 35.3436 4.46967 35.649 4.94047 35.9544C5.28404 36.1834 5.80575 36.3998 6.08569 36.4379C6.37835 36.4888 6.88733 36.4379 7.29452 36.3234C7.86713 36.1707 8.10889 36.0053 8.60515 35.4454C9.05051 34.9492 9.24138 34.6056 9.33045 34.1602C9.41952 33.7785 9.41952 33.3459 9.33045 32.9514C9.24138 32.5188 9.05051 32.1752 8.60515 31.6789C8.13434 31.1445 7.8544 30.9536 7.35814 30.8137C7.00185 30.7119 6.58194 30.6355 6.4038 30.6355C6.22566 30.6482 5.88209 30.7119 5.64033 30.8009C5.38583 30.89 4.96592 31.1191 4.68598 31.3354V31.3354ZM60.2924 31.2463C60.1524 31.3608 59.8852 31.6662 59.6943 31.908C59.5034 32.1497 59.2998 32.6206 59.2235 32.9514C59.1217 33.3586 59.1217 33.7658 59.2108 34.1602C59.2998 34.6056 59.4907 34.9492 59.9361 35.4454C60.4323 36.0053 60.6741 36.1707 61.2467 36.3234C61.6539 36.4379 62.1629 36.4888 62.4555 36.4379C62.7355 36.3998 63.2445 36.1834 63.6007 35.9544C64.0715 35.649 64.326 35.3436 64.5933 34.8346C64.8223 34.3765 64.9368 33.9439 64.9368 33.5622C64.9368 33.2441 64.8096 32.7096 64.6442 32.3533C64.466 31.9843 64.1479 31.5644 63.8552 31.3354C63.5753 31.1191 63.1554 30.89 62.9009 30.8009C62.6591 30.7119 62.2774 30.6482 62.0738 30.6482C61.8575 30.6482 61.4376 30.7373 61.1194 30.8391C60.8013 30.9409 60.4323 31.1191 60.2924 31.2463V31.2463ZM8.12162 53.896C7.76533 54.1633 7.29452 54.685 7.06548 55.0667C6.84916 55.4484 6.59467 56.0847 6.51832 56.4664C6.44197 56.8481 6.41652 57.4207 6.46742 57.7389C6.5056 58.057 6.67102 58.5914 6.83644 58.9477C6.98913 59.2913 7.37087 59.8384 7.67626 60.1565C7.99437 60.4619 8.56698 60.8564 8.94871 61.0345C9.49587 61.289 9.86488 61.3526 10.6029 61.3654C11.43 61.3654 11.6845 61.3017 12.3843 60.9709C12.8933 60.7164 13.4023 60.3474 13.695 60.0166C13.9622 59.7112 14.293 59.2022 14.4585 58.8841C14.6748 58.4387 14.7384 58.0824 14.7384 57.2299C14.7384 56.3137 14.6875 56.0465 14.3948 55.4484C14.2167 55.0667 13.7841 54.4941 13.4405 54.1887C13.1096 53.8706 12.5752 53.5016 12.2571 53.3616C11.9263 53.2216 11.3155 53.0944 10.7938 53.0689C10.2466 53.0435 9.68674 53.1071 9.33045 53.2216C9.01234 53.3234 8.46518 53.6288 8.12162 53.896ZM32.591 58.9859C32.3365 59.1767 32.0184 59.5076 31.8657 59.7112C31.7257 59.9148 31.5348 60.411 31.4585 60.7928C31.3567 61.3017 31.344 61.6326 31.4458 62.0016C31.5221 62.2815 31.7639 62.7523 31.9802 63.045C32.222 63.4013 32.591 63.7067 33.0236 63.9103C33.4308 64.1011 33.927 64.2284 34.2706 64.2284C34.6523 64.2284 35.085 64.1139 35.5431 63.8848C36.052 63.6176 36.3574 63.3631 36.6628 62.8923C36.8919 62.536 37.1082 62.027 37.1464 61.7471C37.1973 61.4544 37.1464 60.9454 37.0318 60.5383C36.8791 59.9657 36.7137 59.7239 36.1538 59.2276C35.6576 58.7823 35.314 58.5914 34.8687 58.5023C34.5378 58.426 34.2324 58.3751 34.1688 58.3878C34.1179 58.4005 33.8507 58.4514 33.5708 58.5278C33.2908 58.5914 32.8582 58.795 32.591 58.9859V58.9859ZM34.9068 19.7942C35.2886 19.8196 36.0648 19.9978 36.6247 20.1887C37.1845 20.3795 37.9862 20.7613 38.3934 21.0285C38.8133 21.3084 39.4241 21.8556 39.7676 22.2373C40.1112 22.619 40.582 23.3062 40.811 23.7643C41.0401 24.2223 41.3327 25.0494 41.46 25.6093C41.6254 26.3601 41.6636 26.8945 41.6127 27.6452C41.5745 28.2051 41.4218 28.9813 41.2946 29.3631C41.1546 29.7448 40.9256 30.3047 40.7729 30.5973C40.6329 30.9027 40.2512 31.4626 39.933 31.8444C39.6149 32.2261 39.3986 32.5697 39.4495 32.6078C39.5131 32.646 39.8821 32.6715 40.2766 32.6715C40.6838 32.6715 41.3455 32.7732 41.7399 32.9005C42.1471 33.0277 42.7579 33.3077 43.1142 33.524C43.4577 33.7403 44.0176 34.2111 44.3485 34.5674C44.692 34.9237 45.1756 35.6617 45.9136 37.1887L45.939 40.9679C45.9772 44.6071 45.9645 44.7725 45.7227 45.0143C45.481 45.2561 45.3028 45.2688 36.052 45.2688L35.7976 44.9125C35.6449 44.7216 35.5303 44.4671 35.5431 44.3399C35.5431 44.2254 35.5812 44.0345 35.6321 43.92C35.6958 43.8055 35.8866 43.6273 36.0775 43.5382C36.3065 43.4237 36.8664 43.3601 38.7242 43.3601V42.4057C38.7242 41.5659 38.7624 41.4132 39.0423 41.1333C39.2077 40.9551 39.5004 40.8152 39.6785 40.8152C39.8567 40.8152 40.1366 40.9551 40.3148 41.1333C40.5947 41.4132 40.6329 41.5532 40.6329 43.3601H44.0685V40.6243C44.0685 38.2194 44.0431 37.8122 43.8268 37.2141C43.6868 36.8578 43.3432 36.298 43.076 35.9798C42.7961 35.6617 42.2744 35.2291 41.2055 34.6438H27.3357L26.6486 35.0255C26.2669 35.2291 25.7451 35.6617 25.4652 35.9798C25.198 36.298 24.8544 36.8578 24.7145 37.2141C24.4981 37.8122 24.4727 38.2194 24.4727 43.3601H27.9083V42.4057C27.9083 41.5659 27.9465 41.4132 28.2264 41.1333C28.3919 40.9551 28.6845 40.8152 28.8627 40.8152C29.0408 40.8152 29.3207 40.9551 29.4989 41.1333C29.7788 41.4132 29.817 41.5532 29.817 43.3601H30.9622C31.6748 43.3601 32.2347 43.4237 32.451 43.5382C32.6546 43.6273 32.8455 43.8055 32.8964 43.92C32.96 44.0345 32.9981 44.2254 32.9981 44.3399C33.0109 44.4671 32.8964 44.7216 32.4892 45.2688H27.7811C23.2384 45.2688 23.0603 45.2561 22.8185 45.0143C22.5767 44.7725 22.564 44.6071 22.6276 37.1887L23.0984 36.1962C23.3657 35.6617 23.8492 34.9237 24.18 34.5674C24.5236 34.2111 25.0707 33.7403 25.427 33.524C25.7706 33.3077 26.3941 33.0277 26.7886 32.9005C27.1957 32.7732 27.8574 32.6715 28.2646 32.6715C28.6718 32.6715 29.0535 32.646 29.0917 32.6078C29.1426 32.5697 28.9263 32.2261 28.6082 31.8444C28.2901 31.4626 27.9083 30.9027 27.7684 30.5973C27.6157 30.3047 27.3866 29.7448 27.2466 29.3631C27.1194 28.9813 26.9667 28.2051 26.9285 27.6452C26.8776 26.8945 26.9158 26.3601 27.0812 25.6093C27.2085 25.0494 27.5011 24.2223 27.7302 23.7643C27.9592 23.3062 28.43 22.619 28.7736 22.2373C29.1172 21.8556 29.7279 21.3084 30.1478 21.0285C30.555 20.7613 31.2676 20.3922 31.7257 20.2268C32.1838 20.0614 32.9218 19.8833 33.3799 19.8324C33.838 19.7942 34.5251 19.7687 34.9068 19.7942V19.7942ZM31.1913 22.6445C30.7968 22.9117 30.2496 23.4207 29.9697 23.7897C29.6898 24.1587 29.3335 24.7822 29.1808 25.164C29.0281 25.5457 28.8754 26.2328 28.8372 26.6909C28.799 27.149 28.8245 27.8234 28.9136 28.1797C28.9899 28.5487 29.2062 29.1849 29.3971 29.5794C29.6007 29.9738 30.0333 30.5973 30.3896 30.9536C30.7714 31.3481 31.3821 31.7807 31.9166 32.0479C32.7691 32.4679 32.8582 32.4806 34.2706 32.4806C35.683 32.4806 35.7721 32.4679 36.6247 32.0479C37.1591 31.7807 37.7699 31.3481 38.1516 30.9536C38.4952 30.5973 38.9405 29.9993 39.1314 29.6176C39.3095 29.2358 39.5259 28.6632 39.6022 28.3451C39.6785 28.027 39.7422 27.4798 39.7422 27.1363C39.7422 26.78 39.6785 26.2455 39.6022 25.9274C39.5259 25.6093 39.3095 25.0367 39.1314 24.655C38.9405 24.2732 38.4952 23.6752 38.1516 23.3189C37.7699 22.9244 37.1591 22.4918 36.6247 22.2246C35.823 21.8301 35.6194 21.7919 34.4615 21.7538C33.4944 21.7283 33.0363 21.7792 32.5401 21.9446C32.1965 22.0719 31.5857 22.39 31.1913 22.6445V22.6445Z" fill="white" stroke="#FAB100" stroke-width="2"/>
</svg>
