<svg width="66" height="66" viewBox="0 0 66 66" fill="none" xmlns="http://www.w3.org/2000/svg">
<path d="M56.868 40.7208C57.6749 38.231 58.0847 35.6344 58.0847 32.9884C58.0847 30.3521 57.6778 27.7647 56.8759 25.2828C58.6395 24.6207 60.243 23.5606 61.5744 22.1509C63.8753 19.7159 65.0895 16.5303 64.9938 13.1822C64.7955 6.26954 59.0097 0.808105 52.0943 1.00537C48.7448 1.10107 45.6336 2.49512 43.3327 4.93067C42.1707 6.16066 41.2867 7.58205 40.7079 9.11916C38.2249 8.31789 35.6368 7.91115 32.9988 7.91115C30.3595 7.91115 27.7694 8.31887 25.2848 9.12111C23.4929 4.38038 18.9067 1 13.5449 1C6.62749 1 1 6.62599 1 13.541C1 18.9009 4.38177 23.4854 9.12377 25.2764C8.32082 27.7608 7.91348 30.3502 7.91348 32.9884C7.91348 35.6344 8.32326 38.231 9.13012 40.7208C4.3847 42.5104 1 47.0968 1 52.4591C1 54.3468 1.40929 56.1618 2.21664 57.8532C2.43984 58.3205 2.99956 58.5187 3.46697 58.2956C3.93389 58.0724 4.13219 57.5128 3.90947 57.0456C3.22325 55.608 2.8755 54.0651 2.8755 52.4591C2.8755 46.5782 7.66195 41.7936 13.5449 41.7936C19.4283 41.7936 24.2147 46.5782 24.2147 52.4591C24.2147 58.3405 19.4283 63.1252 13.5449 63.1252C10.8615 63.1252 8.29688 62.1256 6.3237 60.3107C5.94225 59.9601 5.34883 59.985 4.99863 60.3659C4.64795 60.7472 4.67237 61.34 5.05382 61.6906C7.37427 63.8249 10.3897 65.0002 13.5449 65.0002C18.9145 65.0002 23.5065 61.6095 25.2927 56.8581C27.7743 57.6588 30.3619 58.0656 32.9988 58.0656C35.6363 58.0656 38.2244 57.6588 40.706 56.8585C42.4921 61.61 47.0842 65.0002 52.4538 65.0002C59.3712 65.0002 64.9987 59.3742 64.9987 52.4591C64.9987 47.0968 61.614 42.5099 56.868 40.7208ZM44.6963 6.21779C46.6529 4.14649 49.2996 2.96094 52.1485 2.8794C52.2521 2.87647 52.3546 2.875 52.4582 2.875C58.2009 2.875 62.9537 7.46047 63.1188 13.2354C63.2003 16.083 62.1678 18.792 60.2112 20.8638C58.2547 22.9351 55.6079 24.1207 52.759 24.2022C52.6555 24.2051 52.5524 24.2066 52.4494 24.2066C46.7066 24.2066 41.9539 19.6211 41.7888 13.8462C41.7067 10.9986 42.7397 8.28908 44.6963 6.21779ZM40.18 55.0578C37.8693 55.8087 35.458 56.1906 32.9988 56.1906C30.5407 56.1906 28.1294 55.8087 25.8187 55.0578C25.996 54.2189 26.0902 53.3497 26.0902 52.4591C26.0902 45.5441 20.4623 39.9186 13.5449 39.9186C12.6486 39.9186 11.7744 40.0138 10.9309 40.193C10.1734 37.8746 9.78898 35.4552 9.78898 32.9884C9.78898 30.5294 10.1714 28.1177 10.9241 25.8052C11.7695 25.9859 12.6462 26.0816 13.5449 26.0816C15.6939 26.0816 17.8141 25.5289 19.6774 24.4835C20.1287 24.23 20.2894 23.6587 20.0359 23.2071C19.7824 22.7554 19.211 22.5953 18.7592 22.8487C17.1757 23.7369 15.3725 24.2066 13.5449 24.2066C7.66146 24.2066 2.8755 19.4219 2.8755 13.5406C2.8755 7.65968 7.66195 2.875 13.5449 2.875C19.4283 2.875 24.2147 7.65968 24.2147 13.541C24.2147 16.0015 23.3566 18.4019 21.7986 20.3008C21.4699 20.7007 21.5285 21.2916 21.929 21.6202C22.329 21.9483 22.92 21.8902 23.2487 21.4898C25.0807 19.2569 26.0902 16.4336 26.0902 13.5406C26.0902 12.6426 25.994 11.7661 25.8138 10.9209C28.1264 10.1685 30.5392 9.78615 32.9988 9.78615C35.458 9.78615 37.8698 10.168 40.1814 10.9195C39.9768 11.8872 39.885 12.8858 39.9138 13.8999C40.1087 20.6905 45.6961 26.0821 52.4489 26.0816C52.5695 26.0816 52.6911 26.0801 52.8128 26.0762C53.5815 26.0543 54.3376 25.963 55.0746 25.8072C55.8268 28.1187 56.2092 30.5303 56.2092 32.9884C56.2092 35.4552 55.8243 37.8746 55.0673 40.193C54.2238 40.0133 53.3495 39.9186 52.4538 39.9186C45.5364 39.9186 39.9089 45.5441 39.9089 52.4591C39.9089 53.3502 40.0027 54.2194 40.18 55.0578ZM52.4538 63.1252C46.5704 63.1252 41.7844 58.3405 41.7844 52.4596C41.7844 46.5782 46.5704 41.7936 52.4538 41.7936C58.3372 41.7936 63.1231 46.5782 63.1231 52.4596C63.1231 58.3405 58.3372 63.1252 52.4538 63.1252Z" fill="#1294F2" stroke="#1294F2"/>
<path d="M19.9298 8.00774C19.6065 7.78801 19.181 7.79143 18.8616 8.01702C18.5422 8.24211 18.2003 8.4301 17.8408 8.57903C16.5524 7.57121 14.6852 7.58293 13.4061 8.69475C12.7413 9.27288 12.3257 10.0722 12.229 10.9355C10.8531 10.7309 9.60962 9.97356 8.79397 8.81243C8.59958 8.53606 8.27137 8.38616 7.93583 8.41838C7.59932 8.4511 7.30676 8.66204 7.16951 8.97063C7.14265 9.03118 6.51162 10.4726 6.59221 12.2368C6.65375 13.5869 7.13679 15.3271 8.89849 16.6708C8.26404 16.8754 7.59394 16.9702 6.92628 16.9433C6.4916 16.9262 6.10331 17.2089 5.98609 17.6269C5.86887 18.0449 6.05398 18.4887 6.43347 18.6997C7.90457 19.5166 9.48068 19.9257 11.0206 19.9257C12.5 19.9257 13.9457 19.5478 15.2322 18.7915C16.8455 17.8427 18.0176 16.3901 18.654 14.6162C18.6741 14.5712 18.6907 14.5244 18.7039 14.476C19.0311 13.5126 19.2025 12.4575 19.2025 11.3383C19.2025 11.2895 19.2011 11.2402 19.1991 11.1913C19.7344 10.5605 20.1164 9.81292 20.3137 9.00481C20.4055 8.62493 20.2531 8.22747 19.9298 8.00774ZM17.2982 11.0458C17.3168 11.1435 17.3265 11.2446 17.3265 11.3412C17.3265 12.2602 17.1898 13.1113 16.9295 13.8803C16.9153 13.9155 16.9036 13.9521 16.8938 13.9897C16.4069 15.352 15.5204 16.4462 14.2813 17.1752C13.1472 17.8427 11.8456 18.1269 10.519 18.0307C10.8228 17.8803 11.1164 17.7094 11.3972 17.519C11.6785 17.3276 11.8348 16.999 11.8045 16.6596C11.7743 16.3203 11.5623 16.0244 11.2512 15.8862C9.50022 15.1083 8.56393 13.871 8.46869 12.2094C8.44915 11.8691 8.46625 11.5424 8.50288 11.2431C9.79278 12.3207 11.4451 12.9086 13.1697 12.8642C13.6781 12.851 14.0835 12.4355 14.0835 11.9272V11.3583C14.0835 11.3544 14.0835 11.35 14.0835 11.3456C14.0771 10.8715 14.2784 10.4208 14.6369 10.1098C15.307 9.52727 16.3258 9.59807 16.9085 10.268C17.0257 10.4023 17.1751 10.4975 17.3383 10.5478C17.2811 10.705 17.266 10.8764 17.2982 11.0458Z" fill="#1294F2" stroke="#1294F2"/>
<path d="M49.3694 14.2798H50.6989V19.8702C50.6989 20.3877 51.1189 20.8077 51.6366 20.8077C52.1548 20.8077 52.5744 20.3877 52.5744 19.8702V14.2798H54.0225C54.5402 14.2798 54.9603 13.8599 54.9603 13.3423C54.9603 12.8247 54.5402 12.4048 54.0225 12.4048H52.5744V9.78175C52.5744 8.88135 53.3075 8.14844 54.2086 8.14844H55.4228C55.9405 8.14844 56.3605 7.72852 56.3605 7.21094C56.3605 6.69287 55.9405 6.27344 55.4228 6.27344H54.2086C52.2735 6.27344 50.6989 7.84717 50.6989 9.78175V12.4048H49.3694C48.8517 12.4048 48.4316 12.8247 48.4316 13.3423C48.4316 13.8599 48.8517 14.2798 49.3694 14.2798Z" fill="#1294F2" stroke="#1294F2"/>
<path d="M11.4173 57.3078C11.6405 57.3078 11.8637 57.2501 12.0625 57.1354L18.4456 53.4494C18.8437 53.2199 19.0908 52.7916 19.0908 52.3322C19.0908 51.8732 18.8437 51.445 18.4456 51.2155L12.0625 47.5294C11.665 47.2994 11.1707 47.2994 10.7726 47.5294C10.3746 47.7589 10.127 48.1871 10.127 48.6466V56.0182C10.127 56.4777 10.3746 56.9059 10.7726 57.1354C10.9714 57.2506 11.1941 57.3078 11.4173 57.3078ZM12.0025 49.6603L16.6307 52.3327L12.0025 55.005V49.6603Z" fill="#1294F2" stroke="#1294F2"/>
<path d="M56.5273 45.8198H48.3776C46.9622 45.8198 45.8105 46.9712 45.8105 48.3867V56.5327C45.8105 57.9483 46.9622 59.0996 48.3776 59.0996H56.5273C57.9427 59.0996 59.0944 57.9483 59.0944 56.5327V48.3867C59.0944 46.9712 57.9427 45.8198 56.5273 45.8198ZM57.2189 56.5327C57.2189 56.9146 56.9087 57.2246 56.5273 57.2246H48.3776C47.9962 57.2246 47.6861 56.9146 47.6861 56.5327V48.3867C47.6861 48.0054 47.9962 47.6948 48.3776 47.6948H56.5273C56.9087 47.6948 57.2189 48.0054 57.2189 48.3867V56.5327Z" fill="#1294F2" stroke="#1294F2"/>
<path d="M52.4539 49.6255C50.891 49.6255 49.6191 50.897 49.6191 52.4595C49.6191 54.022 50.891 55.293 52.4539 55.293C54.0168 55.293 55.2886 54.022 55.2886 52.4595C55.2886 50.897 54.0168 49.6255 52.4539 49.6255ZM52.4539 53.418C51.9249 53.418 51.4946 52.9878 51.4946 52.4595C51.4946 51.9307 51.9249 51.5005 52.4539 51.5005C52.9828 51.5005 53.4131 51.9307 53.4131 52.4595C53.4131 52.9878 52.9828 53.418 52.4539 53.418Z" fill="#1294F2" stroke="#1294F2"/>
<path d="M39.7854 23.2627C39.2672 23.2627 38.8476 23.6826 38.8476 24.2002V24.6206C37.526 25.3994 36.1365 26.0718 34.7079 26.6221C33.564 27.0625 32.3825 27.4287 31.1874 27.7153C31.0037 27.5742 30.7752 27.4888 30.5261 27.4888H26.2324C25.1951 27.4888 24.3516 28.3325 24.3516 29.3692V34.2925C24.3516 35.3296 25.1951 36.1729 26.2324 36.1729H27.0906L27.4159 42.4239C27.4417 42.9244 27.8559 43.3126 28.3517 43.3126C28.3678 43.3126 28.3844 43.3121 28.401 43.3111C28.9182 43.2842 29.3158 42.8433 29.2889 42.3262L28.9685 36.1729H30.5261C30.7747 36.1729 31.0037 36.0879 31.1869 35.9468C31.9478 36.1304 32.7049 36.3462 33.4448 36.5918C33.9367 36.7544 34.4671 36.4883 34.6302 35.9971C34.7933 35.5054 34.5267 34.9746 34.0353 34.812C33.2407 34.5484 32.428 34.3164 31.6104 34.1197V29.543C32.891 29.2363 34.1564 28.8433 35.3819 28.3716C36.5668 27.9151 37.7272 27.3804 38.8472 26.7749V36.8892C38.4349 36.6665 38.0183 36.4541 37.5988 36.2525C37.1319 36.0279 36.5716 36.2242 36.3475 36.691C36.1228 37.1578 36.3191 37.7178 36.7861 37.9424C37.4845 38.2784 38.1751 38.6485 38.8472 39.043V39.4615C38.8472 39.9795 39.2672 40.399 39.7849 40.399C40.3026 40.399 40.7227 39.9795 40.7227 39.4615V24.2002C40.7232 23.6826 40.3031 23.2627 39.7854 23.2627ZM29.7353 34.2974L26.2271 34.2925L26.2324 29.3638H29.7353V34.2974Z" fill="#1294F2" stroke="#1294F2"/>
</svg>
