<svg width="103" height="103" viewBox="0 0 103 103" fill="none" xmlns="http://www.w3.org/2000/svg">
<path fill-rule="evenodd" clip-rule="evenodd" d="M37.3382 1.12311C23.2812 2.68165 11.2655 11.1595 5.08803 23.8776C1.2549 31.7692 0.100115 40.3117 1.69657 48.9659C4.15701 62.3033 13.5489 73.8312 26.1409 78.9702C37.065 83.4283 48.9878 83.0083 59.583 77.7921C61.0153 77.0868 62.2127 76.54 62.2437 76.5766C62.2748 76.6133 64.0899 82.0222 66.2774 88.5966L70.2543 100.55L71.8246 100.669C72.688 100.735 73.9663 100.836 74.6649 100.894L75.9352 101L80.1195 92.615L84.3037 84.2299L92.6887 80.0458L101.074 75.8615L100.968 74.5912C100.91 73.8925 100.807 72.6027 100.741 71.7251L100.619 70.1292L88.668 66.163C82.0949 63.9816 76.687 62.1782 76.6503 62.1551C76.6138 62.1323 77.1606 60.9415 77.8659 59.5092C87.2527 40.4427 80.5542 17.6368 62.353 6.69496C57.8847 4.0088 52.887 2.19015 47.7936 1.39691C45.4043 1.02461 39.5967 0.872572 37.3382 1.12311ZM45.1231 6.97657C53.1247 7.81946 60.4794 11.3559 66.1066 17.0667C69.0651 20.0691 70.8394 22.5276 72.6274 26.1021C75.2329 31.3113 76.3892 36.737 76.1703 42.7278C76.004 47.2766 75.3239 50.4449 73.596 54.7181C72.7337 56.85 70.9817 60.1278 70.7036 60.1289C70.6208 60.1293 68.446 59.426 65.8707 58.5661C63.2953 57.7062 61.0749 57.0027 60.9361 57.0027C60.7976 57.0027 59.8519 57.8385 58.8345 58.86L56.985 60.7172L58.5941 65.5575C59.4792 68.2199 60.2031 70.4841 60.2027 70.5892C60.2023 70.6944 59.4767 71.1937 58.5904 71.6987C48.7052 77.3313 36.335 77.6518 26.1634 72.5386C20.6513 69.7678 16.1295 65.7995 12.8031 60.8135C7.11775 52.2915 5.44292 42.0954 8.11638 32.2818C9.13065 28.5591 10.9601 24.6962 13.2536 21.4347C14.8397 19.1789 19.0527 14.9229 21.221 13.3856C28.3164 8.35493 36.7472 6.09422 45.1231 6.97657ZM38.6632 16.2731L38.6085 18.7433L37.5336 19.0794C35.618 19.6784 34.3587 20.4613 32.8367 21.9991C30.4698 24.3908 29.3256 27.1668 29.3256 30.5179C29.3256 34.9748 31.9143 38.3817 37.2121 40.8978L38.7062 41.6072V49.9184V58.2298L37.7238 58.1133C36.4328 57.9605 34.7663 57.2122 32.2887 55.6732C31.1734 54.9804 30.1953 54.4938 30.1052 54.5868C30.0155 54.6794 29.2809 55.7633 28.473 56.9952L27.0037 59.2352L28.0182 59.9669C29.3985 60.9626 33.2379 62.9196 34.8281 63.4381C35.5436 63.6715 36.6868 63.924 37.3687 63.999L38.6085 64.1358L38.6632 66.6275L38.7179 69.1192H41.6435H44.569V66.4999V63.8808L45.8882 63.477C48.5606 62.6593 51.4092 60.4784 53.0729 57.9757C57.2869 51.637 55.8595 43.9045 49.7459 39.9518C48.432 39.1024 46.8502 38.3578 45.3019 37.8605L44.569 37.625V31.0932C44.569 25.0023 44.5921 24.5618 44.911 24.5634C45.4498 24.5663 47.0801 25.5901 48.6111 26.8872L50.015 28.0764L50.5653 27.4191C50.8682 27.0576 51.723 26.0879 52.4651 25.2642L53.8141 23.7662L53.2468 23.16C52.334 22.185 49.6505 20.2504 48.3793 19.6511C47.734 19.3468 46.6153 18.9522 45.8934 18.774L44.5809 18.4502L44.5262 16.1805L44.4713 13.9108L41.5946 13.8566L38.7179 13.8027L38.6632 16.2731ZM38.7062 29.9359C38.7062 32.7045 38.6292 34.9193 38.5328 34.9193C38.1085 34.9193 36.4175 33.5724 35.8846 32.81C34.7374 31.169 35.0532 28.3021 36.5858 26.444C37.1599 25.7478 38.2098 24.955 38.5596 24.9532C38.6401 24.9528 38.7062 27.195 38.7062 29.9359ZM46.2831 44.6239C50.3404 46.952 50.7453 52.4431 47.1233 56.0191C46.6296 56.5063 45.8532 57.1084 45.3974 57.3572L44.569 57.8094V50.8461V43.8826L45.0087 44.0137C45.2507 44.086 45.8241 44.3606 46.2831 44.6239ZM92.0581 73.5335C92.2353 73.6039 89.8997 74.8785 86.1467 76.7593L79.9423 79.8685L76.833 86.073C74.9522 89.826 73.6777 92.1616 73.6073 91.9843C73.5432 91.8231 71.4351 85.5238 68.9227 77.986L64.3545 64.2808L78.0597 68.8489C85.5976 71.3614 91.8968 73.4695 92.0581 73.5335Z" fill="#78B404" stroke="#78B404" stroke-width="2"/>
</svg>
