<svg width="101" height="100" viewBox="0 0 101 100" fill="none" xmlns="http://www.w3.org/2000/svg">
<path fill-rule="evenodd" clip-rule="evenodd" d="M36.3382 0.123111C22.2812 1.68165 10.2655 10.1595 4.08803 22.8776C0.2549 30.7692 -0.899885 39.3117 0.696567 47.9659C3.15701 61.3033 12.5489 72.8312 25.1409 77.9702C36.065 82.4283 47.9878 82.0083 58.583 76.7921C60.0153 76.0868 61.2127 75.54 61.2437 75.5766C61.2748 75.6133 63.0899 81.0222 65.2774 87.5966L69.2543 99.5499L70.8246 99.6691C71.688 99.7348 72.9663 99.836 73.6649 99.8943L74.9352 100L79.1195 91.615L83.3037 83.2299L91.6887 79.0458L100.074 74.8615L99.968 73.5912C99.9098 72.8925 99.8074 71.6027 99.7405 70.7251L99.6192 69.1292L87.668 65.163C81.0949 62.9816 75.687 61.1782 75.6503 61.1551C75.6138 61.1323 76.1606 59.9415 76.8659 58.5092C86.2527 39.4427 79.5542 16.6368 61.353 5.69496C56.8847 3.0088 51.887 1.19015 46.7936 0.396906C44.4043 0.024615 38.5967 -0.127428 36.3382 0.123111ZM44.1231 5.97657C52.1247 6.81946 59.4794 10.3559 65.1066 16.0667C68.0651 19.0691 69.8394 21.5276 71.6274 25.1021C74.2329 30.3113 75.3892 35.737 75.1703 41.7278C75.004 46.2766 74.3239 49.4449 72.596 53.7181C71.7337 55.85 69.9817 59.1278 69.7036 59.1289C69.6208 59.1293 67.446 58.426 64.8707 57.5661C62.2953 56.7062 60.0749 56.0027 59.9361 56.0027C59.7976 56.0027 58.8519 56.8385 57.8345 57.86L55.985 59.7172L57.5941 64.5575C58.4792 67.2199 59.2031 69.4841 59.2027 69.5892C59.2023 69.6944 58.4767 70.1937 57.5904 70.6987C47.7052 76.3313 35.335 76.6518 25.1634 71.5386C19.6513 68.7678 15.1295 64.7995 11.8031 59.8135C6.11775 51.2915 4.44292 41.0954 7.11638 31.2818C8.13065 27.5591 9.96006 23.6962 12.2536 20.4347C13.8397 18.1789 18.0527 13.9229 20.221 12.3856C27.3164 7.35493 35.7472 5.09422 44.1231 5.97657ZM37.6632 15.2731L37.6085 17.7433L36.5336 18.0794C34.618 18.6784 33.3587 19.4613 31.8367 20.9991C29.4698 23.3908 28.3256 26.1668 28.3256 29.5179C28.3256 33.9748 30.9143 37.3817 36.2121 39.8978L37.7062 40.6072V48.9184V57.2298L36.7238 57.1133C35.4328 56.9605 33.7663 56.2122 31.2887 54.6732C30.1734 53.9804 29.1953 53.4938 29.1052 53.5868C29.0155 53.6794 28.2809 54.7633 27.473 55.9952L26.0037 58.2352L27.0182 58.9669C28.3985 59.9626 32.2379 61.9196 33.8281 62.4381C34.5436 62.6715 35.6868 62.924 36.3687 62.999L37.6085 63.1358L37.6632 65.6275L37.7179 68.1192H40.6435H43.569V65.4999V62.8808L44.8882 62.477C47.5606 61.6593 50.4092 59.4784 52.0729 56.9757C56.2869 50.637 54.8595 42.9045 48.7459 38.9518C47.432 38.1024 45.8502 37.3578 44.3019 36.8605L43.569 36.625V30.0932C43.569 24.0023 43.5921 23.5618 43.911 23.5634C44.4498 23.5663 46.0801 24.5901 47.6111 25.8872L49.015 27.0764L49.5653 26.4191C49.8682 26.0576 50.723 25.0879 51.4651 24.2642L52.8141 22.7662L52.2468 22.16C51.334 21.185 48.6505 19.2504 47.3793 18.6511C46.734 18.3468 45.6153 17.9522 44.8934 17.774L43.5809 17.4502L43.5262 15.1805L43.4713 12.9108L40.5946 12.8566L37.7179 12.8027L37.6632 15.2731ZM37.7062 28.9359C37.7062 31.7045 37.6292 33.9193 37.5328 33.9193C37.1085 33.9193 35.4175 32.5724 34.8846 31.81C33.7374 30.169 34.0532 27.3021 35.5858 25.444C36.1599 24.7478 37.2098 23.955 37.5596 23.9532C37.6401 23.9528 37.7062 26.195 37.7062 28.9359ZM45.2831 43.6239C49.3404 45.952 49.7453 51.4431 46.1233 55.0191C45.6296 55.5063 44.8532 56.1084 44.3974 56.3572L43.569 56.8094V49.8461V42.8826L44.0087 43.0137C44.2507 43.086 44.8241 43.3606 45.2831 43.6239ZM91.0581 72.5335C91.2353 72.6039 88.8997 73.8785 85.1467 75.7593L78.9423 78.8685L75.833 85.073C73.9522 88.826 72.6777 91.1616 72.6073 90.9843C72.5432 90.8231 70.4351 84.5238 67.9227 76.986L63.3545 63.2808L77.0597 67.8489C84.5976 70.3614 90.8968 72.4695 91.0581 72.5335Z" fill="#78B404"/>
</svg>
