<svg width="74" height="74" viewBox="0 0 74 74" fill="none" xmlns="http://www.w3.org/2000/svg">
<path fill-rule="evenodd" clip-rule="evenodd" d="M27.5516 1.08741C17.5785 2.19397 9.05365 8.21326 4.67087 17.2431C1.95135 22.8461 1.13206 28.9113 2.26471 35.0558C4.01033 44.5253 10.6737 52.7101 19.6074 56.3588C27.3578 59.5241 35.8168 59.2259 43.3338 55.5224C44.35 55.0216 45.1995 54.6334 45.2215 54.6594C45.2436 54.6854 46.5314 58.5257 48.0833 63.1936L50.9049 71.6804L52.0189 71.7651C52.6315 71.8117 53.5384 71.8836 54.0341 71.9249L54.9353 72L57.904 66.0466L60.8725 60.0932L66.8215 57.1225L72.7705 54.1517L72.6955 53.2498C72.6542 52.7537 72.5815 51.8379 72.5341 51.2148L72.448 50.0817L63.9689 47.2657C59.3055 45.7169 55.4687 44.4365 55.4426 44.4201C55.4167 44.4039 55.8047 43.5585 56.3051 42.5416C62.9648 29.0043 58.2124 12.8121 45.299 5.04342C42.1289 3.13625 38.5831 1.84501 34.9695 1.2818C33.2743 1.01748 29.154 0.909526 27.5516 1.08741ZM33.0748 5.24337C38.7517 5.84181 43.9698 8.35271 47.9621 12.4074C50.0612 14.5391 51.32 16.2846 52.5885 18.8225C54.437 22.521 55.2574 26.3732 55.1021 30.6267C54.9841 33.8564 54.5016 36.1059 53.2757 39.1399C52.6639 40.6535 51.4209 42.9807 51.2236 42.9815C51.1648 42.9818 49.6219 42.4824 47.7948 41.8719C45.9676 41.2614 44.3922 40.7619 44.2938 40.7619C44.1955 40.7619 43.5246 41.3553 42.8027 42.0806L41.4905 43.3992L42.6322 46.8359C43.2601 48.7261 43.7737 50.3337 43.7734 50.4084C43.7732 50.483 43.2583 50.8375 42.6296 51.1961C35.6163 55.1952 26.8399 55.4228 19.6234 51.7924C15.7127 49.8252 12.5046 47.0076 10.1446 43.4676C6.11091 37.417 4.92266 30.1777 6.81942 23.2101C7.53902 20.5669 8.83694 17.8243 10.4642 15.5087C11.5895 13.907 14.5785 10.8852 16.1168 9.79381C21.1509 6.222 27.1323 4.61689 33.0748 5.24337ZM28.4917 11.8439L28.4528 13.5977L27.6902 13.8364C26.3312 14.2617 25.4377 14.8175 24.3579 15.9094C22.6787 17.6075 21.8669 19.5785 21.8669 21.9577C21.8669 25.1221 23.7035 27.541 27.4622 29.3275L28.5222 29.8311V35.7321V41.6331L27.8252 41.5504C26.9092 41.4419 25.7269 40.9106 23.9691 39.818C23.1778 39.3261 22.4839 38.9806 22.42 39.0466C22.3563 39.1124 21.8351 39.8819 21.2619 40.7566L20.2196 42.347L20.9393 42.8665C21.9186 43.5735 24.6425 44.9629 25.7708 45.3311C26.2784 45.4967 27.0895 45.676 27.5732 45.7293L28.4528 45.8264L28.4917 47.5955L28.5305 49.3646H30.6061H32.6817V47.5049V45.6453L33.6176 45.3587C35.5137 44.7781 37.5347 43.2296 38.715 41.4528C41.7048 36.9523 40.692 31.4622 36.3546 28.6557C35.4224 28.0527 34.3002 27.5241 33.2017 27.1709L32.6817 27.0037V22.3662C32.6817 18.0416 32.6981 17.7289 32.9244 17.73C33.3066 17.7321 34.4632 18.459 35.5494 19.3799L36.5455 20.2242L36.936 19.7576C37.1509 19.5009 37.7573 18.8124 38.2838 18.2276L39.2409 17.164L38.8384 16.7336C38.1908 16.0413 36.2869 14.6678 35.385 14.2423C34.9272 14.0262 34.1335 13.7461 33.6214 13.6195L32.6902 13.3896L32.6513 11.7781L32.6124 10.1666L30.5714 10.1282L28.5305 10.0899L28.4917 11.8439ZM28.5222 21.5445C28.5222 23.5102 28.4675 25.0827 28.3992 25.0827C28.0982 25.0827 26.8984 24.1264 26.5203 23.5851C25.7064 22.42 25.9305 20.3845 27.0178 19.0652C27.4251 18.571 28.17 18.008 28.4182 18.0068C28.4753 18.0065 28.5222 19.5984 28.5222 21.5445ZM33.8978 31.9729C36.7764 33.6259 37.0637 37.5246 34.4939 40.0635C34.1437 40.4095 33.5928 40.837 33.2695 41.0136L32.6817 41.3347V36.3907V31.4466L32.9937 31.5397C33.1653 31.5911 33.5721 31.786 33.8978 31.9729ZM66.3741 52.4988C66.4998 52.5488 64.8428 53.4537 62.1802 54.7891L57.7782 56.9967L55.5723 61.4018C54.2379 64.0665 53.3336 65.7247 53.2837 65.5989C53.2382 65.4844 51.7426 61.0119 49.9601 55.6601L46.7191 45.9294L56.4426 49.1727C61.7905 50.9566 66.2597 52.4533 66.3741 52.4988Z" fill="white" stroke="white" stroke-width="2"/>
</svg>
