<svg width="70" height="68" viewBox="0 0 70 68" fill="none" xmlns="http://www.w3.org/2000/svg">
<path fill-rule="evenodd" clip-rule="evenodd" d="M8.99468 5.44711L9.247 5.77899C9.39308 5.96484 9.5126 6.24361 9.49932 6.41619C9.49932 6.57549 9.35324 6.85426 8.84859 7.37198H6.17928C3.69588 7.37198 3.50996 7.38526 3.25763 7.63748C2.99203 7.90298 2.99203 8.07556 2.99203 28.7447C2.99203 49.4138 2.99203 49.5864 3.25763 49.8519C3.52324 50.1174 3.69588 50.1174 30.1899 50.1174C56.7901 50.1041 56.8432 50.1041 57.2018 50.3829C57.4807 50.582 57.5736 50.7546 57.5736 51.113C57.5736 51.4714 57.4807 51.644 57.2018 51.8431C56.8698 52.0953 56.6573 52.1219 50.6679 52.1086V53.4096C50.6679 54.3521 50.6015 54.8433 50.4289 55.2282C50.2961 55.5203 50.0172 55.8787 49.7914 56.038C49.5789 56.184 49.2868 56.3699 49.1407 56.4363C48.9946 56.5026 46.5378 56.5823 38.4767 56.6885L40.7875 61.202C42.0624 63.6844 43.1381 65.8615 43.1779 66.0473C43.231 66.2597 43.1646 66.4987 42.9787 66.7509C42.7795 67.0164 42.5803 67.1093 42.2616 67.1093C42.0358 67.1093 41.7436 67.043 41.6374 66.9766C41.5312 66.9102 40.2695 64.5605 36.2324 56.6885L25.1036 56.6221L22.5936 61.5737C21.2125 64.2818 19.9641 66.6447 19.8048 66.8173C19.6321 67.0031 19.3798 67.1093 19.1275 67.1093C18.9017 67.1093 18.5963 66.9766 18.4236 66.804C18.2643 66.6447 18.1314 66.3659 18.1314 66.1801C18.1314 65.9942 19.2071 63.7906 22.8592 56.6885L17.6002 56.6221C12.9389 56.569 12.3014 56.5292 11.9163 56.3301C11.6906 56.1973 11.332 55.8654 11.1195 55.5999C10.7875 55.1486 10.7609 55.0158 10.6945 52.1086H7.06905C4.62549 52.1086 3.28419 52.0555 2.92563 51.9493C2.62018 51.8564 2.15538 51.5378 1.82337 51.2192C1.50465 50.8873 1.21248 50.436 1.1328 50.1572C1.05312 49.8253 1 42.1657 1 28.6783C1 7.83661 1.01328 7.70386 1.27888 7.10648C1.42497 6.77461 1.65073 6.38964 1.77025 6.25689C1.88977 6.12414 2.28818 5.85864 2.66002 5.68606C3.29747 5.38074 3.417 5.38074 8.99468 5.44711V5.44711ZM12.6866 53.3034C12.6866 54.2459 12.7264 54.5114 12.8858 54.5645C12.992 54.6043 21.0265 54.6309 30.7211 54.6309C44.652 54.6309 48.397 54.591 48.5165 54.4716C48.6228 54.3654 48.6759 53.8875 48.6759 53.2104V52.1086H12.6866V53.3034ZM53.5896 19.3726C55.3558 19.4124 55.8206 19.4655 56.8432 19.7708C57.4939 19.9699 58.49 20.3549 59.0344 20.6337C59.5789 20.8992 60.3226 21.324 60.6945 21.5762C61.053 21.8151 61.8897 22.5585 62.5537 23.2356C63.2974 23.9922 63.9747 24.8418 64.3731 25.5056C64.7051 26.0764 65.1301 26.9127 65.3027 27.3508C65.4886 27.7889 65.7277 28.5323 65.8472 29.0102C65.98 29.4881 66.1261 30.351 66.1925 30.935C66.2722 31.5457 66.2722 32.528 66.2058 33.2582C66.1526 33.9485 66.0331 34.7848 65.9534 35.1167C65.887 35.4485 65.7011 36.0459 65.555 36.4442C65.4222 36.8424 65.1699 37.4796 64.9973 37.838C64.8379 38.2097 64.4395 38.8868 64.134 39.3647C63.8153 39.8426 63.3904 40.4399 62.7795 41.1568L65.6878 46.2013C67.4142 49.1881 68.6891 51.5378 68.8219 51.9759C68.9415 52.4139 68.9946 52.9449 68.9548 53.3034C68.9149 53.6352 68.7688 54.1662 68.6095 54.4981C68.4634 54.83 68.1181 55.3212 67.8392 55.5999C67.5603 55.8787 67.069 56.2371 66.737 56.3832C66.2987 56.5956 65.887 56.6752 65.2097 56.6619C64.5457 56.6619 64.1075 56.5823 63.6825 56.3832C63.3505 56.2239 62.8724 55.9053 62.6201 55.6663C62.3412 55.4008 60.9734 53.1706 59.1938 50.0776C57.5736 47.25 56.2323 44.9401 56.2058 44.9401C56.1925 44.9401 55.8472 45.0065 55.4488 45.0729C55.0504 45.1525 54.0544 45.2189 53.2576 45.2189C52.3014 45.2189 51.3851 45.126 50.6015 44.9667C49.9375 44.8207 48.9548 44.5286 48.4103 44.3029C47.8658 44.0905 47.0823 43.7188 46.6839 43.4799C46.2855 43.2409 45.5949 42.763 45.1566 42.4179C44.7184 42.0727 44.0677 41.4754 43.7091 41.0771C43.3505 40.6789 42.8459 40.0284 42.567 39.6302C42.3014 39.2319 41.8499 38.462 41.5843 37.9442C41.3187 37.4132 40.9468 36.4574 40.7609 35.8202C40.4953 34.9175 40.4023 34.2538 40.3492 32.9263C40.3094 31.851 40.3359 30.8288 40.4422 30.2049C40.5351 29.6607 40.7211 28.8243 40.8671 28.3464C41.0132 27.8685 41.3718 27.0057 41.664 26.4216C41.9561 25.8375 42.5404 24.9215 42.9521 24.3772C43.3638 23.8329 44.0544 23.063 44.4926 22.678C44.9309 22.2798 45.5816 21.762 45.9535 21.5098C46.312 21.2709 47.0292 20.8593 47.5471 20.6071C48.0517 20.3549 48.7689 20.0363 49.1407 19.9301C49.4993 19.8106 50.1898 19.6248 50.6679 19.5186C51.2788 19.3858 52.1287 19.3327 53.5896 19.3726V19.3726ZM50.4023 21.6293C49.9242 21.7488 49.1805 22.0143 48.7423 22.2134C48.304 22.4258 47.5604 22.8506 47.0823 23.1692C46.6042 23.4878 45.8871 24.0852 45.4754 24.4834C45.077 24.8949 44.4794 25.6118 44.1606 26.0897C43.8419 26.5676 43.4169 27.311 43.2177 27.7491C43.0185 28.1871 42.7264 29.0898 42.567 29.7403C42.3014 30.7757 42.2748 31.174 42.3412 32.7272C42.3944 34.1874 42.4608 34.7051 42.7529 35.5547C42.9389 36.1123 43.231 36.8291 43.3771 37.1477C43.5365 37.4531 43.9083 38.0637 44.2005 38.5018C44.5059 38.9399 45.077 39.6302 45.4754 40.0417C45.8871 40.4399 46.6042 41.0373 47.0823 41.3559C47.5604 41.6745 48.3173 42.0993 48.7689 42.3117C49.2337 42.5108 50.1234 42.8029 50.7609 42.9622C51.7436 43.2011 52.2084 43.2277 53.7224 43.1746C55.2496 43.1215 55.6746 43.0551 56.644 42.7232C57.2682 42.5108 58.158 42.1258 58.636 41.8603C59.1141 41.5816 59.8445 41.1037 60.2562 40.7585C60.6812 40.4266 61.3585 39.7629 61.7702 39.2717C62.1686 38.7673 62.7662 37.838 63.0982 37.1743C63.4169 36.5238 63.802 35.4751 63.9481 34.8512C64.1606 34.0414 64.227 33.298 64.227 32.1962C64.227 31.0811 64.1606 30.3908 63.9481 29.6076C63.802 29.0235 63.4435 28.0677 63.1513 27.4836C62.8724 26.8995 62.3147 26.01 61.9295 25.4923C61.5444 24.9879 60.8538 24.271 60.4156 23.8993C59.9641 23.5409 59.2204 23.0099 58.7556 22.7311C58.2908 22.4523 57.3346 22.0541 56.644 21.8284C55.9534 21.6027 54.9043 21.3903 54.32 21.3372C53.7356 21.2841 52.806 21.2841 52.2615 21.324C51.7171 21.3771 50.8804 21.5098 50.4023 21.6293V21.6293ZM59.1274 43.825C58.636 44.0773 58.2376 44.3162 58.2376 44.3826C58.2376 44.4357 59.4461 46.573 60.907 49.1218C62.3943 51.6971 63.7888 53.9671 64.0278 54.2061C64.2801 54.4317 64.6785 54.6707 64.9043 54.7105C65.1965 54.7769 65.5152 54.7105 65.8737 54.5512C66.1659 54.4052 66.5378 54.0866 66.7104 53.8344C66.9494 53.4759 67.0158 53.237 66.9627 52.8387C66.9229 52.4538 66.1659 51.0068 64.1606 47.5288C62.6334 44.9003 61.3585 42.7099 61.3054 42.6568C61.2522 42.6037 60.9468 42.7365 60.6281 42.9622C60.2961 43.1746 59.6321 43.5728 59.1274 43.825V43.825ZM30.6414 1C34.0677 1 34.3731 1.01327 34.8645 1.2655C35.1699 1.41152 35.5551 1.76995 35.7543 2.08855C36.0863 2.593 36.1261 2.76557 36.1925 5.38074L58.304 5.44711L58.8751 5.77899C59.1938 5.96484 59.6321 6.37636 59.8445 6.70824C60.0836 7.07993 60.2562 7.55783 60.3093 7.96936C60.3492 8.34106 60.3625 10.7704 60.2961 18.1513L59.9641 18.4035C59.7781 18.5495 59.486 18.669 59.3 18.6557C59.1141 18.6557 58.8352 18.523 58.3572 18.0583L58.3704 8.03573L57.7064 7.37198H12.1554L11.8234 7.04011C11.6374 6.85426 11.4914 6.57549 11.4914 6.41619C11.4781 6.24361 11.5976 5.96484 11.996 5.44711L25.17 5.38074V4.11962C25.17 3.15054 25.2231 2.73902 25.4223 2.36732C25.5551 2.08855 25.7808 1.75667 25.9136 1.6372C26.0597 1.51772 26.3386 1.3186 26.5644 1.2124C26.8964 1.03982 27.5604 1 30.6414 1V1ZM27.1354 4.27892L27.162 5.38074H34.2005C34.2005 3.84084 34.1739 3.29657 34.1341 3.19037C34.081 3.01779 33.5763 2.99124 30.7078 2.99124C28.8486 2.99124 27.2948 3.03107 27.2284 3.08417C27.162 3.12399 27.1221 3.66827 27.1354 4.27892ZM44.559 11.1421C44.9574 11.1686 45.5285 11.3146 45.8207 11.4607C46.1128 11.6067 46.5378 11.9253 46.7768 12.1775C47.0159 12.4165 47.2948 12.8545 47.4276 13.1466C47.5471 13.4386 47.64 14.0095 47.64 14.4077C47.64 14.8458 47.5471 15.3768 47.3877 15.7352C47.2416 16.0671 46.8963 16.545 46.6042 16.8105C46.3253 17.0627 45.7808 17.3813 45.4222 17.5273C44.9309 17.7132 44.5723 17.753 43.2974 17.607L37.9189 25.1604L38.1713 25.6649C38.3041 25.9304 38.4501 26.395 38.5033 26.6871C38.5564 26.9791 38.5298 27.5234 38.4501 27.8818C38.3705 28.2535 38.1181 28.8111 37.8791 29.1429C37.6002 29.5279 37.1885 29.8731 36.7237 30.112C36.1792 30.3775 35.8074 30.4704 35.2629 30.4704C34.8247 30.4704 34.2934 30.3642 33.9349 30.1916C33.6029 30.0456 33.1646 29.7669 32.9654 29.5677C32.7529 29.3686 32.4608 28.9704 32.3014 28.6783C32.1553 28.3863 31.996 27.7623 31.8764 26.4348L28.4236 24.4569L27.7596 24.8286C27.2815 25.0941 26.8565 25.2135 26.2324 25.2666C25.4621 25.3065 25.2895 25.2799 23.7755 24.4834L20.2563 26.4216V27.1517C20.2563 27.6296 20.15 28.1075 19.9376 28.5456C19.7649 28.9173 19.4595 29.3686 19.247 29.5677C19.0345 29.7669 18.5963 30.0456 18.2643 30.1916C17.9057 30.3642 17.3745 30.4704 16.9362 30.4704C16.3917 30.4704 16.0199 30.3775 15.4887 30.112C15.0903 29.8996 14.5989 29.5279 14.3864 29.2757C14.174 29.0235 13.9083 28.4792 13.7888 28.0809C13.656 27.6163 13.6162 27.1384 13.6693 26.7933C13.7091 26.4747 13.8552 25.9968 14.0013 25.7313C14.1341 25.4525 14.4927 25.0011 14.7981 24.7356C15.1567 24.4038 15.6082 24.1648 16.0996 24.0188C16.6042 23.886 17.0558 23.8462 17.401 23.8993C17.6932 23.9524 18.2244 24.1515 19.2603 24.7224L22.7795 22.7709V22.147C22.7795 21.7886 22.8592 21.2576 22.9787 20.9523C23.085 20.6337 23.324 20.1823 23.4966 19.9567C23.6693 19.7177 24.1341 19.346 24.5325 19.1203C25.1168 18.7885 25.3824 18.7221 26.0996 18.7354C26.7105 18.7354 27.1221 18.815 27.494 19.0141C27.7862 19.1602 28.2244 19.492 28.4634 19.731C28.7025 19.9832 28.9946 20.3947 29.1142 20.6469C29.2204 20.8992 29.3532 21.4833 29.486 22.7842L32.9389 24.7224L33.6693 24.3108C34.3067 23.9657 34.5325 23.8993 36.3652 23.8993L38.9946 20.2222C40.4555 18.1911 41.6374 16.4919 41.6374 16.4388C41.6374 16.3724 41.5444 16.1202 41.4116 15.868C41.2921 15.6157 41.1593 15.0449 41.1327 14.6068C41.0929 14.0095 41.146 13.651 41.3585 13.1466C41.5046 12.7882 41.8233 12.2837 42.0624 12.058C42.3014 11.8191 42.7928 11.5005 43.1646 11.3545C43.6427 11.1553 44.0411 11.1022 44.559 11.1421V11.1421ZM43.3373 13.6643C43.2045 13.8103 43.0982 14.1422 43.0982 14.3812C43.0982 14.6068 43.1513 14.9254 43.231 15.0715C43.2974 15.2175 43.563 15.4299 43.7888 15.5494C44.0544 15.6821 44.3864 15.7352 44.6254 15.6821C44.8379 15.6423 45.1301 15.5095 45.2496 15.3768C45.3691 15.244 45.5285 14.9918 45.5949 14.806C45.6613 14.6201 45.6613 14.2882 45.5949 14.0493C45.5285 13.7705 45.3293 13.5183 45.0504 13.3457C44.8246 13.1997 44.5059 13.0802 44.3598 13.0802C44.2137 13.0802 43.9747 13.1599 43.8286 13.2395C43.6825 13.3192 43.4568 13.505 43.3373 13.6643V13.6643ZM25.1965 21.0983C25.0371 21.2443 24.8645 21.5629 24.8247 21.7753C24.7848 22.001 24.8247 22.3461 24.9309 22.5585C25.0239 22.7709 25.2629 23.0232 25.4621 23.1161C25.6746 23.2223 25.9535 23.3019 26.0996 23.3019C26.2456 23.3019 26.5113 23.2223 26.6972 23.1426C26.8831 23.0497 27.1221 22.7709 27.2284 22.5453C27.3346 22.3063 27.401 21.9479 27.3612 21.7488C27.3213 21.5364 27.162 21.2443 27.0026 21.085C26.83 20.9257 26.5113 20.7664 26.2988 20.7266C26.073 20.6868 25.8074 20.6868 25.7012 20.7399C25.5949 20.7797 25.3692 20.939 25.1965 21.0983ZM15.9668 26.3286C15.8473 26.4481 15.7012 26.7136 15.6746 26.926C15.6348 27.1251 15.7012 27.4836 15.8074 27.7225C15.9137 27.9482 16.1527 28.227 16.3386 28.3199C16.5245 28.3995 16.83 28.4792 17.0292 28.4792C17.2417 28.4792 17.5338 28.373 17.6799 28.2402C17.8393 28.1208 18.0385 27.8818 18.1182 27.7225C18.1978 27.5499 18.2643 27.2712 18.2643 27.0853C18.2643 26.8995 18.1049 26.5809 17.8924 26.3685C17.6932 26.1561 17.3878 25.9569 17.2018 25.9171C17.0159 25.8773 16.7237 25.9038 16.5378 25.9835C16.3519 26.0499 16.0996 26.2092 15.9668 26.3286V26.3286ZM34.2005 26.4481C34.0544 26.6472 33.9216 27.0189 33.9349 27.2579C33.9349 27.5499 34.0544 27.8022 34.3333 28.0809C34.5989 28.3464 34.8645 28.4792 35.1301 28.4792C35.3426 28.4792 35.6746 28.3995 35.8605 28.3199C36.0464 28.227 36.2855 27.9482 36.3917 27.7225C36.5378 27.3906 36.5644 27.1782 36.4581 26.8198C36.3784 26.5676 36.1925 26.2755 36.0199 26.1693C35.8605 26.0631 35.5816 25.9437 35.3957 25.9038C35.2098 25.864 34.9309 25.8906 34.7715 25.9569C34.6122 26.01 34.3598 26.2357 34.2005 26.4481V26.4481ZM26.1925 30.5103C28.3838 30.5368 28.5033 30.5501 29.0876 31.1474L29.1275 38.1434C29.154 42.4975 29.1142 45.3118 29.0345 45.6039C28.9548 45.8959 28.7689 46.1349 28.5697 46.2411C28.3306 46.3473 27.5338 46.4004 26.0996 46.4004C24.9309 46.4004 23.8419 46.334 23.6693 46.2676C23.5099 46.188 23.2974 45.9889 23.2045 45.803C23.085 45.5508 23.0451 43.7985 23.0451 38.4354C23.0451 33.0723 23.085 31.32 23.2045 31.0678C23.2974 30.8819 23.4966 30.6828 23.6427 30.6032C23.7888 30.5368 24.9309 30.497 26.1925 30.5103V30.5103ZM25.0372 44.4091H27.162L27.0956 32.528L25.0504 32.4484L25.0372 44.4091ZM19.4595 35.6477L19.7251 36.0194C19.9907 36.3645 20.004 36.5636 19.9907 40.9311C19.9907 43.679 19.9376 45.5906 19.8579 45.7765C19.7782 45.9358 19.579 46.1482 19.3931 46.2411C19.1673 46.3473 18.3572 46.4004 16.8698 46.4004C14.745 46.4004 14.6653 46.3871 13.9482 45.7632V40.9842C13.9482 36.484 13.9615 36.1919 14.2005 35.9264C14.4396 35.6609 14.5724 35.6477 19.4595 35.6477V35.6477ZM15.9402 44.3428L17.9986 44.4091V37.6389H15.8738L15.9402 44.3428ZM32.7529 35.6477H35.1965C37.4674 35.6477 37.6666 35.6742 37.9189 35.9132C38.065 36.0592 38.2111 36.3778 38.2509 36.6167C38.2908 36.8557 38.3041 39.0062 38.2509 45.7632L37.8791 46.0818C37.5205 46.3871 37.4541 46.4004 35.3293 46.4004C33.749 46.4004 33.0318 46.3473 32.7662 46.2278C32.567 46.1216 32.3545 45.949 32.3014 45.8296C32.2483 45.7101 32.1952 43.5197 32.1819 40.9842C32.1686 36.4176 32.1819 36.338 32.4608 36.0061L32.7529 35.6477ZM34.2005 44.4091H36.1925V37.6389H34.2005V44.4091ZM42.3014 41.4886C42.5404 41.4886 42.8326 41.6081 43.0318 41.8205C43.3373 42.1126 43.3638 42.2453 43.3638 44.4091H45.0504C46.6307 44.4091 46.7635 44.4357 47.0557 44.7012C47.2416 44.9003 47.3479 45.1525 47.3479 45.4313C47.3479 45.7499 47.2416 45.9358 46.976 46.1349C46.6307 46.4004 46.4714 46.4137 44.2403 46.3738C41.903 46.334 41.8764 46.3207 41.6108 46.0021C41.3851 45.7101 41.3585 45.4446 41.3452 43.918C41.3452 42.325 41.3718 42.1524 41.6241 41.8338C41.8189 41.6037 42.0447 41.4886 42.3014 41.4886ZM53.656 22.8373C54.2403 22.8639 55.1301 23.0099 55.648 23.1426C56.1526 23.2754 56.9627 23.5807 57.4408 23.8064C57.9189 24.0453 58.5298 24.4038 58.7954 24.6294C59.2071 24.948 59.3 25.1073 59.3 25.4923C59.3 25.7711 59.1938 26.0499 59.0344 26.2224C58.8884 26.3685 58.6228 26.4879 58.4368 26.4879C58.2509 26.4879 57.6931 26.2357 57.2018 25.9437C56.7104 25.6516 55.887 25.2799 55.3824 25.1206C54.7184 24.9215 54.1075 24.8418 53.2576 24.8418C52.5006 24.8418 51.7702 24.9215 51.2655 25.0808C50.8273 25.2003 50.1102 25.5056 49.6719 25.7313C49.2337 25.9569 48.4767 26.541 47.9986 27.0189C47.401 27.603 46.976 28.1871 46.6307 28.8774C46.2987 29.5412 46.073 30.2448 45.9402 31.0678C45.7808 32.0103 45.7675 32.4617 45.8738 33.2183C45.9535 33.7493 46.1394 34.4927 46.2855 34.8777C46.4183 35.2627 46.7237 35.8601 46.9495 36.2052C47.162 36.5504 47.5736 37.0814 47.8392 37.3867C48.1181 37.6787 48.7025 38.1566 49.1407 38.4487C49.5789 38.7407 50.243 39.0859 50.6281 39.2319C51.0132 39.3779 51.7569 39.5505 52.2881 39.6434C52.992 39.7496 53.5232 39.7496 54.2137 39.6434C54.7449 39.5505 55.4886 39.3779 55.8738 39.2319C56.2589 39.0859 56.9096 38.754 57.308 38.4885C57.7064 38.2097 58.2111 37.838 58.4103 37.6522C58.6228 37.4531 59.0344 36.9486 59.3399 36.5105C59.6321 36.0725 60.0172 35.3689 60.1898 34.9441C60.3492 34.5193 60.5484 33.6564 60.6148 33.0192C60.721 32.1298 60.7078 31.6386 60.5617 30.935C60.4687 30.4173 60.2828 29.7801 60.1765 29.5014C60.057 29.2226 59.9641 28.8376 59.9641 28.6385C59.9641 28.4394 60.0969 28.134 60.2695 27.9747C60.4289 27.8022 60.721 27.6694 60.9202 27.6694C61.1327 27.6694 61.4249 27.8154 61.5842 27.988C61.7569 28.1606 62.0225 28.7049 62.1951 29.2093C62.3678 29.7138 62.567 30.6164 62.6467 31.2005C62.7396 31.9307 62.7396 32.5811 62.6467 33.3245C62.567 33.9086 62.3545 34.8246 62.1553 35.3822C61.9694 35.9264 61.5577 36.7893 61.239 37.307C60.9202 37.8115 60.2429 38.6213 59.7383 39.0992C59.1938 39.6036 58.3837 40.1744 57.7595 40.5063C57.1885 40.7983 56.405 41.1435 56.0464 41.263C55.6746 41.3824 54.9043 41.5417 54.32 41.6081C53.5896 41.701 52.9123 41.701 52.1287 41.6081C51.5046 41.5285 50.5218 41.2895 49.9375 41.0638C49.3532 40.8514 48.49 40.4134 48.0119 40.0948C47.5338 39.7762 46.7901 39.139 46.3651 38.6744C45.9402 38.2097 45.3957 37.5062 45.1566 37.1079C44.9176 36.6964 44.5723 35.953 44.3864 35.4485C44.2005 34.9308 43.9747 34.0016 43.895 33.3909C43.7755 32.528 43.7755 31.9838 43.895 31.1342C43.9747 30.5102 44.2005 29.581 44.3864 29.0766C44.5723 28.5588 44.9707 27.7225 45.2894 27.2181C45.5949 26.7003 46.2722 25.8906 46.7768 25.4259C47.2815 24.948 48.1048 24.3374 48.6228 24.0719C49.1274 23.7931 49.8047 23.4745 50.1367 23.355C50.4687 23.2356 51.146 23.0497 51.6639 22.9568C52.2084 22.8506 53.0318 22.7975 53.656 22.8373V22.8373Z" fill="#FCFEFF" stroke="white"/>
</svg>
