<svg width="55" height="67" viewBox="0 0 55 67" fill="none" xmlns="http://www.w3.org/2000/svg">
<path fill-rule="evenodd" clip-rule="evenodd" d="M26.6445 1.00159C28.1426 0.988897 29.1963 1.05238 29.8818 1.17936C30.4404 1.28094 31.291 1.4968 31.7861 1.66186C32.2812 1.82693 33.1064 2.18246 33.627 2.44911C34.1475 2.70306 34.9473 3.19826 35.4043 3.54109C35.8613 3.87123 36.6357 4.56959 37.1309 5.07749C37.6387 5.58539 38.2734 6.34723 38.5527 6.76625C38.832 7.18527 39.1494 7.71856 39.2637 7.94712C39.416 8.25186 39.5938 8.39153 40.0127 8.49311C40.3047 8.56929 40.8379 8.75976 41.1807 8.92482C41.5615 9.10259 42.1201 9.547 42.5771 10.0295C43.0469 10.5374 43.4531 11.1342 43.6562 11.604C43.9609 12.3277 43.9736 12.4547 44.0117 15.8449C44.0498 18.6384 44.0117 19.578 43.8467 20.543C43.7324 21.2033 43.4912 22.2064 43.3135 22.7651C43.1357 23.3238 42.7549 24.2634 42.4629 24.8602C42.1709 25.4569 41.7393 26.2315 41.5107 26.5743C41.2695 26.9298 40.8125 27.5266 40.4824 27.9076C39.9111 28.5678 39.873 28.6694 39.7334 29.6852C39.6572 30.282 39.5176 31.0819 39.416 31.4629C39.3145 31.8438 39.1113 32.4786 38.9717 32.8596C38.832 33.2405 38.4512 33.9897 38.1465 34.5102C37.8418 35.0308 37.2705 35.8435 36.877 36.326C36.4834 36.7958 35.8232 37.4434 34.6553 38.383L34.6426 41.0494L38.6162 41.9256C40.7871 42.4081 43.0596 42.9414 43.6562 43.1064C44.2529 43.2842 45.167 43.6143 45.6875 43.8556C46.208 44.1095 47.0078 44.554 47.4648 44.8587C47.9219 45.1634 48.6836 45.7729 49.166 46.2173C49.6484 46.649 50.3848 47.4744 50.8037 48.0331C51.21 48.5918 51.8066 49.5695 52.1113 50.1916C52.416 50.8138 52.8096 51.8804 52.9746 52.5407C53.1523 53.2009 53.3555 54.3056 53.4316 54.9913C53.4951 55.6642 53.5586 58.4196 53.5586 66H1V61.1115C1 58.4196 1.06348 55.6642 1.12695 54.9786C1.20312 54.3056 1.40625 53.2009 1.58398 52.5407C1.74902 51.8804 2.14258 50.8138 2.44727 50.1916C2.75195 49.5695 3.34863 48.5918 3.75488 48.0331C4.17383 47.4744 4.91016 46.649 5.39258 46.2173C5.875 45.7729 6.63672 45.1634 7.09375 44.8587C7.55078 44.554 8.35059 44.1095 8.87109 43.8556C9.3916 43.6143 10.3057 43.2842 10.9023 43.1064C11.499 42.9414 13.7715 42.4081 19.916 41.0494V38.383L19.3955 38.0021C19.1035 37.7989 18.5322 37.2529 18.1006 36.7958C17.6689 36.3387 17.0469 35.5387 16.7168 35.0181C16.3867 34.4976 15.9424 33.6722 15.7393 33.177C15.5234 32.6818 15.2695 31.9454 15.168 31.5263C15.0537 31.1073 14.9014 30.282 14.8252 29.6852C14.6855 28.6694 14.6475 28.5678 14.0762 27.9076C13.7461 27.5266 13.2891 26.9172 13.0479 26.5743C12.8193 26.2188 12.3877 25.4569 12.0957 24.8602C11.8037 24.2634 11.4229 23.3238 11.2451 22.7651C11.0674 22.2064 10.8262 21.1779 10.6992 20.4795C10.5342 19.451 10.4961 18.7273 10.5596 16.6703C10.6104 15.0196 10.6992 13.8134 10.8389 13.242C10.9531 12.7468 11.1816 11.9214 11.3594 11.4008C11.5371 10.8802 11.918 9.99141 12.1973 9.43272C12.4766 8.87403 12.9717 8.0487 13.2891 7.59159C13.6064 7.13448 14.3047 6.32184 14.8252 5.77585C15.3584 5.21716 16.2217 4.45531 16.7422 4.04899C17.2627 3.65537 18.2148 3.07128 18.8369 2.74115C19.459 2.42371 20.4365 2.0047 20.9951 1.82693C21.5537 1.63647 22.4424 1.40791 22.9629 1.30633C23.4834 1.20475 24.0293 1.10317 24.1689 1.07778C24.3086 1.03969 25.4258 1.01429 26.6445 1.00159ZM21.9473 3.73155C21.3506 3.90932 20.5254 4.23945 20.1064 4.44261C19.6875 4.65847 18.9766 5.07749 18.5195 5.36953C18.0625 5.66157 17.3262 6.24565 16.8691 6.66467C16.4121 7.08369 15.7266 7.84554 15.333 8.36613C14.9395 8.88673 14.3809 9.76286 14.1016 10.3215C13.8096 10.8802 13.4414 11.7691 13.2764 12.2897C13.0986 12.8103 12.8955 13.6737 12.7939 14.1943C12.6924 14.7657 12.6289 16.0481 12.6289 17.4321C12.6416 19.1209 12.7051 19.9843 12.8574 20.7335C12.9844 21.2922 13.251 22.2064 13.4541 22.7651C13.6572 23.3238 14.0127 24.0983 14.2412 24.4792L14.6475 25.1776L14.7109 18.7654C22.3789 18.7654 23.5469 18.7273 24.2324 18.5749C24.7148 18.4733 25.502 18.2194 25.9717 18.0289C26.4541 17.8258 27.2031 17.4194 27.6602 17.102C28.1172 16.7973 28.8154 16.2005 29.2217 15.7815C29.6406 15.3624 30.1738 14.6895 30.4277 14.2832L30.8975 13.5467L33.1191 13.5594C33.5 14.1943 33.9189 14.6895 34.3125 15.045C34.7061 15.4132 35.3789 15.883 35.8105 16.0989C36.2549 16.3021 36.9277 16.5306 37.3086 16.6068C37.6895 16.683 38.4258 16.7338 38.9209 16.7338H39.8477L39.9111 25.1776C40.5459 24.0983 40.9014 23.3238 41.1045 22.7651C41.3076 22.2064 41.5742 21.2668 41.7012 20.67C41.8916 19.7812 41.9297 18.9939 41.9424 16.2894C41.9424 13.7372 41.9043 12.8737 41.7646 12.4801C41.6631 12.2008 41.3711 11.7437 41.1299 11.477C40.876 11.1977 40.4443 10.8802 40.165 10.7533C39.8857 10.6263 39.3145 10.4866 38.8955 10.4358L38.1338 10.3596C37.3721 8.84864 36.8896 8.0487 36.5596 7.60428C36.2422 7.14718 35.5947 6.43612 35.1377 6.0171C34.668 5.58538 33.8428 4.97591 33.2969 4.65847C32.7383 4.34103 31.9512 3.94741 31.5322 3.80774C31.1133 3.65537 30.4023 3.43951 29.9453 3.33793C29.3486 3.21096 28.4346 3.16017 26.708 3.16017C25.3877 3.17286 24.0039 3.22365 23.6611 3.28714C23.3057 3.33793 22.5439 3.54109 21.9473 3.73155ZM31.583 16.3021C31.3291 16.6449 30.7832 17.2417 30.3643 17.6226C29.958 18.0035 29.2217 18.5876 28.7393 18.905C28.2441 19.2225 27.5586 19.6161 27.2158 19.7685C26.8604 19.9335 26.2637 20.1748 25.8828 20.3018C25.502 20.4414 24.6387 20.6319 23.9785 20.7335C23.1787 20.8605 21.7441 20.9239 19.751 20.9239H16.7422C16.8311 29.3805 16.8564 29.8376 17.1104 30.7645C17.2627 31.3232 17.5674 32.1739 17.7959 32.6691C18.0244 33.1516 18.5322 34.0023 18.9258 34.5356C19.332 35.0816 20.043 35.8435 20.5127 36.2371C20.9951 36.618 21.7188 37.1386 22.1377 37.3672C22.5566 37.6084 23.2168 37.9132 23.5977 38.0528C23.9785 38.2052 24.6895 38.4084 25.1846 38.51C25.667 38.6115 26.6191 38.7004 27.2793 38.7004C27.9395 38.7004 28.8789 38.6115 29.374 38.51C29.8691 38.4084 30.5801 38.2052 30.9609 38.0528C31.3418 37.9132 32.002 37.6084 32.4209 37.3672C32.8398 37.1386 33.5635 36.618 34.0332 36.2371C34.5156 35.8435 35.2266 35.0816 35.6201 34.5356C36.0264 34.0023 36.5342 33.1516 36.7627 32.6691C36.9912 32.1739 37.2959 31.3232 37.4482 30.7645C37.7148 29.8122 37.7275 29.4059 37.791 24.2888L37.8418 18.8289C36.4961 18.5622 35.7852 18.3717 35.4043 18.2194C35.0234 18.0797 34.3125 17.6861 33.8174 17.3559C33.3223 17.0385 32.7256 16.5306 32.4844 16.2259L32.04 15.6926L31.583 16.3021ZM22.0742 41.4177C25.959 44.6682 27.1777 45.6078 27.2793 45.6078C27.3936 45.6078 28.5996 44.6682 29.9834 43.5128L32.4844 41.4177C32.4844 39.8051 32.459 39.7162 32.2686 39.7924C32.1416 39.8305 31.6719 39.9956 31.2148 40.1606C30.7705 40.313 30.0215 40.5162 29.5645 40.605C29.1201 40.6939 28.0918 40.7701 27.2793 40.7701C26.4795 40.7701 25.4512 40.6939 24.9941 40.605C24.5498 40.5162 23.8008 40.313 23.3438 40.1606C22.8994 39.9956 22.4297 39.8305 22.3154 39.7797C22.1504 39.6908 22.1123 39.8051 22.0996 40.5542L22.0742 41.4177ZM19.0654 43.4112C19.0527 43.4366 19.3955 45.0365 19.8271 46.9665C20.2588 48.9092 20.665 50.4837 20.7158 50.4583C20.7666 50.4456 21.8711 49.6837 23.1533 48.7822C24.4355 47.868 25.4893 47.1061 25.4893 47.0681C25.502 47.03 24.4355 46.1157 23.1406 45.0365C21.8457 43.9572 20.7158 43.0556 20.6396 43.043C20.5508 43.043 20.1699 43.1064 19.7891 43.208C19.4082 43.2969 19.0781 43.3985 19.0654 43.4112ZM29.0947 47.0427C29.082 47.0934 30.123 47.868 31.4053 48.7822C32.6875 49.6837 33.7793 50.4456 33.8428 50.4583C33.8936 50.4837 34.2998 48.9092 34.7314 46.9665C35.1631 45.0365 35.5059 43.4366 35.4932 43.4112C35.4805 43.3985 35.1377 43.2969 34.7314 43.1953C34.3252 43.0937 33.957 43.0049 33.9062 43.0049C33.8555 43.0049 32.7637 43.8937 31.4688 44.9857C30.1738 46.065 29.1074 46.9919 29.0947 47.0427ZM10.2041 45.5571C9.64551 45.7856 8.78223 46.2427 8.2998 46.5602C7.80469 46.8903 7.04297 47.5252 6.58594 47.9696C6.12891 48.4267 5.49414 49.1885 5.16406 49.671C4.83398 50.1535 4.41504 50.9027 4.22461 51.3217C4.03418 51.7407 3.72949 52.5661 3.55176 53.1628C3.24707 54.2167 3.23438 54.3564 3.19629 59.0291L3.1582 63.8287H11.5371V59.6386L13.6318 59.702L13.6953 63.8287H23.2168C23.2168 63.3335 23.4199 60.8321 23.6611 57.9498L24.1055 52.7184L22.8994 51.5249C20.1445 53.4803 19.3066 54.0136 19.2686 53.9501C19.2178 53.8993 18.7988 52.1217 18.3291 49.9885C17.8594 47.8553 17.3643 45.6078 17.2373 44.9984C17.0469 44.1095 16.9453 43.8937 16.7676 43.9064C16.6533 43.9064 15.3457 44.1857 13.8857 44.5159C12.3877 44.8587 10.7754 45.3158 10.2041 45.5571ZM36.2295 49.9885C35.7598 52.1217 35.3408 53.8993 35.29 53.9501C35.252 54.0136 34.4141 53.4803 33.4365 52.7819L31.6592 51.5249L30.4531 52.7184C31.1387 60.8321 31.3418 63.3335 31.3418 63.5113V63.8287H40.8633L40.9268 59.702L43.0215 59.6386V63.8287H51.4004C51.3115 54.3564 51.3115 54.2167 50.9941 53.1628C50.8291 52.5661 50.5244 51.7407 50.334 51.3217C50.1436 50.9027 49.7119 50.1535 49.3945 49.671C49.0645 49.1885 48.4297 48.4267 47.9727 47.9696C47.5156 47.5252 46.7412 46.8903 46.2588 46.5602C45.7637 46.2427 44.9131 45.7856 44.3545 45.5571C43.7705 45.3031 42.1836 44.8714 40.6094 44.5159C39.1113 44.173 37.8164 43.8937 37.7275 43.8937C37.6387 43.8937 37.4736 44.3762 37.334 44.9984C37.1943 45.6078 36.6992 47.8553 36.2295 49.9885ZM24.6133 50.3059L26.2637 51.9566C25.5781 60.4131 25.3496 63.0923 25.3115 63.3462L25.248 63.8287H29.3105C29.209 62.9907 28.9805 60.3242 28.7266 57.353L28.2949 51.9566L29.9453 50.3059C28.0791 48.9727 27.457 48.5537 27.3682 48.5283C27.2793 48.4902 26.6191 48.8711 25.9082 49.379L24.6133 50.3059Z" fill="#78B404" stroke="#78B404"/>
</svg>
