<svg width="55" height="67" viewBox="0 0 55 67" fill="none" xmlns="http://www.w3.org/2000/svg">
<path fill-rule="evenodd" clip-rule="evenodd" d="M26.874 1.38367C28.3721 1.37098 29.4258 1.43446 30.1113 1.56144C30.6699 1.66302 31.5205 1.87888 32.0156 2.04394C32.5107 2.20901 33.3359 2.56454 33.8564 2.83119C34.377 3.08514 35.1768 3.58034 35.6338 3.92317C36.0908 4.25331 36.8652 4.95167 37.3604 5.45957C37.8682 5.96747 38.5029 6.72931 38.7822 7.14833C39.0615 7.56735 39.3789 8.10064 39.4932 8.3292C39.6455 8.63394 39.8232 8.77361 40.2422 8.87519C40.5342 8.95137 41.0674 9.14184 41.4102 9.3069C41.791 9.48467 42.3496 9.92908 42.8066 10.4116C43.2764 10.9195 43.6826 11.5163 43.8857 11.9861C44.1904 12.7098 44.2031 12.8368 44.2412 16.227C44.2793 19.0205 44.2412 19.9601 44.0762 20.9251C43.9619 21.5854 43.7207 22.5885 43.543 23.1472C43.3652 23.7058 42.9844 24.6455 42.6924 25.2422C42.4004 25.839 41.9688 26.6136 41.7402 26.9564C41.499 27.3119 41.042 27.9087 40.7119 28.2896C40.1406 28.9499 40.1025 29.0515 39.9629 30.0673C39.8867 30.6641 39.7471 31.464 39.6455 31.8449C39.5439 32.2259 39.3408 32.8607 39.2012 33.2417C39.0615 33.6226 38.6807 34.3717 38.376 34.8923C38.0713 35.4129 37.5 36.2256 37.1064 36.7081C36.7129 37.1779 36.0527 37.8254 34.8848 38.7651L34.8721 41.4315L38.8457 42.3077C41.0166 42.7902 43.2891 43.3235 43.8857 43.4885C44.4824 43.6663 45.3965 43.9964 45.917 44.2377C46.4375 44.4916 47.2373 44.936 47.6943 45.2408C48.1514 45.5455 48.9131 46.155 49.3955 46.5994C49.8779 47.0311 50.6143 47.8565 51.0332 48.4151C51.4395 48.9738 52.0361 49.9515 52.3408 50.5737C52.6455 51.1959 53.0391 52.2625 53.2041 52.9227C53.3818 53.583 53.585 54.6877 53.6611 55.3734C53.7246 56.0463 53.7881 58.8017 53.7881 66.3821H1.22949V61.4935C1.22949 58.8017 1.29297 56.0463 1.35645 55.3607C1.43262 54.6877 1.63574 53.583 1.81348 52.9227C1.97852 52.2625 2.37207 51.1959 2.67676 50.5737C2.98145 49.9515 3.57813 48.9738 3.98438 48.4151C4.40332 47.8565 5.13965 47.0311 5.62207 46.5994C6.10449 46.155 6.86621 45.5455 7.32324 45.2408C7.78027 44.936 8.58008 44.4916 9.10059 44.2377C9.62109 43.9964 10.5352 43.6663 11.1318 43.4885C11.7285 43.3235 14.001 42.7902 20.1455 41.4315V38.7651L19.625 38.3841C19.333 38.181 18.7617 37.635 18.3301 37.1779C17.8984 36.7208 17.2764 35.9208 16.9463 35.4002C16.6162 34.8796 16.1719 34.0543 15.9687 33.5591C15.7529 33.0639 15.499 32.3274 15.3975 31.9084C15.2832 31.4894 15.1309 30.6641 15.0547 30.0673C14.915 29.0515 14.877 28.9499 14.3057 28.2896C13.9756 27.9087 13.5186 27.2992 13.2773 26.9564C13.0488 26.6009 12.6172 25.839 12.3252 25.2422C12.0332 24.6455 11.6523 23.7058 11.4746 23.1472C11.2969 22.5885 11.0557 21.56 10.9287 20.8616C10.7637 19.8331 10.7256 19.1094 10.7891 17.0524C10.8398 15.4017 10.9287 14.1954 11.0684 13.624C11.1826 13.1288 11.4111 12.3035 11.5889 11.7829C11.7666 11.2623 12.1475 10.3735 12.4268 9.8148C12.7061 9.25611 13.2012 8.43078 13.5186 7.97367C13.8359 7.51656 14.5342 6.70392 15.0547 6.15793C15.5879 5.59924 16.4512 4.83739 16.9717 4.43107C17.4922 4.03745 18.4443 3.45336 19.0664 3.12323C19.6885 2.80579 20.666 2.38678 21.2246 2.20901C21.7832 2.01855 22.6719 1.78999 23.1924 1.68841C23.7129 1.58683 24.2588 1.48525 24.3984 1.45986C24.5381 1.42177 25.6553 1.39637 26.874 1.38367V1.38367ZM22.1768 4.11363C21.5801 4.2914 20.7549 4.62153 20.3359 4.82469C19.917 5.04055 19.2061 5.45957 18.749 5.75161C18.292 6.04365 17.5557 6.62773 17.0986 7.04675C16.6416 7.46577 15.9561 8.22762 15.5625 8.74821C15.1689 9.26881 14.6104 10.1449 14.3311 10.7036C14.0391 11.2623 13.6709 12.1511 13.5059 12.6717C13.3281 13.1923 13.125 14.0558 13.0234 14.5764C12.9219 15.1477 12.8584 16.4302 12.8584 17.8142C12.8711 19.503 12.9346 20.3664 13.0869 21.1156C13.2139 21.6742 13.4805 22.5885 13.6836 23.1472C13.8867 23.7058 14.2422 24.4804 14.4707 24.8613L14.877 25.5597L14.9404 19.1474C22.6084 19.1474 23.7764 19.1094 24.4619 18.957C24.9443 18.8554 25.7314 18.6015 26.2012 18.411C26.6836 18.2078 27.4326 17.8015 27.8896 17.4841C28.3467 17.1793 29.0449 16.5826 29.4512 16.1635C29.8701 15.7445 30.4033 15.0716 30.6572 14.6652L31.127 13.9288L33.3486 13.9415C33.7295 14.5764 34.1484 15.0716 34.542 15.4271C34.9355 15.7953 35.6084 16.2651 36.04 16.481C36.4844 16.6841 37.1572 16.9127 37.5381 16.9889C37.9189 17.0651 38.6553 17.1159 39.1504 17.1159H40.0771L40.1406 25.5597C40.7754 24.4804 41.1309 23.7058 41.334 23.1472C41.5371 22.5885 41.8037 21.6489 41.9307 21.0521C42.1211 20.1632 42.1592 19.376 42.1719 16.6714C42.1719 14.1192 42.1338 13.2558 41.9941 12.8622C41.8926 12.5829 41.6006 12.1257 41.3594 11.8591C41.1055 11.5798 40.6738 11.2623 40.3945 11.1353C40.1152 11.0084 39.5439 10.8687 39.125 10.8179L38.3633 10.7417C37.6016 9.23072 37.1191 8.43078 36.7891 7.98636C36.4717 7.52926 35.8242 6.8182 35.3672 6.39918C34.8975 5.96747 34.0723 5.35799 33.5264 5.04055C32.9678 4.72311 32.1807 4.32949 31.7617 4.18982C31.3428 4.03745 30.6318 3.82159 30.1748 3.72001C29.5781 3.59304 28.6641 3.54225 26.9375 3.54225C25.6172 3.55494 24.2334 3.60573 23.8906 3.66922C23.5352 3.72001 22.7734 3.92317 22.1768 4.11363V4.11363ZM31.8125 16.6841C31.5586 17.027 31.0127 17.6238 30.5938 18.0047C30.1875 18.3856 29.4512 18.9697 28.9688 19.2871C28.4736 19.6046 27.7881 19.9982 27.4453 20.1506C27.0898 20.3156 26.4932 20.5569 26.1123 20.6838C25.7314 20.8235 24.8682 21.014 24.208 21.1156C23.4082 21.2425 21.9736 21.306 19.9805 21.306H16.9717C17.0605 29.7625 17.0859 30.2197 17.3398 31.1466C17.4922 31.7053 17.7969 32.556 18.0254 33.0512C18.2539 33.5337 18.7617 34.3844 19.1553 34.9177C19.5615 35.4637 20.2725 36.2256 20.7422 36.6192C21.2246 37.0001 21.9482 37.5207 22.3672 37.7493C22.7861 37.9905 23.4463 38.2953 23.8271 38.4349C24.208 38.5873 24.9189 38.7905 25.4141 38.892C25.8965 38.9936 26.8486 39.0825 27.5088 39.0825C28.1689 39.0825 29.1084 38.9936 29.6035 38.892C30.0986 38.7905 30.8096 38.5873 31.1904 38.4349C31.5713 38.2953 32.2314 37.9905 32.6504 37.7493C33.0693 37.5207 33.793 37.0001 34.2627 36.6192C34.7451 36.2256 35.4561 35.4637 35.8496 34.9177C36.2559 34.3844 36.7637 33.5337 36.9922 33.0512C37.2207 32.556 37.5254 31.7053 37.6777 31.1466C37.9443 30.1943 37.957 29.7879 38.0205 24.6709L38.0713 19.2109C36.7256 18.9443 36.0146 18.7538 35.6338 18.6015C35.2529 18.4618 34.542 18.0682 34.0469 17.738C33.5518 17.4206 32.9551 16.9127 32.7139 16.608L32.2695 16.0747L31.8125 16.6841ZM22.3037 41.7998C26.1885 45.0503 27.4072 45.9899 27.5088 45.9899C27.623 45.9899 28.8291 45.0503 30.2129 43.8948L32.7139 41.7998C32.7139 40.1872 32.6885 40.0983 32.498 40.1745C32.3711 40.2126 31.9014 40.3776 31.4443 40.5427C31 40.6951 30.251 40.8982 29.7939 40.9871C29.3496 41.076 28.3213 41.1522 27.5088 41.1522C26.709 41.1522 25.6807 41.076 25.2236 40.9871C24.7793 40.8982 24.0303 40.6951 23.5732 40.5427C23.1289 40.3776 22.6592 40.2126 22.5449 40.1618C22.3799 40.0729 22.3418 40.1872 22.3291 40.9363L22.3037 41.7998ZM19.2949 43.7933C19.2822 43.8187 19.625 45.4185 20.0566 47.3486C20.4883 49.2913 20.8945 50.8658 20.9453 50.8404C20.9961 50.8277 22.1006 50.0658 23.3828 49.1643C24.665 48.2501 25.7187 47.4882 25.7187 47.4501C25.7314 47.412 24.665 46.4978 23.3701 45.4185C22.0752 44.3393 20.9453 43.4377 20.8691 43.425C20.7803 43.425 20.3994 43.4885 20.0186 43.5901C19.6377 43.679 19.3076 43.7806 19.2949 43.7933V43.7933ZM29.3242 47.4247C29.3115 47.4755 30.3525 48.2501 31.6348 49.1643C32.917 50.0658 34.0088 50.8277 34.0723 50.8404C34.123 50.8658 34.5293 49.2913 34.9609 47.3486C35.3926 45.4185 35.7354 43.8187 35.7227 43.7933C35.71 43.7806 35.3672 43.679 34.9609 43.5774C34.5547 43.4758 34.1865 43.3869 34.1357 43.3869C34.085 43.3869 32.9932 44.2758 31.6982 45.3677C30.4033 46.447 29.3369 47.3739 29.3242 47.4247ZM10.4336 45.9391C9.875 46.1677 9.01172 46.6248 8.5293 46.9422C8.03418 47.2724 7.27246 47.9072 6.81543 48.3517C6.3584 48.8088 5.72363 49.5706 5.39355 50.0531C5.06348 50.5356 4.64453 51.2848 4.4541 51.7038C4.26367 52.1228 3.95898 52.9481 3.78125 53.5449C3.47656 54.5988 3.46387 54.7385 3.42578 59.4112L3.3877 64.2108H11.7666V60.0206L13.8613 60.0841L13.9248 64.2108H23.4463C23.4463 63.7156 23.6494 61.2142 23.8906 58.3319L24.335 53.1005L23.1289 51.907C20.374 53.8624 19.5361 54.3957 19.498 54.3322C19.4473 54.2814 19.0283 52.5037 18.5586 50.3706C18.0889 48.2374 17.5938 45.9899 17.4668 45.3804C17.2764 44.4916 17.1748 44.2758 16.9971 44.2885C16.8828 44.2885 15.5752 44.5678 14.1152 44.8979C12.6172 45.2408 11.0049 45.6979 10.4336 45.9391V45.9391ZM36.459 50.3706C35.9893 52.5037 35.5703 54.2814 35.5195 54.3322C35.4814 54.3957 34.6436 53.8624 33.666 53.164L31.8887 51.907L30.6826 53.1005C31.3682 61.2142 31.5713 63.7156 31.5713 63.8934V64.2108H41.0928L41.1562 60.0841L43.251 60.0206V64.2108H51.6299C51.541 54.7385 51.541 54.5988 51.2236 53.5449C51.0586 52.9481 50.7539 52.1228 50.5635 51.7038C50.373 51.2848 49.9414 50.5356 49.624 50.0531C49.2939 49.5706 48.6592 48.8088 48.2021 48.3517C47.7451 47.9072 46.9707 47.2724 46.4883 46.9422C45.9932 46.6248 45.1426 46.1677 44.584 45.9391C44 45.6852 42.4131 45.2535 40.8389 44.8979C39.3408 44.5551 38.0459 44.2758 37.957 44.2758C37.8682 44.2758 37.7031 44.7583 37.5635 45.3804C37.4238 45.9899 36.9287 48.2374 36.459 50.3706V50.3706ZM24.8428 50.688L26.4932 52.3387C25.8076 60.7952 25.5791 63.4744 25.541 63.7283L25.4775 64.2108H29.54C29.4385 63.3728 29.21 60.7063 28.9561 57.7351L28.5244 52.3387L30.1748 50.688C28.3086 49.3548 27.6865 48.9357 27.5977 48.9103C27.5088 48.8723 26.8486 49.2532 26.1377 49.7611L24.8428 50.688Z" fill="white" stroke="white"/>
</svg>
