<svg width="100" height="83" viewBox="0 0 100 83" fill="none" xmlns="http://www.w3.org/2000/svg">
<path d="M65.6818 55.1307L70.6818 50.3268L61.1364 40.7189C61.9697 39.4227 62.5955 38.0501 63.0136 36.6013C63.4318 35.1525 63.6394 33.6274 63.6364 32.0261C63.6364 27.5272 62.0636 23.7329 58.9182 20.6431C55.7727 17.5534 52.0424 16.01 47.7273 16.0131C43.4091 16.0131 39.6773 17.5564 36.5318 20.6431C33.3864 23.7298 31.8152 27.5242 31.8182 32.0261C31.8182 36.5251 33.3909 40.3194 36.5364 43.4091C39.6818 46.4989 43.4121 48.0423 47.7273 48.0392C49.3182 48.0392 50.8152 47.8288 52.2182 47.4078C53.6212 46.9869 55.003 46.3586 56.3636 45.5229L65.6818 55.1307ZM47.7273 41.1765C45.2273 41.1765 43.0864 40.2797 41.3046 38.4863C39.5227 36.6928 38.6333 34.5394 38.6364 32.0261C38.6364 29.5098 39.5273 27.3549 41.3091 25.5614C43.0909 23.768 45.2303 22.8728 47.7273 22.8758C50.1515 22.8758 52.2727 23.7726 54.0909 25.566C55.9091 27.3595 56.8182 29.5129 56.8182 32.0261C56.8182 34.5425 55.9273 36.6974 54.1455 38.4908C52.3636 40.2843 50.2242 41.1795 47.7273 41.1765ZM4.54547 82.3529C3.25759 82.3529 2.17729 81.9137 1.30456 81.0353C0.431833 80.1568 -0.00301457 79.071 1.57282e-05 77.7778C1.57282e-05 76.4815 0.436379 75.3941 1.30911 74.5157C2.18183 73.6372 3.26062 73.1995 4.54547 73.2026H95.4545C96.7424 73.2026 97.8227 73.6418 98.6954 74.5202C99.5682 75.3987 100.003 76.4845 100 77.7778C100 79.0741 99.5636 80.1614 98.6909 81.0398C97.8182 81.9183 96.7394 82.356 95.4545 82.3529H4.54547ZM13.6364 68.6274C11.1364 68.6274 8.99547 67.7307 7.21365 65.9372C5.43183 64.1438 4.54244 61.9904 4.54547 59.4771V9.15033C4.54547 6.63399 5.43638 4.47909 7.2182 2.68563C9.00001 0.892164 11.1394 -0.00304234 13.6364 7.76768e-06H86.3636C88.8636 7.76768e-06 91.0045 0.89674 92.7864 2.6902C94.5682 4.48367 95.4576 6.63704 95.4545 9.15033V59.4771C95.4545 61.9935 94.5636 64.1484 92.7818 65.9418C91 67.7353 88.8606 68.6305 86.3636 68.6274H13.6364ZM13.6364 59.4771H86.3636V9.15033H13.6364V59.4771Z" fill="#78B404"/>
</svg>
