<svg width="67" height="67" viewBox="0 0 67 67" fill="none" xmlns="http://www.w3.org/2000/svg">
<path fill-rule="evenodd" clip-rule="evenodd" d="M52.9015 0L54.3196 0.309394C55.106 0.476983 56.1373 0.773485 56.6401 0.966857C57.1428 1.14734 58.0065 1.54697 58.5738 1.84347C59.141 2.13998 60.0434 2.7072 60.5719 3.10683C61.1005 3.50647 61.9513 4.26706 62.4412 4.78272C62.944 5.31126 63.653 6.17499 64.0011 6.70354C64.362 7.23209 64.8777 8.09581 65.1355 8.61147C65.3933 9.11423 65.7414 9.96507 65.9219 10.4678C66.0895 10.9835 66.3473 11.989 66.502 12.698C66.7598 13.9485 66.7598 14.361 66.7598 40.8658L66.4375 41.3815C66.2571 41.6651 65.8961 42.0518 65.6383 42.2452C65.2257 42.5675 65.0582 42.6061 64.1686 42.6061C63.2534 42.6061 63.1373 42.5804 62.6732 42.2065C62.4025 41.9874 62.0673 41.6135 61.9255 41.3686C61.6677 40.9432 61.6677 40.6338 61.6032 27.3298C61.5388 15.1861 61.513 13.652 61.3196 13.0203C61.2036 12.6336 60.9845 11.989 60.8427 11.6023C60.7008 11.2155 60.3012 10.4549 59.9531 9.92639C59.6051 9.39785 58.9992 8.62436 58.5995 8.22473C58.187 7.8122 57.4135 7.18052 56.8721 6.83245C56.3178 6.47149 55.5443 6.05897 55.1575 5.91716C54.7708 5.77536 54.1262 5.5562 53.7395 5.44018C53.0949 5.24681 51.3288 5.22103 34.3379 5.18235C20.5183 5.15657 15.3875 5.18235 14.6785 5.29837C14.1499 5.37572 13.2733 5.59488 12.7448 5.78825C12.2162 5.96873 11.3396 6.39414 10.8111 6.72932C10.2825 7.05161 9.48324 7.68329 9.04493 8.1087C8.59373 8.54701 7.93627 9.34628 7.5882 9.90061C7.22724 10.4421 6.81471 11.2155 6.67291 11.6023C6.5311 11.989 6.31195 12.6594 6.19592 13.0848C5.98966 13.7938 5.97677 15.5213 5.97677 33.002C5.97677 50.4828 5.98966 52.2103 6.19592 52.9193C6.31195 53.3447 6.5311 54.0151 6.67291 54.4018C6.81471 54.7885 7.21435 55.5491 7.56241 56.0777C7.91048 56.6062 8.55505 57.4184 9.01915 57.8567C9.47034 58.3079 10.2567 58.9396 10.7466 59.249C11.2365 59.5584 11.9713 59.9322 12.358 60.0869C12.7448 60.2287 13.3893 60.4479 13.7761 60.5639C14.4078 60.7573 15.9676 60.7831 41.57 60.912L42.0856 61.2471C42.3564 61.4276 42.7302 61.8015 42.9107 62.0851C43.1685 62.4847 43.233 62.7554 43.233 63.4258C43.233 64.0961 43.1685 64.3669 42.9107 64.7794C42.7302 65.0501 42.3306 65.4497 41.4282 66.0041H28.0211C14.9492 66.0041 14.5882 66.0041 13.3893 65.7334C12.719 65.5915 11.7392 65.3337 11.2365 65.1532C10.7208 64.9856 9.86998 64.6376 9.36721 64.3798C8.85156 64.1219 7.98783 63.6192 7.45928 63.2582C6.93073 62.8972 5.96388 62.0851 5.31931 61.4405C4.67474 60.7959 3.86258 59.8291 3.50162 59.3005C3.14066 58.772 2.63789 57.9083 2.38006 57.4055C2.12223 56.8898 1.77417 56.039 1.59369 55.5362C1.4261 55.0206 1.18116 54.1955 1.06514 53.6928C0.845984 52.8548 0.833093 51.3207 0.794418 33.4532C0.742853 14.1935 0.755744 14.1161 1.02646 12.698C1.16827 11.9246 1.43899 10.8675 1.61947 10.3776C1.79995 9.88772 2.14802 9.06267 2.40585 8.57279C2.65078 8.08292 3.14066 7.23209 3.50162 6.70354C3.86258 6.17499 4.67474 5.20813 5.31931 4.56356C5.96388 3.91899 6.95652 3.08105 7.52374 2.7072C8.09096 2.32046 9.01914 1.79191 9.58637 1.52119C10.1536 1.25047 11.0302 0.902399 11.5201 0.747702C12.01 0.593005 12.8608 0.373851 13.3893 0.244937C14.2788 0.0515657 15.9547 0.0257828 52.9015 0ZM37.4963 34.3041C37.6768 34.2912 39.7007 34.665 42.0083 35.1162C44.3159 35.5674 46.7781 36.1347 47.4871 36.3538C48.1962 36.5859 49.2404 36.9984 49.8076 37.2691C50.3748 37.5269 51.303 38.0555 51.8702 38.4293C52.4375 38.7903 53.3398 39.4606 53.8684 39.9118C54.3969 40.3501 57.0397 42.9413 59.7469 45.6614C62.4541 48.3815 64.839 50.8567 65.0453 51.1789C65.2644 51.5012 65.5867 52.0427 65.7672 52.4036C65.9348 52.7517 66.2184 53.4865 66.386 54.0151C66.6438 54.8143 66.6954 55.2655 66.6954 56.5933C66.6954 57.9212 66.6438 58.3724 66.386 59.1716C66.2184 59.7002 65.9219 60.4608 65.7285 60.8475C65.5351 61.2343 65.0839 61.9304 64.7488 62.3816C64.4007 62.8457 63.769 63.4902 63.3436 63.8383C62.9182 64.1735 62.1963 64.6505 61.7322 64.8954C61.2681 65.1403 60.4043 65.4884 59.7985 65.6689C58.9218 65.9396 58.432 66.0041 57.3491 66.0041C56.2533 66.0041 55.7892 65.9396 54.8997 65.6689C54.2938 65.4884 53.5203 65.179 53.1594 65.0114C52.8113 64.831 52.257 64.5087 51.9347 64.2895C51.6124 64.0833 49.163 61.7241 46.4816 59.0556C43.8002 56.3871 41.209 53.7443 40.732 53.1771C40.2422 52.6099 39.546 51.6817 39.1851 51.1145C38.8112 50.5473 38.2827 49.6191 38.0248 49.0519C37.7541 48.4846 37.3416 47.4404 37.1096 46.7314C36.8904 46.0224 36.3232 43.5601 35.872 41.2525C35.4208 38.945 35.0469 36.9468 35.0469 36.805C35.0469 36.6632 35.1114 36.328 35.1758 36.0573C35.2532 35.7866 35.5239 35.3612 35.8204 35.0647C36.104 34.7811 36.5294 34.4974 36.7615 34.433C36.9806 34.3685 37.3158 34.3041 37.4963 34.3041ZM41.3766 42.503C41.5958 43.5601 41.9052 44.8364 42.0856 45.3391C42.2532 45.8548 42.5497 46.5896 42.7302 46.9506C42.9236 47.3244 43.3361 48.0334 43.6455 48.5362C44.0709 49.1937 45.6695 50.8953 49.5369 54.7628C53.8297 59.0814 54.9642 60.1514 55.5443 60.435C56.1502 60.7315 56.4209 60.7831 57.3491 60.7831C58.2773 60.7831 58.5609 60.7315 59.1539 60.435C59.5406 60.2545 60.1207 59.8162 60.4301 59.4681C60.7524 59.1329 61.1263 58.5915 61.2681 58.2692C61.4614 57.8438 61.5259 57.4055 61.5388 56.5933C61.5388 55.6523 61.4872 55.3944 61.1907 54.7885C60.9071 54.2084 59.8371 53.074 55.5185 48.7811C51.6511 44.9137 49.9494 43.3152 49.2919 42.8898C48.7892 42.5804 48.0802 42.1678 47.7063 41.9745C47.3453 41.794 46.6105 41.4975 46.0949 41.3299C45.5921 41.1494 44.3159 40.84 43.2588 40.6209C42.2146 40.4017 41.2735 40.2212 41.1703 40.2212C41.0672 40.2212 40.977 40.3115 40.977 40.4146C40.977 40.5177 41.1575 41.4588 41.3766 42.503ZM16.8056 12.7754C17.0892 12.7625 17.6048 12.8527 17.9658 12.9817C18.3525 13.1106 18.8166 13.4071 19.1389 13.7165C19.4483 14.0388 19.7448 14.5028 19.8737 14.8896C20.0026 15.2377 20.0929 15.7404 20.0929 15.9854C20.0929 16.2303 20.0026 16.7202 19.8737 17.0811C19.7448 17.4679 19.4483 17.932 19.1389 18.2543C18.8166 18.5636 18.3525 18.8601 17.9658 18.9891C17.6048 19.118 17.115 19.2082 16.87 19.2082C16.6251 19.2082 16.1223 19.118 15.7742 18.9891C15.3875 18.8601 14.9234 18.5636 14.6011 18.2543C14.2917 17.932 13.9952 17.4679 13.8663 17.0811C13.7374 16.7202 13.6472 16.2303 13.6472 15.9854C13.6472 15.7404 13.7374 15.2377 13.8663 14.8896C13.9952 14.5028 14.2917 14.0259 14.6011 13.7165C14.8976 13.4329 15.3875 13.1106 15.7098 12.9946C16.0321 12.8785 16.522 12.7754 16.8056 12.7754ZM52.1281 13.7294L52.6308 14.0516C52.9144 14.2321 53.2883 14.606 53.4688 14.8767C53.7395 15.2892 53.8039 15.5471 53.8039 16.2432C53.8039 16.9393 53.7395 17.1972 53.4688 17.6097C53.2883 17.8804 52.9144 18.2543 52.1281 18.757H26.8609L26.3581 18.4347C26.0745 18.2543 25.7135 17.9062 25.5459 17.6612C25.3912 17.4163 25.2237 16.9522 25.1721 16.6299C25.1334 16.3076 25.1592 15.8049 25.2366 15.4955C25.3268 15.1603 25.5717 14.7607 25.894 14.4384C26.1776 14.1548 26.603 13.8712 26.8222 13.8067C27.0671 13.7294 32.43 13.6907 52.1281 13.7294ZM52.1281 24.0425L52.6308 24.3648C52.9144 24.5453 53.2883 24.9191 53.4688 25.1898C53.7395 25.6024 53.8039 25.8602 53.8039 26.5563C53.8039 27.2525 53.7395 27.5103 53.4688 27.9228C53.2883 28.1935 52.9144 28.5674 52.1281 29.0702H15.3875L14.8847 28.7479C14.6011 28.5674 14.2402 28.2193 14.0726 27.9744C13.9179 27.7294 13.7503 27.2654 13.6987 26.9431C13.6601 26.6208 13.6858 26.118 13.7632 25.8086C13.8534 25.4734 14.0984 25.0738 14.4206 24.7515C14.7043 24.4679 15.1297 24.1843 15.3488 24.1198C15.6067 24.0425 23.2513 24.0038 52.1281 24.0425ZM26.3452 34.3556L26.848 34.6779C27.1316 34.8584 27.5054 35.2323 27.6859 35.503C27.9566 35.9155 28.0211 36.1733 28.0211 36.8695C28.0211 37.5656 27.9566 37.8234 27.6859 38.236C27.5054 38.5067 27.1316 38.8805 26.3452 39.3833H15.3875L14.8847 39.061C14.6011 38.8805 14.2402 38.5325 14.0726 38.2875C13.9179 38.0426 13.7503 37.5785 13.6987 37.2562C13.6601 36.9339 13.6858 36.4312 13.7632 36.1218C13.8534 35.7866 14.0984 35.3869 14.4206 35.0647C14.7043 34.7811 15.1297 34.4974 15.3488 34.433C15.5938 34.3556 18.1076 34.317 26.3452 34.3556Z" fill="#FAB100"/>
</svg>
