<svg width="96" height="102" viewBox="0 0 96 102" fill="none" xmlns="http://www.w3.org/2000/svg">
<path fill-rule="evenodd" clip-rule="evenodd" d="M47.5822 1.22715C47.0451 1.32813 45.8699 1.76543 44.9705 2.19903C42.0881 3.58868 39.9822 6.1719 39.1873 9.293C38.9445 10.2461 38.8908 11.9987 38.8908 18.961L38.891 27.4649L24.0142 27.4091C13.7411 27.3706 8.81705 27.4198 8.10201 27.5683C5.40376 28.1284 3.05414 30.0066 1.82444 32.5861C1.10296 34.0997 1.09983 34.1171 1.02971 37.0638C0.963113 39.8599 0.981668 40.0443 1.37034 40.433C1.9723 41.0349 3.00921 40.9849 3.52484 40.3293C3.88266 39.8746 3.92973 39.5459 3.92973 37.5046C3.92973 35.6476 4.00883 34.9827 4.33363 34.1152C4.81274 32.8345 6.03442 31.5316 7.38501 30.8611L8.32428 30.3946H23.2657H38.2072L39.2256 30.8552C40.4939 31.4286 41.833 32.8353 42.325 34.1111C42.6818 35.0363 42.6994 35.7546 42.6994 49.34V63.5979L40.258 63.6956C38.0912 63.7823 37.6912 63.8547 36.7027 64.3401C35.2654 65.046 33.9482 66.5061 33.405 67.9962C32.998 69.1122 32.9095 69.2007 29.7517 71.6423C27.9718 73.0186 26.4513 74.1716 26.373 74.204C26.2947 74.2366 26.2007 73.3009 26.1642 72.1243C26.064 68.8966 26.9978 69.2044 17.046 69.1186C9.65358 69.0552 8.61158 69.0079 7.79791 68.7005C6.57485 68.238 5.20317 66.9985 4.55531 65.7704L4.02738 64.7698L3.92973 56.2449C3.83773 48.2123 3.81058 47.6965 3.46 47.3094C2.97445 46.7732 1.91702 46.7629 1.39065 47.2892C1.01214 47.6678 1.00003 47.9402 1.00003 56.061C1.00003 65.2274 1.04182 65.6223 2.22816 67.6464C2.95511 68.8868 4.73383 70.4714 6.13598 71.1274C7.88638 71.9466 9.37604 72.0811 16.7716 72.088L23.2657 72.094V75.0911C23.2657 78.315 23.3202 78.4968 24.3814 78.82C24.9728 79.0001 25.1991 78.8575 29.0662 75.87C30.9326 74.428 32.5851 73.2001 32.7382 73.1413C32.9763 73.0499 33.0248 74.3589 33.0728 82.1833L33.1291 91.3324L33.6728 92.3644C34.3984 93.7414 35.5648 94.8726 36.9088 95.5027C38.0051 96.0168 38.0445 96.0203 43.3342 96.0803L48.6565 96.1406V97.8777C48.6565 98.8332 48.7541 99.8289 48.8733 100.091C49.0967 100.581 49.7895 101.001 50.3746 101C50.5576 101 52.1186 99.9127 53.8436 98.5844L56.9799 96.1689L58.7264 96.084C61.7327 95.9379 63.7055 94.6578 64.9181 92.067C65.4755 90.8757 65.5171 90.6314 65.5335 88.4566C65.5503 86.2306 65.53 86.1068 65.0899 85.7495C64.5411 85.304 63.7425 85.2665 63.1807 85.6601C62.821 85.9121 62.763 86.1994 62.6766 88.1552C62.5718 90.5326 62.3735 91.147 61.418 92.0545C60.5298 92.8982 59.5924 93.1879 57.7501 93.1879H56.0887L53.8864 94.8564L51.6838 96.5248L51.6262 95.2543C51.5764 94.1558 51.5 93.9297 51.0627 93.5857C50.5799 93.206 50.293 93.1877 44.7727 93.1836C39.5596 93.1797 38.9113 93.1435 38.2072 92.8176C37.2978 92.3967 36.4642 91.5642 36.1689 90.7826C36.0314 90.4191 35.9611 86.6929 35.9611 79.7884C35.9611 69.9251 35.9816 69.3038 36.331 68.6194C36.7541 67.7905 37.1633 67.3913 38.051 66.9419C38.6045 66.6616 39.8881 66.6253 49.2424 66.6253C58.5967 66.6253 59.8803 66.6616 60.4339 66.9419C61.3272 67.3942 61.7272 67.7874 62.1977 68.676C62.576 69.3909 62.6173 69.8309 62.6827 73.8519C62.763 78.7903 62.8014 78.93 64.0862 78.93C64.5714 78.93 64.9284 78.7954 65.179 78.5181C65.5229 78.1374 65.5503 77.7655 65.5401 73.5864C65.53 69.3136 65.5042 69.0028 65.069 67.8962C64.4429 66.3042 62.8344 64.6942 61.2942 64.118C60.2118 63.7129 59.868 63.6956 52.9459 63.6956H45.7268V59.8661C45.7268 56.2977 45.75 56.0457 46.0686 56.1717C47.5483 56.7573 49.158 56.853 57.592 56.8563L66.2347 56.8596V60.7516V64.6438L66.7493 65.0485C67.0323 65.2712 67.4632 65.4534 67.7067 65.4534C67.9839 65.4534 70.223 63.8628 73.6864 61.2053L79.223 56.9573L82.5433 56.8387C85.4258 56.7358 86.0537 56.6535 87.3053 56.2147C89.956 55.285 92.225 53.3645 93.4689 50.9971C94.8051 48.4543 94.7658 49.1773 94.7063 28.2931L94.6527 9.49613L94.0893 8.12893C92.9162 5.28244 91.0494 3.29044 88.4027 2.06133C86.5722 1.21113 85.2629 1 81.8238 1C79.1904 1 78.8949 1.03516 78.5394 1.39063C78.0023 1.92774 78.021 3.01427 78.5763 3.53146C78.966 3.89454 79.2554 3.9297 81.8554 3.9297C86.0443 3.9297 87.6136 4.4338 89.5553 6.40334C90.0572 6.91233 90.7504 7.90257 91.0955 8.60374L91.723 9.87855V28.9257V47.9728L91.0947 49.2568C90.3986 50.6791 88.8779 52.2625 87.5642 52.9326C86.0418 53.7094 84.6896 53.9299 81.4488 53.9299H78.3855L73.8237 57.4221L69.262 60.9143L69.1644 57.7952C69.0708 54.8096 69.047 54.6598 68.6056 54.3027C68.1661 53.9473 67.704 53.9299 58.703 53.9299C48.9717 53.9299 47.9217 53.8606 46.4592 53.1205L45.7268 52.75V44.1699C45.7268 38.6109 45.6502 35.2251 45.509 34.5546C45.1563 32.8775 44.3777 31.4607 43.0488 30.0786L41.8062 28.786L41.8621 19.3364L41.9182 9.88675L42.5201 8.61663C43.175 7.2346 44.5109 5.7633 45.793 5.01213C47.5832 3.9631 48.0203 3.9297 59.928 3.9297C70.6618 3.9297 70.9314 3.92052 71.3128 3.53907C71.5546 3.29727 71.7034 2.88809 71.7034 2.46485C71.7034 2.04161 71.5546 1.63242 71.3128 1.39063C70.9308 1.00859 70.6769 1.00039 59.7405 1.02188C53.5905 1.03379 48.1194 1.12637 47.5822 1.22715ZM68.3831 12.0918C67.4087 12.6245 66.8667 13.5209 66.7288 14.8282C66.5442 16.576 66.0708 18.2075 65.4706 19.1641C65.1671 19.6475 63.9321 21.1614 62.7259 22.5284C60.7932 24.7186 60.4987 24.9796 60.2448 24.7257C60.0071 24.4878 59.1428 24.4376 55.2942 24.4376C50.6975 24.4376 50.6274 24.4436 50.3278 24.8718C50.0627 25.2501 50.0237 26.5169 50.0237 34.7351C50.0237 43.9039 50.0344 44.175 50.4143 44.5549C50.7826 44.9232 51.0653 44.9455 55.3645 44.9455C59.6448 44.9455 59.9454 44.922 60.2706 44.5627C60.6106 44.1869 60.6298 44.1865 61.3321 44.5447C63.3803 45.5898 63.7886 45.6291 72.5823 45.6291C80.7365 45.6291 80.7904 45.6263 81.6154 45.1857C82.0718 44.942 82.6871 44.3771 82.9826 43.9308L83.5199 43.1191L83.5783 35.2921C83.6103 30.9872 83.5839 27.1774 83.5197 26.8261C83.3675 25.9933 82.3595 24.8593 81.3732 24.4112C80.6992 24.105 80.0371 24.055 76.6142 24.0513C72.9042 24.0472 72.6478 24.0241 72.7812 23.7052C73.7708 21.3389 74.0511 18.8528 73.5792 16.6251C73.1866 14.7721 72.2554 12.8602 71.4743 12.3041C70.6386 11.709 69.2571 11.6141 68.3831 12.0918ZM70.2052 15.5631C70.3876 15.946 70.6403 16.8612 70.7665 17.5971C71.0646 19.3356 70.7786 20.9473 69.7386 23.3911C69.3153 24.3854 68.969 25.3831 68.969 25.6083C68.969 25.8337 69.1849 26.2335 69.4485 26.4972L69.9278 26.9767H75.0736C78.8152 26.9767 80.283 27.0405 80.4535 27.211C80.6277 27.3853 80.6878 29.3667 80.6878 34.9191C80.6878 42.1082 80.6734 42.4004 80.3101 42.5949C79.8076 42.8638 66.5526 42.8615 64.8927 42.5922C63.5872 42.3804 62.4641 41.9019 61.4007 41.1047L60.7659 40.6287V34.8951V29.1616L64.1847 25.2858C66.4069 22.7667 67.8368 20.9659 68.2696 20.1407C69.0237 18.7034 69.555 16.8553 69.555 15.6692C69.555 14.6833 69.7689 14.6483 70.2052 15.5631ZM57.8362 34.6915V42.0158H55.3948H52.9534V34.6915V27.3673H55.3948H57.8362V34.6915ZM20.645 39.2636C20.3567 39.5822 20.0347 41.1005 19.3673 45.2873C19.363 45.314 17.9581 45.3361 16.2454 45.3361C13.2911 45.3361 13.1061 45.3586 12.6421 45.7756C11.9356 46.4103 11.8887 47.2404 12.5235 47.8752C12.8794 48.231 13.1745 48.2658 15.8438 48.2658H18.7735L18.7644 48.8029C18.7595 49.0982 18.6489 49.9113 18.519 50.6096L18.2827 51.8791L15.5587 51.9338C12.4475 51.9961 12.1329 52.1256 12.1329 53.344C12.1329 54.594 12.5635 54.7977 15.3759 54.8778C16.7075 54.9156 17.7964 54.9596 17.7956 54.9754C17.795 54.9912 17.6198 56.0149 17.4063 57.2502C17.1929 58.4856 17.0177 59.7227 17.0171 59.9995C17.0153 60.669 17.7698 61.3518 18.5116 61.3518C19.504 61.3518 19.7653 60.8356 20.2661 57.8852C20.5169 56.408 20.7232 55.1336 20.7243 55.0529C20.7257 54.9723 21.5177 54.9065 22.4845 54.9065C23.6331 54.9065 24.2423 54.9809 24.2423 55.1213C24.2423 55.2397 24.0566 56.4358 23.8296 57.7795C23.4189 60.21 23.4187 60.2254 23.7999 60.7385C24.3126 61.4282 25.2937 61.5331 25.9005 60.9629C26.2673 60.6184 26.4226 60.0578 26.7966 57.7264L27.2492 54.9065H30.1111C33.0882 54.9065 34.0779 54.7246 34.4027 54.1176C34.6755 53.6076 34.639 52.8943 34.3171 52.4535C34.0693 52.1139 33.7193 52.0643 30.948 51.9768C27.4138 51.8652 27.7464 52.1379 28.1478 49.6818L28.3792 48.2658H31.0619C33.6134 48.2658 33.7654 48.2437 34.1693 47.8139C34.7326 47.2141 34.7105 46.4117 34.1144 45.8156C33.6586 45.3596 33.5199 45.3361 31.2824 45.3361C29.8187 45.3361 28.9298 45.2611 28.9298 45.1375C28.9298 45.0283 29.1089 43.8232 29.3277 42.4593C29.7179 40.0263 29.7185 39.9705 29.3568 39.4841C28.7572 38.6777 27.3357 38.7054 26.9624 39.531C26.8544 39.7697 26.5689 41.1515 26.3279 42.6017L25.89 45.2385L24.1177 45.2943L22.3456 45.35L22.7064 43.2435C23.1708 40.5306 23.1724 39.6295 22.7132 39.214C22.2216 38.7691 21.0677 38.7968 20.645 39.2636ZM25.414 48.3146C25.4122 48.624 24.8148 51.6453 24.7273 51.7869C24.6626 51.8914 23.8681 51.9768 22.9612 51.9768C21.1122 51.9768 21.2052 52.084 21.5132 50.3037C21.9026 48.0523 21.6778 48.2658 23.6601 48.2658C24.6249 48.2658 25.414 48.2879 25.414 48.3146ZM43.8166 73.5741C42.7246 74.1183 42.0465 74.8124 41.373 76.0753C41.0232 76.7314 40.9441 77.2032 40.943 78.6411C40.9418 80.2392 41.0012 80.5241 41.5822 81.7046C42.0402 82.6345 42.6047 83.3581 43.56 84.2396C44.8746 85.4527 47.3776 87.1007 48.6131 87.5671C49.3953 87.8624 49.9006 87.6908 52.0446 86.4013C54.312 85.0376 56.1243 83.2855 56.9026 81.7046C57.4831 80.5253 57.5432 80.2376 57.5432 78.6411C57.5432 77.0497 57.4866 76.7765 56.9573 75.8169C56.3575 74.7292 55.229 73.7593 54.0635 73.3296C52.9616 72.9233 51.1742 73.0159 50.1543 73.5323L49.2424 73.994L48.3305 73.5323C47.0254 72.8718 45.192 72.8886 43.8166 73.5741ZM47.7977 76.9118C48.45 77.6224 48.7684 77.8232 49.2424 77.8232C49.7164 77.8232 50.0348 77.6224 50.6871 76.9118C51.427 76.106 51.6186 76.0003 52.3393 76.0003C52.9952 76.0003 53.2969 76.131 53.884 76.6689C54.5932 77.3189 54.6135 77.3755 54.6135 78.7029C54.6135 79.9083 54.544 80.1671 54.02 80.9126C53.3301 81.8943 51.6123 83.3286 50.217 84.088L49.2424 84.6185L48.2975 84.1042C46.9229 83.356 45.2227 81.9695 44.5625 81.0579C43.5275 79.629 43.5342 77.637 44.5773 76.5939C45.0658 76.1054 45.3293 76.0003 46.0658 76.0003C46.8815 76.0003 47.035 76.081 47.7977 76.9118Z" fill="#78B404" stroke="#78B404" stroke-width="1.5"/>
</svg>
