<svg width="94" height="100" viewBox="0 0 94 100" fill="none" xmlns="http://www.w3.org/2000/svg">
<path fill-rule="evenodd" clip-rule="evenodd" d="M46.5822 0.227149C46.0451 0.328126 44.8699 0.765433 43.9705 1.19903C41.0881 2.58868 38.9822 5.1719 38.1873 8.293C37.9445 9.24613 37.8908 10.9987 37.8908 17.961L37.891 26.4649L23.0142 26.4091C12.7411 26.3706 7.81705 26.4198 7.10201 26.5683C4.40376 27.1284 2.05414 29.0066 0.824445 31.5861C0.102958 33.0997 0.0998324 33.1171 0.029715 36.0638C-0.0368869 38.8599 -0.0183322 39.0443 0.370341 39.433C0.972297 40.0349 2.00921 39.9849 2.52484 39.3293C2.88266 38.8746 2.92973 38.5459 2.92973 36.5046C2.92973 34.6476 3.00883 33.9827 3.33363 33.1152C3.81274 31.8345 5.03442 30.5316 6.38501 29.8611L7.32428 29.3946H22.2657H37.2072L38.2256 29.8552C39.4939 30.4286 40.833 31.8353 41.325 33.1111C41.6818 34.0363 41.6994 34.7546 41.6994 48.34V62.5979L39.258 62.6956C37.0912 62.7823 36.6912 62.8547 35.7027 63.3401C34.2654 64.046 32.9482 65.5061 32.405 66.9962C31.998 68.1122 31.9095 68.2007 28.7517 70.6423C26.9718 72.0186 25.4513 73.1716 25.373 73.204C25.2947 73.2366 25.2007 72.3009 25.1642 71.1243C25.064 67.8966 25.9978 68.2044 16.046 68.1186C8.65358 68.0552 7.61158 68.0079 6.79791 67.7005C5.57485 67.238 4.20317 65.9985 3.55531 64.7704L3.02738 63.7698L2.92973 55.2449C2.83773 47.2123 2.81058 46.6965 2.46 46.3094C1.97445 45.7732 0.917023 45.7629 0.390654 46.2892C0.0121367 46.6678 2.72552e-05 46.9402 2.72552e-05 55.061C2.72552e-05 64.2274 0.0418244 64.6223 1.22816 66.6464C1.95511 67.8868 3.73383 69.4714 5.13598 70.1274C6.88638 70.9466 8.37604 71.0811 15.7716 71.088L22.2657 71.094V74.0911C22.2657 77.315 22.3202 77.4968 23.3814 77.82C23.9728 78.0001 24.1991 77.8575 28.0662 74.87C29.9326 73.428 31.5851 72.2001 31.7382 72.1413C31.9763 72.0499 32.0248 73.3589 32.0728 81.1833L32.1291 90.3324L32.6728 91.3644C33.3984 92.7414 34.5648 93.8726 35.9088 94.5027C37.0051 95.0168 37.0445 95.0203 42.3342 95.0803L47.6565 95.1406V96.8777C47.6565 97.8332 47.7541 98.8289 47.8733 99.0908C48.0967 99.5811 48.7895 100.001 49.3746 100C49.5576 99.9998 51.1186 98.9127 52.8436 97.5844L55.9799 95.1689L57.7264 95.084C60.7327 94.9379 62.7055 93.6578 63.9181 91.067C64.4755 89.8757 64.5171 89.6314 64.5335 87.4566C64.5503 85.2306 64.53 85.1068 64.0899 84.7495C63.5411 84.304 62.7425 84.2665 62.1807 84.6601C61.821 84.9121 61.763 85.1994 61.6766 87.1552C61.5718 89.5326 61.3735 90.147 60.418 91.0545C59.5298 91.8982 58.5924 92.1879 56.7501 92.1879H55.0887L52.8864 93.8564L50.6838 95.5248L50.6262 94.2543C50.5764 93.1558 50.5 92.9297 50.0627 92.5857C49.5799 92.206 49.293 92.1877 43.7727 92.1836C38.5596 92.1797 37.9113 92.1435 37.2072 91.8176C36.2978 91.3967 35.4642 90.5642 35.1689 89.7826C35.0314 89.4191 34.9611 85.6929 34.9611 78.7884C34.9611 68.9251 34.9816 68.3038 35.331 67.6194C35.7541 66.7905 36.1633 66.3913 37.051 65.9419C37.6045 65.6616 38.8881 65.6253 48.2424 65.6253C57.5967 65.6253 58.8803 65.6616 59.4339 65.9419C60.3272 66.3942 60.7272 66.7874 61.1977 67.676C61.576 68.3909 61.6173 68.8309 61.6827 72.8519C61.763 77.7903 61.8014 77.93 63.0862 77.93C63.5714 77.93 63.9284 77.7954 64.179 77.5181C64.5229 77.1374 64.5503 76.7655 64.5401 72.5864C64.53 68.3136 64.5042 68.0028 64.069 66.8962C63.4429 65.3042 61.8344 63.6942 60.2942 63.118C59.2118 62.7129 58.868 62.6956 51.9459 62.6956H44.7268V58.8661C44.7268 55.2977 44.75 55.0457 45.0686 55.1717C46.5483 55.7573 48.158 55.853 56.592 55.8563L65.2347 55.8596V59.7516V63.6438L65.7493 64.0485C66.0323 64.2712 66.4632 64.4534 66.7067 64.4534C66.9839 64.4534 69.223 62.8628 72.6864 60.2053L78.223 55.9573L81.5433 55.8387C84.4258 55.7358 85.0537 55.6535 86.3053 55.2147C88.956 54.285 91.225 52.3645 92.4689 49.9971C93.8051 47.4543 93.7658 48.1773 93.7063 27.2931L93.6527 8.49613L93.0893 7.12893C91.9162 4.28244 90.0494 2.29044 87.4027 1.06133C85.5722 0.211134 84.2629 0 80.8238 0C78.1904 0 77.8949 0.0351564 77.5394 0.390627C77.0023 0.927738 77.021 2.01427 77.5763 2.53146C77.966 2.89454 78.2554 2.9297 80.8554 2.9297C85.0443 2.9297 86.6136 3.4338 88.5553 5.40334C89.0572 5.91233 89.7504 6.90257 90.0955 7.60374L90.723 8.87855V27.9257V46.9728L90.0947 48.2568C89.3986 49.6791 87.8779 51.2625 86.5642 51.9326C85.0418 52.7094 83.6896 52.9299 80.4488 52.9299H77.3855L72.8237 56.4221L68.262 59.9143L68.1644 56.7952C68.0708 53.8096 68.047 53.6598 67.6056 53.3027C67.1661 52.9473 66.704 52.9299 57.703 52.9299C47.9717 52.9299 46.9217 52.8606 45.4592 52.1205L44.7268 51.75V43.1699C44.7268 37.6109 44.6502 34.2251 44.509 33.5546C44.1563 31.8775 43.3777 30.4607 42.0488 29.0786L40.8062 27.786L40.8621 18.3364L40.9182 8.88675L41.5201 7.61663C42.175 6.2346 43.5109 4.7633 44.793 4.01213C46.5832 2.9631 47.0203 2.9297 58.928 2.9297C69.6618 2.9297 69.9314 2.92052 70.3128 2.53907C70.5546 2.29727 70.7034 1.88809 70.7034 1.46485C70.7034 1.04161 70.5546 0.632424 70.3128 0.390627C69.9308 0.00859379 69.6769 0.000390627 58.7405 0.0218751C52.5905 0.0337892 47.1194 0.126368 46.5822 0.227149ZM67.3831 11.0918C66.4087 11.6245 65.8667 12.5209 65.7288 13.8282C65.5442 15.576 65.0708 17.2075 64.4706 18.1641C64.1671 18.6475 62.9321 20.1614 61.7259 21.5284C59.7932 23.7186 59.4987 23.9796 59.2448 23.7257C59.0071 23.4878 58.1428 23.4376 54.2942 23.4376C49.6975 23.4376 49.6274 23.4436 49.3278 23.8718C49.0627 24.2501 49.0237 25.5169 49.0237 33.7351C49.0237 42.9039 49.0344 43.175 49.4143 43.5549C49.7826 43.9232 50.0653 43.9455 54.3645 43.9455C58.6448 43.9455 58.9454 43.922 59.2706 43.5627C59.6106 43.1869 59.6298 43.1865 60.3321 43.5447C62.3803 44.5898 62.7886 44.6291 71.5823 44.6291C79.7365 44.6291 79.7904 44.6263 80.6154 44.1857C81.0718 43.942 81.6871 43.3771 81.9826 42.9308L82.5199 42.1191L82.5783 34.2921C82.6103 29.9872 82.5839 26.1774 82.5197 25.8261C82.3675 24.9933 81.3595 23.8593 80.3732 23.4112C79.6992 23.105 79.0371 23.055 75.6142 23.0513C71.9042 23.0472 71.6478 23.0241 71.7812 22.7052C72.7708 20.3389 73.0511 17.8528 72.5792 15.6251C72.1866 13.7721 71.2554 11.8602 70.4743 11.3041C69.6386 10.709 68.2571 10.6141 67.3831 11.0918ZM69.2052 14.5631C69.3876 14.946 69.6403 15.8612 69.7665 16.5971C70.0646 18.3356 69.7786 19.9473 68.7386 22.3911C68.3153 23.3854 67.969 24.3831 67.969 24.6083C67.969 24.8337 68.1849 25.2335 68.4485 25.4972L68.9278 25.9767H74.0736C77.8152 25.9767 79.283 26.0405 79.4535 26.211C79.6277 26.3853 79.6878 28.3667 79.6878 33.9191C79.6878 41.1082 79.6734 41.4004 79.3101 41.5949C78.8076 41.8638 65.5526 41.8615 63.8927 41.5922C62.5872 41.3804 61.4641 40.9019 60.4007 40.1047L59.7659 39.6287V33.8951V28.1616L63.1847 24.2858C65.4069 21.7667 66.8368 19.9659 67.2696 19.1407C68.0237 17.7034 68.555 15.8553 68.555 14.6692C68.555 13.6833 68.7689 13.6483 69.2052 14.5631ZM56.8362 33.6915V41.0158H54.3948H51.9534V33.6915V26.3673H54.3948H56.8362V33.6915ZM19.645 38.2636C19.3567 38.5822 19.0347 40.1005 18.3673 44.2873C18.363 44.314 16.9581 44.3361 15.2454 44.3361C12.2911 44.3361 12.1061 44.3586 11.6421 44.7756C10.9356 45.4103 10.8887 46.2404 11.5235 46.8752C11.8794 47.231 12.1745 47.2658 14.8438 47.2658H17.7735L17.7644 47.8029C17.7595 48.0982 17.6489 48.9113 17.519 49.6096L17.2827 50.8791L14.5587 50.9338C11.4475 50.9961 11.1329 51.1256 11.1329 52.344C11.1329 53.594 11.5635 53.7977 14.3759 53.8778C15.7075 53.9156 16.7964 53.9596 16.7956 53.9754C16.795 53.9912 16.6198 55.0149 16.4063 56.2502C16.1929 57.4856 16.0177 58.7227 16.0171 58.9995C16.0153 59.669 16.7698 60.3518 17.5116 60.3518C18.504 60.3518 18.7653 59.8356 19.2661 56.8852C19.5169 55.408 19.7232 54.1336 19.7243 54.0529C19.7257 53.9723 20.5177 53.9065 21.4845 53.9065C22.6331 53.9065 23.2423 53.9809 23.2423 54.1213C23.2423 54.2397 23.0566 55.4358 22.8296 56.7795C22.4189 59.21 22.4187 59.2254 22.7999 59.7385C23.3126 60.4282 24.2937 60.5331 24.9005 59.9629C25.2673 59.6184 25.4226 59.0578 25.7966 56.7264L26.2492 53.9065H29.1111C32.0882 53.9065 33.0779 53.7246 33.4027 53.1176C33.6755 52.6076 33.639 51.8943 33.3171 51.4535C33.0693 51.1139 32.7193 51.0643 29.948 50.9768C26.4138 50.8652 26.7464 51.1379 27.1478 48.6818L27.3792 47.2658H30.0619C32.6134 47.2658 32.7654 47.2437 33.1693 46.8139C33.7326 46.2141 33.7105 45.4117 33.1144 44.8156C32.6586 44.3596 32.5199 44.3361 30.2824 44.3361C28.8187 44.3361 27.9298 44.2611 27.9298 44.1375C27.9298 44.0283 28.1089 42.8232 28.3277 41.4593C28.7179 39.0263 28.7185 38.9705 28.3568 38.4841C27.7572 37.6777 26.3357 37.7054 25.9624 38.531C25.8544 38.7697 25.5689 40.1515 25.3279 41.6017L24.89 44.2385L23.1177 44.2943L21.3456 44.35L21.7064 42.2435C22.1708 39.5306 22.1724 38.6295 21.7132 38.214C21.2216 37.7691 20.0677 37.7968 19.645 38.2636ZM24.414 47.3146C24.4122 47.624 23.8148 50.6453 23.7273 50.7869C23.6626 50.8914 22.8681 50.9768 21.9612 50.9768C20.1122 50.9768 20.2052 51.084 20.5132 49.3037C20.9026 47.0523 20.6778 47.2658 22.6601 47.2658C23.6249 47.2658 24.414 47.2879 24.414 47.3146ZM42.8166 72.5741C41.7246 73.1183 41.0465 73.8124 40.373 75.0753C40.0232 75.7314 39.9441 76.2032 39.943 77.6411C39.9418 79.2392 40.0012 79.5241 40.5822 80.7046C41.0402 81.6345 41.6047 82.3581 42.56 83.2396C43.8746 84.4527 46.3776 86.1007 47.6131 86.5671C48.3953 86.8624 48.9006 86.6908 51.0446 85.4013C53.312 84.0376 55.1243 82.2855 55.9026 80.7046C56.4831 79.5253 56.5432 79.2376 56.5432 77.6411C56.5432 76.0497 56.4866 75.7765 55.9573 74.8169C55.3575 73.7292 54.229 72.7593 53.0635 72.3296C51.9616 71.9233 50.1742 72.0159 49.1543 72.5323L48.2424 72.994L47.3305 72.5323C46.0254 71.8718 44.192 71.8886 42.8166 72.5741ZM46.7977 75.9118C47.45 76.6224 47.7684 76.8232 48.2424 76.8232C48.7164 76.8232 49.0348 76.6224 49.6871 75.9118C50.427 75.106 50.6186 75.0003 51.3393 75.0003C51.9952 75.0003 52.2969 75.131 52.884 75.6689C53.5932 76.3189 53.6135 76.3755 53.6135 77.7029C53.6135 78.9083 53.544 79.1671 53.02 79.9126C52.3301 80.8943 50.6123 82.3286 49.217 83.088L48.2424 83.6185L47.2975 83.1042C45.9229 82.356 44.2227 80.9695 43.5625 80.0579C42.5275 78.629 42.5342 76.637 43.5773 75.5939C44.0658 75.1054 44.3293 75.0003 45.0658 75.0003C45.8815 75.0003 46.035 75.081 46.7977 75.9118Z" fill="#78B404"/>
</svg>
