<svg width="67" height="72" viewBox="0 0 67 72" fill="none" xmlns="http://www.w3.org/2000/svg">
<path fill-rule="evenodd" clip-rule="evenodd" d="M33.0749 1.15753C32.7024 1.22755 31.8874 1.53082 31.2636 1.83151C29.2647 2.79523 27.8043 4.58666 27.253 6.75112C27.0847 7.4121 27.0474 8.62748 27.0474 13.4558L27.0476 19.3532L16.7306 19.3145C9.60634 19.2878 6.19156 19.3219 5.69568 19.4248C3.82447 19.8133 2.19503 21.1158 1.34225 22.9046C0.841908 23.9544 0.839741 23.9664 0.791115 26.0099C0.744927 27.949 0.757795 28.0769 1.02734 28.3464C1.44479 28.7638 2.16388 28.7292 2.52146 28.2745C2.7696 27.9591 2.80225 27.7312 2.80225 26.3156C2.80225 25.0278 2.8571 24.5667 3.08235 23.9651C3.41461 23.0769 4.26183 22.1734 5.19846 21.7084L5.84982 21.3849H16.2116H26.5734L27.2796 21.7043C28.1592 22.102 29.0878 23.0775 29.429 23.9622C29.6765 24.6038 29.6887 25.102 29.6887 34.5234V44.4111L27.9956 44.4788C26.4929 44.5389 26.2155 44.5892 25.53 44.9258C24.5332 45.4153 23.6198 46.4279 23.2431 47.4612C22.9608 48.2352 22.8995 48.2965 20.7095 49.9898C19.4752 50.9443 18.4207 51.7438 18.3664 51.7663C18.3121 51.7889 18.247 51.14 18.2216 50.324C18.1522 48.0856 18.7997 48.2991 11.8983 48.2396C6.77168 48.1956 6.04907 48.1628 5.48479 47.9496C4.63662 47.6289 3.68537 46.7693 3.23609 45.9176L2.86997 45.2237L2.80225 39.3118C2.73845 33.7413 2.71962 33.3836 2.47649 33.1151C2.13977 32.7433 1.40645 32.7361 1.04142 33.1012C0.778924 33.3637 0.770527 33.5526 0.770527 39.1843C0.770527 45.5411 0.799513 45.815 1.62222 47.2186C2.12636 48.0789 3.35988 49.1777 4.33227 49.6327C5.54615 50.2008 6.57921 50.2941 11.7079 50.2988L16.2116 50.303V52.3815C16.2116 54.6172 16.2494 54.7433 16.9853 54.9675C17.3954 55.0923 17.5524 54.9935 20.2341 52.9217C21.5285 51.9216 22.6745 51.0701 22.7807 51.0293C22.9458 50.9659 22.9794 51.8737 23.0127 57.2999L23.0517 63.6447L23.4288 64.3604C23.932 65.3153 24.7409 66.0998 25.6729 66.5367C26.4332 66.8932 26.4605 66.8957 30.1289 66.9373L33.8198 66.9791V68.1838C33.8198 68.8464 33.8875 69.5369 33.9702 69.7186C34.1251 70.0585 34.6056 70.3495 35.0114 70.3491C35.1383 70.3489 36.2208 69.595 37.417 68.6738L39.5921 66.9988L40.8032 66.9398C42.8881 66.8385 44.2562 65.9508 45.0971 64.1541C45.4836 63.328 45.5125 63.1585 45.5239 61.6503C45.5355 60.1066 45.5214 60.0208 45.2163 59.773C44.8357 59.4641 44.2818 59.4381 43.8923 59.711C43.6428 59.8857 43.6025 60.085 43.5427 61.4413C43.4699 63.09 43.3325 63.5161 42.6699 64.1454C42.0538 64.7305 41.4038 64.9314 40.1261 64.9314H38.974L37.4467 66.0885L35.9193 67.2455L35.8793 66.3645C35.8448 65.6027 35.7918 65.4458 35.4885 65.2073C35.1537 64.944 34.9547 64.9313 31.1264 64.9284C27.5112 64.9257 27.0616 64.9007 26.5734 64.6746C25.9427 64.3827 25.3646 63.8054 25.1598 63.2634C25.0645 63.0113 25.0157 60.4272 25.0157 55.639C25.0157 48.7989 25.0299 48.368 25.2722 47.8934C25.5656 47.3186 25.8494 47.0417 26.465 46.7301C26.8489 46.5357 27.739 46.5105 34.2262 46.5105C40.7133 46.5105 41.6035 46.5357 41.9873 46.7301C42.6069 47.0438 42.8843 47.3164 43.2106 47.9327C43.4729 48.4284 43.5015 48.7336 43.5469 51.5221C43.6025 54.9469 43.6292 55.0437 44.5202 55.0437C44.8567 55.0437 45.1043 54.9504 45.278 54.7581C45.5166 54.4941 45.5355 54.2362 45.5285 51.338C45.5214 48.3748 45.5036 48.1593 45.2018 47.3919C44.7675 46.2878 43.6521 45.1713 42.584 44.7718C41.8333 44.4908 41.5949 44.4788 36.7945 44.4788H31.7881V41.8231C31.7881 39.3484 31.8042 39.1737 32.0251 39.2611C33.0513 39.6671 34.1677 39.7335 40.0166 39.7358L46.0101 39.7381V42.4372V45.1364L46.367 45.417C46.5633 45.5714 46.8621 45.6978 47.031 45.6978C47.2232 45.6978 48.776 44.5947 51.1779 42.7518L55.0174 39.8058L57.32 39.7236C59.319 39.6522 59.7544 39.5952 60.6224 39.2909C62.4607 38.6461 64.0342 37.3143 64.8969 35.6725C65.8235 33.9091 65.7962 34.4105 65.7549 19.9275L65.7178 6.89198L65.327 5.94385C64.5135 3.96983 63.2189 2.5884 61.3835 1.73602C60.1141 1.14642 59.206 1 56.821 1C54.9948 1 54.7899 1.02438 54.5434 1.2709C54.1709 1.64338 54.1839 2.39687 54.569 2.75554C54.8392 3.00734 55.0399 3.03172 56.843 3.03172C59.7479 3.03172 60.8363 3.38131 62.1828 4.74717C62.5309 5.10014 63.0116 5.78686 63.2509 6.27312L63.6861 7.15719V20.3662V33.5752L63.2503 34.4657C62.7676 35.452 61.713 36.5501 60.802 37.0148C59.7462 37.5535 58.8085 37.7064 56.561 37.7064H54.4366L51.2731 40.1282L48.1096 42.55L48.0419 40.3869C47.977 38.3164 47.9604 38.2126 47.6543 37.965C47.3496 37.7184 47.0291 37.7064 40.787 37.7064C34.0384 37.7064 33.3103 37.6583 32.296 37.1451L31.7881 36.8881V30.9379C31.7881 27.0828 31.735 24.7348 31.6371 24.2698C31.3925 23.1067 30.8526 22.1242 29.931 21.1658L29.0693 20.2694L29.108 13.7161L29.1469 7.16288L29.5643 6.28206C30.0185 5.32363 30.9449 4.3033 31.834 3.78237C33.0755 3.05488 33.3787 3.03172 41.6365 3.03172C49.0803 3.03172 49.2672 3.02535 49.5318 2.76082C49.6995 2.59314 49.8027 2.30938 49.8027 2.01586C49.8027 1.72234 49.6995 1.43858 49.5318 1.2709C49.2668 1.00596 49.0908 1.00027 41.5065 1.01517C37.2415 1.02343 33.4473 1.08763 33.0749 1.15753ZM47.5001 8.69209C46.8243 9.06145 46.4484 9.68316 46.3528 10.5897C46.2248 11.8018 45.8965 12.9332 45.4803 13.5967C45.2698 13.9319 44.4133 14.9817 43.5768 15.9297C42.2366 17.4487 42.0323 17.6296 41.8562 17.4535C41.6914 17.2886 41.092 17.2538 38.423 17.2538C35.2352 17.2538 35.1866 17.2579 34.9788 17.5549C34.795 17.8172 34.768 18.6957 34.768 24.395C34.768 30.7534 34.7754 30.9414 35.0389 31.2049C35.2943 31.4603 35.4903 31.4758 38.4718 31.4758C41.4401 31.4758 41.6486 31.4595 41.8741 31.2103C42.1099 30.9497 42.1232 30.9494 42.6103 31.1978C44.0307 31.9226 44.3138 31.9498 50.4122 31.9498C56.067 31.9498 56.1044 31.948 56.6765 31.6424C56.9931 31.4733 57.4197 31.0816 57.6247 30.7721L57.9973 30.2092L58.0378 24.7813C58.06 21.7959 58.0417 19.1538 57.9971 18.9101C57.8916 18.3326 57.1926 17.5462 56.5086 17.2355C56.0411 17.0231 55.582 16.9884 53.2082 16.9858C50.6354 16.983 50.4576 16.967 50.5501 16.7458C51.2364 15.1049 51.4308 13.3808 51.1035 11.8358C50.8313 10.5508 50.1855 9.22494 49.6438 8.83932C49.0642 8.42661 48.1062 8.36078 47.5001 8.69209ZM48.7637 11.0994C48.8902 11.3649 49.0654 11.9996 49.1529 12.51C49.3596 13.7156 49.1613 14.8333 48.4401 16.528C48.1466 17.2176 47.9064 17.9095 47.9064 18.0656C47.9064 18.2219 48.0561 18.4992 48.2389 18.682L48.5713 19.0146H52.1398C54.7346 19.0146 55.7525 19.0589 55.8707 19.1771C55.9916 19.2979 56.0333 20.672 56.0333 24.5226C56.0333 29.5081 56.0233 29.7108 55.7713 29.8457C55.4228 30.0322 46.2306 30.0306 45.0795 29.8438C44.1741 29.6969 43.3953 29.3651 42.6578 28.8122L42.2176 28.4821V24.5059V20.5298L44.5885 17.842C46.1296 16.095 47.1212 14.8462 47.4214 14.2739C47.9443 13.2771 48.3127 11.9955 48.3127 11.173C48.3127 10.4892 48.4611 10.465 48.7637 11.0994ZM40.1859 24.3648V29.4441H38.4928H36.7997V24.3648V19.2855H38.4928H40.1859V24.3648ZM14.3941 27.5355C14.1942 27.7564 13.9709 28.8094 13.508 31.7128C13.5051 31.7314 12.5308 31.7467 11.343 31.7467C9.29426 31.7467 9.166 31.7623 8.84417 32.0514C8.35426 32.4916 8.32175 33.0673 8.76195 33.5075C9.00874 33.7543 9.2134 33.7784 11.0646 33.7784H13.0963L13.0899 34.1509C13.0865 34.3557 13.0099 34.9195 12.9198 35.4038L12.7559 36.2842L10.8668 36.3221C8.70926 36.3653 8.49106 36.4551 8.49106 37.3C8.49106 38.1669 8.78972 38.3082 10.74 38.3637C11.6635 38.39 12.4186 38.4205 12.4181 38.4314C12.4177 38.4424 12.2962 39.1523 12.1482 40.009C12.0001 40.8657 11.8786 41.7236 11.8782 41.9156C11.877 42.3799 12.4002 42.8534 12.9147 42.8534C13.6029 42.8534 13.7841 42.4954 14.1314 40.4493C14.3053 39.425 14.4483 38.5412 14.4491 38.4852C14.4501 38.4293 14.9993 38.3836 15.6698 38.3836C16.4664 38.3836 16.8888 38.4352 16.8888 38.5326C16.8888 38.6147 16.76 39.4442 16.6026 40.3761C16.3178 42.0616 16.3176 42.0723 16.582 42.4281C16.9376 42.9064 17.6179 42.9791 18.0388 42.5837C18.2932 42.3448 18.4008 41.9561 18.6602 40.3392L18.9741 38.3836H20.9588C23.0234 38.3836 23.7097 38.2575 23.935 37.8366C24.1242 37.4829 24.0989 36.9882 23.8756 36.6825C23.7038 36.447 23.461 36.4126 21.5392 36.3519C19.0882 36.2746 19.3189 36.4637 19.5972 34.7604L19.7578 33.7784H21.6181C23.3876 33.7784 23.493 33.7631 23.7731 33.465C24.1637 33.049 24.1484 32.4926 23.735 32.0792C23.4189 31.7629 23.3227 31.7467 21.771 31.7467C20.756 31.7467 20.1396 31.6947 20.1396 31.6089C20.1396 31.5332 20.2638 30.6975 20.4155 29.7517C20.6861 28.0644 20.6865 28.0257 20.4357 27.6884C20.0198 27.1291 19.0341 27.1484 18.7752 27.7209C18.7003 27.8864 18.5023 28.8447 18.3351 29.8504L18.0315 31.679L16.8024 31.7177L15.5735 31.7563L15.8237 30.2955C16.1458 28.4141 16.1468 27.7892 15.8284 27.5011C15.4875 27.1925 14.6873 27.2117 14.3941 27.5355ZM17.7014 33.8123C17.7002 34.0268 17.2858 36.1221 17.2251 36.2203C17.1803 36.2927 16.6293 36.3519 16.0004 36.3519C14.7181 36.3519 14.7826 36.4263 14.9962 35.1917C15.2663 33.6304 15.1104 33.7784 16.4851 33.7784C17.1542 33.7784 17.7014 33.7937 17.7014 33.8123ZM30.4634 51.3295C29.7061 51.7068 29.2359 52.1882 28.7688 53.064C28.5262 53.519 28.4714 53.8462 28.4706 54.8434C28.4698 55.9516 28.5109 56.1492 28.9139 56.9679C29.2315 57.6128 29.623 58.1146 30.2854 58.7259C31.1971 59.5671 32.9329 60.71 33.7898 61.0335C34.3322 61.2383 34.6826 61.1192 36.1694 60.225C37.7418 59.2793 38.9987 58.0642 39.5384 56.9679C39.941 56.1501 39.9827 55.9505 39.9827 54.8434C39.9827 53.7398 39.9434 53.5503 39.5764 52.8848C39.1604 52.1305 38.3778 51.4579 37.5696 51.1599C36.8054 50.8782 35.5659 50.9424 34.8586 51.3005L34.2262 51.6207L33.5938 51.3005C32.6887 50.8424 31.4172 50.854 30.4634 51.3295ZM33.2243 53.6441C33.6766 54.1369 33.8974 54.2761 34.2262 54.2761C34.5549 54.2761 34.7757 54.1369 35.2281 53.6441C35.7411 53.0853 35.874 53.012 36.3738 53.012C36.8287 53.012 37.0379 53.1026 37.4451 53.4756C37.9369 53.9264 37.951 53.9657 37.951 54.8862C37.951 55.7222 37.9028 55.9016 37.5394 56.4187C37.061 57.0994 35.8697 58.0941 34.902 58.6208L34.2262 58.9886L33.5709 58.632C32.6176 58.1131 31.4385 57.1516 30.9807 56.5194C30.263 55.5285 30.2676 54.1471 30.991 53.4236C31.3297 53.0849 31.5125 53.012 32.0232 53.012C32.5889 53.012 32.6953 53.0679 33.2243 53.6441Z" fill="white" stroke="white" stroke-width="1.5"/>
</svg>
