<svg width="69" height="69" viewBox="0 0 69 69" fill="none" xmlns="http://www.w3.org/2000/svg">
<path fill-rule="evenodd" clip-rule="evenodd" d="M34.1592 1.28455C34.675 1.28455 35.3068 1.36191 35.642 1.47795C35.9644 1.594 36.377 1.76162 36.5833 1.86477C36.7767 1.96792 37.1635 2.26449 37.4601 2.53526C37.7438 2.79314 38.1564 3.27021 38.3498 3.59256C38.5561 3.91491 38.8139 4.54671 38.9429 5.01089C39.0847 5.59112 39.1234 6.08109 39.0718 6.62264C39.0203 7.06103 38.8268 7.74441 38.6076 8.20859C38.3884 8.64699 37.9629 9.26589 37.6406 9.58824C37.3182 9.91059 36.7509 10.3103 36.377 10.4779C36.016 10.6455 35.6034 10.8132 35.4873 10.8647C35.281 10.9292 35.2552 11.1226 35.2552 13.7788L36.0031 13.8561C36.4028 13.8948 37.344 14.0367 38.0919 14.1656C38.8397 14.3074 40.0518 14.6298 40.7996 14.8877C41.5475 15.1455 42.7337 15.6484 43.4429 15.9965C44.152 16.3576 45.0804 16.8862 45.5059 17.1699C45.9314 17.4535 46.6793 18.008 48.046 19.1298L53.1778 13.9722L52.8039 13.263C52.5847 12.8762 52.3268 12.2057 52.2236 11.7802C52.1076 11.3547 52.0173 10.6842 52.0173 10.2974C52.0173 9.91059 52.1076 9.253 52.2108 8.84039C52.3139 8.44068 52.5589 7.79599 52.7394 7.43496C52.9328 7.06103 53.4357 6.40344 53.8741 5.96505C54.3769 5.47508 54.9701 5.03668 55.4987 4.7788C55.9629 4.55961 56.7107 4.31462 57.1749 4.23726C57.6391 4.147 58.3354 4.12121 58.7222 4.15989C59.109 4.19858 59.7537 4.34041 60.1405 4.46935C60.5273 4.61118 61.0818 4.85617 61.3654 5.03668C61.6491 5.2172 62.1004 5.55244 62.3841 5.79742C62.6548 6.04241 63.0803 6.55817 63.3382 6.94499C63.5832 7.3318 63.9056 7.9765 64.0345 8.36332C64.1634 8.75014 64.3053 9.39483 64.3439 9.78165C64.3826 10.1685 64.3568 10.8647 64.2666 11.3289C64.1892 11.7931 63.9442 12.541 63.725 13.0051C63.4672 13.5338 63.0288 14.1269 62.5388 14.6298C62.1004 15.0682 61.4428 15.571 61.0818 15.7644C60.7079 15.945 60.0632 16.1899 59.6634 16.2931C59.2508 16.3962 58.5933 16.4865 58.2064 16.4865C57.8196 16.4865 57.1491 16.3962 56.7236 16.2802C56.2981 16.177 55.6276 15.9192 54.5317 15.326L49.3741 20.4707L50.0961 21.3475C50.4959 21.8246 51.089 22.6369 51.4113 23.1269C51.7208 23.6168 52.2494 24.5581 52.5718 25.1899C52.8941 25.8217 53.3583 26.9564 53.6162 27.7042C53.8741 28.4521 54.2093 29.6899 54.3382 30.4764C54.4801 31.263 54.6219 32.23 54.7251 33.3776H57.5617L57.7551 32.7715C57.8583 32.4234 58.1291 31.869 58.3612 31.5208C58.5933 31.1727 58.993 30.7343 59.2379 30.528C59.4829 30.3346 60.0116 30.0251 60.3984 29.8446C60.7852 29.6641 61.4557 29.4836 61.8812 29.432C62.4227 29.3804 62.9127 29.4191 63.4929 29.5738C63.9571 29.6899 64.5889 29.9349 64.8984 30.1283C65.2207 30.3217 65.7236 30.773 66.0331 31.1211C66.3554 31.4822 66.7293 32.0882 66.884 32.475C67.0904 33.0165 67.1677 33.442 67.1548 34.2801C67.1548 35.0925 67.0775 35.5566 66.8712 36.0853C66.7164 36.4721 66.3425 37.091 66.0331 37.4392C65.7236 37.8002 65.2207 38.2386 64.8984 38.432C64.5889 38.6254 63.9571 38.8704 63.4929 38.9864C62.9127 39.1412 62.4227 39.1798 61.8812 39.1283C61.4428 39.0767 60.7594 38.8833 60.3081 38.6641C59.8569 38.4449 59.2379 38.0194 58.9156 37.697C58.5933 37.3747 58.1935 36.8074 58.0259 36.4463C57.8583 36.0724 57.6907 35.6598 57.6391 35.5437C57.5746 35.3374 57.3812 35.3116 54.7251 35.3116L54.6606 35.9306C54.6219 36.2658 54.5059 37.1168 54.3898 37.826C54.2738 38.5351 53.9643 39.7858 53.6936 40.5982C53.4357 41.4105 52.9328 42.6354 52.5976 43.3059C52.2623 43.9764 51.7208 44.9305 51.4113 45.4334C51.089 45.9363 50.4959 46.7357 49.3741 48.0895L54.5317 53.2342L55.2408 52.8603C55.6276 52.6411 56.2981 52.3832 56.7236 52.2801C57.1491 52.164 57.8196 52.0738 58.2064 52.0738C58.5933 52.0738 59.2637 52.164 59.6892 52.2801C60.1147 52.3832 60.5918 52.6024 60.7594 52.7572C60.9142 52.9119 61.0431 53.1698 61.0431 53.3374C61.0431 53.4921 60.9915 53.7371 60.9142 53.8789C60.8368 54.0208 60.6434 54.1884 60.4629 54.2657C60.2308 54.356 59.9471 54.3431 59.4056 54.1884C58.9156 54.0465 58.3869 53.995 57.8841 54.0336C57.4586 54.0723 56.8526 54.2142 56.5302 54.356C56.2079 54.4849 55.6663 54.8589 55.3311 55.1812C54.9829 55.4907 54.5446 56.0709 54.364 56.4577C54.0675 57.0508 54.0159 57.3345 54.0159 58.2629C54.0159 59.1268 54.0804 59.4749 54.2996 59.9391C54.4543 60.2614 54.8024 60.7772 55.0732 61.0866C55.3698 61.4219 55.8855 61.8087 56.4013 62.0537C57.1104 62.3889 57.3683 62.4534 58.2064 62.4534C58.9543 62.4405 59.3282 62.376 59.8826 62.1181C60.2695 61.9376 60.8497 61.5379 61.172 61.2285C61.4815 60.9061 61.8812 60.3259 62.0617 59.9391C62.268 59.4491 62.3712 58.9849 62.3841 58.4563C62.3841 58.0308 62.3454 57.3603 62.2809 56.9735C62.1778 56.3417 62.1907 56.2385 62.4356 55.9677C62.6248 55.7786 62.8697 55.6841 63.1706 55.6841C63.5187 55.6841 63.6864 55.7743 63.8798 56.0451C64.0216 56.2385 64.2021 56.793 64.2795 57.2958C64.3568 57.8116 64.3826 58.5078 64.3311 58.9076C64.2795 59.2944 64.1376 59.9133 64.0216 60.2614C63.8927 60.6225 63.5832 61.2285 63.3382 61.6153C63.0803 62.0021 62.6548 62.5179 62.3841 62.7628C62.1004 63.0078 61.6491 63.3431 61.3654 63.5236C61.0818 63.7041 60.5273 63.9491 60.1405 64.0909C59.7537 64.2199 59.109 64.3617 58.7222 64.4004C58.3354 64.4391 57.6391 64.4133 57.1749 64.323C56.7107 64.2456 55.9629 64.0007 55.4987 63.7815C54.9701 63.5236 54.3769 63.0852 53.8741 62.5952C53.4357 62.1568 52.9328 61.4992 52.7394 61.1382C52.5589 60.7643 52.3139 60.1196 52.2108 59.7199C52.1076 59.3073 52.0173 58.6497 52.0173 58.2629C52.0173 57.876 52.1076 57.2056 52.2236 56.7801C52.3268 56.3546 52.5847 55.6841 53.1778 54.5881L48.046 49.4305L47.1692 50.1526C46.6792 50.5523 45.9314 51.1067 45.5059 51.3904C45.0804 51.6741 44.1263 52.2156 43.3784 52.5895C42.6306 52.9635 41.3541 53.4921 40.5417 53.75C39.7294 54.0208 38.4787 54.3302 37.7695 54.4463C37.0604 54.5623 36.2094 54.6783 35.2552 54.7815V56.1998C35.2552 57.4376 35.281 57.6311 35.4873 57.6955C35.6034 57.7471 36.016 57.9147 36.3899 58.0823C36.7509 58.25 37.3182 58.6497 37.6406 58.972C37.9629 59.2944 38.3884 59.9133 38.6076 60.3646C38.8268 60.8159 39.0203 61.4992 39.0718 61.9376C39.1234 62.4792 39.0847 62.9692 38.9429 63.5494C38.8139 64.0136 38.5561 64.6454 38.3498 64.9677C38.1564 65.2901 37.7438 65.7671 37.4601 66.0379C37.1635 66.2958 36.7767 66.5923 36.5833 66.6955C36.377 66.7986 35.9644 66.9663 35.642 67.0823C35.3197 67.1984 34.6879 67.2886 34.2237 67.2886C33.6177 67.2886 33.1535 67.1984 32.5475 66.9663C32.0833 66.7858 31.4515 66.4118 31.1421 66.154C30.8197 65.8961 30.3813 65.3803 30.1492 65.0322C29.9042 64.6712 29.6206 64.0136 29.5045 63.5494C29.3627 62.9692 29.324 62.4663 29.3756 61.9376C29.4272 61.4992 29.6206 60.8159 29.8398 60.3517C30.059 59.9133 30.4716 59.3073 30.781 58.9978C31.0776 58.6884 31.6449 58.2887 32.0317 58.1081C32.4186 57.9276 32.8441 57.7342 32.973 57.6955C33.1664 57.6311 33.1922 57.4376 33.1922 54.7815L32.5862 54.717C32.238 54.6783 31.387 54.5623 30.6779 54.4463C29.9687 54.3302 28.718 54.0208 27.9057 53.75C27.0934 53.4921 25.8684 52.9892 25.1979 52.654C24.5275 52.3188 23.5733 51.7772 23.0704 51.4549C22.5805 51.1325 21.7682 50.5523 20.4143 49.4305L15.2696 54.5881L15.6435 55.2973C15.8627 55.6841 16.1206 56.3546 16.2238 56.7801C16.3398 57.2056 16.4301 57.876 16.4301 58.2629C16.4301 58.6497 16.3398 59.3073 16.2367 59.7199C16.1335 60.1196 15.8885 60.7643 15.708 61.1382C15.5146 61.4992 15.0117 62.1568 14.5733 62.5952C14.0705 63.0852 13.4774 63.5236 12.9487 63.7815C12.4845 64.0007 11.7367 64.2456 11.2725 64.323C10.8083 64.4133 10.112 64.4391 9.72522 64.4004C9.3384 64.3617 8.69371 64.2199 8.30689 64.0909C7.92007 63.9491 7.36563 63.7041 7.08196 63.5236C6.7983 63.3431 6.34701 63.0078 6.06334 62.7628C5.79257 62.5179 5.36707 62.0021 5.10919 61.6153C4.86421 61.2285 4.54186 60.5838 4.41292 60.197C4.28398 59.8101 4.14215 59.1654 4.10346 58.7786C4.06478 58.3918 4.09057 57.6955 4.18083 57.2313C4.25819 56.7672 4.50318 56.0193 4.72237 55.5551C4.98025 55.0265 5.41865 54.4334 5.90862 53.9305C6.34701 53.4921 7.0046 52.9892 7.37852 52.7958C7.73955 52.6153 8.38425 52.3703 8.79686 52.2672C9.19657 52.164 9.85416 52.0738 10.241 52.0738C10.6278 52.0738 11.2983 52.164 11.7238 52.2801C12.1493 52.3832 12.8198 52.6411 13.9158 53.2342L19.0733 48.0895L18.3513 47.2128C17.9516 46.7357 17.3584 45.9363 17.0361 45.4334C16.7266 44.9305 16.198 44.0022 15.8756 43.3704C15.5533 42.7386 15.0891 41.6039 14.8312 40.856C14.5733 40.1082 14.251 38.8962 14.1092 38.1483C13.9802 37.4005 13.8384 36.4592 13.7223 35.3116H12.304C11.0662 35.3116 10.8728 35.3374 10.8083 35.5437C10.7567 35.6598 10.5891 36.0724 10.4215 36.4463C10.2539 36.8074 9.85416 37.3747 9.53181 37.697C9.20946 38.0194 8.59055 38.4449 8.15216 38.6641C7.68798 38.8833 7.0046 39.0767 6.56621 39.1283C6.02466 39.1798 5.53469 39.1412 4.95446 38.9993C4.49028 38.8704 3.83269 38.5996 3.48455 38.3675C3.13642 38.1354 2.62066 37.697 2.34989 37.3747C2.06622 37.0523 1.71809 36.4721 1.56336 36.0853C1.34416 35.5437 1.27969 35.1182 1.29259 34.2801C1.29259 33.4807 1.36995 32.9907 1.57625 32.475C1.71809 32.0882 2.06622 31.5079 2.34989 31.1856C2.62066 30.8632 3.13642 30.4248 3.48455 30.1928C3.83269 29.9607 4.49028 29.6899 4.95446 29.561C5.53469 29.4191 6.02466 29.3804 6.56621 29.432C6.99171 29.4836 7.66219 29.6641 8.04901 29.8446C8.43583 30.0251 8.96448 30.3346 9.20946 30.528C9.45445 30.7343 9.85416 31.1727 10.0863 31.5208C10.3183 31.869 10.5891 32.4234 10.8857 33.3776H13.7223L13.7997 32.5137C13.8384 32.0237 13.9931 31.0309 14.1349 30.283C14.2768 29.5352 14.5991 28.3489 14.8441 27.6398C15.0891 26.9306 15.5533 25.8217 15.8756 25.1899C16.198 24.5581 16.7266 23.6168 17.0361 23.1269C17.3584 22.6369 17.9516 21.8246 19.0733 20.4707L13.9158 15.326L13.2066 15.7C12.8198 15.9192 12.1493 16.177 11.7238 16.2802C11.2983 16.3962 10.6278 16.4865 10.241 16.4865C9.85416 16.4865 9.19657 16.3962 8.79686 16.2931C8.38425 16.1899 7.73955 15.945 7.37852 15.7644C7.0046 15.571 6.34701 15.0682 5.90862 14.6298C5.41865 14.1269 4.98025 13.5338 4.72237 13.0051C4.50318 12.541 4.25819 11.7931 4.18083 11.3289C4.09057 10.8647 4.06478 10.1685 4.10346 9.78165C4.14215 9.39483 4.28398 8.75014 4.41292 8.36332C4.54186 7.9765 4.8771 7.30602 5.16077 6.89341C5.43154 6.46791 5.92151 5.90058 6.24386 5.6298C6.56621 5.35903 7.12065 4.98511 7.46878 4.80459C7.82981 4.63697 8.34557 4.45645 8.62924 4.41777C9.01605 4.3533 9.22236 4.40488 9.45445 4.5725C9.64786 4.72723 9.7639 4.95932 9.7768 5.2172C9.7768 5.43639 9.69943 5.72006 9.59628 5.849C9.49313 5.96505 9.05474 6.22292 8.62924 6.41633C8.20374 6.60974 7.59772 7.02235 7.27537 7.3318C6.96592 7.65415 6.56621 8.23438 6.38569 8.6212C6.12781 9.17564 6.06334 9.54956 6.05045 10.2974C6.05045 11.1355 6.11492 11.3934 6.45016 12.1026C6.69515 12.6183 7.08196 13.1341 7.41721 13.4306C7.72666 13.7014 8.24242 14.0495 8.56477 14.2043C9.02895 14.4235 9.36419 14.4879 10.241 14.4879C11.0662 14.4879 11.4788 14.4235 11.9172 14.2172C12.2395 14.0753 12.7811 13.7014 13.1163 13.3791C13.4645 13.0696 13.9029 12.4894 14.0834 12.1026C14.3799 11.4965 14.4315 11.2258 14.4186 10.2974C14.4186 9.42062 14.3541 9.07249 14.1092 8.55673C13.9415 8.20859 13.4258 7.53811 12.9616 7.07392C12.2266 6.31318 12.1493 6.19714 12.2266 5.849C12.2653 5.6427 12.4329 5.35903 12.6006 5.23009C12.7553 5.10115 13.0003 4.998 13.1421 4.998C13.2839 4.998 13.6321 5.16562 13.9158 5.37192C14.1994 5.57823 14.6507 5.97794 14.9215 6.2745C15.1794 6.57106 15.5404 7.11261 15.7209 7.46074C15.9014 7.82177 16.1335 8.44068 16.2367 8.85329C16.3398 9.253 16.4301 9.91059 16.4301 10.2974C16.4301 10.6842 16.3398 11.3547 16.2238 11.7802C16.1206 12.2057 15.8627 12.8762 15.2696 13.9722L20.4143 19.1298L21.2911 18.4077C21.7682 18.008 22.5805 17.4149 23.0704 17.0925C23.5733 16.7831 24.5017 16.2544 25.1335 15.9321C25.7653 15.6097 26.8999 15.1455 27.6478 14.8877C28.3956 14.6298 29.6077 14.3074 30.3555 14.1656C31.1034 14.0367 32.0446 13.8948 33.1922 13.7788V12.3604C33.1922 11.1226 33.1664 10.9292 32.973 10.8647C32.8441 10.8261 32.4186 10.6327 32.0317 10.4521C31.6449 10.2716 31.0776 9.87191 30.781 9.56245C30.4716 9.253 30.059 8.64699 29.8398 8.20859C29.6206 7.74441 29.4272 7.06103 29.3756 6.62264C29.324 6.08109 29.3627 5.59112 29.5045 5.01089C29.6335 4.54671 29.9042 3.88912 30.1363 3.54099C30.3684 3.19285 30.8068 2.67709 31.1292 2.40632C31.4515 2.13555 32.0575 1.77452 32.483 1.60689C33.0246 1.3877 33.5403 1.29744 34.1592 1.28455V1.28455ZM31.7996 4.55961C31.5676 4.92064 31.3484 5.43639 31.3097 5.72006C31.2581 6.01662 31.3097 6.53238 31.4257 6.94499C31.5804 7.52521 31.7481 7.7702 32.3154 8.27306C32.8183 8.72435 33.1664 8.91776 33.6177 9.00802C34.0045 9.09827 34.4429 9.09827 34.8426 9.00802C35.281 8.91776 35.6291 8.72435 36.132 8.27306C36.6993 7.7702 36.867 7.52521 37.0217 6.94499C37.1377 6.53238 37.1893 6.01662 37.1377 5.72006C37.0991 5.43639 36.8799 4.92064 36.6478 4.55961C36.3383 4.08253 36.0289 3.82465 35.5131 3.55388C35.0489 3.32179 34.5976 3.20574 34.2237 3.20574C33.8498 3.20574 33.3985 3.32179 32.9343 3.55388C32.4186 3.82465 32.1091 4.08253 31.7996 4.55961ZM56.0145 6.71289C55.6276 6.94498 55.099 7.42206 54.8282 7.78309C54.5574 8.14412 54.2351 8.75014 54.1191 9.13695C53.9901 9.60114 53.9385 10.1169 53.9772 10.6198C54.0159 11.0453 54.1577 11.6513 54.2996 11.9736C54.4285 12.296 54.8024 12.8375 55.1248 13.1728C55.4342 13.5209 56.0145 13.9593 56.4013 14.1398C57.0073 14.4364 57.2781 14.4879 58.2064 14.4879C59.0703 14.4879 59.4314 14.4235 59.8826 14.2043C60.205 14.0367 60.7207 13.7014 61.0302 13.4306C61.3654 13.1341 61.7394 12.6183 61.9972 12.1026C62.3325 11.3934 62.397 11.1355 62.397 10.2974C62.3841 9.54956 62.3196 9.17564 62.0617 8.6212C61.8812 8.23438 61.4815 7.65415 61.172 7.3318C60.8497 7.02235 60.2952 6.63553 59.9471 6.46791C59.5861 6.31318 58.9543 6.14556 58.5288 6.11977C58.1033 6.08109 57.5231 6.10688 57.2394 6.17135C56.9557 6.24871 56.4013 6.4937 56.0145 6.71289ZM29.8398 16.2415C29.2338 16.3962 28.2151 16.7186 27.5833 16.9636C26.9515 17.2086 25.9587 17.6598 25.3914 17.9693C24.824 18.2659 23.8699 18.8848 23.2639 19.3232C22.6578 19.7745 21.6134 20.6899 20.9429 21.3733C20.2467 22.0696 19.3312 23.1785 18.8541 23.9005C18.3771 24.6097 17.7581 25.6799 17.4745 26.2859C17.1908 26.8919 16.7911 27.9105 16.5848 28.5423C16.3656 29.1741 16.0948 30.2314 15.9659 30.8632C15.7854 31.7142 15.7338 32.6168 15.7338 34.2801C15.7338 35.9435 15.7854 36.846 15.9659 37.697C16.0948 38.3288 16.3656 39.3861 16.5848 40.0179C16.7911 40.6497 17.1908 41.6684 17.4745 42.2744C17.7581 42.8804 18.3771 43.9506 18.8541 44.6598C19.3828 45.4721 20.208 46.452 21.0719 47.303C21.8197 48.0509 22.9544 49.0179 23.5862 49.4692C24.218 49.9205 25.3269 50.5652 26.0361 50.9133C26.7452 51.2615 27.8541 51.7127 28.4859 51.9319C29.1177 52.1382 30.175 52.409 30.8068 52.538C31.6578 52.7185 32.5604 52.77 34.2237 52.77C35.887 52.77 36.7896 52.7185 37.6406 52.538C38.2724 52.409 39.3297 52.1382 39.9615 51.919C40.5933 51.7127 41.6119 51.313 42.2179 51.0294C42.824 50.7457 43.8942 50.1268 44.6033 49.6497C45.3641 49.1468 46.4214 48.2572 47.195 47.4964C47.9042 46.7873 48.7939 45.8073 49.1549 45.3045C49.5159 44.8016 50.109 43.8732 50.4572 43.2414C50.8053 42.6096 51.2824 41.6297 51.4887 41.0752C51.7079 40.5337 52.0302 39.5409 52.1979 38.8833C52.3655 38.2386 52.5847 37.091 52.662 36.3432C52.7652 35.5437 52.791 34.3575 52.7523 33.442C52.7136 32.591 52.5847 31.4048 52.4686 30.7988C52.3397 30.1928 52.0818 29.1741 51.8626 28.5423C51.6563 27.9105 51.2566 26.8919 50.9729 26.2859C50.6893 25.6799 50.0704 24.6097 49.5933 23.9005C49.0517 23.0753 48.2265 22.0954 47.3111 21.1928C46.4085 20.2773 45.4285 19.4521 44.6033 18.9106C43.8942 18.4335 42.7595 17.7888 42.089 17.4793C41.4185 17.157 40.3741 16.7444 39.7681 16.5639C39.1621 16.3833 38.2337 16.1384 37.7051 16.0352C37.1764 15.9192 35.8354 15.816 34.7395 15.7773C33.6435 15.7515 32.3283 15.7773 31.8383 15.8547C31.3355 15.9192 30.4458 16.0997 29.8398 16.2415ZM4.2453 32.0237C3.94874 32.2558 3.62639 32.6813 3.44587 33.0552C3.27825 33.4162 3.14931 33.9578 3.14931 34.2801C3.14931 34.667 3.26536 35.1053 3.49745 35.5695C3.76822 36.0853 4.0261 36.3947 4.50318 36.7042C4.85131 36.9363 5.37996 37.1555 5.66363 37.1942C5.96019 37.2457 6.47595 37.1942 6.88856 37.0781C7.46878 36.9234 7.71377 36.7558 8.21663 36.1884C8.66792 35.6856 8.86133 35.3374 8.95159 34.8862C9.04184 34.4993 9.04184 34.0609 8.95159 33.6612C8.86133 33.2228 8.66792 32.8747 8.21663 32.3718C7.73955 31.8303 7.45589 31.6369 6.95302 31.495C6.59199 31.3919 6.16649 31.3145 5.98598 31.3145C5.80546 31.3274 5.45733 31.3919 5.21234 31.4822C4.95446 31.5724 4.52896 31.8045 4.2453 32.0237ZM60.5918 31.9334C60.45 32.0495 60.1792 32.3589 59.9858 32.6039C59.7924 32.8489 59.5861 33.326 59.5087 33.6612C59.4056 34.0738 59.4056 34.4864 59.4958 34.8862C59.5861 35.3374 59.7795 35.6856 60.2308 36.1884C60.7336 36.7558 60.9786 36.9234 61.5589 37.0781C61.9715 37.1942 62.4872 37.2457 62.7838 37.1942C63.0674 37.1555 63.5832 36.9363 63.9442 36.7042C64.4213 36.3947 64.6792 36.0853 64.95 35.5695C65.1821 35.1053 65.2981 34.667 65.2981 34.2801C65.2981 33.9578 65.1692 33.4162 65.0015 33.0552C64.821 32.6813 64.4987 32.2558 64.2021 32.0237C63.9184 31.8045 63.4929 31.5724 63.2351 31.4822C62.9901 31.3919 62.6033 31.3274 62.397 31.3274C62.1778 31.3274 61.7523 31.4177 61.4299 31.5208C61.1076 31.624 60.7336 31.8045 60.5918 31.9334ZM7.72666 54.8847C7.36563 55.1554 6.88855 55.6841 6.65646 56.0709C6.43727 56.4577 6.17939 57.1024 6.10202 57.4892C6.02466 57.876 5.99887 58.4563 6.05045 58.7786C6.08913 59.101 6.25675 59.6425 6.42437 60.0035C6.5791 60.3517 6.96592 60.9061 7.27537 61.2285C7.59772 61.5379 8.17795 61.9376 8.56477 62.1181C9.11921 62.376 9.49313 62.4405 10.241 62.4534C11.0791 62.4534 11.337 62.3889 12.0461 62.0537C12.5619 61.7958 13.0776 61.4219 13.3742 61.0866C13.645 60.7772 13.9802 60.2614 14.1478 59.9391C14.367 59.4878 14.4315 59.1268 14.4315 58.2629C14.4315 57.3345 14.3799 57.0637 14.0834 56.4577C13.9029 56.0709 13.4645 55.4907 13.1163 55.1812C12.7811 54.8589 12.2395 54.4849 11.9172 54.3431C11.5819 54.2013 10.963 54.0723 10.4344 54.0465C9.87995 54.0208 9.31262 54.0852 8.95159 54.2013C8.62924 54.3044 8.0748 54.6139 7.72666 54.8847ZM32.5217 60.0422C32.2638 60.2356 31.9415 60.5709 31.7868 60.7772C31.6449 60.9835 31.4515 61.4863 31.3741 61.8732C31.271 62.3889 31.2581 62.7242 31.3613 63.0981C31.4386 63.3818 31.6836 63.8588 31.9028 64.1554C32.1478 64.5164 32.5217 64.8259 32.9601 65.0322C33.3727 65.2256 33.8756 65.3545 34.2237 65.3545C34.6105 65.3545 35.0489 65.2385 35.5131 65.0064C36.0289 64.7356 36.3383 64.4777 36.6478 64.0007C36.8799 63.6396 37.0991 63.1239 37.1377 62.8402C37.1893 62.5436 37.1377 62.0279 37.0217 61.6153C36.867 61.0351 36.6993 60.7901 36.132 60.2872C35.6291 59.8359 35.281 59.6425 34.8297 59.5523C34.4945 59.4749 34.185 59.4233 34.1206 59.4362C34.069 59.4491 33.7982 59.5007 33.5145 59.578C33.2309 59.6425 32.7925 59.8488 32.5217 60.0422ZM34.8684 20.3289C35.2552 20.3547 36.0418 20.5352 36.6091 20.7286C37.1764 20.922 37.9887 21.3088 38.4013 21.5796C38.8268 21.8633 39.4458 22.4177 39.7939 22.8045C40.142 23.1913 40.6191 23.8876 40.8512 24.3518C41.0833 24.816 41.3798 25.6541 41.5088 26.2214C41.6764 26.9822 41.7151 27.5237 41.6635 28.2845C41.6248 28.8518 41.4701 29.6383 41.3412 30.0251C41.1993 30.412 40.9672 30.9793 40.8125 31.2758C40.6707 31.5853 40.2839 32.1526 39.9615 32.5395C39.6392 32.9263 39.42 33.2744 39.4715 33.3131C39.536 33.3518 39.9099 33.3776 40.3096 33.3776C40.7223 33.3776 41.3927 33.4807 41.7924 33.6096C42.2051 33.7386 42.824 34.0223 43.185 34.2415C43.5331 34.4607 44.1005 34.9377 44.4357 35.2988C44.7838 35.6598 45.2738 36.4076 46.0217 37.9549L46.0474 41.7844C46.0861 45.4721 46.0732 45.6397 45.8283 45.8847C45.5833 46.1297 45.4027 46.1426 36.0289 46.1426L35.771 45.7815C35.6162 45.5881 35.5002 45.3302 35.5131 45.2013C35.5131 45.0853 35.5518 44.8918 35.6034 44.7758C35.6678 44.6598 35.8612 44.4792 36.0546 44.389C36.2867 44.2729 36.8541 44.2085 38.7366 44.2085V43.2414C38.7366 42.3904 38.7753 42.2357 39.0589 41.952C39.2266 41.7715 39.5231 41.6297 39.7036 41.6297C39.8841 41.6297 40.1678 41.7715 40.3483 41.952C40.632 42.2357 40.6707 42.3775 40.6707 44.2085H44.152V41.4363C44.152 38.9993 44.1263 38.5867 43.9071 37.9807C43.7652 37.6197 43.4171 37.0523 43.1463 36.73C42.8626 36.4076 42.334 35.9692 41.2509 35.3761H27.1965L26.5002 35.7629C26.1134 35.9692 25.5848 36.4076 25.3011 36.73C25.0303 37.0523 24.6822 37.6197 24.5404 37.9807C24.3212 38.5867 24.2954 38.9993 24.2954 44.2085H27.7767V43.2414C27.7767 42.3904 27.8154 42.2357 28.0991 41.952C28.2667 41.7715 28.5633 41.6297 28.7438 41.6297C28.9243 41.6297 29.208 41.7715 29.3885 41.952C29.6721 42.2357 29.7108 42.3775 29.7108 44.2085H30.8713C31.5933 44.2085 32.1607 44.2729 32.3799 44.389C32.5862 44.4792 32.7796 44.6598 32.8312 44.7758C32.8956 44.8918 32.9343 45.0853 32.9343 45.2013C32.9472 45.3302 32.8312 45.5881 32.4186 46.1426H27.6478C23.0447 46.1426 22.8641 46.1297 22.6192 45.8847C22.3742 45.6397 22.3613 45.4721 22.4258 37.9549L22.9028 36.9492C23.1736 36.4076 23.6636 35.6598 23.9988 35.2988C24.3469 34.9377 24.9014 34.4607 25.2624 34.2415C25.6106 34.0223 26.2424 33.7386 26.6421 33.6096C27.0547 33.4807 27.7252 33.3776 28.1378 33.3776C28.5504 33.3776 28.9372 33.3518 28.9759 33.3131C29.0274 33.2744 28.8083 32.9263 28.4859 32.5395C28.1636 32.1526 27.7767 31.5853 27.6349 31.2758C27.4802 30.9793 27.2481 30.412 27.1063 30.0251C26.9773 29.6383 26.8226 28.8518 26.7839 28.2845C26.7323 27.5237 26.771 26.9822 26.9386 26.2214C27.0676 25.6541 27.3641 24.816 27.5962 24.3518C27.8283 23.8876 28.3054 23.1913 28.6535 22.8045C29.0017 22.4177 29.6206 21.8633 30.0461 21.5796C30.4587 21.3088 31.1807 20.9349 31.6449 20.7673C32.1091 20.5997 32.8569 20.4192 33.3211 20.3676C33.7853 20.3289 34.4816 20.3031 34.8684 20.3289ZM31.1034 23.2171C30.7037 23.4879 30.1492 24.0037 29.8656 24.3776C29.5819 24.7515 29.2209 25.3833 29.0661 25.7701C28.9114 26.157 28.7567 26.8532 28.718 27.3174C28.6793 27.7816 28.7051 28.465 28.7954 28.826C28.8727 29.1999 29.0919 29.8446 29.2853 30.2443C29.4916 30.644 29.93 31.2758 30.2911 31.6369C30.6779 32.0366 31.2968 32.475 31.8383 32.7458C32.7022 33.1713 32.7925 33.1842 34.2237 33.1842C35.6549 33.1842 35.7452 33.1713 36.6091 32.7458C37.1506 32.475 37.7695 32.0366 38.1564 31.6369C38.5045 31.2758 38.9558 30.6698 39.1492 30.283C39.3297 29.8962 39.5489 29.316 39.6263 28.9936C39.7036 28.6713 39.7681 28.1168 39.7681 27.7687C39.7681 27.4077 39.7036 26.8661 39.6263 26.5438C39.5489 26.2214 39.3297 25.6412 39.1492 25.2544C38.9558 24.8676 38.5045 24.2615 38.1564 23.9005C37.7695 23.5008 37.1506 23.0624 36.6091 22.7916C35.7968 22.3919 35.5905 22.3532 34.4171 22.3146C33.4372 22.2888 32.973 22.3403 32.4701 22.508C32.122 22.6369 31.5031 22.9593 31.1034 23.2171Z" fill="white" stroke="white" stroke-width="2"/>
</svg>
