<svg width="68" height="69" viewBox="0 0 68 69" fill="none" xmlns="http://www.w3.org/2000/svg">
<path fill-rule="evenodd" clip-rule="evenodd" d="M33.8682 1C34.384 1 35.0158 1.07736 35.351 1.19341C35.6734 1.30945 36.086 1.47708 36.2923 1.58023C36.4857 1.68338 36.8725 1.97994 37.1691 2.25071C37.4527 2.50859 37.8653 2.98567 38.0587 3.30802C38.2651 3.63036 38.5229 4.26217 38.6519 4.72635C38.7937 5.30658 38.8324 5.79655 38.7808 6.33809C38.7292 6.77648 38.5358 7.45986 38.3166 7.92405C38.0974 8.36244 37.6719 8.98135 37.3496 9.3037C37.0272 9.62605 36.4599 10.0258 36.086 10.1934C35.7249 10.361 35.3123 10.5286 35.1963 10.5802C34.99 10.6447 34.9642 10.8381 34.9642 13.4942L35.7121 13.5716C36.1118 13.6103 37.053 13.7521 37.8009 13.881C38.5487 14.0229 39.7607 14.3452 40.5086 14.6031C41.2564 14.861 42.4427 15.3638 43.1519 15.712C43.861 16.073 44.7894 16.6017 45.2149 16.8853C45.6404 17.169 46.3882 17.7234 47.755 18.8452L52.8868 13.6876L52.5129 12.9785C52.2937 12.5917 52.0358 11.9212 51.9326 11.4957C51.8166 11.0702 51.7263 10.3997 51.7263 10.0129C51.7263 9.62605 51.8166 8.96845 51.9197 8.55585C52.0229 8.15614 52.2679 7.51144 52.4484 7.15041C52.6418 6.77648 53.1447 6.11889 53.5831 5.6805C54.0859 5.19053 54.679 4.75214 55.2077 4.49426C55.6719 4.27506 56.4197 4.03008 56.8839 3.95271C57.3481 3.86245 58.0444 3.83667 58.4312 3.87535C58.818 3.91403 59.4627 4.05586 59.8495 4.1848C60.2363 4.32664 60.7908 4.57162 61.0744 4.75214C61.3581 4.93265 61.8094 5.26789 62.0931 5.51288C62.3638 5.75786 62.7893 6.27362 63.0472 6.66044C63.2922 7.04726 63.6145 7.69195 63.7435 8.07877C63.8724 8.46559 64.0143 9.11029 64.0529 9.49711C64.0916 9.88392 64.0658 10.5802 63.9756 11.0444C63.8982 11.5086 63.6532 12.2564 63.434 12.7206C63.1761 13.2492 62.7378 13.8424 62.2478 14.3452C61.8094 14.7836 61.1518 15.2865 60.7908 15.4799C60.4168 15.6604 59.7721 15.9054 59.3724 16.0085C58.9598 16.1117 58.3022 16.202 57.9154 16.202C57.5286 16.202 56.8581 16.1117 56.4326 15.9957C56.0071 15.8925 55.3366 15.6346 54.2406 15.0415L49.0831 20.1862L49.8051 21.063C50.2048 21.54 50.798 22.3524 51.1203 22.8423C51.4298 23.3323 51.9584 24.2736 52.2808 24.9054C52.6031 25.5372 53.0673 26.6718 53.3252 27.4197C53.5831 28.1675 53.9183 29.4053 54.0472 30.1919C54.1891 30.9784 54.3309 31.9455 54.4341 33.093H57.2707L57.4641 32.487C57.5673 32.1389 57.8381 31.5844 58.0701 31.2363C58.3022 30.8882 58.7019 30.4498 58.9469 30.2435C59.1919 30.05 59.7206 29.7406 60.1074 29.5601C60.4942 29.3796 61.1647 29.199 61.5902 29.1475C62.1317 29.0959 62.6217 29.1346 63.2019 29.2893C63.6661 29.4053 64.2979 29.6503 64.6074 29.8437C64.9297 30.0372 65.4326 30.4884 65.742 30.8366C66.0644 31.1976 66.4383 31.8036 66.593 32.1904C66.7993 32.732 66.8767 33.1575 66.8638 33.9956C66.8638 34.8079 66.7864 35.2721 66.5801 35.8007C66.4254 36.1876 66.0515 36.8065 65.742 37.1546C65.4326 37.5156 64.9297 37.954 64.6074 38.1474C64.2979 38.3408 63.6661 38.5858 63.2019 38.7019C62.6217 38.8566 62.1317 38.8953 61.5902 38.8437C61.1518 38.7921 60.4684 38.5987 60.0171 38.3795C59.5658 38.1603 58.9469 37.7348 58.6246 37.4125C58.3022 37.0901 57.9025 36.5228 57.7349 36.1618C57.5673 35.7878 57.3997 35.3752 57.3481 35.2592C57.2836 35.0529 57.0902 35.0271 54.4341 35.0271L54.3696 35.646C54.3309 35.9813 54.2149 36.8323 54.0988 37.5414C53.9828 38.2506 53.6733 39.5013 53.4025 40.3136C53.1447 41.1259 52.6418 42.3509 52.3066 43.0213C51.9713 43.6918 51.4298 44.646 51.1203 45.1488C50.798 45.6517 50.2048 46.4511 49.0831 47.805L54.2406 52.9497L54.9498 52.5758C55.3366 52.3566 56.0071 52.0987 56.4326 51.9955C56.8581 51.8795 57.5286 51.7892 57.9154 51.7892C58.3022 51.7892 58.9727 51.8795 59.3982 51.9955C59.8237 52.0987 60.3008 52.3179 60.4684 52.4726C60.6231 52.6273 60.7521 52.8852 60.7521 53.0528C60.7521 53.2076 60.7005 53.4525 60.6231 53.5944C60.5458 53.7362 60.3524 53.9038 60.1719 53.9812C59.9398 54.0715 59.6561 54.0586 59.1146 53.9038C58.6246 53.762 58.0959 53.7104 57.5931 53.7491C57.1676 53.7878 56.5616 53.9296 56.2392 54.0715C55.9169 54.2004 55.3753 54.5743 55.0401 54.8967C54.6919 55.2061 54.2535 55.7863 54.073 56.1732C53.7765 56.7663 53.7249 57.05 53.7249 57.9783C53.7249 58.8422 53.7894 59.1903 54.0086 59.6545C54.1633 59.9769 54.5114 60.4926 54.7822 60.8021C55.0788 61.1373 55.5945 61.5241 56.1103 61.7691C56.8194 62.1044 57.0773 62.1688 57.9154 62.1688C58.6633 62.156 59.0372 62.0915 59.5916 61.8336C59.9784 61.6531 60.5587 61.2534 60.881 60.9439C61.1905 60.6216 61.5902 60.0413 61.7707 59.6545C61.977 59.1646 62.0802 58.7004 62.0931 58.1717C62.0931 57.7462 62.0544 57.0757 61.9899 56.6889C61.8868 56.0571 61.8996 55.954 62.1446 55.6832C62.3337 55.4941 62.5787 55.3995 62.8796 55.3995C63.2277 55.3995 63.3953 55.4898 63.5887 55.7606C63.7306 55.954 63.9111 56.5084 63.9885 57.0113C64.0658 57.527 64.0916 58.2233 64.04 58.623C63.9885 59.0098 63.8466 59.6287 63.7306 59.9769C63.6016 60.3379 63.2922 60.9439 63.0472 61.3307C62.7893 61.7176 62.3638 62.2333 62.0931 62.4783C61.8094 62.7233 61.3581 63.0585 61.0744 63.239C60.7908 63.4196 60.2363 63.6645 59.8495 63.8064C59.4627 63.9353 58.818 64.0771 58.4312 64.1158C58.0444 64.1545 57.3481 64.1287 56.8839 64.0385C56.4197 63.9611 55.6719 63.7161 55.2077 63.4969C54.679 63.239 54.0859 62.8006 53.5831 62.3107C53.1447 61.8723 52.6418 61.2147 52.4484 60.8537C52.2679 60.4797 52.0229 59.835 51.9197 59.4353C51.8166 59.0227 51.7263 58.3651 51.7263 57.9783C51.7263 57.5915 51.8166 56.921 51.9326 56.4955C52.0358 56.07 52.2937 55.3995 52.8868 54.3035L47.755 49.146L46.8782 49.868C46.3882 50.2677 45.6404 50.8222 45.2149 51.1058C44.7894 51.3895 43.8352 51.9311 43.0874 52.305C42.3395 52.6789 41.063 53.2076 40.2507 53.4654C39.4384 53.7362 38.1877 54.0457 37.4785 54.1617C36.7694 54.2778 35.9184 54.3938 34.9642 54.497V55.9153C34.9642 57.1531 34.99 57.3465 35.1963 57.411C35.3123 57.4626 35.7249 57.6302 36.0989 57.7978C36.4599 57.9654 37.0272 58.3651 37.3496 58.6875C37.6719 59.0098 38.0974 59.6287 38.3166 60.08C38.5358 60.5313 38.7292 61.2147 38.7808 61.6531C38.8324 62.1946 38.7937 62.6846 38.6519 63.2648C38.5229 63.729 38.2651 64.3608 38.0587 64.6832C37.8653 65.0055 37.4527 65.4826 37.1691 65.7534C36.8725 66.0112 36.4857 66.3078 36.2923 66.411C36.086 66.5141 35.6734 66.6817 35.351 66.7978C35.0287 66.9138 34.3969 67.0041 33.9327 67.0041C33.3267 67.0041 32.8625 66.9138 32.2565 66.6817C31.7923 66.5012 31.1605 66.1273 30.851 65.8694C30.5287 65.6115 30.0903 65.0958 29.8582 64.7476C29.6132 64.3866 29.3296 63.729 29.2135 63.2648C29.0717 62.6846 29.033 62.1817 29.0846 61.6531C29.1361 61.2147 29.3296 60.5313 29.5488 60.0671C29.7679 59.6287 30.1806 59.0227 30.49 58.7133C30.7866 58.4038 31.3539 58.0041 31.7407 57.8236C32.1275 57.6431 32.553 57.4497 32.682 57.411C32.8754 57.3465 32.9012 57.1531 32.9012 54.497L32.2952 54.4325C31.947 54.3938 31.096 54.2778 30.3869 54.1617C29.6777 54.0457 28.427 53.7362 27.6147 53.4654C26.8023 53.2076 25.5774 52.7047 24.9069 52.3695C24.2364 52.0342 23.2823 51.4927 22.7794 51.1703C22.2895 50.848 21.4771 50.2677 20.1233 49.146L14.9786 54.3035L15.3525 55.0127C15.5717 55.3995 15.8296 56.07 15.9328 56.4955C16.0488 56.921 16.1391 57.5915 16.1391 57.9783C16.1391 58.3651 16.0488 59.0227 15.9456 59.4353C15.8425 59.835 15.5975 60.4797 15.417 60.8537C15.2236 61.2147 14.7207 61.8723 14.2823 62.3107C13.7795 62.8006 13.1863 63.239 12.6577 63.4969C12.1935 63.7161 11.4457 63.9611 10.9815 64.0385C10.5173 64.1287 9.82102 64.1545 9.43421 64.1158C9.04739 64.0771 8.40269 63.9353 8.01587 63.8064C7.62905 63.6645 7.07462 63.4196 6.79095 63.239C6.50728 63.0585 6.05599 62.7233 5.77233 62.4783C5.50155 62.2333 5.07605 61.7176 4.81818 61.3307C4.57319 60.9439 4.25084 60.2992 4.1219 59.9124C3.99296 59.5256 3.85113 58.8809 3.81245 58.4941C3.77377 58.1073 3.79955 57.411 3.88981 56.9468C3.96718 56.4826 4.21216 55.7348 4.43136 55.2706C4.68924 54.7419 5.12763 54.1488 5.6176 53.646C6.05599 53.2076 6.71358 52.7047 7.08751 52.5113C7.44854 52.3308 8.09324 52.0858 8.50584 51.9826C8.90555 51.8795 9.56314 51.7892 9.94996 51.7892C10.3368 51.7892 11.0073 51.8795 11.4328 51.9955C11.8583 52.0987 12.5288 52.3566 13.6247 52.9497L18.7823 47.805L18.0603 46.9282C17.6605 46.4511 17.0674 45.6517 16.7451 45.1488C16.4356 44.646 15.907 43.7176 15.5846 43.0858C15.2623 42.454 14.7981 41.3193 14.5402 40.5715C14.2823 39.8236 13.96 38.6116 13.8181 37.8638C13.6892 37.1159 13.5474 36.1747 13.4313 35.0271H12.013C10.7752 35.0271 10.5818 35.0529 10.5173 35.2592C10.4657 35.3752 10.2981 35.7878 10.1305 36.1618C9.96286 36.5228 9.56315 37.0901 9.2408 37.4125C8.91845 37.7348 8.29954 38.1603 7.86115 38.3795C7.39696 38.5987 6.71358 38.7921 6.27519 38.8437C5.73365 38.8953 5.24368 38.8566 4.66345 38.7148C4.19927 38.5858 3.54168 38.3151 3.19354 38.083C2.8454 37.8509 2.32965 37.4125 2.05887 37.0901C1.77521 36.7678 1.42707 36.1876 1.27234 35.8007C1.05315 35.2592 0.988676 34.8337 1.00157 33.9956C1.00157 33.1962 1.07893 32.7062 1.28524 32.1904C1.42707 31.8036 1.77521 31.2234 2.05887 30.901C2.32965 30.5787 2.8454 30.1403 3.19354 29.9082C3.54168 29.6761 4.19927 29.4053 4.66345 29.2764C5.24368 29.1346 5.73365 29.0959 6.27519 29.1475C6.70069 29.199 7.37118 29.3796 7.75799 29.5601C8.14481 29.7406 8.67346 30.05 8.91845 30.2435C9.16343 30.4498 9.56315 30.8882 9.79524 31.2363C10.0273 31.5844 10.2981 32.1389 10.5947 33.093H13.4313L13.5087 32.2291C13.5474 31.7392 13.7021 30.7463 13.8439 29.9985C13.9858 29.2506 14.3081 28.0644 14.5531 27.3552C14.7981 26.646 15.2623 25.5372 15.5846 24.9054C15.907 24.2736 16.4356 23.3323 16.7451 22.8423C17.0674 22.3524 17.6605 21.54 18.7823 20.1862L13.6247 15.0415L12.9156 15.4154C12.5288 15.6346 11.8583 15.8925 11.4328 15.9957C11.0073 16.1117 10.3368 16.202 9.94996 16.202C9.56314 16.202 8.90555 16.1117 8.50584 16.0085C8.09324 15.9054 7.44854 15.6604 7.08751 15.4799C6.71358 15.2865 6.05599 14.7836 5.6176 14.3452C5.12763 13.8424 4.68924 13.2492 4.43136 12.7206C4.21216 12.2564 3.96718 11.5086 3.88981 11.0444C3.79955 10.5802 3.77377 9.88392 3.81245 9.49711C3.85113 9.11029 3.99296 8.46559 4.1219 8.07877C4.25084 7.69195 4.58608 7.02147 4.86975 6.60886C5.14052 6.18336 5.63049 5.61603 5.95284 5.34526C6.27519 5.07448 6.82963 4.70056 7.17777 4.52005C7.5388 4.35242 8.05455 4.17191 8.33822 4.13323C8.72504 4.06876 8.93134 4.12033 9.16343 4.28795C9.35684 4.44268 9.47289 4.67477 9.48578 4.93265C9.48578 5.15185 9.40842 5.43552 9.30527 5.56445C9.20211 5.6805 8.76372 5.93838 8.33822 6.13179C7.91272 6.3252 7.30671 6.7378 6.98436 7.04726C6.6749 7.36961 6.27519 7.94983 6.09468 8.33665C5.8368 8.89109 5.77233 9.26502 5.75943 10.0129C5.75943 10.851 5.8239 11.1088 6.15915 11.818C6.40413 12.3338 6.79095 12.8495 7.12619 13.1461C7.43565 13.4169 7.9514 13.765 8.27375 13.9197C8.73793 14.1389 9.07318 14.2034 9.94996 14.2034C10.7752 14.2034 11.1878 14.1389 11.6262 13.9326C11.9485 13.7908 12.4901 13.4169 12.8253 13.0945C13.1734 12.7851 13.6118 12.2048 13.7924 11.818C14.0889 11.212 14.1405 10.9412 14.1276 10.0129C14.1276 9.13608 14.0631 8.78794 13.8181 8.27218C13.6505 7.92405 13.1348 7.25356 12.6706 6.78938C11.9356 6.02864 11.8583 5.91259 11.9356 5.56445C11.9743 5.35815 12.1419 5.07448 12.3096 4.94555C12.4643 4.81661 12.7093 4.71345 12.8511 4.71345C12.9929 4.71345 13.3411 4.88108 13.6247 5.08738C13.9084 5.29368 14.3597 5.69339 14.6305 5.98995C14.8883 6.28652 15.2494 6.82806 15.4299 7.1762C15.6104 7.53723 15.8425 8.15614 15.9456 8.56874C16.0488 8.96845 16.1391 9.62605 16.1391 10.0129C16.1391 10.3997 16.0488 11.0702 15.9328 11.4957C15.8296 11.9212 15.5717 12.5917 14.9786 13.6876L20.1233 18.8452L21.0001 18.1232C21.4771 17.7234 22.2895 17.1303 22.7794 16.808C23.2823 16.4985 24.2107 15.9699 24.8425 15.6475C25.4743 15.3252 26.6089 14.861 27.3568 14.6031C28.1046 14.3452 29.3167 14.0229 30.0645 13.881C30.8124 13.7521 31.7536 13.6103 32.9012 13.4942V12.0759C32.9012 10.8381 32.8754 10.6447 32.682 10.5802C32.553 10.5415 32.1275 10.3481 31.7407 10.1676C31.3539 9.98708 30.7866 9.58736 30.49 9.27791C30.1806 8.96845 29.7679 8.36244 29.5488 7.92405C29.3296 7.45986 29.1361 6.77648 29.0846 6.33809C29.033 5.79655 29.0717 5.30658 29.2135 4.72635C29.3424 4.26217 29.6132 3.60458 29.8453 3.25644C30.0774 2.9083 30.5158 2.39255 30.8381 2.12177C31.1605 1.851 31.7665 1.48997 32.192 1.32235C32.7336 1.10315 33.2493 1.01289 33.8682 1V1ZM31.5086 4.27506C31.2765 4.63609 31.0573 5.15185 31.0187 5.43552C30.9671 5.73208 31.0187 6.24783 31.1347 6.66044C31.2894 7.24067 31.4571 7.48565 32.0244 7.98852C32.5272 8.4398 32.8754 8.63321 33.3267 8.72347C33.7135 8.81373 34.1519 8.81373 34.5516 8.72347C34.99 8.63321 35.3381 8.4398 35.841 7.98852C36.4083 7.48565 36.5759 7.24067 36.7307 6.66044C36.8467 6.24783 36.8983 5.73208 36.8467 5.43552C36.808 5.15185 36.5888 4.63609 36.3567 4.27506C36.0473 3.79798 35.7378 3.54011 35.2221 3.26933C34.7579 3.03724 34.3066 2.9212 33.9327 2.9212C33.5588 2.9212 33.1075 3.03724 32.6433 3.26933C32.1275 3.54011 31.8181 3.79798 31.5086 4.27506V4.27506ZM55.7234 6.42835C55.3366 6.66044 54.808 7.13752 54.5372 7.49855C54.2664 7.85958 53.9441 8.46559 53.828 8.85241C53.6991 9.31659 53.6475 9.83235 53.6862 10.3352C53.7249 10.7607 53.8667 11.3667 54.0086 11.6891C54.1375 12.0114 54.5114 12.553 54.8338 12.8882C55.1432 13.2363 55.7234 13.6747 56.1103 13.8553C56.7163 14.1518 56.9871 14.2034 57.9154 14.2034C58.7793 14.2034 59.1403 14.1389 59.5916 13.9197C59.914 13.7521 60.4297 13.4169 60.7392 13.1461C61.0744 12.8495 61.4484 12.3338 61.7062 11.818C62.0415 11.1088 62.1059 10.851 62.1059 10.0129C62.0931 9.26502 62.0286 8.89109 61.7707 8.33665C61.5902 7.94983 61.1905 7.36961 60.881 7.04726C60.5587 6.7378 60.0042 6.35098 59.6561 6.18336C59.2951 6.02864 58.6633 5.86102 58.2378 5.83523C57.8123 5.79655 57.232 5.82233 56.9484 5.8868C56.6647 5.96417 56.1103 6.20915 55.7234 6.42835V6.42835ZM29.5488 15.957C28.9427 16.1117 27.9241 16.434 27.2923 16.679C26.6605 16.924 25.6677 17.3753 25.1003 17.6848C24.533 17.9813 23.5789 18.6002 22.9728 19.0386C22.3668 19.4899 21.3224 20.4054 20.6519 21.0888C19.9557 21.785 19.0402 22.8939 18.5631 23.616C18.086 24.3251 17.4671 25.3953 17.1835 26.0013C16.8998 26.6074 16.5001 27.626 16.2938 28.2578C16.0746 28.8896 15.8038 29.9469 15.6749 30.5787C15.4944 31.4297 15.4428 32.3323 15.4428 33.9956C15.4428 35.6589 15.4944 36.5615 15.6749 37.4125C15.8038 38.0443 16.0746 39.1016 16.2938 39.7334C16.5001 40.3652 16.8998 41.3838 17.1835 41.9898C17.4671 42.5958 18.086 43.666 18.5631 44.3752C19.0918 45.1875 19.917 46.1675 20.7809 47.0185C21.5287 47.7663 22.6634 48.7334 23.2952 49.1847C23.927 49.6359 25.0359 50.2806 25.745 50.6288C26.4542 50.9769 27.5631 51.4282 28.1949 51.6474C28.8267 51.8537 29.884 52.1245 30.5158 52.2534C31.3668 52.4339 32.2694 52.4855 33.9327 52.4855C35.596 52.4855 36.4986 52.4339 37.3496 52.2534C37.9814 52.1245 39.0387 51.8537 39.6705 51.6345C40.3023 51.4282 41.3209 51.0285 41.9269 50.7448C42.5329 50.4611 43.6031 49.8422 44.3123 49.3652C45.0731 48.8623 46.1304 47.9726 46.904 47.2119C47.6132 46.5027 48.5028 45.5228 48.8639 45.0199C49.2249 44.517 49.818 43.5887 50.1662 42.9569C50.5143 42.3251 50.9914 41.3451 51.1977 40.7907C51.4169 40.2492 51.7392 39.2563 51.9068 38.5987C52.0745 37.954 52.2937 36.8065 52.371 36.0586C52.4742 35.2592 52.5 34.073 52.4613 33.1575C52.4226 32.3065 52.2937 31.1202 52.1776 30.5142C52.0487 29.9082 51.7908 28.8896 51.5716 28.2578C51.3653 27.626 50.9656 26.6074 50.6819 26.0013C50.3982 25.3953 49.7793 24.3251 49.3023 23.616C48.7607 22.7908 47.9355 21.8108 47.02 20.9082C46.1175 19.9928 45.1375 19.1676 44.3123 18.626C43.6031 18.1489 42.4685 17.5042 41.798 17.1948C41.1275 16.8724 40.0831 16.4598 39.4771 16.2793C38.8711 16.0988 37.9427 15.8538 37.4141 15.7507C36.8854 15.6346 35.5444 15.5315 34.4484 15.4928C33.3525 15.467 32.0373 15.4928 31.5473 15.5702C31.0444 15.6346 30.1548 15.8151 29.5488 15.957V15.957ZM3.95428 31.7391C3.65772 31.9712 3.33537 32.3967 3.15486 32.7707C2.98724 33.1317 2.8583 33.6732 2.8583 33.9956C2.8583 34.3824 2.97434 34.8208 3.20643 35.285C3.47721 35.8007 3.73508 36.1102 4.21216 36.4197C4.5603 36.6517 5.08895 36.8709 5.37262 36.9096C5.66918 36.9612 6.18493 36.9096 6.59754 36.7936C7.17777 36.6388 7.42275 36.4712 7.92561 35.9039C8.3769 35.401 8.57031 35.0529 8.66057 34.6016C8.75083 34.2148 8.75083 33.7764 8.66057 33.3767C8.57031 32.9383 8.3769 32.5902 7.92561 32.0873C7.44854 31.5457 7.16487 31.3523 6.66201 31.2105C6.30098 31.1073 5.87548 31.03 5.69496 31.03C5.51445 31.0429 5.16631 31.1073 4.92133 31.1976C4.66345 31.2879 4.23795 31.52 3.95428 31.7391V31.7391ZM60.3008 31.6489C60.159 31.7649 59.8882 32.0744 59.6948 32.3194C59.5014 32.5644 59.2951 33.0414 59.2177 33.3767C59.1146 33.7893 59.1146 34.2019 59.2048 34.6016C59.2951 35.0529 59.4885 35.401 59.9398 35.9039C60.4426 36.4712 60.6876 36.6388 61.2678 36.7936C61.6804 36.9096 62.1962 36.9612 62.4928 36.9096C62.7764 36.8709 63.2922 36.6517 63.6532 36.4197C64.1303 36.1102 64.3882 35.8007 64.6589 35.285C64.891 34.8208 65.0071 34.3824 65.0071 33.9956C65.0071 33.6732 64.8781 33.1317 64.7105 32.7707C64.53 32.3967 64.2077 31.9712 63.9111 31.7391C63.6274 31.52 63.2019 31.2879 62.9441 31.1976C62.6991 31.1073 62.3122 31.0429 62.1059 31.0429C61.8867 31.0429 61.4612 31.1331 61.1389 31.2363C60.8166 31.3394 60.4426 31.52 60.3008 31.6489V31.6489ZM7.43565 54.6001C7.07462 54.8709 6.59754 55.3995 6.36545 55.7863C6.14625 56.1732 5.88837 56.8179 5.81101 57.2047C5.73365 57.5915 5.70786 58.1717 5.75943 58.4941C5.79812 58.8164 5.96574 59.358 6.13336 59.719C6.28808 60.0671 6.6749 60.6216 6.98436 60.9439C7.30671 61.2534 7.88693 61.6531 8.27375 61.8336C8.82819 62.0915 9.20211 62.156 9.94996 62.1688C10.7881 62.1688 11.0459 62.1044 11.7551 61.7691C12.2709 61.5113 12.7866 61.1373 13.0832 60.8021C13.354 60.4926 13.6892 59.9769 13.8568 59.6545C14.076 59.2032 14.1405 58.8422 14.1405 57.9783C14.1405 57.05 14.0889 56.7792 13.7924 56.1732C13.6118 55.7863 13.1734 55.2061 12.8253 54.8967C12.4901 54.5743 11.9485 54.2004 11.6262 54.0586C11.2909 53.9167 10.672 53.7878 10.1434 53.762C9.58893 53.7362 9.0216 53.8007 8.66057 53.9167C8.33822 54.0199 7.78378 54.3293 7.43565 54.6001ZM32.2307 59.7577C31.9728 59.9511 31.6505 60.2863 31.4957 60.4926C31.3539 60.6989 31.1605 61.2018 31.0831 61.5886C30.98 62.1044 30.9671 62.4396 31.0702 62.8135C31.1476 63.0972 31.3926 63.5743 31.6118 63.8708C31.8568 64.2319 32.2307 64.5413 32.6691 64.7476C33.0817 64.941 33.5846 65.07 33.9327 65.07C34.3195 65.07 34.7579 64.9539 35.2221 64.7218C35.7378 64.4511 36.0473 64.1932 36.3567 63.7161C36.5888 63.3551 36.808 62.8393 36.8467 62.5557C36.8983 62.2591 36.8467 61.7433 36.7307 61.3307C36.5759 60.7505 36.4083 60.5055 35.841 60.0027C35.3381 59.5514 34.99 59.358 34.5387 59.2677C34.2035 59.1903 33.894 59.1388 33.8295 59.1517C33.778 59.1646 33.5072 59.2161 33.2235 59.2935C32.9399 59.358 32.5015 59.5643 32.2307 59.7577V59.7577ZM34.5774 20.0443C34.9642 20.0701 35.7507 20.2507 36.3181 20.4441C36.8854 20.6375 37.6977 21.0243 38.1103 21.2951C38.5358 21.5787 39.1547 22.1332 39.5029 22.52C39.851 22.9068 40.3281 23.6031 40.5602 24.0673C40.7923 24.5314 41.0888 25.3695 41.2178 25.9369C41.3854 26.6976 41.4241 27.2392 41.3725 27.9999C41.3338 28.5672 41.1791 29.3538 41.0501 29.7406C40.9083 30.1274 40.6762 30.6947 40.5215 30.9913C40.3797 31.3008 39.9928 31.8681 39.6705 32.2549C39.3481 32.6417 39.1289 32.9899 39.1805 33.0285C39.245 33.0672 39.6189 33.093 40.0186 33.093C40.4312 33.093 41.1017 33.1962 41.5014 33.3251C41.914 33.454 42.5329 33.7377 42.894 33.9569C43.2421 34.1761 43.8094 34.6532 44.1447 35.0142C44.4928 35.3752 44.9828 36.1231 45.7306 37.6704L45.7564 41.4999C45.7951 45.1875 45.7822 45.3551 45.5372 45.6001C45.2922 45.8451 45.1117 45.858 35.7378 45.858L35.48 45.497C35.3252 45.3036 35.2092 45.0457 35.2221 44.9168C35.2221 44.8007 35.2608 44.6073 35.3123 44.4913C35.3768 44.3752 35.5702 44.1947 35.7636 44.1044C35.9957 43.9884 36.5631 43.9239 38.4456 43.9239V42.9569C38.4456 42.1059 38.4842 41.9511 38.7679 41.6675C38.9355 41.487 39.2321 41.3451 39.4126 41.3451C39.5931 41.3451 39.8768 41.487 40.0573 41.6675C40.341 41.9511 40.3797 42.093 40.3797 43.9239H43.861V41.1517C43.861 38.7148 43.8352 38.3022 43.616 37.6962C43.4742 37.3351 43.1261 36.7678 42.8553 36.4454C42.5716 36.1231 42.043 35.6847 40.9599 35.0916H26.9055L26.2092 35.4784C25.8224 35.6847 25.2938 36.1231 25.0101 36.4454C24.7393 36.7678 24.3912 37.3351 24.2493 37.6962C24.0301 38.3022 24.0044 38.7148 24.0044 43.9239H27.4857V42.9569C27.4857 42.1059 27.5244 41.9511 27.8081 41.6675C27.9757 41.487 28.2723 41.3451 28.4528 41.3451C28.6333 41.3451 28.9169 41.487 29.0975 41.6675C29.3811 41.9511 29.4198 42.093 29.4198 43.9239H30.5803C31.3023 43.9239 31.8697 43.9884 32.0889 44.1044C32.2952 44.1947 32.4886 44.3752 32.5401 44.4913C32.6046 44.6073 32.6433 44.8007 32.6433 44.9168C32.6562 45.0457 32.5401 45.3036 32.1275 45.858H27.3568C22.7536 45.858 22.5731 45.8451 22.3281 45.6001C22.0832 45.3551 22.0703 45.1875 22.1347 37.6704L22.6118 36.6646C22.8826 36.1231 23.3726 35.3752 23.7078 35.0142C24.0559 34.6532 24.6104 34.1761 24.9714 33.9569C25.3195 33.7377 25.9513 33.454 26.3511 33.3251C26.7637 33.1962 27.4341 33.093 27.8468 33.093C28.2594 33.093 28.6462 33.0672 28.6849 33.0285C28.7364 32.9899 28.5172 32.6417 28.1949 32.2549C27.8725 31.8681 27.4857 31.3008 27.3439 30.9913C27.1892 30.6947 26.9571 30.1274 26.8152 29.7406C26.6863 29.3538 26.5316 28.5672 26.4929 27.9999C26.4413 27.2392 26.48 26.6976 26.6476 25.9369C26.7766 25.3695 27.0731 24.5314 27.3052 24.0673C27.5373 23.6031 28.0144 22.9068 28.3625 22.52C28.7106 22.1332 29.3296 21.5787 29.7551 21.2951C30.1677 21.0243 30.8897 20.6504 31.3539 20.4827C31.8181 20.3151 32.5659 20.1346 33.0301 20.083C33.4943 20.0443 34.1906 20.0186 34.5774 20.0443V20.0443ZM30.8124 22.9326C30.4126 23.2034 29.8582 23.7191 29.5745 24.093C29.2909 24.467 28.9298 25.0988 28.7751 25.4856C28.6204 25.8724 28.4657 26.5687 28.427 27.0329C28.3883 27.497 28.4141 28.1804 28.5043 28.5415C28.5817 28.9154 28.8009 29.5601 28.9943 29.9598C29.2006 30.3595 29.639 30.9913 30 31.3523C30.3869 31.752 31.0058 32.1904 31.5473 32.4612C32.4112 32.8867 32.5015 32.8996 33.9327 32.8996C35.3639 32.8996 35.4542 32.8867 36.3181 32.4612C36.8596 32.1904 37.4785 31.752 37.8653 31.3523C38.2135 30.9913 38.6648 30.3853 38.8582 29.9985C39.0387 29.6116 39.2579 29.0314 39.3352 28.7091C39.4126 28.3867 39.4771 27.8323 39.4771 27.4841C39.4771 27.1231 39.4126 26.5816 39.3352 26.2592C39.2579 25.9369 39.0387 25.3567 38.8582 24.9698C38.6648 24.583 38.2135 23.977 37.8653 23.616C37.4785 23.2163 36.8596 22.7779 36.3181 22.5071C35.5058 22.1074 35.2994 22.0687 34.1261 22.03C33.1462 22.0042 32.682 22.0558 32.1791 22.2234C31.831 22.3524 31.2121 22.6747 30.8124 22.9326V22.9326Z" fill="white" stroke="white" stroke-width="2"/>
</svg>
