<svg width="68" height="68" viewBox="0 0 68 68" fill="none" xmlns="http://www.w3.org/2000/svg">
<path fill-rule="evenodd" clip-rule="evenodd" d="M52.6942 0.902466L53.2098 1.28913C53.4933 1.49536 56.5738 4.52425 60.0667 8.01714C63.9204 11.8967 66.4338 14.5131 66.4853 14.7065C66.524 14.8869 66.5369 26.0487 66.4853 64.0065L66.1889 64.6123C66.0342 64.9603 65.6347 65.5017 65.2867 65.8239C64.9258 66.1719 64.4102 66.507 64.0107 66.6617C63.3404 66.8937 62.7347 66.9065 41.2875 66.9065C19.8404 66.9065 19.2346 66.8937 18.5644 66.6617C18.1648 66.507 17.6493 66.1719 17.2884 65.8239C16.9404 65.5017 16.5408 64.9603 16.0897 64.0065L16.0253 37.0043H14.9039C14.2724 37.0043 13.2155 36.9141 12.5453 36.811C11.8751 36.695 10.7666 36.4243 10.0964 36.1923C9.42616 35.9603 8.42082 35.5221 7.85371 35.1998C7.29949 34.8776 6.37149 34.2461 5.80438 33.7821C5.22438 33.3181 4.41238 32.5318 3.97415 32.0163C3.54882 31.5007 2.91726 30.6114 2.55637 30.0185C2.20837 29.4385 1.73148 28.4589 1.49948 27.8532C1.28037 27.2474 0.971039 26.1518 0.829261 25.4043C0.661705 24.6052 0.558594 23.5483 0.558594 22.8265C0.558594 22.0918 0.661705 21.0607 0.829261 20.2487C0.971039 19.5012 1.28037 18.4056 1.49948 17.7998C1.7186 17.194 2.19548 16.2274 2.55637 15.6345C2.90437 15.0545 3.56171 14.1394 4.01282 13.6109C4.45104 13.0825 5.27593 12.2834 5.83016 11.8323C6.38438 11.394 7.29949 10.7754 7.85371 10.4531C8.42082 10.1309 9.42616 9.6927 10.0964 9.4607C10.7666 9.2287 11.8751 8.95803 12.5453 8.84203C13.2155 8.73892 14.2724 8.6487 16.0253 8.6487L16.0639 6.22558C16.0897 4.03447 16.1155 3.7638 16.3862 3.19669C16.5408 2.86158 16.9404 2.32025 17.2884 1.99802C17.6235 1.6758 18.1777 1.30202 18.5386 1.17313C19.1573 0.941133 19.8791 0.928244 52.6942 0.902466ZM18.8995 4.00869C18.6933 4.26647 18.6675 4.56291 18.6675 6.74114V9.19003C20.1626 9.74425 20.8973 10.0407 21.2453 10.234C21.6062 10.4145 22.328 10.8656 22.8564 11.2394C23.3848 11.6131 24.2742 12.3607 24.8284 12.9278C25.3697 13.482 26.1688 14.4745 26.5942 15.1318C27.0195 15.7763 27.548 16.7558 27.7671 17.2843C27.9991 17.8127 28.3213 18.8052 28.5017 19.4754C28.7853 20.5452 28.824 20.9576 28.824 22.8265C28.824 24.6954 28.7853 25.1078 28.5017 26.1776C28.3213 26.8478 27.9991 27.8403 27.7671 28.3687C27.548 28.8972 27.0195 29.8767 26.5942 30.5341C26.1688 31.1785 25.3697 32.1709 24.8284 32.7252C24.2742 33.2923 23.3848 34.0398 22.8564 34.4136C22.328 34.7874 21.6062 35.2385 21.2453 35.4189C20.8973 35.6123 20.1626 35.9087 19.6342 36.1021L18.6675 36.463V63.5554L19.3764 64.2643H63.1987L63.9076 63.5554L63.972 16.382L51.8564 16.3176L51.1475 15.6087L51.1347 3.49314C26.7746 3.50602 19.5697 3.55758 19.4151 3.60914C19.2604 3.67358 19.0284 3.84114 18.8995 4.00869ZM53.6609 13.8043H62.1031C55.6587 7.30825 53.764 5.42647 53.7253 5.42647C53.6867 5.42647 53.6609 7.30825 53.6609 9.61537V13.8043ZM9.90305 12.2963C9.41327 12.5283 8.62705 12.9794 8.16305 13.2887C7.69905 13.6109 6.97727 14.2038 6.55193 14.642C6.11371 15.0674 5.53371 15.7634 5.25015 16.1887C4.95371 16.614 4.54127 17.3229 4.30926 17.774C4.09015 18.2123 3.75504 19.0758 3.56171 19.7074C3.26526 20.6998 3.2266 21.0349 3.21371 22.762C3.21371 24.3474 3.26526 24.8758 3.49726 25.7265C3.65193 26.2936 4.0386 27.2861 4.34793 27.9176C4.67015 28.5621 5.28882 29.5287 5.73993 30.0829C6.19104 30.6372 6.99016 31.4363 7.5186 31.8616C8.04705 32.2869 9.01371 32.8927 9.64527 33.2149C10.2897 33.5243 11.2693 33.9109 11.8364 34.0656C12.6871 34.2976 13.2155 34.3492 14.8008 34.3492C16.5279 34.3363 16.8631 34.2976 17.8684 34.0012C18.4871 33.8078 19.3506 33.4727 19.8017 33.2536C20.24 33.0216 20.9488 32.6092 21.3742 32.3127C21.7995 32.0292 22.4955 31.4492 22.9208 31.0109C23.3591 30.5856 23.952 29.8638 24.2742 29.3998C24.5835 28.9358 25.0217 28.1625 25.2537 27.6598C25.4857 27.1701 25.7951 26.2936 25.9368 25.7265C26.0915 25.1594 26.2075 24.5665 26.2075 24.4118V24.1154L14.2208 24.0509L13.5119 23.342L13.4475 11.3554C12.8933 11.3683 12.3004 11.4843 11.7719 11.626C11.2435 11.7549 10.4057 12.0643 9.90305 12.2963ZM16.0253 21.5376H26.2075C26.2075 21.0865 26.0915 20.4936 25.9497 19.9265C25.808 19.3594 25.4342 18.3798 25.112 17.7354C24.8026 17.1038 24.184 16.1243 23.7328 15.57C23.2817 15.0158 22.4826 14.2167 21.9542 13.7914C21.4257 13.366 20.472 12.7603 19.8275 12.438C19.1959 12.1287 18.2035 11.7549 17.6364 11.6131C17.0693 11.4714 16.4764 11.3554 16.3217 11.3554H16.0253V21.5376ZM47.732 8.71314L48.08 9.07403C48.3506 9.3447 48.4409 9.55092 48.4409 9.93759C48.4409 10.3243 48.3507 10.5305 47.732 11.162H33.0386L32.6906 10.8011C32.42 10.5434 32.3297 10.3243 32.3297 9.95048C32.3297 9.65403 32.4329 9.33181 32.5617 9.16425C32.6906 8.9967 32.9226 8.82914 33.0773 8.7647C33.232 8.71314 36.596 8.67447 47.732 8.71314ZM47.732 13.8687L48.08 14.2296C48.3506 14.5003 48.4409 14.7065 48.4409 15.0931C48.4409 15.4798 48.3507 15.686 47.732 16.3176H33.0386L32.6906 15.9567C32.42 15.6989 32.3297 15.4798 32.3297 15.106C32.3297 14.8096 32.4329 14.4874 32.5617 14.3198C32.6906 14.1523 32.9226 13.9847 33.0773 13.9203C33.232 13.8687 36.596 13.83 47.732 13.8687ZM7.19638 21.602C7.41549 21.6407 7.71194 21.8083 7.87949 21.9629C8.0986 22.182 8.20171 22.4785 8.29194 23.2132C8.36927 23.7416 8.48527 24.3861 8.5626 24.6309C8.65283 24.8758 8.88483 25.4172 9.07816 25.8296C9.28438 26.2292 9.79994 26.9123 10.2253 27.3376C10.6506 27.7629 11.3337 28.2785 11.7462 28.4847C12.1457 28.6781 12.6871 28.9101 12.9319 29.0003C13.1768 29.0776 13.8213 29.1936 14.3497 29.2709C15.1231 29.3612 15.3808 29.4643 15.6386 29.7221C15.8706 29.9541 15.9608 30.1861 15.9608 30.5598C15.9608 30.9336 15.8706 31.1656 15.6386 31.3976C15.4238 31.621 15.1231 31.7585 14.7364 31.8101C14.4013 31.8487 13.6924 31.7843 13.0608 31.6683C12.3648 31.5265 11.5142 31.2301 10.7408 30.8563C9.70972 30.3536 9.33594 30.0829 8.40794 29.1549C7.47994 28.2269 7.20927 27.8532 6.7066 26.8221C6.33282 26.0487 6.03638 25.1981 5.8946 24.5021C5.7786 23.8576 5.71416 23.1616 5.75282 22.8265C5.80438 22.5043 5.93327 22.1434 6.04927 22.0016C6.15238 21.8727 6.37149 21.718 6.52616 21.6536C6.68082 21.5892 6.99016 21.5763 7.19638 21.602ZM32.9742 21.602C33.1933 21.6407 33.5026 21.8212 33.6831 21.9887C33.9151 22.2336 34.0053 22.4527 34.0053 22.8265C34.0053 23.2132 33.9151 23.4194 33.6573 23.69C33.3866 23.9607 33.1675 24.0509 32.7809 24.0509C32.3942 24.0509 32.188 23.9607 31.9173 23.69C31.6466 23.4323 31.5564 23.2132 31.5564 22.8394C31.5564 22.5429 31.6595 22.2207 31.7884 22.0532C31.9173 21.8856 32.1493 21.718 32.304 21.6536C32.4586 21.5892 32.768 21.5763 32.9742 21.602ZM58.0431 21.602L58.3911 21.9629C58.6618 22.2336 58.752 22.4398 58.752 22.8265C58.752 23.2132 58.6618 23.4194 58.0431 24.0509H37.4209L37.0729 23.69C36.8022 23.4323 36.712 23.2132 36.712 22.8394C36.712 22.5429 36.8151 22.2207 36.944 22.0532C37.0729 21.8856 37.3049 21.718 37.4595 21.6536C37.6142 21.602 42.3058 21.5634 58.0431 21.602ZM32.9742 26.7576C33.1933 26.7963 33.5026 26.9767 33.6831 27.1443C33.9151 27.3892 34.0053 27.6083 34.0053 27.9821C34.0053 28.3687 33.9151 28.5749 33.6573 28.8456C33.3866 29.1163 33.1675 29.2065 32.7809 29.2065C32.3942 29.2065 32.188 29.1163 31.9173 28.8456C31.6466 28.5878 31.5564 28.3687 31.5564 27.9949C31.5564 27.6985 31.6595 27.3763 31.7884 27.2087C31.9173 27.0412 32.1493 26.8736 32.304 26.8092C32.4586 26.7447 32.768 26.7318 32.9742 26.7576ZM58.0431 26.7576L58.3911 27.1185C58.6618 27.3892 58.752 27.5954 58.752 27.9821C58.752 28.3687 58.6618 28.5749 58.0431 29.2065H37.4209L37.0729 28.8456C36.8022 28.5878 36.712 28.3687 36.712 27.9949C36.712 27.6985 36.8151 27.3763 36.944 27.2087C37.0729 27.0412 37.3049 26.8736 37.4595 26.8092C37.6142 26.7576 42.3058 26.7189 58.0431 26.7576ZM57.3342 35.2385C57.7596 35.2643 58.3653 35.4061 58.6875 35.5478C59.0098 35.6767 59.5253 36.0505 59.8347 36.3727C60.1569 36.6821 60.5307 37.1976 60.6724 37.5198C60.8658 37.9323 60.9431 38.3705 60.9431 39.0665C60.9431 39.7625 60.8658 40.2007 60.6724 40.6132C60.5307 40.9354 60.1569 41.451 59.8347 41.7603C59.5253 42.0825 59.0098 42.4563 58.6875 42.5981C58.2493 42.8043 57.8369 42.8687 55.9293 42.8687L47.0875 52.3421L47.3711 52.9607C47.5902 53.4119 47.6675 53.7985 47.6675 54.5332C47.6675 55.2292 47.5902 55.6674 47.3969 56.0799C47.2551 56.4021 46.8813 56.9176 46.5591 57.227C46.2498 57.5492 45.7342 57.923 45.412 58.0648C44.9995 58.2581 44.5613 58.3354 43.8653 58.3354C43.1693 58.3354 42.7311 58.2581 42.3186 58.0648C41.9964 57.923 41.4809 57.5492 41.1715 57.227C40.8493 56.9176 40.4755 56.4021 40.3466 56.0799C40.2049 55.7576 40.0631 55.2421 40.0373 54.9199C39.9986 54.5848 40.0631 53.9919 40.3853 52.7287L38.4262 50.267C36.6475 48.0501 36.4284 47.8181 36.132 47.8954C35.9515 47.9341 35.4875 47.9985 35.1009 48.0372C34.6497 48.0759 34.1857 48.0372 33.232 47.7279L31.492 49.6096C30.5382 50.6407 29.4813 51.7879 28.5404 52.7932L28.7337 53.4376C28.8497 53.8243 28.9142 54.3656 28.8755 54.791C28.8497 55.1776 28.708 55.7576 28.5662 56.0799C28.4373 56.4021 28.0635 56.9176 27.7413 57.227C27.432 57.5492 26.9164 57.923 26.5942 58.0648C26.1817 58.2581 25.7435 58.3354 25.0475 58.3354C24.3515 58.3354 23.9133 58.2581 23.5008 58.0648C23.1786 57.923 22.6631 57.5492 22.3537 57.227C22.0315 56.9176 21.6577 56.4021 21.516 56.0799C21.3226 55.6674 21.2453 55.2292 21.2453 54.5332C21.2453 53.8372 21.3226 53.399 21.516 52.9865C21.6577 52.6643 22.0315 52.1488 22.3537 51.8394C22.6631 51.5172 23.1786 51.1434 23.5008 51.0145C23.8231 50.8727 24.4031 50.731 24.7897 50.7052C25.2151 50.6665 25.7306 50.7181 26.6586 51.0274L28.3986 49.1456C29.3524 48.1145 30.4093 46.9674 31.3502 45.9621L31.1569 45.3176C31.0409 44.931 30.9764 44.3896 31.0151 43.9643C31.0409 43.5776 31.1826 42.9976 31.3244 42.6754C31.4533 42.3532 31.8271 41.8376 32.1493 41.5283C32.4586 41.2061 32.9742 40.8323 33.2964 40.6905C33.7089 40.4972 34.1471 40.4198 34.8431 40.4198C35.5391 40.4198 35.9773 40.4972 36.3897 40.6905C36.712 40.8323 37.2275 41.2061 37.5369 41.5283C37.8591 41.8376 38.2329 42.3532 38.3617 42.6754C38.5035 42.9976 38.6453 43.5132 38.6711 43.8354C38.7098 44.1705 38.6453 44.7634 38.3231 46.0265L42.2542 50.9372L42.7053 50.8341C42.9502 50.7825 43.5946 50.731 45.0898 50.7439L53.9187 41.2576L53.648 40.6518C53.4933 40.3038 53.3387 39.7754 53.3129 39.4532C53.2742 39.131 53.3 38.5896 53.3902 38.2287C53.4675 37.8807 53.6995 37.3265 53.9058 37.0043C54.112 36.6821 54.4987 36.2567 54.7693 36.0376C55.0529 35.8314 55.5684 35.5478 55.9164 35.4189C56.3547 35.2643 56.8058 35.2127 57.3342 35.2385ZM56.1484 38.2932C56.0195 38.4607 55.9164 38.783 55.9164 39.0794C55.9164 39.4532 56.0067 39.6723 56.2773 39.9301C56.548 40.2007 56.7542 40.291 57.1409 40.291C57.5275 40.291 57.7467 40.2007 58.0173 39.9301C58.2751 39.6594 58.3653 39.4532 58.3653 39.0665C58.3653 38.6927 58.2751 38.4736 58.0431 38.2287C57.8627 38.0612 57.5533 37.8807 57.3342 37.8421C57.128 37.8163 56.8187 37.8292 56.664 37.8936C56.5093 37.9581 56.2773 38.1256 56.1484 38.2932ZM33.8506 43.4487C33.7217 43.6163 33.6186 43.9385 33.6186 44.235C33.6186 44.6087 33.7089 44.8279 33.9795 45.0856C34.2502 45.3563 34.4564 45.4465 34.8431 45.4465C35.2297 45.4465 35.4489 45.3563 35.7195 45.0856C35.9773 44.815 36.0675 44.6087 36.0675 44.2221C36.0675 43.8483 35.9773 43.6292 35.7453 43.3843C35.5649 43.2167 35.2555 43.0363 35.0364 42.9976C34.8302 42.9718 34.5209 42.9847 34.3662 43.0492C34.2115 43.1136 33.9795 43.2812 33.8506 43.4487ZM24.0551 53.7599C23.9262 53.9274 23.8231 54.2496 23.8231 54.5461C23.8231 54.9199 23.9133 55.139 24.184 55.3968C24.4546 55.6674 24.6608 55.7576 25.0475 55.7576C25.4342 55.7576 25.6533 55.6674 25.924 55.3968C26.1817 55.1261 26.272 54.9199 26.272 54.5332C26.272 54.1594 26.1817 53.9403 25.9497 53.6954C25.7693 53.5279 25.46 53.3474 25.2408 53.3088C25.0346 53.283 24.7253 53.2959 24.5706 53.3603C24.416 53.4248 24.184 53.5923 24.0551 53.7599ZM42.8729 53.7599C42.744 53.9274 42.6409 54.2496 42.6409 54.5461C42.6409 54.9199 42.7311 55.139 43.0018 55.3968C43.2724 55.6674 43.4786 55.7576 43.8653 55.7576C44.252 55.7576 44.4711 55.6674 44.7418 55.3968C44.9995 55.1261 45.0898 54.9199 45.0898 54.5332C45.0898 54.1594 44.9995 53.9403 44.7675 53.6954C44.5871 53.5279 44.2778 53.3474 44.0586 53.3088C43.8524 53.283 43.5431 53.2959 43.3884 53.3603C43.2338 53.4248 43.0018 53.5923 42.8729 53.7599Z" fill="white" stroke="white"/>
</svg>
