<svg width="102" height="102" viewBox="0 0 102 102" fill="none" xmlns="http://www.w3.org/2000/svg">
<path fill-rule="evenodd" clip-rule="evenodd" d="M79.9885 1L80.7696 1.58582C81.1992 1.89826 85.8662 6.48721 91.1582 11.7791C96.9969 17.6569 100.805 21.621 100.883 21.9139C100.941 22.1873 100.961 39.098 100.883 96.6063L100.434 97.5241C100.199 98.0514 99.594 98.8715 99.0668 99.3597C98.52 99.8869 97.7389 100.395 97.1336 100.629C96.1181 100.98 95.2004 101 62.7067 101C30.213 101 29.2953 100.98 28.2798 100.629C27.6745 100.395 26.8934 99.8869 26.3466 99.3597C25.8194 98.8715 25.214 98.0514 24.5306 96.6063L24.4329 55.6964H22.734C21.7772 55.6964 20.1759 55.5597 19.1605 55.4034C18.1451 55.2277 16.4657 54.8176 15.4503 54.4661C14.4349 54.1146 12.9117 53.4507 12.0525 52.9625C11.2128 52.4743 9.80687 51.5175 8.94767 50.8145C8.06893 50.1115 6.8387 48.9203 6.17477 48.1392C5.53037 47.3581 4.57352 46.0107 4.02675 45.1125C3.49951 44.2337 2.777 42.7497 2.4255 41.8319C2.09354 40.9141 1.62488 39.2542 1.41008 38.1217C1.15622 36.911 1 35.3097 1 34.2162C1 33.1031 1.15622 31.5409 1.41008 30.3107C1.62488 29.1781 2.09354 27.5183 2.4255 26.6005C2.75747 25.6827 3.47998 24.2181 4.02675 23.3199C4.55399 22.4411 5.54989 21.0547 6.23335 20.2541C6.89729 19.4534 8.14704 18.2427 8.98672 17.5593C9.8264 16.8953 11.2128 15.958 12.0525 15.4698C12.9117 14.9816 14.4349 14.3177 15.4503 13.9662C16.4657 13.6147 18.1451 13.2046 19.1605 13.0289C20.1759 12.8727 21.7772 12.736 24.4329 12.736L24.4915 9.06483C24.5306 5.74517 24.5696 5.33509 24.9797 4.47588C25.214 3.96817 25.8194 3.14802 26.3466 2.65983C26.8543 2.17165 27.694 1.60535 28.2408 1.41008C29.1781 1.05858 30.2716 1.03905 79.9885 1V1ZM28.7875 5.70611C28.4751 6.09666 28.436 6.54579 28.436 9.84593V13.5561C30.7012 14.3958 31.8143 14.845 32.3415 15.1379C32.8883 15.4112 33.9818 16.0947 34.7825 16.661C35.5831 17.2273 36.9305 18.3599 37.7702 19.2191C38.5903 20.0588 39.801 21.5624 40.4454 22.5583C41.0898 23.5347 41.8905 25.0187 42.2224 25.8194C42.5739 26.62 43.0621 28.1236 43.3355 29.139C43.7651 30.7598 43.8237 31.3847 43.8237 34.2162C43.8237 37.0476 43.7651 37.6725 43.3355 39.2933C43.0621 40.3087 42.5739 41.8123 42.2224 42.613C41.8905 43.4136 41.0898 44.8977 40.4454 45.8936C39.801 46.8699 38.5903 48.3736 37.7702 49.2132C36.9305 50.0724 35.5831 51.205 34.7825 51.7713C33.9818 52.3376 32.8883 53.0211 32.3415 53.2945C31.8143 53.5874 30.7012 54.0365 29.9006 54.3294L28.436 54.8762V95.9229L29.5101 96.9969H95.9033L96.9773 95.9229L97.075 24.4525L78.7192 24.3548L77.6452 23.2808L77.6257 4.92501C40.7188 4.94454 29.803 5.02265 29.5686 5.10076C29.3343 5.1984 28.9828 5.45226 28.7875 5.70611ZM81.453 20.547H94.2435C84.4798 10.7051 81.6093 7.85413 81.5507 7.85413C81.4921 7.85413 81.453 10.7051 81.453 14.2005V20.547ZM15.1574 18.2623C14.4153 18.6137 13.2242 19.2972 12.5212 19.7659C11.8182 20.2541 10.7247 21.1523 10.0803 21.8162C9.41633 22.4607 8.53759 23.5151 8.10799 24.1595C7.65886 24.8039 7.03398 25.878 6.68248 26.5614C6.35052 27.2253 5.8428 28.5337 5.54989 29.4905C5.10076 30.9941 5.04218 31.5019 5.02265 34.1185C5.02265 36.5204 5.10076 37.321 5.45226 38.6098C5.68658 39.4691 6.27241 40.9727 6.74107 41.9295C7.22925 42.9059 8.16657 44.3704 8.85003 45.2101C9.53349 46.0498 10.7442 47.2605 11.5448 47.9049C12.3454 48.5493 13.81 49.4671 14.7668 49.9553C15.7432 50.4239 17.2273 51.0098 18.0865 51.2441C19.3753 51.5956 20.1759 51.6737 22.5778 51.6737C25.1945 51.6542 25.7022 51.5956 27.2253 51.1465C28.1627 50.8535 29.471 50.3458 30.1545 50.0139C30.8184 49.6624 31.8924 49.0375 32.5368 48.5884C33.1812 48.1588 34.2357 47.28 34.8801 46.6161C35.544 45.9717 36.4423 44.8782 36.9305 44.1752C37.3991 43.4722 38.0631 42.3005 38.4146 41.539C38.7661 40.7969 39.2347 39.4691 39.4495 38.6098C39.6838 37.7506 39.8596 36.8524 39.8596 36.618V36.1689L21.6991 36.0713L20.6251 34.9973L20.5274 16.8368C19.6878 16.8563 18.7895 17.032 17.9889 17.2468C17.1882 17.4421 15.919 17.9108 15.1574 18.2623ZM24.4329 32.2634H39.8596C39.8596 31.58 39.6839 30.6817 39.4691 29.8225C39.2542 28.9633 38.688 27.4792 38.1998 26.5028C37.7311 25.546 36.7938 24.0619 36.1103 23.2222C35.4269 22.3825 34.2162 21.1718 33.4155 20.5274C32.6149 19.883 31.1699 18.9652 30.1935 18.4771C29.2367 18.0084 27.7331 17.4421 26.8739 17.2273C26.0146 17.0125 25.1164 16.8368 24.8821 16.8368H24.4329V32.2634ZM72.4704 12.8336L72.9977 13.3804C73.4077 13.7905 73.5444 14.1029 73.5444 14.6887C73.5444 15.2746 73.4077 15.587 72.4704 16.5438H50.2091L49.6819 15.9971C49.2718 15.6065 49.1351 15.2746 49.1351 14.7083C49.1351 14.2591 49.2914 13.7709 49.4866 13.5171C49.6819 13.2632 50.0334 13.0094 50.2677 12.9117C50.5021 12.8336 55.5987 12.775 72.4704 12.8336ZM72.4704 20.6446L72.9977 21.1914C73.4077 21.6014 73.5444 21.9139 73.5444 22.4997C73.5444 23.0855 73.4077 23.398 72.4704 24.3548H50.2091L49.6819 23.808C49.2718 23.4175 49.1351 23.0855 49.1351 22.5192C49.1351 22.0701 49.2914 21.5819 49.4866 21.3281C49.6819 21.0742 50.0334 20.8203 50.2677 20.7227C50.5021 20.6446 55.5987 20.586 72.4704 20.6446ZM11.0566 32.3611C11.3886 32.4196 11.8377 32.6735 12.0916 32.9078C12.4236 33.2398 12.5798 33.6889 12.7165 34.802C12.8336 35.6026 13.0094 36.579 13.1265 36.95C13.2632 37.321 13.6147 38.1412 13.9076 38.7661C14.2201 39.3714 15.0012 40.4064 15.6456 41.0508C16.29 41.6952 17.3249 42.4763 17.9498 42.7887C18.5552 43.0816 19.3753 43.4331 19.7463 43.5698C20.1174 43.687 21.0937 43.8627 21.8944 43.9799C23.066 44.1166 23.4566 44.2728 23.8471 44.6633C24.1986 45.0148 24.3353 45.3663 24.3353 45.9326C24.3353 46.4989 24.1986 46.8504 23.8471 47.2019C23.5216 47.5404 23.066 47.7487 22.4802 47.8268C21.9725 47.8854 20.8985 47.7877 19.9416 47.612C18.8871 47.3972 17.5983 46.9481 16.4267 46.3818C14.8645 45.6202 14.2982 45.2101 12.8922 43.8041C11.4862 42.3982 11.0762 41.8319 10.3146 40.2697C9.74829 39.098 9.29916 37.8092 9.08436 36.7547C8.90861 35.7784 8.81097 34.7239 8.86956 34.2162C8.94767 33.728 9.14294 33.1812 9.31869 32.9664C9.47491 32.7711 9.80687 32.5368 10.0412 32.4392C10.2755 32.3415 10.7442 32.322 11.0566 32.3611ZM50.1115 32.3611C50.4435 32.4196 50.9121 32.693 51.1855 32.9469C51.537 33.3179 51.6737 33.6499 51.6737 34.2162C51.6737 34.802 51.537 35.1144 51.1465 35.5245C50.7364 35.9346 50.4044 36.0713 49.8186 36.0713C49.2328 36.0713 48.9203 35.9346 48.5103 35.5245C48.1002 35.134 47.9635 34.802 47.9635 34.2357C47.9635 33.7866 48.1197 33.2984 48.315 33.0445C48.5103 32.7907 48.8617 32.5368 49.0961 32.4392C49.3304 32.3415 49.7991 32.322 50.1115 32.3611ZM88.0924 32.3611L88.6196 32.9078C89.0297 33.3179 89.1664 33.6303 89.1664 34.2162C89.1664 34.802 89.0297 35.1144 88.0924 36.0713H56.8485L56.3212 35.5245C55.9111 35.134 55.7745 34.802 55.7745 34.2357C55.7745 33.7866 55.9307 33.2984 56.1259 33.0445C56.3212 32.7907 56.6727 32.5368 56.907 32.4392C57.1414 32.3611 64.2494 32.3025 88.0924 32.3611ZM50.1115 40.172C50.4435 40.2306 50.9121 40.504 51.1855 40.7579C51.537 41.1289 51.6737 41.4608 51.6737 42.0271C51.6737 42.613 51.537 42.9254 51.1465 43.3355C50.7364 43.7456 50.4044 43.8823 49.8186 43.8823C49.2328 43.8823 48.9203 43.7456 48.5103 43.3355C48.1002 42.9449 47.9635 42.613 47.9635 42.0467C47.9635 41.5975 48.1197 41.1094 48.315 40.8555C48.5103 40.6016 48.8617 40.3478 49.0961 40.2501C49.3304 40.1525 49.7991 40.133 50.1115 40.172ZM88.0924 40.172L88.6196 40.7188C89.0297 41.1289 89.1664 41.4413 89.1664 42.0271C89.1664 42.613 89.0297 42.9254 88.0924 43.8823H56.8485L56.3212 43.3355C55.9111 42.9449 55.7745 42.613 55.7745 42.0467C55.7745 41.5975 55.9307 41.1094 56.1259 40.8555C56.3212 40.6016 56.6727 40.3478 56.907 40.2501C57.1414 40.172 64.2494 40.1135 88.0924 40.172ZM87.0184 53.0211C87.6628 53.0601 88.5806 53.2749 89.0687 53.4897C89.5569 53.685 90.338 54.2513 90.8067 54.7395C91.2949 55.2082 91.8612 55.9893 92.076 56.4774C92.3689 57.1023 92.486 57.7663 92.486 58.8207C92.486 59.8752 92.3689 60.5392 92.076 61.164C91.8612 61.6522 91.2949 62.4333 90.8067 62.902C90.338 63.3902 89.5569 63.9565 89.0687 64.1713C88.4048 64.4837 87.7799 64.5813 84.8899 64.5813L71.494 78.934L71.9237 79.8713C72.2556 80.5548 72.3728 81.1406 72.3728 82.2537C72.3728 83.3081 72.2556 83.9721 71.9627 84.597C71.7479 85.0851 71.1816 85.8662 70.6934 86.3349C70.2248 86.8231 69.4437 87.3894 68.9555 87.6042C68.3306 87.8971 67.6667 88.0143 66.6122 88.0143C65.5577 88.0143 64.8938 87.8971 64.2689 87.6042C63.7807 87.3894 62.9996 86.8231 62.531 86.3349C62.0428 85.8662 61.4765 85.0851 61.2812 84.597C61.0664 84.1088 60.8516 83.3277 60.8125 82.8395C60.754 82.3318 60.8516 81.4335 61.3398 79.5198L58.3716 75.7901C55.6768 72.4314 55.3449 72.0799 54.8957 72.197C54.6223 72.2556 53.9194 72.3533 53.3335 72.4118C52.6501 72.4704 51.9471 72.4118 50.5021 71.9432L47.8658 74.7942C46.4208 76.3564 44.8196 78.0943 43.3941 79.6175L43.687 80.5938C43.8627 81.1797 43.9604 81.9998 43.9018 82.6442C43.8627 83.23 43.6479 84.1088 43.4331 84.597C43.2378 85.0851 42.6716 85.8662 42.1834 86.3349C41.7147 86.8231 40.9336 87.3894 40.4454 87.6042C39.8205 87.8971 39.1566 88.0143 38.1021 88.0143C37.0476 88.0143 36.3837 87.8971 35.7588 87.6042C35.2707 87.3894 34.4896 86.8231 34.0209 86.3349C33.5327 85.8662 32.9664 85.0851 32.7516 84.597C32.4587 83.9721 32.3415 83.3081 32.3415 82.2537C32.3415 81.1992 32.4587 80.5352 32.7516 79.9104C32.9664 79.4222 33.5327 78.6411 34.0209 78.1724C34.4896 77.6842 35.2707 77.1179 35.7588 76.9227C36.247 76.7079 37.1258 76.4931 37.7116 76.454C38.356 76.3954 39.1371 76.4735 40.5431 76.9422L43.1793 74.0912C44.6243 72.529 46.2255 70.7911 47.651 69.2679L47.3581 68.2915C47.1824 67.7057 47.0848 66.8856 47.1433 66.2412C47.1824 65.6553 47.3972 64.7766 47.612 64.2884C47.8073 63.8002 48.3736 63.0191 48.8617 62.5505C49.3304 62.0623 50.1115 61.496 50.5997 61.2812C51.2246 60.9883 51.8885 60.8711 52.943 60.8711C53.9975 60.8711 54.6614 60.9883 55.2863 61.2812C55.7745 61.496 56.5556 62.0623 57.0242 62.5505C57.5124 63.0191 58.0787 63.8002 58.274 64.2884C58.4888 64.7766 58.7036 65.5577 58.7426 66.0459C58.8012 66.5536 58.7036 67.4519 58.2154 69.3656L64.1713 76.8055L64.8547 76.6493C65.2257 76.5712 66.2021 76.4931 68.4673 76.5126L81.8436 62.1404L81.4335 61.2226C81.1992 60.6954 80.9649 59.8947 80.9258 59.4066C80.8672 58.9184 80.9063 58.0982 81.043 57.5515C81.1601 57.0242 81.5116 56.1845 81.8241 55.6964C82.1365 55.2082 82.7223 54.5638 83.1324 54.2318C83.562 53.9194 84.3431 53.4897 84.8703 53.2945C85.5343 53.0601 86.2177 52.982 87.0184 53.0211ZM85.2218 57.6491C85.0266 57.903 84.8703 58.3911 84.8703 58.8403C84.8703 59.4066 85.007 59.7385 85.4171 60.1291C85.8272 60.5392 86.1396 60.6758 86.7254 60.6758C87.3113 60.6758 87.6432 60.5392 88.0533 60.1291C88.4439 59.719 88.5806 59.4066 88.5806 58.8207C88.5806 58.2544 88.4439 57.9225 88.0924 57.5515C87.819 57.2976 87.3503 57.0242 87.0184 56.9656C86.7059 56.9266 86.2373 56.9461 86.0029 57.0437C85.7686 57.1414 85.4171 57.3952 85.2218 57.6491ZM51.4394 65.4601C51.2441 65.7139 51.0879 66.2021 51.0879 66.6512C51.0879 67.2175 51.2246 67.5495 51.6346 67.94C52.0447 68.3501 52.3572 68.4868 52.943 68.4868C53.5288 68.4868 53.8608 68.3501 54.2708 67.94C54.6614 67.53 54.7981 67.2175 54.7981 66.6317C54.7981 66.0654 54.6614 65.7335 54.3099 65.3624C54.0365 65.1086 53.5679 64.8352 53.2359 64.7766C52.9235 64.7376 52.4548 64.7571 52.2205 64.8547C51.9861 64.9524 51.6346 65.2062 51.4394 65.4601ZM36.5985 81.082C36.4032 81.3359 36.247 81.8241 36.247 82.2732C36.247 82.8395 36.3837 83.1715 36.7938 83.562C37.2039 83.9721 37.5163 84.1088 38.1021 84.1088C38.688 84.1088 39.0199 83.9721 39.43 83.562C39.8205 83.1519 39.9572 82.8395 39.9572 82.2537C39.9572 81.6874 39.8205 81.3554 39.4691 80.9844C39.1957 80.7305 38.727 80.4571 38.395 80.3986C38.0826 80.3595 37.6139 80.379 37.3796 80.4767C37.1453 80.5743 36.7938 80.8282 36.5985 81.082ZM65.1086 81.082C64.9133 81.3359 64.7571 81.8241 64.7571 82.2732C64.7571 82.8395 64.8938 83.1715 65.3038 83.562C65.7139 83.9721 66.0264 84.1088 66.6122 84.1088C67.198 84.1088 67.53 83.9721 67.94 83.562C68.3306 83.1519 68.4673 82.8395 68.4673 82.2537C68.4673 81.6874 68.3306 81.3554 67.9791 80.9844C67.7057 80.7305 67.2371 80.4571 66.9051 80.3986C66.5927 80.3595 66.124 80.379 65.8897 80.4767C65.6553 80.5743 65.3038 80.8282 65.1086 81.082Z" fill="#78B404" stroke="#78B404" stroke-width="2"/>
</svg>
