<svg width="102" height="102" viewBox="0 0 102 102" fill="none" xmlns="http://www.w3.org/2000/svg">
<path fill-rule="evenodd" clip-rule="evenodd" d="M50.7973 1C51.5787 1 52.5359 1.11721 53.0438 1.29303C53.5322 1.46884 54.1573 1.7228 54.4699 1.87908C54.7629 2.03536 55.3489 2.48467 55.7982 2.8949C56.228 3.2856 56.8531 4.0084 57.1462 4.49678C57.4587 4.98515 57.8494 5.94237 58.0448 6.64563C58.2597 7.52471 58.3183 8.26705 58.2401 9.08752C58.162 9.75171 57.869 10.7871 57.5369 11.4903C57.2048 12.1545 56.5601 13.0922 56.0717 13.5806C55.5834 14.069 54.7238 14.6745 54.1573 14.9285C53.6103 15.1825 52.9852 15.4364 52.8094 15.5146C52.4968 15.6122 52.4577 15.9053 52.4577 19.9295L53.5908 20.0467C54.1964 20.1053 55.6224 20.3202 56.7555 20.5155C57.8885 20.7304 59.7248 21.2188 60.8578 21.6095C61.9909 22.0002 63.7881 22.7621 64.8625 23.2895C65.9369 23.8365 67.3435 24.6374 67.9881 25.0672C68.6328 25.497 69.7658 26.337 71.8365 28.0365L79.6115 20.2225L79.045 19.1481C78.7129 18.562 78.3222 17.5462 78.1659 16.9015C77.9901 16.2569 77.8533 15.2411 77.8533 14.655C77.8533 14.069 77.9901 13.0727 78.1464 12.4475C78.3026 11.842 78.6738 10.8652 78.9473 10.3182C79.2403 9.75171 80.0022 8.75542 80.6664 8.09123C81.4282 7.3489 82.3269 6.6847 83.1278 6.294C83.8311 5.96191 84.9641 5.59074 85.6674 5.47353C86.3706 5.33678 87.4255 5.29771 88.0116 5.35632C88.5976 5.41492 89.5744 5.62981 90.1604 5.82516C90.7465 6.04005 91.5865 6.41121 92.0163 6.6847C92.446 6.9582 93.1297 7.46611 93.5595 7.83727C93.9698 8.20844 94.6144 8.98984 95.0051 9.57589C95.3763 10.1619 95.8647 11.1387 96.06 11.7248C96.2554 12.3108 96.4702 13.2876 96.5289 13.8736C96.5875 14.4597 96.5484 15.5146 96.4116 16.2178C96.2944 16.9211 95.9233 18.0541 95.5912 18.7574C95.2005 19.5583 94.5363 20.4569 93.7939 21.2188C93.1298 21.883 92.1335 22.6449 91.5865 22.9379C91.02 23.2114 90.0432 23.5825 89.4376 23.7388C88.8125 23.8951 87.8162 24.0318 87.2302 24.0318C86.6441 24.0318 85.6283 23.8951 84.9836 23.7193C84.339 23.563 83.3231 23.1723 81.6627 22.2737L73.8486 30.0682L74.9426 31.3966C75.5482 32.1194 76.4468 33.3501 76.9352 34.0924C77.404 34.8347 78.205 36.2608 78.6933 37.218C79.1817 38.1752 79.885 39.8943 80.2757 41.0273C80.6664 42.1604 81.1743 44.0358 81.3696 45.2274C81.5845 46.419 81.7994 47.8842 81.9557 49.6228H86.2534L86.5464 48.7046C86.7027 48.1772 87.113 47.3372 87.4646 46.8097C87.8162 46.2823 88.4218 45.6181 88.793 45.3055C89.1641 45.0125 89.9651 44.5437 90.5511 44.2702C91.1372 43.9967 92.153 43.7232 92.7977 43.6451C93.6181 43.5669 94.3605 43.6255 95.2395 43.8599C95.9428 44.0358 96.9 44.4069 97.3689 44.6999C97.8572 44.993 98.6191 45.6767 99.0879 46.2041C99.5763 46.7511 100.143 47.6693 100.377 48.2553C100.69 49.0758 100.807 49.7205 100.787 50.9902C100.787 52.2209 100.67 52.9242 100.358 53.7251C100.123 54.3112 99.5568 55.2489 99.0879 55.7763C98.6191 56.3233 97.8572 56.9875 97.3689 57.2805C96.9 57.5736 95.9428 57.9447 95.2395 58.1205C94.3605 58.355 93.6181 58.4136 92.7977 58.3354C92.1335 58.2573 91.0981 57.9643 90.4144 57.6322C89.7306 57.3001 88.793 56.6554 88.3046 56.167C87.8162 55.6786 87.2106 54.8191 86.9567 54.2721C86.7027 53.7056 86.4488 53.0805 86.3706 52.9047C86.2729 52.5921 85.9799 52.553 81.9557 52.553L81.858 53.4907C81.7994 53.9986 81.6236 55.2879 81.4478 56.3624C81.272 57.4368 80.8031 59.3317 80.3929 60.5624C80.0022 61.7931 79.2403 63.649 78.7324 64.6648C78.2245 65.6806 77.404 67.1262 76.9352 67.8881C76.4468 68.6499 75.5482 69.8611 73.8486 71.9123L81.6627 79.7068L82.7371 79.1403C83.3231 78.8082 84.339 78.4175 84.9836 78.2612C85.6283 78.0854 86.6441 77.9486 87.2302 77.9486C87.8162 77.9486 88.832 78.0854 89.4767 78.2612C90.1214 78.4175 90.8441 78.7496 91.0981 78.984C91.3325 79.2184 91.5279 79.6091 91.5279 79.8631C91.5279 80.0975 91.4497 80.4687 91.3325 80.6835C91.2153 80.8984 90.9223 81.1524 90.6488 81.2696C90.2972 81.4063 89.8674 81.3868 89.0469 81.1524C88.3046 80.9375 87.5036 80.8594 86.7418 80.918C86.0971 80.9766 85.179 81.1914 84.6906 81.4063C84.2022 81.6017 83.3818 82.1682 82.8738 82.6566C82.3464 83.1254 81.6822 84.0045 81.4087 84.5905C80.9594 85.4892 80.8813 85.9189 80.8813 87.3255C80.8813 88.6343 80.9789 89.1618 81.311 89.865C81.5455 90.3534 82.0729 91.1348 82.4831 91.6036C82.9324 92.1115 83.7138 92.6976 84.4952 93.0688C85.5697 93.5767 85.9604 93.6744 87.2302 93.6744C88.3632 93.6548 88.9297 93.5571 89.7697 93.1664C90.3558 92.893 91.2348 92.2874 91.7232 91.8185C92.1921 91.3301 92.7977 90.4511 93.0711 89.865C93.3837 89.1227 93.54 88.4194 93.5595 87.6185C93.5595 86.9738 93.5009 85.958 93.4032 85.3719C93.247 84.4147 93.2665 84.2585 93.6377 83.8482C93.9242 83.5617 94.2953 83.4184 94.7512 83.4184C95.2786 83.4184 95.5326 83.5552 95.8256 83.9654C96.0405 84.2585 96.314 85.0985 96.4312 85.8603C96.5484 86.6417 96.5875 87.6966 96.5093 88.3022C96.4312 88.8883 96.2163 89.8259 96.0405 90.3534C95.8451 90.9004 95.3763 91.8185 95.0051 92.4046C94.6144 92.9906 93.9698 93.772 93.5595 94.1432C93.1297 94.5144 92.446 95.0223 92.0163 95.2958C91.5865 95.5693 90.7465 95.9404 90.1604 96.1553C89.5744 96.3507 88.5976 96.5655 88.0116 96.6241C87.4255 96.6828 86.3706 96.6437 85.6674 96.5069C84.9641 96.3897 83.8311 96.0186 83.1278 95.6865C82.3269 95.2958 81.4282 94.6316 80.6664 93.8892C80.0022 93.225 79.2403 92.2288 78.9473 91.6818C78.6738 91.1153 78.3026 90.1385 78.1464 89.5329C77.9901 88.9078 77.8533 87.9115 77.8533 87.3255C77.8533 86.7394 77.9901 85.7236 78.1659 85.0789C78.3222 84.4343 78.7129 83.4184 79.6115 81.758L71.8365 73.9439L70.5081 75.0379C69.7658 75.6435 68.6328 76.4835 67.9881 76.9133C67.3435 77.343 65.8979 78.1635 64.7648 78.73C63.6318 79.2965 61.6978 80.0975 60.4671 80.4882C59.2364 80.8984 57.3415 81.3673 56.2671 81.5431C55.1926 81.7189 53.9033 81.8947 52.4577 82.051V84.1998C52.4577 86.0752 52.4968 86.3682 52.8094 86.4659C52.9852 86.5441 53.6103 86.798 54.1768 87.052C54.7238 87.3059 55.5834 87.9115 56.0717 88.3999C56.5601 88.8883 57.2048 89.826 57.5369 90.5097C57.869 91.1934 58.162 92.2288 58.2401 92.893C58.3183 93.7134 58.2597 94.4558 58.0448 95.3348C57.8494 96.0381 57.4587 96.9953 57.1462 97.4837C56.8531 97.9721 56.228 98.6949 55.7982 99.1051C55.3489 99.4958 54.7629 99.9451 54.4699 100.101C54.1573 100.258 53.5322 100.512 53.0438 100.687C52.5554 100.863 51.5982 101 50.8949 101C49.9768 101 49.2735 100.863 48.3554 100.512C47.6521 100.238 46.6949 99.6716 46.2261 99.2809C45.7377 98.8902 45.0735 98.1088 44.7219 97.5814C44.3507 97.0344 43.9209 96.0381 43.7451 95.3348C43.5302 94.4558 43.4716 93.6939 43.5498 92.893C43.6279 92.2288 43.9209 91.1934 44.253 90.4901C44.5851 89.826 45.2102 88.9078 45.6791 88.439C46.1284 87.9701 46.9879 87.3645 47.574 87.091C48.16 86.8176 48.8047 86.5245 49 86.4659C49.2931 86.3682 49.3321 86.0752 49.3321 82.051L48.414 81.9533C47.8865 81.8947 46.5972 81.7189 45.5228 81.5431C44.4484 81.3673 42.5535 80.8984 41.3228 80.4882C40.092 80.0975 38.2362 79.3356 37.2204 78.8277C36.2046 78.3198 34.759 77.4993 33.9971 77.0109C33.2548 76.5226 32.0241 75.6435 29.9729 73.9439L22.1784 81.758L22.7449 82.8324C23.077 83.4184 23.4677 84.4343 23.624 85.0789C23.7998 85.7236 23.9365 86.7394 23.9365 87.3255C23.9365 87.9115 23.7998 88.9078 23.6435 89.5329C23.4872 90.1385 23.1161 91.1153 22.8426 91.6818C22.5496 92.2288 21.7877 93.225 21.1235 93.8892C20.3616 94.6316 19.463 95.2958 18.6621 95.6865C17.9588 96.0186 16.8258 96.3897 16.1225 96.5069C15.4193 96.6437 14.3644 96.6828 13.7783 96.6241C13.1923 96.5655 12.2155 96.3507 11.6295 96.1553C11.0434 95.9404 10.2034 95.5693 9.77362 95.2958C9.34385 95.0223 8.66012 94.5144 8.23035 94.1432C7.82012 93.772 7.17546 92.9906 6.78476 92.4046C6.41359 91.8185 5.92521 90.8418 5.72986 90.2557C5.53451 89.6697 5.31963 88.6929 5.26102 88.1069C5.20242 87.5208 5.24149 86.4659 5.37823 85.7626C5.49544 85.0594 5.86661 83.9264 6.19871 83.2231C6.58941 82.4222 7.2536 81.5235 7.99593 80.7617C8.66012 80.0975 9.65641 79.3356 10.2229 79.0426C10.7699 78.7691 11.7467 78.3979 12.3718 78.2417C12.9774 78.0854 13.9737 77.9486 14.5597 77.9486C15.1458 77.9486 16.1616 78.0854 16.8062 78.2612C17.4509 78.4175 18.4667 78.8082 20.1272 79.7068L27.9412 71.9123L26.8473 70.5839C26.2417 69.8611 25.3431 68.6499 24.8547 67.8881C24.3859 67.1262 23.5849 65.7197 23.0965 64.7625C22.6082 63.8052 21.9049 62.0862 21.5142 60.9531C21.1235 59.8201 20.6351 57.9838 20.4202 56.8508C20.2249 55.7177 20.01 54.2917 19.8342 52.553H17.6853C15.81 52.553 15.5169 52.5921 15.4193 52.9047C15.3411 53.0805 15.0872 53.7056 14.8332 54.2721C14.5792 54.8191 13.9737 55.6786 13.4853 56.167C12.9969 56.6554 12.0592 57.3001 11.395 57.6322C10.6918 57.9643 9.65641 58.2573 8.99222 58.3354C8.17175 58.4136 7.42941 58.355 6.55034 58.1401C5.84707 57.9447 4.85079 57.5345 4.32334 57.1828C3.79589 56.8312 3.01449 56.167 2.60425 55.6786C2.17448 55.1903 1.64704 54.3112 1.41261 53.7251C1.08052 52.9047 0.982843 52.26 1.00238 50.9902C1.00238 49.7791 1.11959 49.0367 1.43215 48.2553C1.64704 47.6693 2.17448 46.7902 2.60425 46.3018C3.01449 45.8134 3.79589 45.1493 4.32334 44.7976C4.85079 44.446 5.84707 44.0358 6.55034 43.8404C7.42941 43.6255 8.17175 43.5669 8.99222 43.6451C9.63688 43.7232 10.6527 43.9967 11.2388 44.2702C11.8248 44.5437 12.6257 45.0125 12.9969 45.3055C13.3681 45.6181 13.9737 46.2823 14.3253 46.8097C14.6769 47.3372 15.0872 48.1772 15.5365 49.6228H19.8342L19.9514 48.3139C20.01 47.5716 20.2444 46.0674 20.4593 44.9344C20.6742 43.8013 21.1626 42.0041 21.5337 40.9297C21.9049 39.8552 22.6082 38.1752 23.0965 37.218C23.5849 36.2608 24.3859 34.8347 24.8547 34.0924C25.3431 33.3501 26.2417 32.1194 27.9412 30.0682L20.1272 22.2737L19.0528 22.8402C18.4667 23.1723 17.4509 23.563 16.8062 23.7193C16.1616 23.8951 15.1458 24.0318 14.5597 24.0318C13.9737 24.0318 12.9774 23.8951 12.3718 23.7388C11.7467 23.5825 10.7699 23.2114 10.2229 22.9379C9.65641 22.6449 8.66012 21.883 7.99593 21.2188C7.2536 20.4569 6.58941 19.5583 6.19871 18.7574C5.86661 18.0541 5.49544 16.9211 5.37823 16.2178C5.24149 15.5146 5.20242 14.4597 5.26102 13.8736C5.31963 13.2876 5.53451 12.3108 5.72986 11.7248C5.92521 11.1387 6.43313 10.1229 6.8629 9.49775C7.27313 8.8531 8.01547 7.99355 8.50384 7.58332C8.99222 7.17308 9.83223 6.60656 10.3597 6.33307C10.9067 6.07912 11.6881 5.80563 12.1178 5.74702C12.7039 5.64935 13.0164 5.72749 13.3681 5.98144C13.6611 6.21586 13.8369 6.56749 13.8565 6.9582C13.8565 7.29029 13.7392 7.72006 13.583 7.91541C13.4267 8.09123 12.7625 8.48193 12.1178 8.77496C11.4732 9.06798 10.555 9.6931 10.0666 10.1619C9.59781 10.6503 8.99222 11.5294 8.71873 12.1155C8.32803 12.9555 8.23035 13.522 8.21082 14.655C8.21082 15.9248 8.30849 16.3155 8.8164 17.3899C9.18757 18.1713 9.77362 18.9527 10.2815 19.402C10.7504 19.8123 11.5318 20.3397 12.0202 20.5741C12.7234 20.9062 13.2313 21.0039 14.5597 21.0039C15.81 21.0039 16.4351 20.9062 17.0993 20.5937C17.5876 20.3788 18.4081 19.8123 18.916 19.3239C19.4435 18.8551 20.1077 17.976 20.3812 17.3899C20.8305 16.4718 20.9086 16.0615 20.8891 14.655C20.8891 13.3266 20.7914 12.7992 20.4202 12.0178C20.1663 11.4903 19.3849 10.4745 18.6816 9.77125C17.5681 8.61868 17.4509 8.44286 17.5681 7.91541C17.6267 7.60285 17.8807 7.17308 18.1346 6.97773C18.3691 6.78238 18.7402 6.6261 18.9551 6.6261C19.17 6.6261 19.6974 6.88005 20.1272 7.19262C20.557 7.50518 21.2407 8.11076 21.6509 8.56007C22.0416 9.00938 22.5886 9.82985 22.8621 10.3573C23.1356 10.9043 23.4872 11.842 23.6435 12.4671C23.7998 13.0727 23.9365 14.069 23.9365 14.655C23.9365 15.2411 23.7998 16.2569 23.624 16.9015C23.4677 17.5462 23.077 18.562 22.1784 20.2225L29.9729 28.0365L31.3013 26.9426C32.0241 26.337 33.2548 25.4384 33.9971 24.95C34.759 24.4811 36.1655 23.6802 37.1227 23.1918C38.0799 22.7035 39.799 22.0002 40.9321 21.6095C42.0651 21.2188 43.9014 20.7304 45.0344 20.5155C46.1674 20.3202 47.5935 20.1053 49.3321 19.9295V17.7806C49.3321 15.9053 49.2931 15.6122 49 15.5146C48.8047 15.4559 48.16 15.1629 47.574 14.8894C46.9879 14.6159 46.1284 14.0104 45.6791 13.5415C45.2102 13.0727 44.5851 12.1545 44.253 11.4903C43.9209 10.7871 43.6279 9.75171 43.5498 9.08752C43.4716 8.26705 43.5302 7.52471 43.7451 6.64563C43.9405 5.94237 44.3507 4.94608 44.7023 4.41864C45.054 3.89119 45.7181 3.10979 46.2065 2.69955C46.6949 2.28931 47.613 1.74233 48.2577 1.48838C49.0782 1.15628 49.8596 1.01954 50.7973 1V1ZM47.2223 5.96191C46.8707 6.50889 46.5386 7.29029 46.48 7.72006C46.4019 8.16937 46.48 8.95077 46.6558 9.57589C46.8902 10.455 47.1442 10.8261 48.0037 11.588C48.7656 12.2717 49.2931 12.5648 49.9768 12.7015C50.5628 12.8383 51.227 12.8383 51.8326 12.7015C52.4968 12.5648 53.0243 12.2717 53.7861 11.588C54.6457 10.8261 54.8996 10.455 55.134 9.57589C55.3099 8.95077 55.388 8.16937 55.3099 7.72006C55.2513 7.29029 54.9192 6.50889 54.5675 5.96191C54.0987 5.23911 53.6298 4.84841 52.8484 4.43817C52.1452 4.08654 51.4615 3.91072 50.8949 3.91072C50.3284 3.91072 49.6447 4.08654 48.9414 4.43817C48.16 4.84841 47.6912 5.23911 47.2223 5.96191ZM83.9092 9.22426C83.3231 9.57589 82.5222 10.2987 82.112 10.8457C81.7017 11.3927 81.2134 12.3108 81.0375 12.8969C80.8422 13.6001 80.7641 14.3815 80.8227 15.1434C80.8813 15.788 81.0962 16.7062 81.311 17.1946C81.5064 17.6829 82.0729 18.5034 82.5613 19.0113C83.0301 19.5388 83.9092 20.203 84.4952 20.4765C85.4134 20.9258 85.8236 21.0039 87.2302 21.0039C88.539 21.0039 89.086 20.9062 89.7697 20.5741C90.2581 20.3202 91.0395 19.8123 91.5083 19.402C92.0163 18.9527 92.5828 18.1713 92.9735 17.3899C93.4814 16.3155 93.5791 15.9248 93.5791 14.655C93.5595 13.522 93.4618 12.9555 93.0711 12.1155C92.7977 11.5294 92.1921 10.6503 91.7232 10.1619C91.2348 9.6931 90.3948 9.10705 89.8674 8.8531C89.3204 8.61868 88.3632 8.36472 87.7185 8.32565C87.0739 8.26704 86.1948 8.30612 85.765 8.40379C85.3353 8.521 84.4952 8.89217 83.9092 9.22426ZM44.253 23.6607C43.3349 23.8951 41.7916 24.3835 40.8344 24.7546C39.8772 25.1258 38.373 25.8095 37.5134 26.2784C36.6539 26.7277 35.2083 27.6654 34.2901 28.3296C33.372 29.0133 31.7896 30.4003 30.7738 31.4356C29.7189 32.4905 28.3319 34.1705 27.6091 35.2645C26.8863 36.3389 25.9487 37.9603 25.5189 38.8785C25.0891 39.7966 24.4835 41.3399 24.171 42.2971C23.8389 43.2543 23.4286 44.8562 23.2333 45.8134C22.9598 47.1028 22.8817 48.4702 22.8817 50.9902C22.8817 53.5103 22.9598 54.8777 23.2333 56.167C23.4286 57.1242 23.8389 58.7261 24.171 59.6833C24.4835 60.6406 25.0891 62.1838 25.5189 63.102C25.9487 64.0201 26.8863 65.6415 27.6091 66.716C28.4101 67.9467 29.6603 69.4313 30.9692 70.7206C32.1022 71.8537 33.8213 73.3188 34.7785 74.0025C35.7357 74.6863 37.4157 75.663 38.4902 76.1905C39.5646 76.7179 41.2446 77.4016 42.2018 77.7337C43.159 78.0463 44.7609 78.4565 45.7181 78.6519C47.0075 78.9254 48.3749 79.0035 50.8949 79.0035C53.415 79.0035 54.7824 78.9254 56.0717 78.6519C57.0289 78.4565 58.6308 78.0463 59.588 77.7142C60.5453 77.4016 62.0885 76.7961 63.0067 76.3663C63.9248 75.9365 65.5462 74.9988 66.6207 74.276C67.7732 73.5142 69.3751 72.1662 70.5472 71.0137C71.6216 69.9392 72.9696 68.4546 73.5165 67.6927C74.0635 66.9308 74.9621 65.5243 75.4896 64.5671C76.017 63.6099 76.7398 62.1252 77.0524 61.2852C77.3845 60.4647 77.8729 58.9605 78.1268 57.9643C78.3808 56.9875 78.7129 55.2489 78.8301 54.1158C78.9864 52.9047 79.0254 51.1074 78.9668 49.7205C78.9082 48.4311 78.7129 46.6339 78.5371 45.7158C78.3417 44.7976 77.951 43.2543 77.6189 42.2971C77.3063 41.3399 76.7008 39.7966 76.271 38.8785C75.8412 37.9603 74.9035 36.3389 74.1807 35.2645C73.3603 34.0143 72.11 32.5296 70.723 31.1621C69.3556 29.7752 67.8709 28.5249 66.6207 27.7044C65.5462 26.9816 63.8271 26.0049 62.8113 25.536C61.7955 25.0477 60.2132 24.4225 59.295 24.1491C58.3769 23.8756 56.9703 23.5044 56.1694 23.3481C55.3685 23.1723 53.3368 23.016 51.6763 22.9574C50.0159 22.9183 48.0233 22.9574 47.2809 23.0746C46.5191 23.1723 45.1712 23.4458 44.253 23.6607ZM5.47591 47.5716C5.0266 47.9232 4.53823 48.5679 4.26473 49.1344C4.01078 49.6814 3.81543 50.5019 3.81543 50.9902C3.81543 51.5763 3.99124 52.2405 4.34287 52.9437C4.75311 53.7251 5.14381 54.194 5.86661 54.6628C6.39406 55.0145 7.19499 55.3466 7.62477 55.4052C8.07407 55.4833 8.85547 55.4052 9.4806 55.2293C10.3597 54.9949 10.7308 54.741 11.4927 53.8814C12.1764 53.1196 12.4695 52.5921 12.6062 51.9084C12.743 51.3223 12.743 50.6581 12.6062 50.0526C12.4695 49.3884 12.1764 48.8609 11.4927 48.099C10.7699 47.2786 10.3401 46.9855 9.57827 46.7707C9.03129 46.6144 8.38663 46.4972 8.11314 46.4972C7.83965 46.5167 7.3122 46.6144 6.94104 46.7511C6.55034 46.8879 5.90568 47.2395 5.47591 47.5716ZM90.8441 47.4349C90.6293 47.6107 90.219 48.0795 89.926 48.4507C89.633 48.8218 89.3204 49.5446 89.2032 50.0526C89.0469 50.6777 89.0469 51.3028 89.1837 51.9084C89.3204 52.5921 89.6134 53.1196 90.2972 53.8814C91.059 54.741 91.4302 54.9949 92.3093 55.2293C92.9344 55.4052 93.7158 55.4833 94.1651 55.4052C94.5949 55.3466 95.3763 55.0145 95.9233 54.6628C96.6461 54.194 97.0368 53.7251 97.447 52.9437C97.7986 52.2405 97.9744 51.5763 97.9744 50.9902C97.9744 50.5019 97.7791 49.6814 97.5251 49.1344C97.2516 48.5679 96.7633 47.9232 96.314 47.5716C95.8842 47.2395 95.2395 46.8879 94.8488 46.7511C94.4777 46.6144 93.8916 46.5167 93.5791 46.5167C93.247 46.5167 92.6023 46.6535 92.1139 46.8097C91.6255 46.966 91.059 47.2395 90.8441 47.4349ZM10.7504 82.2073C10.2034 82.6175 9.4806 83.4184 9.12897 84.0045C8.79687 84.5905 8.40617 85.5673 8.28896 86.1534C8.17175 86.7394 8.13268 87.6185 8.21082 88.1069C8.26942 88.5952 8.52338 89.4157 8.77733 89.9627C9.01175 90.4901 9.59781 91.3301 10.0666 91.8185C10.555 92.2874 11.4341 92.893 12.0202 93.1664C12.8602 93.5571 13.4267 93.6548 14.5597 93.6744C15.8295 93.6744 16.2202 93.5767 17.2946 93.0688C18.076 92.6781 18.8574 92.1115 19.3067 91.6036C19.717 91.1348 20.2249 90.3534 20.4788 89.865C20.8109 89.1813 20.9086 88.6343 20.9086 87.3255C20.9086 85.9189 20.8305 85.5087 20.3812 84.5905C20.1077 84.0045 19.4435 83.1254 18.916 82.6566C18.4081 82.1682 17.5876 81.6017 17.0993 81.3868C16.5914 81.1719 15.6537 80.9766 14.8527 80.9375C14.0127 80.8984 13.1532 80.9961 12.6062 81.1719C12.1178 81.3282 11.2778 81.797 10.7504 82.2073ZM48.3163 90.0213C47.9256 90.3143 47.4372 90.8222 47.2028 91.1348C46.9879 91.4474 46.6949 92.2092 46.5777 92.7953C46.4214 93.5767 46.4019 94.0846 46.5582 94.6511C46.6754 95.0809 47.0465 95.8037 47.3786 96.253C47.7498 96.8 48.3163 97.2688 48.9805 97.5814C49.6056 97.8744 50.3675 98.0697 50.8949 98.0697C51.481 98.0697 52.1452 97.8939 52.8484 97.5423C53.6298 97.1321 54.0987 96.7414 54.5675 96.0186C54.9192 95.4716 55.2513 94.6902 55.3099 94.2604C55.388 93.8111 55.3099 93.0297 55.134 92.4046C54.8996 91.5255 54.6457 91.1543 53.7861 90.3925C53.0243 89.7087 52.4968 89.4157 51.8131 89.279C51.3052 89.1618 50.8363 89.0836 50.7387 89.1031C50.6605 89.1227 50.2503 89.2008 49.8205 89.318C49.3907 89.4157 48.7265 89.7283 48.3163 90.0213ZM51.8717 29.8533C52.4577 29.8924 53.6494 30.1659 54.5089 30.4589C55.3685 30.7519 56.5992 31.338 57.2243 31.7482C57.869 32.178 58.8066 33.018 59.3341 33.604C59.8615 34.1901 60.5843 35.245 60.936 35.9482C61.2876 36.6515 61.7369 37.9213 61.9322 38.7808C62.1862 39.9334 62.2448 40.7539 62.1667 41.9064C62.1081 42.766 61.8736 43.9576 61.6783 44.5437C61.4634 45.1297 61.1118 45.9893 60.8774 46.4386C60.6625 46.9074 60.0764 47.7669 59.588 48.353C59.0997 48.9391 58.7676 49.4665 58.8457 49.5251C58.9434 49.5837 59.5099 49.6228 60.1155 49.6228C60.7406 49.6228 61.7564 49.7791 62.362 49.9744C62.9871 50.1698 63.9248 50.5995 64.4718 50.9316C64.9993 51.2637 65.8588 51.9865 66.3667 52.5335C66.8942 53.0805 67.6365 54.2135 68.7695 56.5577L68.8086 62.3596C68.8672 67.9467 68.8477 68.2006 68.4765 68.5718C68.1053 68.943 67.8318 68.9625 53.6298 68.9625L53.2391 68.4155C53.0047 68.1225 52.8289 67.7318 52.8484 67.5364C52.8484 67.3606 52.9071 67.0676 52.9852 66.8918C53.0829 66.716 53.3759 66.4425 53.6689 66.3057C54.0205 66.1299 54.8801 66.0322 57.7322 66.0322V64.5671C57.7322 63.2778 57.7908 63.0434 58.2206 62.6136C58.4745 62.3401 58.9238 62.1252 59.1973 62.1252C59.4708 62.1252 59.9006 62.3401 60.1741 62.6136C60.6039 63.0434 60.6625 63.2583 60.6625 66.0322H65.9369V61.8322C65.9369 58.1401 65.8979 57.5149 65.5658 56.5968C65.3509 56.0498 64.8234 55.1903 64.4132 54.7019C63.9834 54.2135 63.1825 53.5493 61.5415 52.6507H40.2483L39.1934 53.2368C38.6074 53.5493 37.8064 54.2135 37.3767 54.7019C36.9664 55.1903 36.439 56.0498 36.2241 56.5968C35.892 57.5149 35.8529 58.1401 35.8529 66.0322H41.1274V64.5671C41.1274 63.2778 41.186 63.0434 41.6158 62.6136C41.8697 62.3401 42.319 62.1252 42.5925 62.1252C42.866 62.1252 43.2958 62.3401 43.5693 62.6136C43.9991 63.0434 44.0577 63.2583 44.0577 66.0322H45.8158C46.9098 66.0322 47.7693 66.1299 48.1014 66.3057C48.414 66.4425 48.707 66.716 48.7851 66.8918C48.8828 67.0676 48.9414 67.3606 48.9414 67.5364C48.961 67.7318 48.7851 68.1225 48.16 68.9625H40.9321C33.958 68.9625 33.6845 68.943 33.3134 68.5718C32.9422 68.2006 32.9227 67.9467 33.0204 56.5577L33.7431 55.034C34.1534 54.2135 34.8957 53.0805 35.4036 52.5335C35.9311 51.9865 36.7711 51.2637 37.3181 50.9316C37.8455 50.5995 38.8027 50.1698 39.4083 49.9744C40.0334 49.7791 41.0493 49.6228 41.6744 49.6228C42.2995 49.6228 42.8856 49.5837 42.9442 49.5251C43.0223 49.4665 42.6902 48.9391 42.2018 48.353C41.7135 47.7669 41.1274 46.9074 40.9125 46.4386C40.6781 45.9893 40.3265 45.1297 40.1116 44.5437C39.9162 43.9576 39.6818 42.766 39.6232 41.9064C39.5451 40.7539 39.6037 39.9334 39.8576 38.7808C40.053 37.9213 40.5023 36.6515 40.8539 35.9482C41.2055 35.245 41.9283 34.1901 42.4558 33.604C42.9832 33.018 43.9209 32.178 44.5656 31.7482C45.1907 31.338 46.2847 30.7714 46.9879 30.5175C47.6912 30.2635 48.8242 29.99 49.5275 29.9119C50.2307 29.8533 51.2856 29.8142 51.8717 29.8533ZM46.1674 34.2291C45.5619 34.6394 44.7219 35.4208 44.2921 35.9873C43.8623 36.5538 43.3153 37.511 43.0809 38.0971C42.8465 38.6831 42.6121 39.738 42.5535 40.4413C42.4949 41.1446 42.5339 42.1799 42.6707 42.7269C42.7879 43.2934 43.12 44.2702 43.413 44.8758C43.7256 45.4813 44.3898 46.4386 44.9367 46.9855C45.5228 47.5911 46.4605 48.2553 47.2809 48.6656C48.5898 49.3102 48.7265 49.3298 50.8949 49.3298C53.0633 49.3298 53.2001 49.3102 54.5089 48.6656C55.3294 48.2553 56.2671 47.5911 56.8531 46.9855C57.3806 46.4386 58.0643 45.5204 58.3573 44.9344C58.6308 44.3483 58.9629 43.4692 59.0801 42.9809C59.1973 42.4925 59.295 41.6525 59.295 41.125C59.295 40.578 59.1973 39.7576 59.0801 39.2692C58.9629 38.7808 58.6308 37.9017 58.3573 37.3157C58.0643 36.7296 57.3806 35.8115 56.8531 35.2645C56.2671 34.6589 55.3294 33.9947 54.5089 33.5845C53.2782 32.9789 52.9657 32.9203 51.188 32.8617C49.7033 32.8226 49 32.9008 48.2382 33.1547C47.7107 33.3501 46.773 33.8384 46.1674 34.2291Z" fill="#78B404" stroke="#78B404" stroke-width="2"/>
</svg>
