<svg width="68" height="68" viewBox="0 0 68 68" fill="none" xmlns="http://www.w3.org/2000/svg">
<path fill-rule="evenodd" clip-rule="evenodd" d="M53.1356 1L53.6512 1.38667C53.9347 1.59289 57.0152 4.62178 60.5081 8.11468C64.3619 11.9942 66.8752 14.6107 66.9267 14.804C66.9654 14.9845 66.9783 26.1463 66.9267 64.1041L66.6303 64.7099C66.4756 65.0579 66.0761 65.5992 65.7281 65.9214C65.3672 66.2694 64.8516 66.6045 64.4521 66.7592C63.7818 66.9912 63.1761 67.0041 41.7289 67.0041C20.2818 67.0041 19.676 66.9912 19.0058 66.7592C18.6062 66.6045 18.0907 66.2694 17.7298 65.9214C17.3818 65.5992 16.9822 65.0579 16.5311 64.1041L16.4667 37.1018H15.3454C14.7138 37.1018 13.6569 37.0116 12.9867 36.9085C12.3165 36.7925 11.208 36.5218 10.5378 36.2898C9.86757 36.0578 8.86223 35.6196 8.29512 35.2974C7.7409 34.9752 6.8129 34.3436 6.24578 33.8796C5.66578 33.4156 4.85378 32.6294 4.41556 32.1138C3.99023 31.5983 3.35867 30.7089 2.99778 30.116C2.64978 29.536 2.17289 28.5565 1.94089 27.9507C1.72178 27.3449 1.41244 26.2494 1.27067 25.5018C1.10311 24.7027 1 23.6458 1 22.924C1 22.1894 1.10311 21.1582 1.27067 20.3462C1.41244 19.5987 1.72178 18.5031 1.94089 17.8974C2.16 17.2916 2.63689 16.3249 2.99778 15.732C3.34578 15.152 4.00311 14.2369 4.45423 13.7085C4.89245 13.18 5.71734 12.3809 6.27156 11.9298C6.82578 11.4916 7.7409 10.8729 8.29512 10.5507C8.86223 10.2285 9.86757 9.79023 10.5378 9.55823C11.208 9.32623 12.3165 9.05556 12.9867 8.93956C13.6569 8.83645 14.7138 8.74623 16.4667 8.74623L16.5054 6.32312C16.5311 4.132 16.5569 3.86134 16.8276 3.29422C16.9822 2.95911 17.3818 2.41778 17.7298 2.09556C18.0649 1.77333 18.6191 1.39956 18.98 1.27067C19.5987 1.03867 20.3205 1.02578 53.1356 1V1ZM19.3409 4.10623C19.1347 4.364 19.1089 4.66045 19.1089 6.83867V9.28757C20.604 9.84179 21.3387 10.1382 21.6867 10.3316C22.0476 10.512 22.7694 10.9631 23.2978 11.3369C23.8262 11.7107 24.7156 12.4582 25.2698 13.0253C25.8111 13.5796 26.6103 14.572 27.0356 15.2294C27.4609 15.8738 27.9894 16.8534 28.2085 17.3818C28.4405 17.9102 28.7627 18.9027 28.9431 19.5729C29.2267 20.6427 29.2654 21.0551 29.2654 22.924C29.2654 24.7929 29.2267 25.2054 28.9431 26.2751C28.7627 26.9454 28.4405 27.9378 28.2085 28.4663C27.9894 28.9947 27.4609 29.9743 27.0356 30.6316C26.6103 31.276 25.8111 32.2685 25.2698 32.8227C24.7156 33.3898 23.8262 34.1374 23.2978 34.5112C22.7694 34.8849 22.0476 35.336 21.6867 35.5165C21.3387 35.7098 20.604 36.0063 20.0756 36.1996L19.1089 36.5605V63.653L19.8178 64.3619H63.6401L64.349 63.653L64.4134 16.4796L52.2978 16.4151L51.5889 15.7062L51.5761 3.59067C27.216 3.60356 20.0111 3.65511 19.8565 3.70667C19.7018 3.77111 19.4698 3.93867 19.3409 4.10623V4.10623ZM54.1023 13.9018H62.5445C56.1001 7.40578 54.2054 5.52401 54.1667 5.52401C54.1281 5.52401 54.1023 7.40579 54.1023 9.7129V13.9018ZM10.3445 12.3938C9.85468 12.6258 9.06845 13.0769 8.60445 13.3862C8.14045 13.7085 7.41867 14.3013 6.99334 14.7396C6.55512 15.1649 5.97512 15.8609 5.69156 16.2862C5.39512 16.7116 4.98267 17.4205 4.75067 17.8716C4.53156 18.3098 4.19645 19.1734 4.00311 19.8049C3.70667 20.7974 3.668 21.1325 3.65511 22.8596C3.65511 24.4449 3.70667 24.9734 3.93867 25.824C4.09334 26.3911 4.48 27.3836 4.78934 28.0151C5.11156 28.6596 5.73023 29.6263 6.18134 30.1805C6.63245 30.7347 7.43156 31.5338 7.96001 31.9591C8.48845 32.3845 9.45512 32.9903 10.0867 33.3125C10.7311 33.6218 11.7107 34.0085 12.2778 34.1631C13.1285 34.3951 13.6569 34.4467 15.2422 34.4467C16.9694 34.4338 17.3045 34.3951 18.3098 34.0987C18.9285 33.9054 19.792 33.5703 20.2431 33.3511C20.6814 33.1191 21.3902 32.7067 21.8156 32.4103C22.2409 32.1267 22.9369 31.5467 23.3622 31.1085C23.8005 30.6831 24.3934 29.9614 24.7156 29.4974C25.0249 29.0334 25.4631 28.26 25.6951 27.7574C25.9271 27.2676 26.2365 26.3911 26.3783 25.824C26.5329 25.2569 26.6489 24.664 26.6489 24.5094V24.2129L14.6622 24.1485L13.9533 23.4396L13.8889 11.4529C13.3347 11.4658 12.7418 11.5818 12.2133 11.7236C11.6849 11.8525 10.8471 12.1618 10.3445 12.3938V12.3938ZM16.4667 21.6351H26.6489C26.6489 21.184 26.5329 20.5911 26.3911 20.024C26.2494 19.4569 25.8756 18.4774 25.5534 17.8329C25.244 17.2014 24.6254 16.2218 24.1742 15.6676C23.7231 15.1134 22.924 14.3142 22.3956 13.8889C21.8671 13.4636 20.9134 12.8578 20.2689 12.5356C19.6374 12.2262 18.6449 11.8525 18.0778 11.7107C17.5107 11.5689 16.9178 11.4529 16.7631 11.4529H16.4667V21.6351ZM48.1734 8.81068L48.5214 9.17157C48.7921 9.44223 48.8823 9.64845 48.8823 10.0351C48.8823 10.4218 48.7921 10.628 48.1734 11.2596H33.48L33.132 10.8987C32.8614 10.6409 32.7711 10.4218 32.7711 10.048C32.7711 9.75157 32.8743 9.42934 33.0031 9.26179C33.132 9.09423 33.364 8.92668 33.5187 8.86223C33.6734 8.81068 37.0374 8.77201 48.1734 8.81068V8.81068ZM48.1734 13.9662L48.5214 14.3271C48.7921 14.5978 48.8823 14.804 48.8823 15.1907C48.8823 15.5774 48.7921 15.7836 48.1734 16.4151H33.48L33.132 16.0542C32.8614 15.7965 32.7711 15.5773 32.7711 15.2036C32.7711 14.9071 32.8743 14.5849 33.0031 14.4173C33.132 14.2498 33.364 14.0822 33.5187 14.0178C33.6734 13.9662 37.0374 13.9276 48.1734 13.9662V13.9662ZM7.63779 21.6996C7.8569 21.7382 8.15334 21.9058 8.3209 22.0605C8.54001 22.2796 8.64312 22.576 8.73334 23.3107C8.81068 23.8391 8.92668 24.4836 9.00401 24.7285C9.09423 24.9734 9.32623 25.5147 9.51957 25.9271C9.72579 26.3267 10.2413 27.0098 10.6667 27.4351C11.092 27.8605 11.7751 28.376 12.1876 28.5823C12.5871 28.7756 13.1285 29.0076 13.3733 29.0978C13.6182 29.1751 14.2627 29.2911 14.7911 29.3685C15.5645 29.4587 15.8222 29.5618 16.08 29.8196C16.312 30.0516 16.4022 30.2836 16.4022 30.6574C16.4022 31.0311 16.312 31.2631 16.08 31.4951C15.8652 31.7186 15.5645 31.856 15.1778 31.9076C14.8427 31.9463 14.1338 31.8818 13.5022 31.7658C12.8062 31.624 11.9556 31.3276 11.1822 30.9538C10.1511 30.4511 9.77734 30.1805 8.84934 29.2525C7.92134 28.3245 7.65067 27.9507 7.14801 26.9196C6.77423 26.1463 6.47778 25.2956 6.33601 24.5996C6.22001 23.9551 6.15556 23.2591 6.19423 22.924C6.24578 22.6018 6.37467 22.2409 6.49067 22.0991C6.59378 21.9702 6.8129 21.8156 6.96756 21.7511C7.12223 21.6867 7.43156 21.6738 7.63779 21.6996V21.6996ZM33.4156 21.6996C33.6347 21.7382 33.944 21.9187 34.1245 22.0862C34.3565 22.3311 34.4467 22.5502 34.4467 22.924C34.4467 23.3107 34.3565 23.5169 34.0987 23.7876C33.828 24.0582 33.6089 24.1485 33.2223 24.1485C32.8356 24.1485 32.6294 24.0582 32.3587 23.7876C32.088 23.5298 31.9978 23.3107 31.9978 22.9369C31.9978 22.6405 32.1009 22.3182 32.2298 22.1507C32.3587 21.9831 32.5907 21.8156 32.7454 21.7511C32.9 21.6867 33.2094 21.6738 33.4156 21.6996ZM58.4845 21.6996L58.8325 22.0605C59.1032 22.3311 59.1934 22.5374 59.1934 22.924C59.1934 23.3107 59.1032 23.5169 58.4845 24.1485H37.8623L37.5143 23.7876C37.2436 23.5298 37.1534 23.3107 37.1534 22.9369C37.1534 22.6405 37.2565 22.3182 37.3854 22.1507C37.5143 21.9831 37.7463 21.8156 37.9009 21.7511C38.0556 21.6996 42.7472 21.6609 58.4845 21.6996ZM33.4156 26.8551C33.6347 26.8938 33.944 27.0743 34.1245 27.2418C34.3565 27.4867 34.4467 27.7058 34.4467 28.0796C34.4467 28.4663 34.3565 28.6725 34.0987 28.9431C33.828 29.2138 33.6089 29.304 33.2223 29.304C32.8356 29.304 32.6294 29.2138 32.3587 28.9431C32.088 28.6854 31.9978 28.4663 31.9978 28.0925C31.9978 27.796 32.1009 27.4738 32.2298 27.3063C32.3587 27.1387 32.5907 26.9711 32.7454 26.9067C32.9 26.8423 33.2094 26.8294 33.4156 26.8551ZM58.4845 26.8551L58.8325 27.216C59.1032 27.4867 59.1934 27.6929 59.1934 28.0796C59.1934 28.4663 59.1032 28.6725 58.4845 29.304H37.8623L37.5143 28.9431C37.2436 28.6854 37.1534 28.4663 37.1534 28.0925C37.1534 27.796 37.2565 27.4738 37.3854 27.3063C37.5143 27.1387 37.7463 26.9711 37.9009 26.9067C38.0556 26.8551 42.7472 26.8165 58.4845 26.8551ZM57.7756 35.336C58.201 35.3618 58.8067 35.5036 59.129 35.6454C59.4512 35.7743 59.9667 36.148 60.2761 36.4703C60.5983 36.7796 60.9721 37.2952 61.1138 37.6174C61.3072 38.0298 61.3845 38.468 61.3845 39.164C61.3845 39.86 61.3072 40.2983 61.1138 40.7107C60.9721 41.0329 60.5983 41.5485 60.2761 41.8578C59.9667 42.18 59.4512 42.5538 59.129 42.6956C58.6907 42.9018 58.2783 42.9663 56.3707 42.9663L47.5289 52.4396L47.8125 53.0583C48.0316 53.5094 48.1089 53.8961 48.1089 54.6307C48.1089 55.3267 48.0316 55.765 47.8383 56.1774C47.6965 56.4996 47.3227 57.0152 47.0005 57.3245C46.6912 57.6467 46.1756 58.0205 45.8534 58.1623C45.4409 58.3556 45.0027 58.433 44.3067 58.433C43.6107 58.433 43.1725 58.3556 42.76 58.1623C42.4378 58.0205 41.9223 57.6467 41.6129 57.3245C41.2907 57.0152 40.9169 56.4996 40.788 56.1774C40.6463 55.8552 40.5045 55.3396 40.4787 55.0174C40.44 54.6823 40.5045 54.0894 40.8267 52.8263L38.8676 50.3645C37.0889 48.1476 36.8698 47.9156 36.5734 47.9929C36.3929 48.0316 35.9289 48.0961 35.5423 48.1347C35.0912 48.1734 34.6272 48.1347 33.6734 47.8254L31.9334 49.7072C30.9796 50.7383 29.9227 51.8854 28.9818 52.8907L29.1751 53.5352C29.2911 53.9218 29.3556 54.4632 29.3169 54.8885C29.2911 55.2752 29.1494 55.8552 29.0076 56.1774C28.8787 56.4996 28.5049 57.0152 28.1827 57.3245C27.8734 57.6467 27.3578 58.0205 27.0356 58.1623C26.6231 58.3556 26.1849 58.433 25.4889 58.433C24.7929 58.433 24.3547 58.3556 23.9422 58.1623C23.62 58.0205 23.1045 57.6467 22.7951 57.3245C22.4729 57.0152 22.0991 56.4996 21.9574 56.1774C21.764 55.765 21.6867 55.3267 21.6867 54.6307C21.6867 53.9347 21.764 53.4965 21.9574 53.0841C22.0991 52.7618 22.4729 52.2463 22.7951 51.9369C23.1045 51.6147 23.62 51.2409 23.9422 51.1121C24.2645 50.9703 24.8445 50.8285 25.2311 50.8027C25.6565 50.7641 26.172 50.8156 27.1 51.1249L28.84 49.2432C29.7938 48.2121 30.8507 47.0649 31.7916 46.0596L31.5983 45.4152C31.4823 45.0285 31.4178 44.4872 31.4565 44.0618C31.4823 43.6752 31.624 43.0952 31.7658 42.7729C31.8947 42.4507 32.2685 41.9352 32.5907 41.6258C32.9 41.3036 33.4156 40.9298 33.7378 40.788C34.1503 40.5947 34.5885 40.5174 35.2845 40.5174C35.9805 40.5174 36.4187 40.5947 36.8312 40.788C37.1534 40.9298 37.6689 41.3036 37.9783 41.6258C38.3005 41.9352 38.6743 42.4507 38.8032 42.7729C38.9449 43.0952 39.0867 43.6107 39.1125 43.9329C39.1512 44.2681 39.0867 44.8609 38.7645 46.1241L42.6956 51.0347L43.1467 50.9316C43.3916 50.8801 44.0361 50.8285 45.5312 50.8414L54.3601 41.3552L54.0894 40.7494C53.9347 40.4014 53.7801 39.8729 53.7543 39.5507C53.7156 39.2285 53.7414 38.6872 53.8316 38.3263C53.9089 37.9783 54.141 37.424 54.3472 37.1018C54.5534 36.7796 54.9401 36.3543 55.2107 36.1352C55.4943 35.9289 56.0098 35.6454 56.3578 35.5165C56.7961 35.3618 57.2472 35.3103 57.7756 35.336V35.336ZM56.5898 38.3907C56.461 38.5583 56.3578 38.8805 56.3578 39.1769C56.3578 39.5507 56.4481 39.7698 56.7187 40.0276C56.9894 40.2983 57.1956 40.3885 57.5823 40.3885C57.969 40.3885 58.1881 40.2983 58.4587 40.0276C58.7165 39.7569 58.8067 39.5507 58.8067 39.164C58.8067 38.7903 58.7165 38.5712 58.4845 38.3263C58.3041 38.1587 57.9947 37.9783 57.7756 37.9396C57.5694 37.9138 57.2601 37.9267 57.1054 37.9912C56.9507 38.0556 56.7187 38.2232 56.5898 38.3907V38.3907ZM34.292 43.5463C34.1631 43.7138 34.06 44.0361 34.06 44.3325C34.06 44.7063 34.1503 44.9254 34.4209 45.1832C34.6916 45.4538 34.8978 45.5441 35.2845 45.5441C35.6712 45.5441 35.8903 45.4538 36.1609 45.1832C36.4187 44.9125 36.5089 44.7063 36.5089 44.3196C36.5089 43.9458 36.4187 43.7267 36.1867 43.4818C36.0063 43.3143 35.6969 43.1338 35.4778 43.0952C35.2716 43.0694 34.9623 43.0823 34.8076 43.1467C34.6529 43.2112 34.4209 43.3787 34.292 43.5463V43.5463ZM24.4965 53.8574C24.3676 54.025 24.2645 54.3472 24.2645 54.6436C24.2645 55.0174 24.3547 55.2365 24.6254 55.4943C24.896 55.765 25.1023 55.8552 25.4889 55.8552C25.8756 55.8552 26.0947 55.765 26.3654 55.4943C26.6231 55.2236 26.7134 55.0174 26.7134 54.6307C26.7134 54.257 26.6231 54.0378 26.3911 53.793C26.2107 53.6254 25.9014 53.445 25.6823 53.4063C25.476 53.3805 25.1667 53.3934 25.012 53.4578C24.8574 53.5223 24.6254 53.6898 24.4965 53.8574V53.8574ZM43.3143 53.8574C43.1854 54.025 43.0823 54.3472 43.0823 54.6436C43.0823 55.0174 43.1725 55.2365 43.4432 55.4943C43.7138 55.765 43.9201 55.8552 44.3067 55.8552C44.6934 55.8552 44.9125 55.765 45.1832 55.4943C45.4409 55.2236 45.5312 55.0174 45.5312 54.6307C45.5312 54.257 45.4409 54.0378 45.2089 53.793C45.0285 53.6254 44.7192 53.445 44.5001 53.4063C44.2938 53.3805 43.9845 53.3934 43.8298 53.4578C43.6752 53.5223 43.4432 53.6898 43.3143 53.8574V53.8574Z" fill="#78B404" stroke="#78B404"/>
</svg>
