<svg width="115" height="102" viewBox="0 0 115 102" fill="none" xmlns="http://www.w3.org/2000/svg">
<path fill-rule="evenodd" clip-rule="evenodd" d="M85.1188 1.45858C83.0244 2.41524 82.0883 4.04725 81.9532 6.97735C81.8285 9.68167 81.5295 9.88954 79.4406 8.72413C75.7535 6.66709 73.0322 7.36235 70.9541 10.8926L70.0472 12.4335L59.375 12.5441L48.7026 12.6547L48.1692 13.2752C47.2639 14.3278 47.6228 16.1454 48.8457 16.7026C49.265 16.8937 51.9248 16.9669 58.4522 16.9669H67.4787L67.3164 17.8546C66.8604 20.3483 68.0734 22.4399 70.8524 23.9525C72.7206 24.9695 72.5694 25.6913 70.1919 27.1055C66.4535 29.3291 66.3146 31.709 69.591 37.3964C72.974 43.2693 74.9395 44.2872 78.8639 42.1998C81.466 40.8155 81.9123 40.9747 81.9123 43.2865C81.9123 47.2577 84.1569 49.6956 87.8127 49.6956H88.7676V58.8729V68.0502H47.0828H5.39793V43.2679C5.39793 24.851 5.46405 18.3616 5.65511 18.0027C6.21017 16.9607 5.95055 16.9813 18.6331 16.974L30.6521 16.9669L31.404 16.215C32.2341 15.3849 32.3542 14.675 31.8345 13.6699C31.2441 12.528 31.2063 12.5251 17.8846 12.5923L5.5085 12.6547L4.29223 13.3406C3.62328 13.7181 2.75332 14.4461 2.35925 14.9587C0.889993 16.8689 0.962969 15.0198 1.02732 48.7124L1.0857 79.2177L1.77101 80.434C3.62947 83.7316 3.74734 83.7511 21.8837 83.7511C30.0875 83.7511 36.7993 83.8256 36.7987 83.917C36.7951 84.4475 35.6629 93.4465 35.5536 93.813C35.0096 95.6354 33.3193 96.5655 30.538 96.5723C27.1576 96.5807 25.6256 98.4843 27.4949 100.354L28.1413 101H48.1591H68.1768L68.7558 100.502C70.8047 98.7397 69.3259 96.7453 65.8447 96.5759C62.8898 96.4324 61.8056 95.912 60.9343 94.2196C60.7404 93.8428 59.5858 85.1691 59.5789 84.0353C59.5776 83.8276 62.8394 83.752 73.896 83.7036L88.2148 83.6405L89.3707 83.118C90.0064 82.8305 90.9346 82.1527 91.433 81.6118C93.1734 79.7237 93.0723 80.7432 93.1426 64.3757L93.2052 49.7546L94.4306 49.6107C97.5955 49.2387 99.3823 47.152 99.3823 43.8279C99.3823 40.9796 99.7518 40.7856 102.531 42.1768C106.602 44.2142 108.382 43.3146 111.719 37.5329C115.271 31.3784 115.045 29.2687 110.557 26.7012C108.933 25.772 108.849 25.0111 110.273 24.1329C112.338 22.8596 112.693 22.569 113.313 21.6436C114.767 19.4722 114.517 17.9808 111.945 13.4866C108.426 7.33626 106.473 6.32123 102.392 8.52201C99.7879 9.92669 99.3837 9.70732 99.3801 6.88757C99.3768 4.11691 98.4358 2.48025 96.2864 1.50569C94.8567 0.857527 86.5118 0.822366 85.1188 1.45858ZM94.9768 7.67902C95.3025 13.0306 99.1572 15.2146 103.857 12.7106C105.94 11.6007 105.629 11.3915 108.011 15.5085C110.138 19.1869 110.125 18.9554 108.283 20.1471C103.58 23.1904 103.654 27.9785 108.446 30.5867C110.067 31.4688 110.055 31.5718 107.889 35.3211C105.716 39.0842 105.939 38.9595 103.531 37.754C98.9235 35.448 94.9595 38.0028 94.9595 43.2785C94.9595 45.3128 95.0444 45.2728 90.7293 45.2728C86.2276 45.2728 86.3351 45.3327 86.3351 42.8172C86.3351 37.8765 82.204 35.4719 77.7201 37.8029C75.4844 38.9652 75.6803 39.0866 73.382 35.1114C71.2898 31.4925 71.2918 31.5351 73.1529 30.4704C77.622 27.9135 77.6934 22.8859 73.298 20.2747C71.3122 19.0949 71.3113 19.1157 73.5041 15.303C75.6635 11.5483 75.5207 11.6383 77.5569 12.756C82.0777 15.2369 86.3351 12.8376 86.3351 7.80861C86.3351 5.34357 86.131 5.44684 90.8623 5.51805L94.849 5.5782L94.9768 7.67902ZM38.8144 12.8528C36.413 14.1836 38.3663 17.8183 40.8499 16.6398C41.6093 16.2794 42.1071 15.5335 42.1071 14.7555C42.1071 13.116 40.2624 12.0501 38.8144 12.8528ZM88.3253 16.4368C82.7595 17.926 79.8968 24.2822 82.4884 29.3967C85.9355 36.199 95.7747 36.0738 98.9975 29.1866C102.264 22.2066 95.7676 14.4457 88.3253 16.4368ZM93.029 21.215C96.0588 22.8901 96.1893 27.3204 93.2671 29.3061C91.4547 30.5376 88.5863 30.132 87.1376 28.4394C83.665 24.3828 88.3552 18.6314 93.029 21.215ZM20.502 22.5491C19.7585 22.9792 13.3342 29.829 13.1024 30.4389C12.4366 32.1902 19.91 40.2377 21.8622 39.8714C24.6289 39.3524 24.276 37.415 20.7537 33.7877L18.1833 31.1408L20.7435 28.5C22.1515 27.0476 23.4075 25.5854 23.5347 25.251C24.1924 23.521 22.0783 21.6374 20.502 22.5491ZM37.0209 22.585C36.532 22.8636 34.1583 26.5617 29.0046 35.0747C27.2709 37.9385 27.6525 39.9654 29.9256 39.9654C31.3244 39.9654 40.2175 26.5557 40.2175 24.4465C40.2175 22.8952 38.3677 21.8178 37.0209 22.585ZM45.51 22.4826C43.2402 23.4403 43.5806 24.8273 46.9722 28.4414C48.2493 29.8021 49.3209 30.9918 49.3534 31.0851C49.3862 31.1782 48.3324 32.3936 47.012 33.7857C43.6942 37.283 43.4733 37.8376 44.8493 39.2136C46.2537 40.618 46.8561 40.3533 50.1849 36.8688C55.9708 30.8125 55.8476 31.4277 52.0801 27.4058C47.361 22.368 46.792 21.9417 45.51 22.4826ZM13.7546 46.1348C12.7267 47.053 12.7283 48.359 13.7583 49.2794L14.4795 49.9238L34.2832 49.865L54.0872 49.8061L54.6208 49.1856C55.1929 48.5204 55.3315 47.3438 54.9266 46.5875C54.3269 45.4667 54.8501 45.4939 33.9393 45.4939H14.4717L13.7546 46.1348ZM61.4347 46.2458C60.8929 46.7876 60.6829 47.1954 60.6829 47.7053C60.6829 49.8316 63.8219 50.6522 64.7905 48.779C65.9878 46.4636 63.2691 44.4114 61.4347 46.2458ZM13.985 57.1104C12.8092 57.7488 12.673 59.5752 13.7272 60.5657L14.2789 61.0843L28.4159 61.1444C44.0704 61.2108 43.5981 61.251 44.2053 59.7979C44.6038 58.8441 44.3975 57.9835 43.612 57.3225L42.9579 56.772L28.7664 56.7809C16.803 56.7884 14.4826 56.8402 13.985 57.1104ZM53.01 57.0368C51.7891 57.6265 51.5854 59.5677 52.6405 60.5588L53.1995 61.0843L63.2421 61.146C74.4411 61.215 74.3469 61.2262 74.9676 59.7408C75.3725 58.7716 75.1817 58.0222 74.3524 57.3242L73.6963 56.772L63.5959 56.7871C56.9542 56.7968 53.3295 56.8824 53.01 57.0368ZM88.7298 75.3423C88.6628 77.9822 88.6168 78.2518 88.1533 78.7146L87.6495 79.2177H47.0945H6.53923L5.96869 78.6817C5.41274 78.1594 5.39793 78.0722 5.39793 75.3093V72.473H47.1002H88.8028L88.7298 75.3423ZM55.6831 89.0032C56.0305 91.9819 56.4721 94.7577 56.7035 95.4162L57.1112 96.5772H48.1533C41.0726 96.5772 39.2197 96.5193 39.3113 96.3008C39.8267 95.0701 40.185 93.1394 40.6646 89.006C40.9716 86.3623 41.2226 84.0983 41.2226 83.9751C41.2226 83.8287 43.6184 83.7511 48.1465 83.7511H55.0706L55.6831 89.0032Z" fill="#78B404" stroke="#78B404"/>
</svg>
