<svg width="114" height="100" viewBox="0 0 114 100" fill="none" xmlns="http://www.w3.org/2000/svg">
<path fill-rule="evenodd" clip-rule="evenodd" d="M84.1188 0.458585C82.0244 1.41524 81.0883 3.04725 80.9532 5.97735C80.8285 8.68167 80.5295 8.88954 78.4406 7.72413C74.7535 5.66709 72.0322 6.36235 69.9541 9.89263L69.0472 11.4335L58.375 11.5441L47.7026 11.6547L47.1692 12.2752C46.2639 13.3278 46.6228 15.1454 47.8457 15.7026C48.265 15.8937 50.9248 15.9669 57.4522 15.9669H66.4787L66.3164 16.8546C65.8604 19.3483 67.0734 21.4399 69.8524 22.9525C71.7206 23.9695 71.5694 24.6913 69.1919 26.1055C65.4535 28.3291 65.3146 30.709 68.591 36.3964C71.974 42.2693 73.9395 43.2872 77.8639 41.1998C80.466 39.8155 80.9123 39.9747 80.9123 42.2865C80.9123 46.2577 83.1569 48.6956 86.8127 48.6956H87.7676V57.8729V67.0502H46.0828H4.39793V42.2679C4.39793 23.851 4.46405 17.3616 4.65511 17.0027C5.21017 15.9607 4.95055 15.9813 17.6331 15.974L29.6521 15.9669L30.404 15.215C31.2341 14.3849 31.3542 13.675 30.8345 12.6699C30.2441 11.528 30.2063 11.5251 16.8846 11.5923L4.5085 11.6547L3.29223 12.3406C2.62328 12.7181 1.75332 13.4461 1.35925 13.9587C-0.110007 15.8689 -0.0370311 14.0198 0.0273205 47.7124L0.0857014 78.2177L0.771014 79.434C2.62947 82.7316 2.74734 82.7511 20.8837 82.7511C29.0875 82.7511 35.7993 82.8256 35.7987 82.917C35.7951 83.4475 34.6629 92.4465 34.5536 92.813C34.0096 94.6354 32.3193 95.5655 29.538 95.5723C26.1576 95.5807 24.6256 97.4843 26.4949 99.3536L27.1413 100H47.1591H67.1768L67.7558 99.502C69.8047 97.7397 68.3259 95.7453 64.8447 95.5759C61.8898 95.4324 60.8056 94.912 59.9343 93.2196C59.7404 92.8428 58.5858 84.1691 58.5789 83.0353C58.5776 82.8276 61.8394 82.752 72.896 82.7036L87.2148 82.6405L88.3707 82.118C89.0064 81.8305 89.9346 81.1527 90.433 80.6118C92.1734 78.7237 92.0723 79.7432 92.1426 63.3757L92.2052 48.7546L93.4306 48.6107C96.5955 48.2387 98.3823 46.152 98.3823 42.8279C98.3823 39.9796 98.7518 39.7856 101.531 41.1768C105.602 43.2142 107.382 42.3146 110.719 36.5329C114.271 30.3784 114.045 28.2687 109.557 25.7012C107.933 24.772 107.849 24.0111 109.273 23.1329C111.338 21.8596 111.693 21.569 112.313 20.6436C113.767 18.4722 113.517 16.9808 110.945 12.4866C107.426 6.33626 105.473 5.32123 101.392 7.52201C98.7879 8.92669 98.3837 8.70732 98.3801 5.88757C98.3768 3.11691 97.4358 1.48025 95.2864 0.505687C93.8567 -0.142473 85.5118 -0.177634 84.1188 0.458585ZM93.9768 6.67902C94.3025 12.0306 98.1572 14.2146 102.857 11.7106C104.94 10.6007 104.629 10.3915 107.011 14.5085C109.138 18.1869 109.125 17.9554 107.283 19.1471C102.58 22.1904 102.654 26.9785 107.446 29.5867C109.067 30.4688 109.055 30.5718 106.889 34.3211C104.716 38.0842 104.939 37.9595 102.531 36.754C97.9235 34.448 93.9595 37.0028 93.9595 42.2785C93.9595 44.3128 94.0444 44.2728 89.7293 44.2728C85.2276 44.2728 85.3351 44.3327 85.3351 41.8172C85.3351 36.8765 81.204 34.4719 76.7201 36.8029C74.4844 37.9652 74.6803 38.0866 72.382 34.1114C70.2898 30.4925 70.2918 30.5351 72.1529 29.4704C76.622 26.9135 76.6934 21.8859 72.298 19.2747C70.3122 18.0949 70.3113 18.1157 72.5041 14.303C74.6635 10.5483 74.5207 10.6383 76.5569 11.756C81.0777 14.2369 85.3351 11.8376 85.3351 6.80861C85.3351 4.34357 85.131 4.44684 89.8623 4.51805L93.849 4.5782L93.9768 6.67902ZM37.8144 11.8528C35.413 13.1836 37.3663 16.8183 39.8499 15.6398C40.6093 15.2794 41.1071 14.5335 41.1071 13.7555C41.1071 12.116 39.2624 11.0501 37.8144 11.8528ZM87.3253 15.4368C81.7595 16.926 78.8968 23.2822 81.4884 28.3967C84.9355 35.199 94.7747 35.0738 97.9975 28.1866C101.264 21.2066 94.7676 13.4457 87.3253 15.4368ZM92.029 20.215C95.0588 21.8901 95.1893 26.3204 92.2671 28.3061C90.4547 29.5376 87.5863 29.132 86.1376 27.4394C82.665 23.3828 87.3552 17.6314 92.029 20.215ZM19.502 21.5491C18.7585 21.9792 12.3342 28.829 12.1024 29.4389C11.4366 31.1902 18.91 39.2377 20.8622 38.8714C23.6289 38.3524 23.276 36.415 19.7537 32.7877L17.1833 30.1408L19.7435 27.5C21.1515 26.0476 22.4075 24.5854 22.5347 24.251C23.1924 22.521 21.0783 20.6374 19.502 21.5491ZM36.0209 21.585C35.532 21.8636 33.1583 25.5617 28.0046 34.0747C26.2709 36.9385 26.6525 38.9654 28.9256 38.9654C30.3244 38.9654 39.2175 25.5557 39.2175 23.4465C39.2175 21.8952 37.3677 20.8178 36.0209 21.585ZM44.51 21.4826C42.2402 22.4403 42.5806 23.8273 45.9722 27.4414C47.2493 28.8021 48.3209 29.9918 48.3534 30.0851C48.3862 30.1782 47.3324 31.3936 46.012 32.7857C42.6942 36.283 42.4733 36.8376 43.8493 38.2136C45.2537 39.618 45.8561 39.3533 49.1849 35.8688C54.9708 29.8125 54.8476 30.4277 51.0801 26.4058C46.361 21.368 45.792 20.9417 44.51 21.4826ZM12.7546 45.1348C11.7267 46.053 11.7283 47.359 12.7583 48.2794L13.4795 48.9238L33.2832 48.865L53.0872 48.8061L53.6208 48.1856C54.1929 47.5204 54.3315 46.3438 53.9266 45.5875C53.3269 44.4667 53.8501 44.4939 32.9393 44.4939H13.4717L12.7546 45.1348ZM60.4347 45.2458C59.8929 45.7876 59.6829 46.1954 59.6829 46.7053C59.6829 48.8316 62.8219 49.6522 63.7905 47.779C64.9878 45.4636 62.2691 43.4114 60.4347 45.2458ZM12.985 56.1104C11.8092 56.7488 11.673 58.5752 12.7272 59.5657L13.2789 60.0843L27.4159 60.1444C43.0704 60.2108 42.5981 60.251 43.2053 58.7979C43.6038 57.8441 43.3975 56.9835 42.612 56.3225L41.9579 55.772L27.7664 55.7809C15.803 55.7884 13.4826 55.8402 12.985 56.1104ZM52.01 56.0368C50.7891 56.6265 50.5854 58.5677 51.6405 59.5588L52.1995 60.0843L62.2421 60.146C73.4411 60.215 73.3469 60.2262 73.9676 58.7408C74.3725 57.7716 74.1817 57.0222 73.3524 56.3242L72.6963 55.772L62.5959 55.7871C55.9542 55.7968 52.3295 55.8824 52.01 56.0368ZM87.7298 74.3423C87.6628 76.9822 87.6168 77.2518 87.1533 77.7146L86.6495 78.2177H46.0945H5.53923L4.96869 77.6817C4.41274 77.1594 4.39793 77.0722 4.39793 74.3093V71.473H46.1002H87.8028L87.7298 74.3423ZM54.6831 88.0032C55.0305 90.9819 55.4721 93.7577 55.7035 94.4162L56.1112 95.5772H47.1533C40.0726 95.5772 38.2197 95.5193 38.3113 95.3008C38.8267 94.0701 39.185 92.1394 39.6646 88.006C39.9716 85.3623 40.2226 83.0983 40.2226 82.9751C40.2226 82.8287 42.6184 82.7511 47.1465 82.7511H54.0706L54.6831 88.0032Z" fill="#78B404"/>
</svg>
