<svg width="48" height="57" viewBox="0 0 48 57" fill="none" xmlns="http://www.w3.org/2000/svg">
<path d="M24 0C10.7664 0 0 11.2369 0 25.0488C0 26.5795 0 38.4202 0 38.6309C0 41.3932 2.15328 43.6406 4.8 43.6406H6.6752C7.33568 45.5842 9.11413 46.9805 11.2 46.9805C13.8467 46.9805 16 44.7331 16 41.9707V28.3887C16 25.6263 13.8467 23.3789 11.2 23.3789C9.11413 23.3789 7.33568 24.7752 6.6752 26.7188H4.8C4.23904 26.7188 3.7008 26.8206 3.2 27.006V25.0488C3.2 13.0785 12.5309 3.33984 24 3.33984C35.4691 3.33984 44.8 13.0785 44.8 25.0488V27.006C44.2992 26.8206 43.761 26.7188 43.2 26.7188H41.3248C40.6643 24.7752 38.8859 23.3789 36.8 23.3789C34.1533 23.3789 32 25.6263 32 28.3887V41.9707C32 44.7331 34.1533 46.9805 36.8 46.9805C37.2844 46.9805 37.752 46.9045 38.1932 46.7646C37.5947 48.8199 35.7623 50.3203 33.6 50.3203H28.5248C27.8643 48.3767 26.0859 46.9805 24 46.9805C21.3533 46.9805 19.2 49.2278 19.2 51.9902C19.2 54.7526 21.3533 57 24 57C26.0859 57 27.8643 55.6037 28.5248 53.6602H33.6C38.0112 53.6602 41.6 49.9145 41.6 45.3105V43.6406H43.2C45.8467 43.6406 48 41.3932 48 38.6309C48 38.4233 48 26.5783 48 25.0488C48 11.2369 37.2336 0 24 0ZM9.6 28.3887C9.6 27.4679 10.3178 26.7188 11.2 26.7188C12.0822 26.7188 12.8 27.4679 12.8 28.3887V41.9707C12.8 42.8915 12.0822 43.6406 11.2 43.6406C10.3178 43.6406 9.6 42.8915 9.6 41.9707V28.3887ZM4.8 30.0586H6.4V40.3008H4.8C3.91776 40.3008 3.2 39.5517 3.2 38.6309V31.7285C3.2 30.8077 3.91776 30.0586 4.8 30.0586ZM24 53.6602C23.1178 53.6602 22.4 52.911 22.4 51.9902C22.4 51.0694 23.1178 50.3203 24 50.3203C24.8822 50.3203 25.6 51.0694 25.6 51.9902C25.6 52.911 24.8822 53.6602 24 53.6602ZM38.4 41.9707C38.4 42.8915 37.6822 43.6406 36.8 43.6406C35.9178 43.6406 35.2 42.8915 35.2 41.9707V28.3887C35.2 27.4679 35.9178 26.7188 36.8 26.7188C37.6822 26.7188 38.4 27.4679 38.4 28.3887V41.9707ZM44.8 38.6309C44.8 39.5517 44.0822 40.3008 43.2 40.3008H41.6V30.0586H43.2C44.0822 30.0586 44.8 30.8077 44.8 31.7285V38.6309Z" fill="#1294F2"/>
</svg>
