<svg width="74" height="67" viewBox="0 0 74 67" fill="none" xmlns="http://www.w3.org/2000/svg">
<path fill-rule="evenodd" clip-rule="evenodd" d="M27.1591 1.38208C48.8539 1.38208 51.9351 1.41022 52.3009 1.59312C52.526 1.70567 52.7793 1.93078 52.8637 2.08554C52.9622 2.26844 53.0044 13.1581 53.0044 33.8821C53.0044 54.6061 52.9622 65.4957 52.8637 65.6786C52.7793 65.8334 52.526 66.0585 52.3009 66.171C51.9351 66.3539 48.854 66.3821 27.2154 66.3821C10.9091 66.3821 2.41131 66.3399 2.11586 66.2414C1.8204 66.157 1.56715 65.9459 1.44053 65.6786C1.25763 65.3128 1.22949 61.486 1.22949 33.8821C1.22949 9.07797 1.2717 2.42321 1.41239 2.12775C1.49681 1.93078 1.77819 1.67753 2.0033 1.57905C2.34096 1.42429 7.18079 1.39615 27.1591 1.38208ZM3.62127 63.8496H50.6126V3.91455H3.62127V63.8496ZM61.5163 8.7403C62.5293 8.78251 62.9373 8.85286 63.5563 9.14831C63.9784 9.35935 64.5975 9.78143 64.9351 10.091C65.2587 10.4145 65.6949 11.0055 66.2998 12.1451L66.3702 19.3907H69.3951C72.42 19.3907 72.42 19.3907 73.2641 20.0942V26.8052C73.2501 31.8702 73.2078 33.5866 73.0812 33.7555C72.9827 33.8821 72.7717 34.0509 72.6029 34.1353C72.42 34.2338 72.1245 34.3042 71.9275 34.3042C71.7306 34.3042 71.421 34.1494 70.8723 33.6007V21.7825H66.3702V35.0358C66.3702 48.0358 66.3702 48.3171 66.0888 49.1472C65.934 49.6115 65.0336 51.9189 64.0769 54.2825C63.1202 56.6743 62.2338 58.6862 62.0791 58.8269C61.9243 58.9535 61.5726 59.0661 61.3052 59.0661C60.9817 59.0661 60.7143 58.9676 60.5033 58.7565C60.3485 58.5736 59.6029 57.0119 58.8713 55.2674C58.1397 53.5228 57.2392 51.342 56.17 48.7252V12.1451L56.5076 11.5119C56.6905 11.1602 56.9719 10.6959 57.1407 10.4849C57.3096 10.2739 57.7176 9.89398 58.0693 9.65481C58.421 9.40156 59.0542 9.09204 59.4762 8.95134C60.0531 8.75437 60.5736 8.71217 61.5163 8.7403ZM58.9557 12.2576L58.5617 12.8204L58.4914 19.3907H63.9784C63.9784 13.4394 63.9503 13.0736 63.697 12.5249C63.5141 12.1591 63.1905 11.7933 62.8247 11.5401C62.3745 11.2587 62.0368 11.1461 61.3897 11.118C60.7143 11.0899 60.4048 11.1461 59.9405 11.3853C59.6169 11.5542 59.1808 11.9481 58.9557 12.2576ZM58.4914 45.9816H63.9784V21.7825H58.4914V45.9816ZM60.0109 51.4687C60.6862 53.1007 61.263 54.4373 61.3052 54.4373C61.3475 54.4373 61.8962 53.1148 62.5293 51.5109C63.1765 49.907 63.697 48.5423 63.697 48.4719C63.697 48.4156 62.5856 48.3734 61.2349 48.3734C59.8843 48.3734 58.7728 48.4016 58.7728 48.4438C58.7728 48.486 59.3215 49.8507 60.0109 51.4687ZM9.29118 10.6678H27.1029C42.7479 10.6678 44.9568 10.6959 45.2381 10.8788C45.407 10.9914 45.5899 11.3009 45.6321 11.5401C45.6884 11.8074 45.6462 12.1591 45.5336 12.3561C45.4351 12.5531 45.2663 12.7782 45.1397 12.8767C44.9708 13.0174 40.8907 13.0455 9.38966 13.0596L9.03793 12.7078C8.81283 12.4827 8.67213 12.1732 8.65806 11.8355C8.64399 11.4557 8.71434 11.2306 8.96759 10.9914L9.29118 10.6678ZM44.8301 19.3907L45.2522 19.8128C45.5336 20.0942 45.6743 20.3756 45.6743 20.657C45.6743 20.9102 45.5336 21.2479 44.999 21.8529L27.5812 21.8951C18.0001 21.9232 9.95244 21.8951 9.69919 21.8669C9.44594 21.8247 9.10828 21.6559 8.95352 21.5011C8.78469 21.3182 8.67213 21.0368 8.67213 20.6992C8.67213 20.4037 8.75655 20.0661 8.85503 19.9394C8.95352 19.8128 9.15049 19.644 9.30525 19.5596C9.51629 19.447 14.736 19.4048 44.8301 19.3907ZM44.8301 28.2544L45.2804 28.7187C45.6602 29.1126 45.7165 29.2392 45.6321 29.6613C45.5899 29.9286 45.407 30.2663 45.2241 30.407C44.9286 30.6461 44.0141 30.6602 9.30525 30.6461L8.99573 30.3226C8.75655 30.1115 8.67213 29.8442 8.65806 29.4221C8.65806 28.9438 8.71434 28.789 9.03793 28.5498C9.4178 28.2544 9.43187 28.2544 44.8301 28.2544ZM9.29118 37.118H27.1029C44.0141 37.1039 44.9286 37.118 45.2241 37.3572C45.407 37.4979 45.5899 37.8355 45.6321 38.1029C45.7165 38.5249 45.6602 38.6656 44.8583 39.5098H9.3756L9.02386 39.1581C8.79876 38.9329 8.67213 38.6234 8.64399 38.2858C8.62993 37.9059 8.71434 37.6808 8.95352 37.4416L9.29118 37.118ZM45.013 45.9113L45.3507 46.3052C45.5477 46.5303 45.6884 46.868 45.6884 47.1072C45.6884 47.3886 45.5477 47.684 44.8583 48.3734H27.2717C12.7241 48.3734 9.6007 48.3453 9.27711 48.1905C9.06607 48.078 8.84096 47.8951 8.78469 47.7684C8.72841 47.6418 8.6862 47.3464 8.6862 47.1072C8.6862 46.8821 8.72841 46.5866 8.78469 46.4459C8.84096 46.3193 9.08014 46.1364 9.31932 46.0379C9.65698 45.8972 13.2728 45.855 45.013 45.9113ZM27.1732 54.7187C40.8907 54.7187 44.9568 54.7609 45.1397 54.8875C45.2522 54.986 45.4351 55.2252 45.5336 55.4081C45.6462 55.6191 45.6743 55.9568 45.6321 56.2241C45.5899 56.4773 45.407 56.7728 45.2241 56.8853C44.9568 57.0823 42.7479 57.0964 9.31932 57.0964L8.99573 56.7868C8.77062 56.5617 8.67213 56.2944 8.67213 55.8864C8.65806 55.394 8.72841 55.2392 9.03793 55C9.43187 54.7046 9.43187 54.7046 27.1732 54.7187Z" fill="white" stroke="white"/>
</svg>
