<svg width="74" height="67" viewBox="0 0 74 67" fill="none" xmlns="http://www.w3.org/2000/svg">
<path fill-rule="evenodd" clip-rule="evenodd" d="M26.9297 1C48.6245 1 51.7056 1.02814 52.0714 1.21104C52.2965 1.32359 52.5498 1.5487 52.6342 1.70346C52.7327 1.88636 52.7749 12.776 52.7749 33.5C52.7749 54.224 52.7327 65.1136 52.6342 65.2965C52.5498 65.4513 52.2965 65.6764 52.0714 65.789C51.7056 65.9719 48.6245 66 26.9859 66C10.6797 66 2.18182 65.9578 1.88636 65.8593C1.59091 65.7749 1.33766 65.5638 1.21104 65.2965C1.02814 64.9307 1 61.1039 1 33.5C1 8.69589 1.04221 2.04113 1.1829 1.74567C1.26732 1.5487 1.5487 1.29545 1.77381 1.19697C2.11147 1.04221 6.9513 1.01407 26.9297 1ZM3.39177 63.4675H50.3831V3.53247H3.39177V63.4675ZM61.2868 8.35822C62.2998 8.40043 62.7078 8.47078 63.3268 8.76623C63.7489 8.97727 64.368 9.39935 64.7056 9.70887C65.0292 10.0325 65.4654 10.6234 66.0703 11.763L66.1407 19.0087H69.1656C72.1905 19.0087 72.1905 19.0087 73.0346 19.7121V26.4232C73.0206 31.4881 72.9784 33.2045 72.8517 33.3734C72.7532 33.5 72.5422 33.6688 72.3734 33.7532C72.1905 33.8517 71.895 33.9221 71.6981 33.9221C71.5011 33.9221 71.1916 33.7673 70.6429 33.2186V21.4004H66.1407V34.6537C66.1407 47.6537 66.1407 47.9351 65.8593 48.7651C65.7045 49.2294 64.8041 51.5368 63.8474 53.9004C62.8907 56.2922 62.0043 58.3041 61.8496 58.4448C61.6948 58.5714 61.3431 58.684 61.0758 58.684C60.7522 58.684 60.4848 58.5855 60.2738 58.3745C60.119 58.1916 59.3734 56.6299 58.6418 54.8853C57.9102 53.1407 57.0097 50.96 55.9405 48.3431V11.763L56.2781 11.1299C56.461 10.7781 56.7424 10.3139 56.9113 10.1028C57.0801 9.89177 57.4881 9.5119 57.8398 9.27273C58.1916 9.01948 58.8247 8.70996 59.2467 8.56926C59.8236 8.37229 60.3442 8.33009 61.2868 8.35822ZM58.7262 11.8755L58.3322 12.4383L58.2619 19.0087H63.7489C63.7489 13.0574 63.7208 12.6916 63.4675 12.1429C63.2846 11.7771 62.961 11.4113 62.5952 11.158C62.145 10.8766 61.8074 10.7641 61.1602 10.7359C60.4848 10.7078 60.1753 10.7641 59.711 11.0032C59.3874 11.1721 58.9513 11.566 58.7262 11.8755ZM58.2619 45.5996H63.7489V21.4004H58.2619V45.5996ZM59.7814 51.0866C60.4567 52.7186 61.0335 54.0552 61.0758 54.0552C61.118 54.0552 61.6667 52.7327 62.2998 51.1288C62.947 49.5249 63.4675 48.1602 63.4675 48.0898C63.4675 48.0336 62.3561 47.9913 61.0054 47.9913C59.6548 47.9913 58.5433 48.0195 58.5433 48.0617C58.5433 48.1039 59.092 49.4686 59.7814 51.0866ZM9.06169 10.2857H26.8734C42.5184 10.2857 44.7273 10.3139 45.0087 10.4968C45.1775 10.6093 45.3604 10.9188 45.4026 11.158C45.4589 11.4253 45.4167 11.7771 45.3041 11.974C45.2056 12.171 45.0368 12.3961 44.9102 12.4946C44.7413 12.6353 40.6613 12.6634 9.16017 12.6775L8.80844 12.3258C8.58333 12.1006 8.44264 11.7911 8.42857 11.4535C8.4145 11.0736 8.48485 10.8485 8.73809 10.6093L9.06169 10.2857ZM44.6006 19.0087L45.0227 19.4307C45.3041 19.7121 45.4448 19.9935 45.4448 20.2749C45.4448 20.5281 45.3041 20.8658 44.7695 21.4708L27.3517 21.513C17.7706 21.5411 9.72294 21.513 9.4697 21.4848C9.21645 21.4426 8.87879 21.2738 8.72403 21.119C8.55519 20.9361 8.44264 20.6548 8.44264 20.3171C8.44264 20.0216 8.52706 19.684 8.62554 19.5574C8.72403 19.4307 8.921 19.2619 9.07576 19.1775C9.2868 19.0649 14.5065 19.0227 44.6006 19.0087ZM44.6006 27.8723L45.0509 28.3366C45.4307 28.7305 45.487 28.8571 45.4026 29.2792C45.3604 29.5465 45.1775 29.8842 44.9946 30.0249C44.6991 30.2641 43.7846 30.2781 9.07576 30.2641L8.76623 29.9405C8.52706 29.7294 8.44264 29.4621 8.42857 29.04C8.42857 28.5617 8.48485 28.4069 8.80844 28.1677C9.18831 27.8723 9.20238 27.8723 44.6006 27.8723ZM9.06169 36.7359H26.8734C43.7846 36.7219 44.6991 36.7359 44.9946 36.9751C45.1775 37.1158 45.3604 37.4535 45.4026 37.7208C45.487 38.1429 45.4307 38.2835 44.6288 39.1277H9.1461L8.79437 38.776C8.56926 38.5509 8.44264 38.2413 8.4145 37.9037C8.40043 37.5238 8.48485 37.2987 8.72403 37.0595L9.06169 36.7359ZM44.7836 45.5292L45.1212 45.9232C45.3182 46.1483 45.4589 46.4859 45.4589 46.7251C45.4589 47.0065 45.3182 47.3019 44.6288 47.9913H27.0422C12.4946 47.9913 9.37121 47.9632 9.04762 47.8084C8.83658 47.6959 8.61147 47.513 8.55519 47.3864C8.49892 47.2597 8.45671 46.9643 8.45671 46.7251C8.45671 46.5 8.49892 46.2045 8.55519 46.0639C8.61147 45.9372 8.85065 45.7543 9.08983 45.6558C9.42749 45.5151 13.0433 45.4729 44.7836 45.5292ZM26.9437 54.3366C40.6613 54.3366 44.7273 54.3788 44.9102 54.5054C45.0227 54.6039 45.2056 54.8431 45.3041 55.026C45.4167 55.237 45.4448 55.5747 45.4026 55.842C45.3604 56.0952 45.1775 56.3907 44.9946 56.5032C44.7273 56.7002 42.5184 56.7143 9.08983 56.7143L8.76623 56.4048C8.54113 56.1797 8.44264 55.9123 8.44264 55.5043C8.42857 55.0119 8.49892 54.8571 8.80844 54.618C9.20238 54.3225 9.20238 54.3225 26.9437 54.3366Z" fill="#78B404" stroke="#78B404"/>
</svg>
