<svg width="66" height="65" viewBox="0 0 66 65" fill="none" xmlns="http://www.w3.org/2000/svg">
<path fill-rule="evenodd" clip-rule="evenodd" d="M7.30859 0.00414138H33.207C59.042 -0.0085556 59.1055 -0.00855558 60.0576 0.258081C60.5781 0.397748 61.3525 0.702475 61.7715 0.918324C62.2158 1.14687 62.9268 1.71823 63.4854 2.2769C64.0439 2.83557 64.6152 3.5466 64.8438 3.99099C65.0596 4.40999 65.3643 5.18451 65.5039 5.70509C65.7705 6.64466 65.7705 6.88591 65.7705 32.3688L65.2246 32.0005C64.9326 31.8101 64.2979 31.4419 63.8027 31.2006C63.3076 30.9594 62.6602 30.6674 62.3428 30.5531C62.0254 30.4388 61.5303 30.2864 60.6924 30.0833L60.6289 6.74624L60.248 6.20027C60.0322 5.89554 59.6133 5.52733 58.7246 5.07024H7.81641L7.24512 5.36227C6.92773 5.52733 6.50879 5.89554 5.91211 6.74624L5.83594 57.9532L6.14062 58.5245C6.30566 58.842 6.67383 59.261 7.52441 59.8577L30.8584 59.9212L30.998 60.4672C31.0742 60.7592 31.2266 61.2544 31.3281 61.5718C31.4424 61.8892 31.7217 62.5495 31.9756 63.032C32.2168 63.5271 32.585 64.162 33.1436 65H20.2832C7.66406 65 7.42285 65 6.4834 64.7334C5.96289 64.5937 5.18848 64.289 4.76953 64.0731C4.3252 63.8446 3.61426 63.2732 3.05566 62.7145C2.49707 62.1686 1.92578 61.4448 1.69727 61.0004C1.46875 60.5814 1.17676 59.7815 1.02441 59.2229C0.770508 58.2198 0.770508 58.0294 0.770508 32.4957C0.770508 6.96209 0.770508 6.77163 1.02441 5.76857C1.17676 5.2099 1.46875 4.40999 1.69727 3.99099C1.92578 3.5466 2.48438 2.83557 3.05566 2.2769C3.57617 1.75633 4.3252 1.15957 4.70605 0.943718C5.08691 0.740566 5.83594 0.448536 6.35645 0.283475L7.30859 0.00414138ZM40.7988 25.8679L41.4463 25.9568C41.8018 25.9949 42.4365 26.198 42.8555 26.3885C43.2744 26.5789 43.8965 26.9852 44.2266 27.3027C44.6328 27.6709 45.0137 28.2041 45.7754 29.7532L45.8389 39.9869L50.9805 39.9742L51.4121 39.0601C51.7295 38.3998 52.1104 37.8919 52.8086 37.1809C53.5068 36.4826 54.0273 36.1017 54.7256 35.7588C55.2461 35.5049 56.0713 35.2002 56.5664 35.0986C57.0488 34.997 57.7979 34.9208 58.2168 34.9081C58.6357 34.9081 59.4355 35.0224 59.9941 35.1748C60.5527 35.3145 61.3525 35.6192 61.7715 35.835C62.2158 36.0636 62.9395 36.6476 63.4854 37.1936C64.0439 37.7523 64.6152 38.4633 64.8438 38.9077C65.0596 39.3267 65.3643 40.1012 65.5039 40.6218C65.6689 41.2059 65.7705 41.955 65.7705 42.5263C65.7705 43.1104 65.6689 43.8595 65.5039 44.4309C65.3643 44.9642 65.0596 45.726 64.8438 46.145C64.6152 46.5894 64.0439 47.3131 63.4854 47.8718C62.9395 48.4177 62.2158 48.9891 61.7715 49.2303C61.3525 49.4462 60.5527 49.7509 59.9941 49.8906C59.4355 50.0303 58.6357 50.1445 58.2168 50.1445C57.7979 50.1445 57.0488 50.0556 56.5664 49.9541C56.0713 49.8525 55.2461 49.5605 54.7256 49.3065C54.0273 48.9637 53.5068 48.5828 52.8086 47.8718C52.1104 47.1734 51.7295 46.6656 50.9805 45.0784L45.8389 45.0657L45.8516 50.208L46.7656 50.6397C47.4385 50.9698 47.9336 51.338 48.6445 52.0364C49.3428 52.7474 49.7363 53.268 50.0791 53.9536C50.333 54.4869 50.625 55.3122 50.7266 55.7947C50.8281 56.2899 50.917 57.0263 50.917 57.4453C50.917 57.8643 50.8027 58.6642 50.6631 59.2229C50.5107 59.7815 50.2188 60.5814 49.9902 61.0004C49.7617 61.4448 49.1904 62.1686 48.6318 62.7272C48.0732 63.2859 47.3623 63.8446 46.918 64.0731C46.499 64.3017 45.7246 64.5937 45.2041 64.7461C44.6328 64.8984 43.8711 65 43.2998 65C42.7285 65 41.9668 64.8984 41.3955 64.7461C40.875 64.5937 40.1006 64.3017 39.6816 64.0731C39.2373 63.8446 38.5264 63.2859 37.9678 62.7272C37.4092 62.1686 36.8379 61.4448 36.6094 61.0004C36.3809 60.5814 36.0889 59.7815 35.9365 59.2229C35.7969 58.6642 35.6826 57.8643 35.6826 57.4453C35.6826 57.0263 35.7715 56.2899 35.873 55.7947C35.9746 55.3122 36.2666 54.4869 36.5205 53.9536C36.8633 53.268 37.2568 52.7474 37.9551 52.0364C38.666 51.338 39.1611 50.9698 40.748 50.208L40.7607 45.0657L30.5283 45.0022L29.5762 44.5452C28.9668 44.2404 28.4336 43.8595 28.0654 43.4659C27.7607 43.1231 27.3545 42.5009 27.1514 42.0819C26.9609 41.6629 26.7578 41.0281 26.6055 39.9869H40.7607L40.7988 25.8679ZM56.0586 41.1297C55.7666 41.5487 55.665 41.8407 55.6396 42.3867C55.6016 42.958 55.6523 43.2247 55.9062 43.6818C56.0713 43.9992 56.4521 44.4182 56.7441 44.634C57.1631 44.9261 57.4551 45.0276 58.0137 45.053C58.5723 45.0911 58.8389 45.0276 59.2959 44.7864C59.6133 44.6213 60.0449 44.2404 60.248 43.9484C60.54 43.5294 60.6416 43.2374 60.667 42.6787C60.7051 42.12 60.6543 41.8534 60.4131 41.3963C60.2354 41.0789 59.8545 40.6472 59.5625 40.444C59.1436 40.152 58.8516 40.0504 58.3057 40.025C57.7344 39.9869 57.4678 40.0377 57.0107 40.2917C56.6934 40.4567 56.2744 40.8376 56.0586 41.1297V41.1297ZM41.2051 55.9851C40.9131 56.4041 40.8115 56.6962 40.7861 57.2421C40.748 57.8135 40.7988 58.0801 41.0527 58.5372C41.2178 58.8547 41.5986 59.2737 41.8906 59.4895C42.3096 59.7815 42.6016 59.8831 43.1602 59.9085C43.7187 59.9466 43.9854 59.8831 44.4424 59.6419C44.7598 59.4768 45.1914 59.0959 45.3945 58.8039C45.6865 58.3849 45.7881 58.0928 45.8135 57.5342C45.8516 56.9755 45.8008 56.7089 45.5596 56.2518C45.3818 55.9344 45.001 55.5027 44.709 55.2995C44.29 55.0075 43.998 54.9059 43.4521 54.8805C42.8809 54.8424 42.6143 54.8932 42.1572 55.1471C41.8398 55.3122 41.4209 55.6931 41.2051 55.9851V55.9851ZM10.6729 10.0348H15.751V15.1136H10.6729V10.0348ZM20.7021 10.0348H25.7803V15.1136H20.7021V10.0348ZM30.7314 10.0348H35.8096V15.1136H30.7314V10.0348ZM40.7607 10.0348H45.8389V15.1136H40.7607V10.0348ZM50.79 10.0348H55.8682V15.1136H50.79V10.0348ZM10.7998 49.9033H15.8779V54.9821H10.7998V49.9033ZM20.5752 49.9033H25.6533V54.9821H20.5752V49.9033Z" fill="#FAB100"/>
</svg>
