<svg width="66" height="67" viewBox="0 0 66 67" fill="none" xmlns="http://www.w3.org/2000/svg">
<path fill-rule="evenodd" clip-rule="evenodd" d="M6.97617 0.179904C7.40227 0.179904 7.72507 0.270288 8.07369 0.489792C8.33193 0.657647 9.61021 1.87137 10.9014 3.16257C12.9286 5.21558 13.2643 5.61585 13.3934 6.11941C13.5096 6.57133 13.5096 6.81666 13.3934 7.21693C13.303 7.501 13.0448 7.91418 12.8253 8.13368C12.6058 8.35319 12.1668 8.61143 11.844 8.70181C11.3921 8.83093 11.1597 8.84384 10.7852 8.72763C10.5141 8.63725 10.075 8.3661 9.81681 8.12077C9.54565 7.87544 9.2745 7.7205 9.22285 7.77215C9.17121 7.8238 9.11956 16.3715 9.11956 26.7786C9.11956 37.1856 9.17121 45.7334 9.22285 45.785C9.28741 45.8367 9.57148 45.6559 9.88137 45.3718C10.1783 45.0878 10.6044 44.8166 10.8498 44.7779C11.0693 44.7391 11.4954 44.7391 11.7794 44.7908C12.141 44.8554 12.4508 45.0361 12.8253 45.4106C13.161 45.7592 13.3805 46.1207 13.4322 46.4435C13.4838 46.7018 13.458 47.1666 13.3805 47.4765C13.2643 47.9284 12.8769 48.3932 10.8369 50.4591C9.33906 51.9698 8.22863 52.977 7.90583 53.1319C7.62177 53.261 7.23441 53.3773 7.04073 53.3773C6.83414 53.3773 6.45969 53.2869 6.20145 53.1707C5.89156 53.0415 4.84569 52.1119 3.41246 50.6916C1.79847 49.0905 1.02375 48.2125 0.791333 47.7605C0.623477 47.4119 0.481445 46.9858 0.481445 46.8309C0.481445 46.663 0.597653 46.3015 0.739685 46.0174C0.881717 45.7334 1.1916 45.3589 1.42402 45.1781C1.64352 45.0103 2.09544 44.8295 2.41824 44.7779C2.8056 44.7262 3.15422 44.765 3.4512 44.8812C3.69653 44.9845 4.12262 45.2556 4.87152 45.8883V26.7786C4.87152 16.2682 4.83278 7.66885 4.78113 7.66885C4.71657 7.68176 4.43251 7.91418 4.13554 8.18533C3.73526 8.55978 3.42538 8.72763 3.03802 8.77928C2.63775 8.84384 2.32786 8.79219 1.90176 8.61143C1.57896 8.46939 1.25616 8.27571 1.17869 8.17242C1.08831 8.06912 0.907541 7.77215 0.752597 7.51391C0.597653 7.24276 0.481445 6.89413 0.481445 6.73919C0.481445 6.57133 0.571829 6.2098 0.688037 5.92573C0.830069 5.57711 1.60479 4.68618 3.03802 3.22713C4.22592 2.03923 5.45256 0.864239 5.77536 0.618911C6.24019 0.270288 6.4726 0.179904 6.97617 0.179904V0.179904ZM19.2555 0.179904L63.6856 0.166992L64.2408 0.567264C64.5378 0.773855 64.8735 1.13539 64.9768 1.34198C65.1446 1.67769 65.1705 4.53124 65.1705 24.5835C65.1705 47.2053 65.1705 47.4377 64.9122 47.9284C64.7702 48.1866 64.4345 48.5353 63.6856 48.9743L41.3866 48.9484C19.1134 48.9226 19.0876 48.9226 18.7261 48.6515C18.5324 48.5094 18.2354 48.135 17.7835 47.2441V24.6223C17.7835 6.09359 17.8093 1.91011 17.9514 1.5744C18.0546 1.34198 18.3774 0.928799 18.6873 0.670559L19.2555 0.179904ZM22.1736 44.7133L29.2752 44.7262C29.2881 38.3477 29.3139 37.8829 29.5205 37.431C29.6496 37.1469 29.9208 36.7725 30.1273 36.6046C30.3339 36.4497 30.7084 36.256 30.9537 36.1785C31.2765 36.0881 31.5735 36.0881 31.9221 36.1785C32.2062 36.256 32.6064 36.4367 32.8001 36.5788C32.9938 36.7208 33.252 37.0307 33.3812 37.2631C33.5748 37.6246 33.6136 38.1411 33.6394 41.2013L33.6652 44.7262H60.9095V21.7429C54.4277 21.73 53.9499 21.7042 53.5626 21.5105C53.3173 21.3814 52.9428 21.0586 52.7233 20.7874C52.3876 20.3742 52.323 20.1806 52.336 19.6253C52.336 19.2638 52.4392 18.7732 52.5555 18.5407C52.6846 18.3083 52.9686 17.9855 53.2011 17.8306C53.6013 17.5465 53.7175 17.5336 57.2683 17.5078L60.9095 17.482V4.44086H33.6652V17.482C45.2085 17.5336 45.2214 17.5465 45.6475 17.8306C45.88 17.9855 46.164 18.3083 46.2802 18.5407C46.4094 18.7732 46.4997 19.2638 46.5126 19.6253C46.5126 20.1806 46.4481 20.3742 46.1253 20.7874C45.9058 21.0586 45.5184 21.3814 45.286 21.5105C44.8857 21.7171 44.3176 21.73 39.2561 21.73L33.6652 21.7429C33.6136 28.3151 33.5748 28.8316 33.3812 29.1931C33.252 29.4255 32.9938 29.7354 32.8001 29.8775C32.6064 30.0195 32.2062 30.2003 31.9221 30.2777C31.5735 30.3681 31.2765 30.3681 30.9537 30.2777C30.7084 30.2003 30.3339 30.0066 30.1273 29.8516C29.9208 29.6838 29.6496 29.3222 29.5205 29.0382C29.301 28.5475 29.2881 27.7857 29.2881 16.4748L29.2752 4.44086H22.1736V44.7133ZM15.6272 53.3643C15.8854 53.3643 16.3244 53.4547 16.5827 53.5838C16.8409 53.713 17.1895 53.9841 17.3574 54.2036C17.5253 54.4102 17.6931 54.7847 17.7318 55.0429C17.7835 55.2882 17.7835 55.6885 17.7448 55.9467C17.706 56.205 17.4478 56.6569 16.6214 57.6253H57.8752L57.3329 57.0443C57.023 56.7215 56.7389 56.2954 56.7002 56.1017C56.6486 55.908 56.6485 55.4819 56.6873 55.172C56.7389 54.8492 56.881 54.436 57.0101 54.2682C57.1521 54.0874 57.3974 53.8292 57.5782 53.7001C57.7461 53.5709 58.1722 53.4289 58.5208 53.3902C59.0244 53.3385 59.2955 53.3902 59.6829 53.5838C59.9669 53.7388 61.2581 54.9138 62.5493 56.2179C63.8405 57.522 64.9639 58.7486 65.0413 58.9423C65.1188 59.136 65.1705 59.5363 65.1705 59.8203C65.1705 60.1044 65.1188 60.4918 65.0413 60.6854C64.9639 60.8791 63.9051 62.0541 62.6784 63.2807C61.4647 64.5074 60.2123 65.6824 59.9153 65.889C59.4892 66.1859 59.218 66.2634 58.7532 66.2634C58.3013 66.2634 58.0043 66.173 57.6169 65.9019C57.3329 65.7082 56.9972 65.3467 56.881 65.1013C56.7518 64.856 56.6486 64.4041 56.6486 64.1071C56.6486 63.8101 56.7131 63.4228 56.8035 63.2678C56.881 63.1129 57.1521 62.7643 57.8752 62.0025H16.5569L17.0346 62.4931C17.3058 62.7643 17.5769 63.1387 17.6544 63.3324C17.7318 63.5261 17.7835 63.8876 17.7835 64.1458C17.7835 64.3912 17.6673 64.8302 17.5253 65.1142C17.3832 65.4112 17.0475 65.7598 16.7505 65.9535C16.4019 66.173 16.0533 66.2763 15.653 66.2763C15.3431 66.2763 14.917 66.173 14.7234 66.0568C14.5297 65.9406 13.303 64.7914 11.9989 63.5002C10.6948 62.222 9.54565 60.9953 9.42945 60.7887C9.32615 60.5692 9.23577 60.1302 9.23577 59.8203C9.23577 59.4975 9.32615 59.0585 9.42945 58.8519C9.54565 58.6324 10.7336 57.3671 12.0635 56.0371C13.4063 54.7201 14.6459 53.5709 14.8137 53.5064C14.9945 53.4289 15.356 53.3643 15.6272 53.3643V53.3643Z" fill="white"/>
</svg>
