<svg width="75" height="67" viewBox="0 0 75 67" fill="none" xmlns="http://www.w3.org/2000/svg">
<path fill-rule="evenodd" clip-rule="evenodd" d="M55.4477 1.29808C54.0864 1.9199 53.4779 2.98071 53.3901 4.88528C53.309 6.64308 53.1147 6.7782 51.7569 6.02068C49.3603 4.68361 47.5914 5.13553 46.2407 7.43021L45.6512 8.43179L38.7143 8.50366L31.7772 8.57553L31.4305 8.97887C30.842 9.66308 31.0753 10.8445 31.8702 11.2067C32.1427 11.3309 33.8717 11.3785 38.1145 11.3785H43.9817L43.8762 11.9555C43.5798 13.5764 44.3682 14.9359 46.1746 15.9191C47.3889 16.5802 47.2906 17.0493 45.7452 17.9686C43.3153 19.4139 43.225 20.9608 45.3547 24.6577C47.5536 28.475 48.8312 29.1367 51.382 27.7799C53.0734 26.8801 53.3635 26.9836 53.3635 28.4862C53.3635 31.0675 54.8225 32.6521 57.1988 32.6521H57.8195V38.6174V44.5826H30.7243H3.62916V28.4742C3.62916 16.5031 3.67214 12.2851 3.79633 12.0518C4.15712 11.3745 3.98837 11.3878 12.232 11.3831L20.0444 11.3785L20.5331 10.8898C21.0727 10.3502 21.1507 9.88875 20.8129 9.23545C20.4292 8.49317 20.4046 8.4913 11.7455 8.535L3.70103 8.57553L2.91046 9.02142C2.47564 9.26678 1.91016 9.73998 1.65402 10.0732C0.699003 11.3148 0.746438 10.1128 0.788266 32.0131L0.826214 51.8415L1.27167 52.6321C2.47966 54.7756 2.55628 54.7882 14.3449 54.7882C19.6774 54.7882 24.0401 54.8367 24.0396 54.896C24.0373 55.2409 23.3014 61.0902 23.2304 61.3284C22.8768 62.513 21.778 63.1176 19.9702 63.122C17.773 63.1275 16.7771 64.3648 17.9922 65.5798L18.4123 66H31.4239H44.4355L44.8118 65.6763C46.1435 64.5308 45.1823 63.2344 42.9196 63.1243C40.9989 63.031 40.2941 62.6928 39.7278 61.5928C39.6017 61.3478 38.8513 55.7099 38.8468 54.9729C38.846 54.8379 40.9661 54.7888 48.1529 54.7573L57.4601 54.7163L58.2114 54.3767C58.6247 54.1898 59.228 53.7493 59.552 53.3977C60.6832 52.1704 60.6175 52.833 60.6632 42.1942L60.7039 32.6905L61.5004 32.5969C63.5576 32.3552 64.719 30.9988 64.719 28.8381C64.719 26.9867 64.9592 26.8607 66.7659 27.7649C69.4119 29.0892 70.569 28.5045 72.7379 24.7464C75.0467 20.7459 74.8996 19.3746 71.9827 17.7058C70.927 17.1018 70.8724 16.6072 71.7983 16.0364C73.1404 15.2087 73.3711 15.0199 73.7738 14.4183C74.7189 13.0069 74.5564 12.0375 72.8848 9.11629C70.5973 5.11857 69.3276 4.4588 66.6753 5.88931C64.9826 6.80235 64.7199 6.65976 64.7176 4.82692C64.7154 3.02599 64.1038 1.96216 62.7066 1.3287C61.7774 0.907392 56.3532 0.884538 55.4477 1.29808ZM61.8554 5.34137C62.0671 8.81989 64.5727 10.2395 67.6273 8.6119C68.9812 7.89047 68.7793 7.75449 70.3274 10.4305C71.7104 12.8215 71.7017 12.671 70.5046 13.4456C67.4472 15.4238 67.4957 18.5361 70.6105 20.2313C71.6639 20.8047 71.656 20.8717 70.2486 23.3087C68.8358 25.7547 68.9811 25.6736 67.4156 24.8901C64.4208 23.3912 61.8442 25.0518 61.8442 28.4811C61.8442 29.8033 61.8994 29.7773 59.0946 29.7773C56.1685 29.7773 56.2383 29.8163 56.2383 28.1812C56.2383 24.9698 53.5531 23.4067 50.6386 24.9219C49.1854 25.6774 49.3127 25.7563 47.8188 23.1724C46.4589 20.8201 46.4602 20.8478 47.6699 20.1557C50.5748 18.4938 50.6212 15.2258 47.7642 13.5286C46.4734 12.7617 46.4728 12.7752 47.8982 10.297C49.3018 7.8564 49.209 7.9149 50.5325 8.64137C53.471 10.254 56.2383 8.69441 56.2383 5.4256C56.2383 3.82332 56.1056 3.89045 59.181 3.93673L61.7723 3.97583L61.8554 5.34137ZM25.3498 8.70433C23.789 9.56936 25.0586 11.9319 26.673 11.1659C27.1666 10.9316 27.4901 10.4468 27.4901 9.94107C27.4901 8.87538 26.2911 8.18255 25.3498 8.70433ZM57.532 11.0339C53.9142 12.0019 52.0534 16.1334 53.7379 19.4579C55.9786 23.8793 62.374 23.798 64.4689 19.3213C66.5921 14.7843 62.3694 9.73969 57.532 11.0339ZM60.5893 14.1397C62.5587 15.2286 62.6435 18.1083 60.7442 19.3989C59.5661 20.1994 57.7016 19.9358 56.7599 18.8356C54.5028 16.1988 57.5514 12.4604 60.5893 14.1397ZM13.4468 15.0069C12.9635 15.2865 8.78773 19.7389 8.63709 20.1353C8.20429 21.2736 13.062 26.5045 14.331 26.2664C16.1293 25.9291 15.8999 24.6698 13.6104 22.312L11.9397 20.5915L13.6038 18.875C14.519 17.9309 15.3354 16.9805 15.4181 16.7632C15.8456 15.6387 14.4714 14.4143 13.4468 15.0069ZM24.1841 15.0302C23.8663 15.2113 22.3234 17.6151 18.9735 23.1486C17.8466 25.01 18.0947 26.3275 19.5722 26.3275C20.4813 26.3275 26.2619 17.6112 26.2619 16.2402C26.2619 15.2319 25.0595 14.5316 24.1841 15.0302ZM29.702 14.9637C28.2267 15.5862 28.4479 16.4877 30.6524 18.8369C31.4825 19.7213 32.1791 20.4947 32.2002 20.5553C32.2215 20.6158 31.5366 21.4058 30.6783 22.3107C28.5218 24.5839 28.3782 24.9445 29.2725 25.8388C30.1854 26.7517 30.577 26.5796 32.7407 24.3147C36.5015 20.3781 36.4215 20.778 33.9726 18.1638C30.9051 14.8892 30.5353 14.6121 29.702 14.9637ZM9.06098 30.3376C8.39288 30.9344 8.39388 31.7834 9.06343 32.3816L9.53217 32.8005L22.4046 32.7622L35.2772 32.724L35.624 32.3207C35.9959 31.8883 36.086 31.1234 35.8228 30.6318C35.433 29.9034 35.7731 29.921 22.1811 29.921H9.52713L9.06098 30.3376ZM40.0531 30.4098C39.7009 30.7619 39.5644 31.027 39.5644 31.3585C39.5644 32.7405 41.6048 33.2739 42.2344 32.0563C43.0126 30.5514 41.2454 29.2174 40.0531 30.4098ZM9.21076 37.4718C8.44649 37.8867 8.35795 39.0739 9.04316 39.7177L9.40179 40.0548L18.5909 40.0939C28.7663 40.137 28.4592 40.1632 28.854 39.2186C29.113 38.5987 28.9789 38.0392 28.4683 37.6096L28.0431 37.2518L18.8187 37.2576C11.0425 37.2625 9.53418 37.2961 9.21076 37.4718ZM34.577 37.4239C33.7834 37.8072 33.651 39.069 34.3368 39.7132L34.7002 40.0548L41.2279 40.0949C48.5072 40.1397 48.446 40.1471 48.8495 39.1815C49.1126 38.5515 48.9886 38.0644 48.4496 37.6108L48.0231 37.2518L41.4579 37.2616C37.1408 37.2679 34.7847 37.3236 34.577 37.4239ZM57.7949 49.3225C57.7513 51.0384 57.7214 51.2137 57.4201 51.5145L57.0927 51.8415H30.7319H4.37101L4.00016 51.4931C3.63879 51.1536 3.62916 51.0969 3.62916 49.301V47.4574H30.7357H57.8423L57.7949 49.3225ZM36.3145 58.2021C36.5404 60.1382 36.8274 61.9425 36.9778 62.3705L37.2428 63.1252H31.4202C26.8177 63.1252 25.6133 63.0875 25.6728 62.9455C26.0079 62.1456 26.2407 60.8906 26.5525 58.2039C26.752 56.4855 26.9152 55.0139 26.9152 54.9338C26.9152 54.8387 28.4725 54.7882 31.4157 54.7882H35.9164L36.3145 58.2021Z" fill="white" stroke="white"/>
</svg>
