<svg width="41" height="30" viewBox="0 0 41 30" fill="none" xmlns="http://www.w3.org/2000/svg">
<path d="M16.4 21.4286L27.0395 15L16.4 8.57143V21.4286ZM40.098 4.65C40.3645 5.65714 40.549 7.00714 40.672 8.72143C40.8155 10.4357 40.877 11.9143 40.877 13.2L41 15C41 19.6929 40.672 23.1429 40.098 25.35C39.5855 27.2786 38.3965 28.5214 36.5515 29.0571C35.588 29.3357 33.825 29.5286 31.119 29.6571C28.454 29.8071 26.0145 29.8714 23.7595 29.8714L20.5 30C11.9105 30 6.56 29.6571 4.4485 29.0571C2.6035 28.5214 1.4145 27.2786 0.902 25.35C0.6355 24.3429 0.451 22.9929 0.328 21.2786C0.1845 19.5643 0.123 18.0857 0.123 16.8L0 15C0 10.3071 0.328 6.85714 0.902 4.65C1.4145 2.72143 2.6035 1.47857 4.4485 0.942857C5.412 0.664286 7.175 0.471428 9.881 0.342857C12.546 0.192857 14.9855 0.128571 17.2405 0.128571L20.5 0C29.0895 0 34.44 0.342857 36.5515 0.942857C38.3965 1.47857 39.5855 2.72143 40.098 4.65Z" fill="white"/>
</svg>
