<svg width="60" height="65" viewBox="0 0 60 65" fill="none" xmlns="http://www.w3.org/2000/svg">
<path d="M18.157 9.07851C21.0256 6.82231 24.7967 3.85702 26.5372 2.49256C28.2777 1.11736 29.7174 0 29.7281 0C29.7496 0 31.4793 1.35372 33.5744 3.00826C35.6694 4.66281 39.1182 7.38099 41.224 9.04628C43.3405 10.7116 46.4992 13.1934 48.2397 14.5793C49.9802 15.9545 53.1711 18.4686 59.2521 23.2711V32.919L58.7686 33.0157C58.5 33.0694 57.4149 33.295 56.3512 33.5314C55.2876 33.7678 53.0314 34.3157 51.3231 34.7562C49.6256 35.1967 46.9719 35.9273 45.4141 36.3678C43.8669 36.819 41.6537 37.4744 40.5041 37.8289C39.3545 38.1835 37.3669 38.8174 36.0992 39.2364C34.8314 39.6554 33.0157 40.2785 32.0702 40.6116C31.1248 40.9554 29.7926 41.4496 29.1157 41.7289C28.4388 41.9975 27.8587 42.2017 27.8264 42.1694C27.7942 42.1479 28.0628 41.7719 28.4174 41.3421C28.7719 40.9124 29.5455 39.9992 30.1364 39.3223C30.738 38.6455 32.0488 37.2165 33.0587 36.1529C34.0579 35.0893 35.7017 33.4455 36.7008 32.5C37.7 31.5438 39.0752 30.2653 39.7521 29.6421C40.4289 29.0298 41.4926 28.0843 42.1157 27.5578C42.7388 27.0207 43.8562 26.0967 44.6083 25.4843C45.543 24.743 45.9835 24.324 45.9835 24.1736C45.9835 24.0554 44.8339 22.5835 43.2975 20.7355C40.9661 17.9421 40.5686 17.5124 40.3215 17.5124C40.1496 17.5124 39.3438 17.7058 38.5165 17.9314C37.6893 18.1678 35.9917 18.6727 34.7562 19.0702C33.5207 19.4678 31.1463 20.2736 29.4917 20.8645C27.8372 21.4554 25.3231 22.3901 23.905 22.938C22.4868 23.486 20.3058 24.3455 19.0702 24.8504C17.824 25.3554 15.7719 26.2041 14.5041 26.7521C13.2364 27.3 10.9802 28.2992 9.50826 28.976C8.03636 29.6636 6.00579 30.6306 4.99587 31.1248C3.98595 31.6298 2.64298 32.3281 1.9876 32.6826C1.33223 33.0372 0.644628 33.424 0.107438 33.7355L0.118182 23.2603L2.65372 21.2727L2.9908 21.0083C4.47796 19.8415 7.09941 17.7847 9.06777 16.2339C11.2058 14.5471 15.2884 11.3347 18.157 9.07851Z" fill="#78B404"/>
<path d="M24.0124 31.8554C25.1942 31.3934 26.6231 30.8562 27.1818 30.6628C27.7405 30.4694 28.2777 30.3083 28.3636 30.2975C28.4496 30.2975 28.0306 30.6843 27.4504 31.1463C26.8595 31.619 26.0107 32.3174 25.5702 32.7149C25.1298 33.1124 23.7545 34.4339 22.5298 35.6587C21.2942 36.8727 19.5967 38.624 18.7587 39.5372C17.9099 40.4504 16.6099 41.9331 15.8471 42.814C15.0843 43.7058 13.8702 45.1777 13.1397 46.0909C12.4091 47.0041 11.3562 48.3901 10.7975 49.1529C10.2388 49.9264 9.77686 50.6248 9.77686 50.7107C9.77686 50.7967 11.0554 52.3975 12.6132 54.2562C14.6223 56.6413 15.5355 57.6512 15.7074 57.6727C15.8471 57.6942 16.4595 57.4579 17.0826 57.1463C17.7058 56.8455 18.8661 56.3083 19.6612 55.9537C20.4562 55.5992 22.1322 54.9008 23.3678 54.3959C24.6033 53.9016 26.924 53.0207 28.5248 52.4405C30.1256 51.8603 33.1876 50.7967 35.3471 50.0876C37.5066 49.3678 40.2141 48.4975 41.3636 48.143C42.5132 47.7992 44.0388 47.3372 44.7479 47.1331C45.457 46.9182 47.0793 46.4562 48.3471 46.1017C49.6149 45.7471 51.7207 45.1884 53.0207 44.8661C54.3207 44.5438 56.1686 44.1033 57.1248 43.8884C58.0917 43.6843 58.9727 43.5124 59.0909 43.5124C59.3058 43.5124 59.3058 43.5876 59.3058 65H0L0.053719 42.5992L2.41736 41.3959C3.71736 40.7297 5.67273 39.7736 6.7686 39.2579C7.86446 38.7529 10.1099 37.7215 11.7645 36.9909C13.419 36.2496 16.3736 34.9818 18.3182 34.1653C20.2628 33.3595 22.8306 32.3174 24.0124 31.8554Z" fill="#78B404"/>
</svg>
