<svg width="60" height="66" viewBox="0 0 60 66" fill="none" xmlns="http://www.w3.org/2000/svg">
<path d="M18.3865 9.46059C21.2551 7.20439 25.0262 4.2391 26.7667 2.87464C28.5072 1.49944 29.9468 0.38208 29.9576 0.38208C29.9791 0.38208 31.7088 1.7358 33.8039 3.39034C35.8989 5.04489 39.3477 7.76307 41.4535 9.42836C43.57 11.0936 46.7287 13.5755 48.4692 14.9614C50.2097 16.3366 53.4006 18.8507 59.4816 23.6532V33.3011L58.9981 33.3978C58.7295 33.4515 57.6444 33.6771 56.5807 33.9135C55.5171 34.1498 53.2609 34.6978 51.5526 35.1383C49.8551 35.5788 47.2014 36.3094 45.6435 36.7498C44.0964 37.2011 41.8832 37.8565 40.7336 38.211C39.584 38.5656 37.5964 39.1994 36.3287 39.6184C35.0609 40.0375 33.2452 40.6606 32.2997 40.9936C31.3543 41.3375 30.0221 41.8317 29.3452 42.111C28.6683 42.3796 28.0882 42.5837 28.0559 42.5515C28.0237 42.53 28.2923 42.154 28.6468 41.7242C29.0014 41.2945 29.7749 40.3813 30.3659 39.7044C30.9675 39.0275 32.2783 37.5986 33.2882 36.535C34.2873 35.4713 35.9311 33.8275 36.9303 32.8821C37.9295 31.9259 39.3047 30.6474 39.9816 30.0242C40.6584 29.4118 41.7221 28.4664 42.3452 27.9399C42.9683 27.4027 44.0857 26.4788 44.8378 25.8664C45.7725 25.1251 46.213 24.706 46.213 24.5556C46.213 24.4375 45.0634 22.9656 43.527 21.1176C41.1956 18.3242 40.7981 17.8945 40.551 17.8945C40.3791 17.8945 39.5733 18.0879 38.746 18.3135C37.9188 18.5498 36.2212 19.0548 34.9857 19.4523C33.7502 19.8498 31.3758 20.6556 29.7212 21.2465C28.0667 21.8375 25.5526 22.7722 24.1345 23.3201C22.7163 23.868 20.5353 24.7275 19.2997 25.2325C18.0535 25.7375 16.0014 26.5862 14.7336 27.1341C13.4659 27.6821 11.2097 28.6813 9.73776 29.3581C8.26586 30.0457 6.23528 31.0127 5.22536 31.5069C4.21544 32.0118 2.87247 32.7102 2.2171 33.0647C1.56172 33.4193 0.87412 33.806 0.33693 34.1176L0.347674 23.6424L2.88321 21.6548L3.22029 21.3903C4.70745 20.2235 7.3289 18.1668 9.29726 16.616C11.4353 14.9292 15.5179 11.7168 18.3865 9.46059Z" fill="white"/>
<path d="M24.2419 32.2375C25.4237 31.7755 26.8526 31.2383 27.4113 31.0449C27.97 30.8515 28.5072 30.6903 28.5931 30.6796C28.6791 30.6796 28.2601 31.0664 27.6799 31.5284C27.089 32.0011 26.2402 32.6994 25.7997 33.097C25.3592 33.4945 23.984 34.816 22.7592 36.0408C21.5237 37.2548 19.8262 39.006 18.9882 39.9193C18.1394 40.8325 16.8394 42.3151 16.0766 43.1961C15.3138 44.0879 14.0997 45.5598 13.3692 46.473C12.6386 47.3862 11.5857 48.7722 11.027 49.535C10.4683 50.3085 10.0064 51.0069 10.0064 51.0928C10.0064 51.1788 11.2849 52.7796 12.8427 54.6383C14.8518 57.0234 15.765 58.0333 15.9369 58.0548C16.0766 58.0763 16.689 57.8399 17.3121 57.5284C17.9353 57.2275 19.0956 56.6903 19.8906 56.3358C20.6857 55.9813 22.3617 55.2829 23.5973 54.7779C24.8328 54.2837 27.1535 53.4027 28.7543 52.8226C30.3551 52.2424 33.4171 51.1788 35.5766 50.4697C37.7361 49.7498 40.4435 48.8796 41.5931 48.5251C42.7427 48.1813 44.2683 47.7193 44.9774 47.5151C45.6865 47.3003 47.3088 46.8383 48.5766 46.4837C49.8444 46.1292 51.9502 45.5705 53.2502 45.2482C54.5502 44.9259 56.3981 44.4854 57.3543 44.2705C58.3212 44.0664 59.2022 43.8945 59.3204 43.8945C59.5353 43.8945 59.5353 43.9697 59.5353 65.3821H0.229492L0.283211 42.9813L2.64685 41.7779C3.94685 41.1118 5.90222 40.1556 6.99809 39.6399C8.09396 39.135 10.3394 38.1036 11.994 37.373C13.6485 36.6317 16.603 35.3639 18.5477 34.5474C20.4923 33.7416 23.0601 32.6994 24.2419 32.2375Z" fill="white"/>
</svg>
