<svg width="1920" height="1152" viewBox="0 0 1920 1152" fill="none" xmlns="http://www.w3.org/2000/svg">
<path d="M-0.499969 293L319.496 937.25L-320.496 937.25L-0.499969 293Z" fill="#78B404"/>
<path d="M775.435 306.371C776.611 311.544 779.793 316.037 784.282 318.863C788.771 321.688 794.199 322.615 799.371 321.439C804.544 320.263 809.037 317.08 811.863 312.591C814.688 308.102 815.615 302.675 814.439 297.502L794.937 301.937L775.435 306.371Z" fill="#EE451C"/>
<path d="M539.9 213.119C541.043 208.729 540 203.962 537.002 199.867C534.004 195.772 529.296 192.684 523.913 191.283C518.531 189.882 512.914 190.282 508.3 192.396C503.686 194.509 500.452 198.163 499.309 202.553L519.604 207.836L539.9 213.119Z" fill="#009FEF"/>
<path d="M957.512 464.939C954.692 460.447 950.202 457.258 945.032 456.076C939.861 454.893 934.432 455.813 929.939 458.633C925.447 461.453 922.258 465.942 921.076 471.113C919.893 476.284 920.813 481.713 923.633 486.205L940.572 475.572L957.512 464.939Z" fill="#009FEF"/>
<circle cx="1538.5" cy="69.5" r="586.5" fill="#009FEF"/>
</svg>
